<?xml version="1.0" encoding="UTF-8"?>
<!DOCTYPE svg PUBLIC "-//W3C//DTD SVG 1.1//EN" "http://www.w3.org/Graphics/SVG/1.1/DTD/svg11.dtd">
<svg xmlns="http://www.w3.org/2000/svg" version="1.1" width="1000px" height="1000px" style="shape-rendering:geometricPrecision; text-rendering:geometricPrecision; image-rendering:optimizeQuality; fill-rule:evenodd; clip-rule:evenodd" xmlns:xlink="http://www.w3.org/1999/xlink">
<g><path style="opacity:1" fill="#808080" d="M 467.5,473.5 C 432.079,426.314 422.745,374.314 439.5,317.5C 456.241,275.227 483.574,241.394 521.5,216C 587.59,174.643 659.59,157.976 737.5,166C 802.633,172.133 859.966,196.133 909.5,238C 944.327,269.148 964.827,307.982 971,354.5C 974.242,405.651 958.575,449.984 924,487.5C 880.291,531.943 827.458,559.443 765.5,570C 752.92,572.321 740.253,573.988 727.5,575C 701.397,603.772 674.563,631.939 647,659.5C 644.494,637.908 642.494,616.241 641,594.5C 639.929,586.073 638.429,577.739 636.5,569.5C 574.899,559.121 522.399,531.787 479,487.5C 474.925,482.935 471.091,478.268 467.5,473.5 Z"/></g>
<g><path style="opacity:1" fill="#c5c6d0" d="M 439.5,317.5 C 422.745,374.314 432.079,426.314 467.5,473.5C 442.607,512.536 408.274,540.036 364.5,556C 347.213,562.238 329.546,567.072 311.5,570.5C 309.096,578.018 307.263,585.685 306,593.5C 303.653,613.613 300.653,633.613 297,653.5C 274.788,626.957 252.955,600.123 231.5,573C 179.86,567.58 133.86,548.914 93.5,517C 67.6531,495.145 51.1531,467.645 44,434.5C 38.3223,396.54 47.3223,362.54 71,332.5C 100.587,298.107 137.42,274.94 181.5,263C 253.1,243.654 322.433,249.654 389.5,281C 408.185,290.499 424.852,302.665 439.5,317.5 Z"/></g>
<g><path style="opacity:1" fill="#c4c6cf" d="M 596.5,340.5 C 614.17,340.333 631.836,340.5 649.5,341C 650,341.5 650.5,342 651,342.5C 652.639,360.076 652.972,377.742 652,395.5C 651.535,396.931 650.701,398.097 649.5,399C 631.833,399.667 614.167,399.667 596.5,399C 596,398.5 595.5,398 595,397.5C 594.333,379.167 594.333,360.833 595,342.5C 595.717,341.956 596.217,341.289 596.5,340.5 Z"/></g>
<g><path style="opacity:1" fill="#c4c6cf" d="M 674.5,340.5 C 692.17,340.333 709.836,340.5 727.5,341C 728,341.5 728.5,342 729,342.5C 730.639,360.076 730.972,377.742 730,395.5C 729.535,396.931 728.701,398.097 727.5,399C 709.833,399.667 692.167,399.667 674.5,399C 674,398.5 673.5,398 673,397.5C 672.333,379.167 672.333,360.833 673,342.5C 673.717,341.956 674.217,341.289 674.5,340.5 Z"/></g>
<g><path style="opacity:1" fill="#c4c6cf" d="M 752.5,340.5 C 770.17,340.333 787.836,340.5 805.5,341C 806,341.5 806.5,342 807,342.5C 808.639,360.076 808.972,377.742 808,395.5C 807.535,396.931 806.701,398.097 805.5,399C 787.833,399.667 770.167,399.667 752.5,399C 752,398.5 751.5,398 751,397.5C 750.333,379.167 750.333,360.833 751,342.5C 751.717,341.956 752.217,341.289 752.5,340.5 Z"/></g>
<g><path style="opacity:1" fill="#fefefe" d="M 158.5,382.5 C 175.503,382.333 192.503,382.5 209.5,383C 210.308,383.308 210.975,383.808 211.5,384.5C 212.653,402.456 212.82,420.456 212,438.5C 211.692,439.308 211.192,439.975 210.5,440.5C 193.211,441.652 175.877,441.819 158.5,441C 157.692,440.692 157.025,440.192 156.5,439.5C 155.347,421.544 155.18,403.544 156,385.5C 156.698,384.309 157.531,383.309 158.5,382.5 Z"/></g>
<g><path style="opacity:1" fill="#fefefe" d="M 236.5,382.5 C 253.503,382.333 270.503,382.5 287.5,383C 288.308,383.308 288.975,383.808 289.5,384.5C 290.653,402.456 290.82,420.456 290,438.5C 289.692,439.308 289.192,439.975 288.5,440.5C 271.211,441.652 253.877,441.819 236.5,441C 235.692,440.692 235.025,440.192 234.5,439.5C 233.347,421.544 233.18,403.544 234,385.5C 234.698,384.309 235.531,383.309 236.5,382.5 Z"/></g>
<g><path style="opacity:1" fill="#fefefe" d="M 314.5,382.5 C 331.503,382.333 348.503,382.5 365.5,383C 366.308,383.308 366.975,383.808 367.5,384.5C 368.653,402.456 368.82,420.456 368,438.5C 367.692,439.308 367.192,439.975 366.5,440.5C 349.211,441.652 331.877,441.819 314.5,441C 313.692,440.692 313.025,440.192 312.5,439.5C 311.347,421.544 311.18,403.544 312,385.5C 312.698,384.309 313.531,383.309 314.5,382.5 Z"/></g>
</svg>
