<?xml version="1.0" encoding="UTF-8"?>
<!DOCTYPE svg PUBLIC "-//W3C//DTD SVG 1.1//EN" "http://www.w3.org/Graphics/SVG/1.1/DTD/svg11.dtd">
<svg xmlns="http://www.w3.org/2000/svg" version="1.1" width="1000px" height="1000px" style="shape-rendering:geometricPrecision; text-rendering:geometricPrecision; image-rendering:optimizeQuality; fill-rule:evenodd; clip-rule:evenodd" xmlns:xlink="http://www.w3.org/1999/xlink">
<g><path style="opacity:0.996" fill="#83d2fe" d="M 467.5,473.5 C 447.366,446.54 435.533,416.207 432,382.5C 430.164,360.183 432.998,338.516 440.5,317.5C 451.532,286.611 469.198,260.111 493.5,238C 543.034,196.133 600.367,172.133 665.5,166C 743.41,157.976 815.41,174.643 881.5,216C 921.333,242.501 949.166,278.335 965,323.5C 980.483,385.57 966.816,440.237 924,487.5C 880.291,531.943 827.458,559.443 765.5,570C 752.92,572.321 740.253,573.988 727.5,575C 701.397,603.772 674.563,631.939 647,659.5C 644.494,637.908 642.494,616.241 641,594.5C 639.929,586.073 638.429,577.739 636.5,569.5C 574.899,559.121 522.399,531.787 479,487.5C 474.925,482.935 471.091,478.268 467.5,473.5 Z"/></g>
<g><path style="opacity:0.993" fill="#0097ec" d="M 440.5,317.5 C 432.998,338.516 430.164,360.183 432,382.5C 435.533,416.207 447.366,446.54 467.5,473.5C 442.607,512.536 408.274,540.036 364.5,556C 347.213,562.238 329.546,567.072 311.5,570.5C 309.096,578.018 307.263,585.685 306,593.5C 303.653,613.613 300.653,633.613 297,653.5C 274.788,626.957 252.955,600.123 231.5,573C 179.86,567.58 133.86,548.914 93.5,517C 67.6531,495.145 51.1531,467.645 44,434.5C 38.3223,396.54 47.3223,362.54 71,332.5C 100.587,298.107 137.42,274.94 181.5,263C 253.1,243.654 322.433,249.654 389.5,281C 408.291,290.723 425.291,302.89 440.5,317.5 Z"/></g>
<g><path style="opacity:1" fill="#0097ec" d="M 597.5,340.5 C 614.503,340.333 631.503,340.5 648.5,341C 649.308,341.308 649.975,341.808 650.5,342.5C 651.653,360.456 651.82,378.456 651,396.5C 650.692,397.308 650.192,397.975 649.5,398.5C 632.211,399.652 614.877,399.819 597.5,399C 596.692,398.692 596.025,398.192 595.5,397.5C 594.347,379.544 594.18,361.544 595,343.5C 595.698,342.309 596.531,341.309 597.5,340.5 Z"/></g>
<g><path style="opacity:1" fill="#0097ec" d="M 675.5,340.5 C 692.503,340.333 709.503,340.5 726.5,341C 727.308,341.308 727.975,341.808 728.5,342.5C 729.653,360.456 729.82,378.456 729,396.5C 728.692,397.308 728.192,397.975 727.5,398.5C 710.211,399.652 692.877,399.819 675.5,399C 674.692,398.692 674.025,398.192 673.5,397.5C 672.347,379.544 672.18,361.544 673,343.5C 673.698,342.309 674.531,341.309 675.5,340.5 Z"/></g>
<g><path style="opacity:1" fill="#0097ec" d="M 753.5,340.5 C 770.503,340.333 787.503,340.5 804.5,341C 805.308,341.308 805.975,341.808 806.5,342.5C 807.653,360.456 807.82,378.456 807,396.5C 806.692,397.308 806.192,397.975 805.5,398.5C 788.211,399.652 770.877,399.819 753.5,399C 752.692,398.692 752.025,398.192 751.5,397.5C 750.347,379.544 750.18,361.544 751,343.5C 751.698,342.309 752.531,341.309 753.5,340.5 Z"/></g>
<g><path style="opacity:1" fill="#fefefe" d="M 158.5,382.5 C 175.503,382.333 192.503,382.5 209.5,383C 210.308,383.308 210.975,383.808 211.5,384.5C 212.653,402.456 212.82,420.456 212,438.5C 211.692,439.308 211.192,439.975 210.5,440.5C 193.211,441.652 175.877,441.819 158.5,441C 157.667,440.167 156.833,439.333 156,438.5C 155.333,420.833 155.333,403.167 156,385.5C 157.045,384.627 157.878,383.627 158.5,382.5 Z"/></g>
<g><path style="opacity:1" fill="#fefefe" d="M 236.5,382.5 C 253.503,382.333 270.503,382.5 287.5,383C 288.308,383.308 288.975,383.808 289.5,384.5C 290.653,402.456 290.82,420.456 290,438.5C 289.692,439.308 289.192,439.975 288.5,440.5C 271.211,441.652 253.877,441.819 236.5,441C 235.667,440.167 234.833,439.333 234,438.5C 233.333,420.833 233.333,403.167 234,385.5C 235.045,384.627 235.878,383.627 236.5,382.5 Z"/></g>
<g><path style="opacity:1" fill="#fefefe" d="M 314.5,382.5 C 331.503,382.333 348.503,382.5 365.5,383C 366.308,383.308 366.975,383.808 367.5,384.5C 368.653,402.456 368.82,420.456 368,438.5C 367.692,439.308 367.192,439.975 366.5,440.5C 349.211,441.652 331.877,441.819 314.5,441C 313.667,440.167 312.833,439.333 312,438.5C 311.333,420.833 311.333,403.167 312,385.5C 313.045,384.627 313.878,383.627 314.5,382.5 Z"/></g>
</svg>
