<?xml version="1.0" encoding="UTF-8"?>
<!DOCTYPE svg PUBLIC "-//W3C//DTD SVG 1.1//EN" "http://www.w3.org/Graphics/SVG/1.1/DTD/svg11.dtd">
<svg xmlns="http://www.w3.org/2000/svg" version="1.1" width="1000px" height="1000px" style="shape-rendering:geometricPrecision; text-rendering:geometricPrecision; image-rendering:optimizeQuality; fill-rule:evenodd; clip-rule:evenodd" xmlns:xlink="http://www.w3.org/1999/xlink">
<g><path style="opacity:1" fill="#808080" d="M 910.5,501.5 C 910.167,501.5 909.833,501.5 909.5,501.5C 904.369,496.87 899.369,492.037 894.5,487C 889.268,483.776 884.601,479.776 880.5,475C 879.5,474.667 878.5,474.333 877.5,474C 871.267,466.602 864.6,459.769 857.5,453.5C 857.489,451.983 856.823,450.816 855.5,450C 848.296,446.09 840.463,443.923 832,443.5C 830.167,443.667 828.333,443.833 826.5,444C 825.244,444.417 824.577,445.25 824.5,446.5C 821.699,447.766 818.699,448.599 815.5,449C 814.619,449.708 813.953,450.542 813.5,451.5C 808.081,453.591 803.915,457.257 801,462.5C 797.686,466.306 793.853,469.639 789.5,472.5C 787.585,474.071 786.585,476.071 786.5,478.5C 784.861,479.473 783.527,480.806 782.5,482.5C 778.483,487.238 773.816,491.571 768.5,495.5C 766.78,498.202 765.113,500.868 763.5,503.5C 762.115,504.614 760.615,505.614 759,506.5C 754.901,511.084 751.068,515.751 747.5,520.5C 746.5,520.5 745.5,520.5 744.5,520.5C 744.649,521.552 744.483,522.552 744,523.5C 739.56,526.268 736.227,529.934 734,534.5C 731,537.167 728,539.833 725,542.5C 724.517,543.448 724.351,544.448 724.5,545.5C 723.167,545.5 721.833,545.5 720.5,545.5C 720.028,548.815 718.195,551.149 715,552.5C 714.667,553.833 714.333,555.167 714,556.5C 709.008,561.323 703.842,565.99 698.5,570.5C 696.973,572.193 695.64,574.027 694.5,576C 693.552,576.483 692.552,576.649 691.5,576.5C 691.649,577.552 691.483,578.552 691,579.5C 685.227,585.097 680.06,591.097 675.5,597.5C 671.233,601.264 667.066,605.264 663,609.5C 658.498,616.244 653.498,622.578 648,628.5C 646.67,629.582 645.17,630.249 643.5,630.5C 643.5,629.5 643.5,628.5 643.5,627.5C 643.065,607.921 640.732,588.588 636.5,569.5C 574.899,559.121 522.399,531.787 479,487.5C 474.925,482.935 471.091,478.268 467.5,473.5C 432.079,426.314 422.745,374.314 439.5,317.5C 459.054,268.947 491.721,231.781 537.5,206C 609.226,167.602 685.226,155.602 765.5,170C 819.919,179.665 867.919,202.331 909.5,238C 935.408,261.638 953.908,290.138 965,323.5C 979.984,381.886 968.318,434.219 930,480.5C 923.662,487.671 917.162,494.671 910.5,501.5 Z"/></g>
<g><path style="opacity:1" fill="#c5c6d0" d="M 439.5,317.5 C 422.745,374.314 432.079,426.314 467.5,473.5C 442.607,512.536 408.274,540.036 364.5,556C 347.213,562.238 329.546,567.072 311.5,570.5C 309.096,578.018 307.263,585.685 306,593.5C 303.653,613.613 300.653,633.613 297,653.5C 274.788,626.957 252.955,600.123 231.5,573C 179.86,567.58 133.86,548.914 93.5,517C 67.6531,495.145 51.1531,467.645 44,434.5C 38.3223,396.54 47.3223,362.54 71,332.5C 100.587,298.107 137.42,274.94 181.5,263C 253.1,243.654 322.433,249.654 389.5,281C 408.185,290.499 424.852,302.665 439.5,317.5 Z"/></g>
<g><path style="opacity:1" fill="#c4c6cf" d="M 596.5,340.5 C 614.17,340.333 631.836,340.5 649.5,341C 650,341.5 650.5,342 651,342.5C 652.639,360.076 652.972,377.742 652,395.5C 651.535,396.931 650.701,398.097 649.5,399C 631.833,399.667 614.167,399.667 596.5,399C 596,398.5 595.5,398 595,397.5C 594.333,379.167 594.333,360.833 595,342.5C 595.717,341.956 596.217,341.289 596.5,340.5 Z"/></g>
<g><path style="opacity:1" fill="#c4c6cf" d="M 674.5,340.5 C 692.17,340.333 709.836,340.5 727.5,341C 728,341.5 728.5,342 729,342.5C 730.639,360.076 730.972,377.742 730,395.5C 729.535,396.931 728.701,398.097 727.5,399C 709.833,399.667 692.167,399.667 674.5,399C 674,398.5 673.5,398 673,397.5C 672.333,379.167 672.333,360.833 673,342.5C 673.717,341.956 674.217,341.289 674.5,340.5 Z"/></g>
<g><path style="opacity:1" fill="#c4c6cf" d="M 752.5,340.5 C 770.17,340.333 787.836,340.5 805.5,341C 806,341.5 806.5,342 807,342.5C 808.639,360.076 808.972,377.742 808,395.5C 807.535,396.931 806.701,398.097 805.5,399C 787.833,399.667 770.167,399.667 752.5,399C 752,398.5 751.5,398 751,397.5C 750.333,379.167 750.333,360.833 751,342.5C 751.717,341.956 752.217,341.289 752.5,340.5 Z"/></g>
<g><path style="opacity:1" fill="#fefefe" d="M 158.5,382.5 C 175.503,382.333 192.503,382.5 209.5,383C 210.308,383.308 210.975,383.808 211.5,384.5C 212.653,402.456 212.82,420.456 212,438.5C 211.692,439.308 211.192,439.975 210.5,440.5C 193.211,441.652 175.877,441.819 158.5,441C 157.692,440.692 157.025,440.192 156.5,439.5C 155.347,421.544 155.18,403.544 156,385.5C 156.698,384.309 157.531,383.309 158.5,382.5 Z"/></g>
<g><path style="opacity:1" fill="#fefefe" d="M 236.5,382.5 C 253.503,382.333 270.503,382.5 287.5,383C 288.308,383.308 288.975,383.808 289.5,384.5C 290.653,402.456 290.82,420.456 290,438.5C 289.692,439.308 289.192,439.975 288.5,440.5C 271.211,441.652 253.877,441.819 236.5,441C 235.692,440.692 235.025,440.192 234.5,439.5C 233.347,421.544 233.18,403.544 234,385.5C 234.698,384.309 235.531,383.309 236.5,382.5 Z"/></g>
<g><path style="opacity:1" fill="#fefefe" d="M 314.5,382.5 C 331.503,382.333 348.503,382.5 365.5,383C 366.308,383.308 366.975,383.808 367.5,384.5C 368.653,402.456 368.82,420.456 368,438.5C 367.692,439.308 367.192,439.975 366.5,440.5C 349.211,441.652 331.877,441.819 314.5,441C 313.692,440.692 313.025,440.192 312.5,439.5C 311.347,421.544 311.18,403.544 312,385.5C 312.698,384.309 313.531,383.309 314.5,382.5 Z"/></g>
<g><path style="opacity:1" fill="#c5c6c4" d="M 857.5,453.5 C 851.758,449.807 845.425,447.473 838.5,446.5C 837.167,446.667 835.833,446.833 834.5,447C 837.789,447.882 841.123,448.548 844.5,449C 844.167,449.333 843.833,449.667 843.5,450C 844.942,450.377 845.942,451.21 846.5,452.5C 844.167,451.833 841.833,451.167 839.5,450.5C 836.553,450.058 833.887,448.892 831.5,447C 829.19,446.503 826.857,446.337 824.5,446.5C 824.577,445.25 825.244,444.417 826.5,444C 828.333,443.833 830.167,443.667 832,443.5C 840.463,443.923 848.296,446.09 855.5,450C 856.823,450.816 857.489,451.983 857.5,453.5 Z"/></g>
<g><path style="opacity:1" fill="#dde0dc" d="M 857.5,453.5 C 864.6,459.769 871.267,466.602 877.5,474C 878.5,474.333 879.5,474.667 880.5,475C 884.601,479.776 889.268,483.776 894.5,487C 899.369,492.037 904.369,496.87 909.5,501.5C 907.771,502.236 906.771,503.57 906.5,505.5C 903.5,502.833 900.5,500.167 897.5,497.5C 894.003,493.395 890.003,489.729 885.5,486.5C 875.866,477.34 866.199,468.174 856.5,459C 853.553,456.217 850.22,454.05 846.5,452.5C 845.942,451.21 844.942,450.377 843.5,450C 843.833,449.667 844.167,449.333 844.5,449C 841.123,448.548 837.789,447.882 834.5,447C 835.833,446.833 837.167,446.667 838.5,446.5C 845.425,447.473 851.758,449.807 857.5,453.5 Z"/></g>
<g><path style="opacity:1" fill="#3afe16" d="M 839.5,450.5 C 841.833,451.167 844.167,451.833 846.5,452.5C 850.22,454.05 853.553,456.217 856.5,459C 866.199,468.174 875.866,477.34 885.5,486.5C 885.744,489.263 887.077,491.429 889.5,493C 891.754,493.624 893.421,494.957 894.5,497C 895.448,497.483 896.448,497.649 897.5,497.5C 900.5,500.167 903.5,502.833 906.5,505.5C 915.171,520.432 914.337,534.765 904,548.5C 892.3,561.032 880.466,573.365 868.5,585.5C 862.45,589.217 857.783,594.217 854.5,600.5C 847.173,609.159 839.507,617.493 831.5,625.5C 830.178,625.33 829.011,625.663 828,626.5C 820.006,635.827 811.673,644.827 803,653.5C 802.517,654.448 802.351,655.448 802.5,656.5C 774.533,687.135 746.2,717.468 717.5,747.5C 712.408,750.256 708.742,754.256 706.5,759.5C 642.284,829.056 577.618,898.389 512.5,967.5C 509.213,968.264 506.546,970.097 504.5,973C 491.71,981.865 477.71,984.698 462.5,981.5C 462.167,981.5 461.833,981.5 461.5,981.5C 461.092,980.357 460.425,979.357 459.5,978.5C 455.467,976.77 451.467,975.104 447.5,973.5C 443.243,970.749 439.41,967.416 436,963.5C 431.667,957.833 427.333,952.167 423,946.5C 378.335,884.342 333.502,822.342 288.5,760.5C 286.372,754.926 283.205,749.926 279,745.5C 276.398,741.294 274.064,736.961 272,732.5C 271.501,727.511 271.334,722.511 271.5,717.5C 272.815,709.668 276.815,703.501 283.5,699C 300.874,685.989 318.541,673.489 336.5,661.5C 341.782,659.453 347.282,658.12 353,657.5C 359.707,657.97 366.207,659.303 372.5,661.5C 374.546,663.279 376.713,664.946 379,666.5C 412.667,712.833 446.333,759.167 480,805.5C 481.154,806.743 482.488,807.743 484,808.5C 488.3,805.202 492.3,801.535 496,797.5C 530.089,760.584 564.256,723.917 598.5,687.5C 604.52,684.34 608.854,679.673 611.5,673.5C 622.519,661.417 633.519,649.417 644.5,637.5C 646.806,634.527 649.473,631.86 652.5,629.5C 658.283,626.055 662.616,621.389 665.5,615.5C 671.55,611.783 676.217,606.783 679.5,600.5C 724.145,552.08 769.145,503.913 814.5,456C 822.004,450.982 830.337,449.149 839.5,450.5 Z"/></g>
<g><path style="opacity:1" fill="#aeaeae" d="M 813.5,451.5 C 804.252,460.283 795.252,469.283 786.5,478.5C 786.585,476.071 787.585,474.071 789.5,472.5C 793.853,469.639 797.686,466.306 801,462.5C 803.915,457.257 808.081,453.591 813.5,451.5 Z"/></g>
<g><path style="opacity:1" fill="#65f749" d="M 885.5,486.5 C 890.003,489.729 894.003,493.395 897.5,497.5C 896.448,497.649 895.448,497.483 894.5,497C 893.421,494.957 891.754,493.624 889.5,493C 887.077,491.429 885.744,489.263 885.5,486.5 Z"/></g>
<g><path style="opacity:1" fill="#aeaeae" d="M 782.5,482.5 C 776.562,489.775 770.229,496.775 763.5,503.5C 765.113,500.868 766.78,498.202 768.5,495.5C 773.816,491.571 778.483,487.238 782.5,482.5 Z"/></g>
<g><path style="opacity:1" fill="#dbe1da" d="M 824.5,446.5 C 826.857,446.337 829.19,446.503 831.5,447C 833.887,448.892 836.553,450.058 839.5,450.5C 830.337,449.149 822.004,450.982 814.5,456C 769.145,503.913 724.145,552.08 679.5,600.5C 674.861,605.474 670.195,610.474 665.5,615.5C 661.176,620.125 656.843,624.792 652.5,629.5C 649.473,631.86 646.806,634.527 644.5,637.5C 644.178,635.278 644.845,633.444 646.5,632C 645.551,631.383 644.718,631.549 644,632.5C 643.536,631.906 643.369,631.239 643.5,630.5C 645.17,630.249 646.67,629.582 648,628.5C 653.498,622.578 658.498,616.244 663,609.5C 667.066,605.264 671.233,601.264 675.5,597.5C 680,594.192 683.833,590.192 687,585.5C 689.371,582.794 692.037,580.461 695,578.5C 695.667,577.167 696.333,575.833 697,574.5C 715.034,557.632 731.867,539.632 747.5,520.5C 751.068,515.751 754.901,511.084 759,506.5C 760.615,505.614 762.115,504.614 763.5,503.5C 770.229,496.775 776.562,489.775 782.5,482.5C 783.527,480.806 784.861,479.473 786.5,478.5C 795.252,469.283 804.252,460.283 813.5,451.5C 813.953,450.542 814.619,449.708 815.5,449C 818.699,448.599 821.699,447.766 824.5,446.5 Z"/></g>
<g><path style="opacity:1" fill="#b5b5b5" d="M 747.5,520.5 C 731.867,539.632 715.034,557.632 697,574.5C 696.333,575.833 695.667,577.167 695,578.5C 692.037,580.461 689.371,582.794 687,585.5C 683.833,590.192 680,594.192 675.5,597.5C 680.06,591.097 685.227,585.097 691,579.5C 691.483,578.552 691.649,577.552 691.5,576.5C 692.552,576.649 693.552,576.483 694.5,576C 695.64,574.027 696.973,572.193 698.5,570.5C 703.842,565.99 709.008,561.323 714,556.5C 714.333,555.167 714.667,553.833 715,552.5C 718.195,551.149 720.028,548.815 720.5,545.5C 721.833,545.5 723.167,545.5 724.5,545.5C 724.351,544.448 724.517,543.448 725,542.5C 728,539.833 731,537.167 734,534.5C 736.227,529.934 739.56,526.268 744,523.5C 744.483,522.552 744.649,521.552 744.5,520.5C 745.5,520.5 746.5,520.5 747.5,520.5 Z"/></g>
<g><path style="opacity:1" fill="#68f74c" d="M 868.5,585.5 C 864.539,591.129 859.873,596.129 854.5,600.5C 857.783,594.217 862.45,589.217 868.5,585.5 Z"/></g>
<g><path style="opacity:1" fill="#65f74a" d="M 679.5,600.5 C 676.217,606.783 671.55,611.783 665.5,615.5C 670.195,610.474 674.861,605.474 679.5,600.5 Z"/></g>
<g><path style="opacity:1" fill="#67f64c" d="M 665.5,615.5 C 662.616,621.389 658.283,626.055 652.5,629.5C 656.843,624.792 661.176,620.125 665.5,615.5 Z"/></g>
<g><path style="opacity:0.755" fill="#f0f2ef" d="M 909.5,501.5 C 909.833,501.5 910.167,501.5 910.5,501.5C 912.912,501.694 913.912,503.027 913.5,505.5C 914.5,505.5 915.5,505.5 916.5,505.5C 916.34,507.199 916.506,508.866 917,510.5C 919.084,512.937 920.584,515.77 921.5,519C 920.002,527.818 918.669,536.651 917.5,545.5C 916.448,545.351 915.448,545.517 914.5,546C 915.517,547.049 915.684,548.216 915,549.5C 913.559,550.87 911.892,551.87 910,552.5C 909.517,553.448 909.351,554.448 909.5,555.5C 908.167,555.5 906.833,555.5 905.5,555.5C 905.5,556.833 905.5,558.167 905.5,559.5C 901.988,560.005 899.655,562.005 898.5,565.5C 897.675,566.386 896.675,566.719 895.5,566.5C 895.649,567.552 895.483,568.552 895,569.5C 892,572.167 889,574.833 886,577.5C 885.517,578.448 885.351,579.448 885.5,580.5C 884.178,580.33 883.011,580.663 882,581.5C 880.878,583.42 880.044,585.42 879.5,587.5C 878.5,587.5 877.5,587.5 876.5,587.5C 876.5,588.833 876.5,590.167 876.5,591.5C 872.303,591.194 870.303,593.194 870.5,597.5C 869.167,597.5 867.833,597.5 866.5,597.5C 866.5,599.167 866.5,600.833 866.5,602.5C 864.833,602.5 863.167,602.5 861.5,602.5C 861.167,604.5 860.833,606.5 860.5,608.5C 859.5,608.5 858.5,608.5 857.5,608.5C 858.169,612.676 856.669,614.009 853,612.5C 852.667,613.5 852.333,614.5 852,615.5C 848.805,616.851 846.972,619.185 846.5,622.5C 845.448,622.351 844.448,622.517 843.5,623C 842.663,625.589 840.997,627.422 838.5,628.5C 838.302,631.785 836.635,633.452 833.5,633.5C 833.649,634.552 833.483,635.552 833,636.5C 829.724,637.727 827.891,640.06 827.5,643.5C 826.448,643.351 825.448,643.517 824.5,644C 820.407,648.746 816.407,653.413 812.5,658C 811.552,658.483 810.552,658.649 809.5,658.5C 809.719,659.675 809.386,660.675 808.5,661.5C 807.305,663.297 805.638,664.297 803.5,664.5C 803.657,665.873 803.49,667.207 803,668.5C 799.805,669.851 797.972,672.185 797.5,675.5C 796.5,675.5 795.5,675.5 794.5,675.5C 794.594,678.541 793.094,680.207 790,680.5C 789.264,683.32 787.598,685.32 785,686.5C 784.517,687.448 784.351,688.448 784.5,689.5C 783.167,689.5 781.833,689.5 780.5,689.5C 779.2,693.1 777.533,696.434 775.5,699.5C 774.127,699.343 772.793,699.51 771.5,700C 770.636,703.359 768.636,705.526 765.5,706.5C 765.5,707.833 765.5,709.167 765.5,710.5C 764.022,710.238 762.689,710.571 761.5,711.5C 760.014,713.302 759.014,715.302 758.5,717.5C 757.5,717.5 756.5,717.5 755.5,717.5C 755.895,720.523 754.895,721.523 752.5,720.5C 750.666,722.977 749.333,725.643 748.5,728.5C 746.302,729.014 744.302,730.014 742.5,731.5C 741.571,732.689 741.238,734.022 741.5,735.5C 738.482,735.8 736.482,737.467 735.5,740.5C 732.658,741.004 731.325,742.671 731.5,745.5C 728.112,745.874 726.278,747.874 726,751.5C 724.933,752.191 723.766,752.691 722.5,753C 718.234,758.701 713.4,763.868 708,768.5C 706.991,770.025 706.491,771.692 706.5,773.5C 705.167,773.5 703.833,773.5 702.5,773.5C 702.5,774.833 702.5,776.167 702.5,777.5C 701.022,777.238 699.689,777.571 698.5,778.5C 697.123,781.826 695.29,784.826 693,787.5C 691.491,788.09 689.991,788.756 688.5,789.5C 688.322,792.804 686.656,794.471 683.5,794.5C 683.5,795.833 683.5,797.167 683.5,798.5C 682.127,798.343 680.793,798.51 679.5,799C 675.52,804.458 671.187,809.625 666.5,814.5C 665.675,815.386 664.675,815.719 663.5,815.5C 663.5,816.833 663.5,818.167 663.5,819.5C 660.103,820.568 658.103,822.901 657.5,826.5C 655.42,827.044 653.42,827.878 651.5,829C 650.423,832.413 648.256,834.913 645,836.5C 644.517,837.448 644.351,838.448 644.5,839.5C 641.612,839.22 640.112,840.553 640,843.5C 636.724,844.727 634.891,847.06 634.5,850.5C 633.167,850.5 631.833,850.5 630.5,850.5C 630.649,851.552 630.483,852.552 630,853.5C 626.983,855.342 625.483,858.009 625.5,861.5C 622.618,861.608 620.285,862.774 618.5,865C 617.363,867.457 615.863,869.624 614,871.5C 613.333,870.167 612.667,870.167 612,871.5C 611.693,874.876 609.86,876.21 606.5,875.5C 606.849,878.99 605.349,881.323 602,882.5C 601.51,883.793 601.343,885.127 601.5,886.5C 597.735,886.676 595.735,888.676 595.5,892.5C 594.5,892.5 593.5,892.5 592.5,892.5C 593.041,896.295 591.375,898.295 587.5,898.5C 586.96,899.748 586.293,900.915 585.5,902C 579.742,905.648 575.075,910.481 571.5,916.5C 570.675,917.386 569.675,917.719 568.5,917.5C 568.1,921.347 566.1,923.68 562.5,924.5C 562.5,925.5 562.5,926.5 562.5,927.5C 561.448,927.351 560.448,927.517 559.5,928C 558.257,930.116 557.091,932.282 556,934.5C 550.81,936.516 547.643,940.183 546.5,945.5C 543.99,946.783 541.323,947.783 538.5,948.5C 538.762,949.978 538.429,951.311 537.5,952.5C 534.453,953.875 533.12,956.208 533.5,959.5C 532.167,959.5 530.833,959.5 529.5,959.5C 529.649,960.552 529.483,961.552 529,962.5C 525.763,964.231 523.93,966.898 523.5,970.5C 522.178,970.67 521.011,970.337 520,969.5C 519.51,970.793 519.343,972.127 519.5,973.5C 514.328,975.241 510.661,978.574 508.5,983.5C 506.473,983.338 504.473,983.505 502.5,984C 501.167,984.667 501.167,985.333 502.5,986C 500.059,986.036 498.059,986.869 496.5,988.5C 493.914,989.48 491.247,989.813 488.5,989.5C 488.5,990.833 488.5,992.167 488.5,993.5C 478.506,993.787 468.506,992.621 458.5,990C 457.953,989.075 457.287,988.242 456.5,987.5C 452.341,989.08 450.008,987.58 449.5,983C 447.527,982.505 445.527,982.338 443.5,982.5C 443.714,980.856 443.38,979.356 442.5,978C 438.886,978.034 436.553,976.367 435.5,973C 434.552,972.517 433.552,972.351 432.5,972.5C 433.244,969.05 431.91,967.384 428.5,967.5C 428.55,965.41 427.55,964.077 425.5,963.5C 424.548,961.955 424.215,960.288 424.5,958.5C 423.5,958.5 422.5,958.5 421.5,958.5C 418.203,953.008 415.203,947.341 412.5,941.5C 411.178,941.67 410.011,941.337 409,940.5C 407.839,937.733 406.673,935.067 405.5,932.5C 404.5,932.5 403.5,932.5 402.5,932.5C 402.5,930.833 402.5,929.167 402.5,927.5C 401.178,927.67 400.011,927.337 399,926.5C 397.038,923.205 394.705,920.205 392,917.5C 390.839,914.733 389.673,912.067 388.5,909.5C 387.5,909.5 386.5,909.5 385.5,909.5C 384.828,906.356 383.828,903.356 382.5,900.5C 378.657,900.809 377.324,899.309 378.5,896C 377.552,895.517 376.552,895.351 375.5,895.5C 374.828,892.356 373.828,889.356 372.5,886.5C 371.5,886.5 370.5,886.5 369.5,886.5C 369.762,885.022 369.429,883.689 368.5,882.5C 364.477,877.312 360.31,872.312 356,867.5C 353.36,863.738 351.193,859.738 349.5,855.5C 346.234,855.567 344.734,853.901 345,850.5C 343.333,848.833 341.667,847.167 340,845.5C 339.51,844.207 339.343,842.873 339.5,841.5C 338.5,841.5 337.5,841.5 336.5,841.5C 335.882,838.602 334.715,835.935 333,833.5C 331.989,832.663 330.822,832.33 329.5,832.5C 329.5,830.833 329.5,829.167 329.5,827.5C 328.178,827.67 327.011,827.337 326,826.5C 325.585,824.709 324.585,823.376 323,822.5C 322.51,821.207 322.343,819.873 322.5,818.5C 321.5,818.5 320.5,818.5 319.5,818.5C 319.5,817.167 319.5,815.833 319.5,814.5C 318.325,814.719 317.325,814.386 316.5,813.5C 313.59,809.399 311.256,805.066 309.5,800.5C 308.5,800.5 307.5,800.5 306.5,800.5C 306.762,799.022 306.429,797.689 305.5,796.5C 304.05,795.345 303.05,793.845 302.5,792C 299.354,791.89 298.354,790.557 299.5,788C 297.607,785.697 295.607,783.53 293.5,781.5C 292.571,780.311 292.238,778.978 292.5,777.5C 291.5,777.5 290.5,777.5 289.5,777.5C 289.762,776.022 289.429,774.689 288.5,773.5C 282.464,766.033 276.63,758.366 271,750.5C 270.51,749.207 270.343,747.873 270.5,746.5C 269.5,746.5 268.5,746.5 267.5,746.5C 267.5,744.833 267.5,743.167 267.5,741.5C 266.167,741.5 264.833,741.5 263.5,741.5C 263.421,740.07 263.754,738.736 264.5,737.5C 263.415,736.216 262.748,734.716 262.5,733C 263.838,723.475 265.338,713.975 267,704.5C 268.943,702.849 270.443,700.849 271.5,698.5C 273.883,699.462 274.883,698.462 274.5,695.5C 277.323,694.783 279.99,693.783 282.5,692.5C 282.5,691.5 282.5,690.5 282.5,689.5C 285.95,690.244 287.616,688.91 287.5,685.5C 290.644,684.828 293.644,683.828 296.5,682.5C 296.5,681.167 296.5,679.833 296.5,678.5C 299.394,678.444 302.061,677.61 304.5,676C 305.337,674.989 305.67,673.822 305.5,672.5C 307.167,672.5 308.833,672.5 310.5,672.5C 310.5,671.167 310.5,669.833 310.5,668.5C 313.318,667.03 316.318,666.03 319.5,665.5C 319.5,664.5 319.5,663.5 319.5,662.5C 322.067,661.327 324.733,660.161 327.5,659C 328.337,657.989 328.67,656.822 328.5,655.5C 331.231,654.973 333.898,654.14 336.5,653C 337.337,651.989 337.67,650.822 337.5,649.5C 340.167,649.5 342.833,649.5 345.5,649.5C 345.147,647.365 345.98,646.032 348,645.5C 356.275,648.112 364.775,649.612 373.5,650C 374.833,651.333 374.833,652.667 373.5,654C 375.813,654.662 378.146,655.162 380.5,655.5C 381.597,659.123 383.764,662.123 387,664.5C 388.049,667.874 389.882,670.708 392.5,673C 393.448,673.483 394.448,673.649 395.5,673.5C 395.517,676.523 396.517,679.19 398.5,681.5C 399.736,682.246 401.07,682.579 402.5,682.5C 403.214,687.787 405.547,692.287 409.5,696C 410.448,696.483 411.448,696.649 412.5,696.5C 412.343,697.873 412.51,699.207 413,700.5C 416.916,703.985 419.582,708.319 421,713.5C 422.333,714.167 423.667,714.833 425,715.5C 425.617,716.449 425.451,717.282 424.5,718C 428.011,720.159 430.011,723.326 430.5,727.5C 434.375,726.874 436.209,728.541 436,732.5C 442.093,741.599 448.593,750.432 455.5,759C 456.448,759.483 457.448,759.649 458.5,759.5C 458.67,760.822 458.337,761.989 457.5,763C 459.412,764.2 460.745,765.867 461.5,768C 462.766,768.309 463.933,768.809 465,769.5C 466.338,774.852 469.172,779.185 473.5,782.5C 474.944,785.268 476.444,787.934 478,790.5C 479.011,791.337 480.178,791.67 481.5,791.5C 482.036,794.555 482.869,797.555 484,800.5C 484.333,799.167 484.667,797.833 485,796.5C 485.667,797.833 486.333,797.833 487,796.5C 487.49,795.207 487.657,793.873 487.5,792.5C 489.167,792.5 490.833,792.5 492.5,792.5C 492.833,790.5 493.167,788.5 493.5,786.5C 496.91,786.616 498.244,784.95 497.5,781.5C 502.212,779.959 505.545,776.792 507.5,772C 508.449,771.383 509.282,771.549 510,772.5C 510.536,770.131 511.703,768.131 513.5,766.5C 518.777,760.955 524.277,755.621 530,750.5C 531.411,748.35 532.245,746.016 532.5,743.5C 535.168,743.334 537.502,742.334 539.5,740.5C 540.435,737.898 542.102,735.898 544.5,734.5C 545.429,733.311 545.762,731.978 545.5,730.5C 546.873,730.657 548.207,730.49 549.5,730C 550.364,726.641 552.364,724.474 555.5,723.5C 555.5,722.167 555.5,720.833 555.5,719.5C 558.95,720.244 560.616,718.91 560.5,715.5C 561.552,715.649 562.552,715.483 563.5,715C 563.167,714.667 562.833,714.333 562.5,714C 565.035,713.072 566.035,711.238 565.5,708.5C 566.833,708.5 568.167,708.5 569.5,708.5C 569.5,707.5 569.5,706.5 569.5,705.5C 573.1,704.68 575.1,702.347 575.5,698.5C 576.5,698.5 577.5,698.5 578.5,698.5C 578.22,695.612 579.553,694.112 582.5,694C 583.87,692.559 584.87,690.892 585.5,689C 586.448,688.517 587.448,688.351 588.5,688.5C 587.833,684.5 589.5,682.833 593.5,683.5C 593.833,681.5 594.167,679.5 594.5,677.5C 595.833,677.5 597.167,677.5 598.5,677.5C 598.5,676.167 598.5,674.833 598.5,673.5C 599.833,673.5 601.167,673.5 602.5,673.5C 602.662,670.331 604.328,668.331 607.5,667.5C 608.429,666.311 608.762,664.978 608.5,663.5C 609.833,663.5 611.167,663.5 612.5,663.5C 612.619,659.875 614.453,657.541 618,656.5C 618.49,655.207 618.657,653.873 618.5,652.5C 621.5,650.5 624.5,648.5 627.5,646.5C 626.833,642.5 628.5,640.833 632.5,641.5C 633.56,636.485 636.56,633.485 641.5,632.5C 641.12,630.302 641.787,628.635 643.5,627.5C 643.5,628.5 643.5,629.5 643.5,630.5C 643.369,631.239 643.536,631.906 644,632.5C 644.718,631.549 645.551,631.383 646.5,632C 644.845,633.444 644.178,635.278 644.5,637.5C 633.519,649.417 622.519,661.417 611.5,673.5C 606.46,677.539 602.127,682.206 598.5,687.5C 564.256,723.917 530.089,760.584 496,797.5C 492.3,801.535 488.3,805.202 484,808.5C 482.488,807.743 481.154,806.743 480,805.5C 446.333,759.167 412.667,712.833 379,666.5C 376.713,664.946 374.546,663.279 372.5,661.5C 364.44,655.908 355.44,654.075 345.5,656C 343.283,657.275 340.949,658.275 338.5,659C 337.619,659.708 336.953,660.542 336.5,661.5C 318.541,673.489 300.874,685.989 283.5,699C 276.815,703.501 272.815,709.668 271.5,717.5C 269.1,727.076 270.6,736.076 276,744.5C 280.03,750.02 284.197,755.353 288.5,760.5C 333.502,822.342 378.335,884.342 423,946.5C 427.333,952.167 431.667,957.833 436,963.5C 439.41,967.416 443.243,970.749 447.5,973.5C 451.507,977.174 456.173,979.841 461.5,981.5C 461.833,981.5 462.167,981.5 462.5,981.5C 466.192,983.933 470.359,984.933 475,984.5C 490.115,984.441 502.615,978.774 512.5,967.5C 577.618,898.389 642.284,829.056 706.5,759.5C 710.65,755.806 714.316,751.806 717.5,747.5C 746.2,717.468 774.533,687.135 802.5,656.5C 812.505,646.494 822.172,636.161 831.5,625.5C 839.507,617.493 847.173,609.159 854.5,600.5C 859.873,596.129 864.539,591.129 868.5,585.5C 880.466,573.365 892.3,561.032 904,548.5C 914.337,534.765 915.171,520.432 906.5,505.5C 906.771,503.57 907.771,502.236 909.5,501.5 Z"/></g>
<g><path style="opacity:1" fill="#63f847" d="M 831.5,625.5 C 822.172,636.161 812.505,646.494 802.5,656.5C 802.351,655.448 802.517,654.448 803,653.5C 811.673,644.827 820.006,635.827 828,626.5C 829.011,625.663 830.178,625.33 831.5,625.5 Z"/></g>
<g><path style="opacity:1" fill="#64f448" d="M 372.5,661.5 C 366.207,659.303 359.707,657.97 353,657.5C 347.282,658.12 341.782,659.453 336.5,661.5C 336.953,660.542 337.619,659.708 338.5,659C 340.949,658.275 343.283,657.275 345.5,656C 355.44,654.075 364.44,655.908 372.5,661.5 Z"/></g>
<g><path style="opacity:1" fill="#65f749" d="M 611.5,673.5 C 608.854,679.673 604.52,684.34 598.5,687.5C 602.127,682.206 606.46,677.539 611.5,673.5 Z"/></g>
<g><path style="opacity:1" fill="#60f943" d="M 271.5,717.5 C 271.334,722.511 271.501,727.511 272,732.5C 274.064,736.961 276.398,741.294 279,745.5C 283.205,749.926 286.372,754.926 288.5,760.5C 284.197,755.353 280.03,750.02 276,744.5C 270.6,736.076 269.1,727.076 271.5,717.5 Z"/></g>
<g><path style="opacity:1" fill="#66f74a" d="M 717.5,747.5 C 714.316,751.806 710.65,755.806 706.5,759.5C 708.742,754.256 712.408,750.256 717.5,747.5 Z"/></g>
<g><path style="opacity:1" fill="#60f844" d="M 512.5,967.5 C 502.615,978.774 490.115,984.441 475,984.5C 470.359,984.933 466.192,983.933 462.5,981.5C 477.71,984.698 491.71,981.865 504.5,973C 506.546,970.097 509.213,968.264 512.5,967.5 Z"/></g>
<g><path style="opacity:1" fill="#6af34f" d="M 447.5,973.5 C 451.467,975.104 455.467,976.77 459.5,978.5C 460.425,979.357 461.092,980.357 461.5,981.5C 456.173,979.841 451.507,977.174 447.5,973.5 Z"/></g>
</svg>
