<?xml version="1.0" encoding="UTF-8"?>
<!DOCTYPE svg PUBLIC "-//W3C//DTD SVG 1.1//EN" "http://www.w3.org/Graphics/SVG/1.1/DTD/svg11.dtd">
<svg xmlns="http://www.w3.org/2000/svg" version="1.1" width="1000px" height="1000px" style="shape-rendering:geometricPrecision; text-rendering:geometricPrecision; image-rendering:optimizeQuality; fill-rule:evenodd; clip-rule:evenodd" xmlns:xlink="http://www.w3.org/1999/xlink">
<g><path style="opacity:0.996" fill="#000100" d="M 493.5,18.5 C 499.929,17.6977 505.929,18.8644 511.5,22C 567.662,59.5816 623.995,96.915 680.5,134C 722.167,134.333 763.833,134.667 805.5,135C 811.87,136.436 816.037,140.269 818,146.5C 818.333,172.833 818.667,199.167 819,225.5C 873.986,260.825 928.152,297.325 981.5,335C 983.359,336.558 984.859,338.391 986,340.5C 986.667,550.167 986.667,759.833 986,969.5C 983.448,973.719 979.948,976.886 975.5,979C 658.167,979.667 340.833,979.667 23.5,979C 20.2167,977.439 17.3834,975.273 15,972.5C 13.8353,866.747 13.3353,760.914 13.5,655C 13.6667,549.833 13.8333,444.667 14,339.5C 14.6667,338.167 15.3333,336.833 16,335.5C 70.395,298.774 125.062,262.441 180,226.5C 180.333,201.167 180.667,175.833 181,150.5C 181.828,142.669 185.995,137.502 193.5,135C 235.5,134.667 277.5,134.333 319.5,134C 377.737,95.7248 435.737,57.2248 493.5,18.5 Z"/></g>
<g><path style="opacity:1" fill="#3f3f3f" d="M 619.5,132.5 C 619.804,133.15 620.137,133.817 620.5,134.5C 540.167,135.833 459.833,135.833 379.5,134.5C 380.193,133.482 380.859,132.482 381.5,131.5C 412.763,112.102 443.43,91.6024 473.5,70C 474.833,69.6667 476.167,69.3333 477.5,69C 484.762,63.7865 492.262,58.9532 500,54.5C 539.788,80.6392 579.621,106.639 619.5,132.5 Z"/></g>
<g><path style="opacity:1" fill="#1c1c1c" d="M 381.5,131.5 C 380.859,132.482 380.193,133.482 379.5,134.5C 459.833,135.833 540.167,135.833 620.5,134.5C 620.137,133.817 619.804,133.15 619.5,132.5C 621.176,133.183 621.843,134.517 621.5,136.5C 540.5,136.5 459.5,136.5 378.5,136.5C 377.916,133.715 378.916,132.048 381.5,131.5 Z"/></g>
<g><path style="opacity:1" fill="#737373" d="M 785.5,589.5 C 785.5,449.167 785.5,308.833 785.5,168.5C 595.167,168.5 404.833,168.5 214.5,168.5C 214.833,259.002 214.499,349.335 213.5,439.5C 213.5,348.833 213.5,258.167 213.5,167.5C 404.5,167.5 595.5,167.5 786.5,167.5C 786.833,308.334 786.5,449.001 785.5,589.5 Z"/></g>
<g><path style="opacity:1" fill="#cbcbcb" d="M 785.5,589.5 C 744.767,618.619 703.933,647.619 663,676.5C 611.55,632.72 560.383,588.554 509.5,544C 504.43,541.576 499.097,540.909 493.5,542C 441.314,587.021 388.981,631.854 336.5,676.5C 295.527,647.36 254.694,618.027 214,588.5C 213.5,538.834 213.333,489.168 213.5,439.5C 214.499,349.335 214.833,259.002 214.5,168.5C 404.833,168.5 595.167,168.5 785.5,168.5C 785.5,308.833 785.5,449.167 785.5,589.5 Z"/></g>
<g><path style="opacity:1" fill="#7f807f" d="M 333.5,250.5 C 444.501,250.333 555.501,250.5 666.5,251C 678.604,255.983 682.104,264.483 677,276.5C 674.072,280.381 670.239,282.881 665.5,284C 555.167,284.667 444.833,284.667 334.5,284C 322.234,279.968 318.067,271.801 322,259.5C 325.183,255.462 329.016,252.462 333.5,250.5 Z"/></g>
<g><path style="opacity:1" fill="#1c1c1c" d="M 181.5,265.5 C 182.499,365.332 182.833,465.332 182.5,565.5C 180.901,565.768 179.568,565.434 178.5,564.5C 179.5,564.5 180.5,564.5 181.5,564.5C 181.5,464.833 181.5,365.167 181.5,265.5 Z"/></g>
<g><path style="opacity:1" fill="#3f3f3f" d="M 181.5,265.5 C 181.5,365.167 181.5,464.833 181.5,564.5C 180.5,564.5 179.5,564.5 178.5,564.5C 134.795,531.976 90.628,499.976 46,468.5C 45.3333,430.167 45.3333,391.833 46,353.5C 81.5793,331.612 116.413,308.445 150.5,284C 151.833,283.667 153.167,283.333 154.5,283C 163.216,276.647 172.216,270.814 181.5,265.5 Z"/></g>
<g><path style="opacity:1" fill="#3f3f3f" d="M 818.5,265.5 C 864.026,294.69 909.026,324.69 953.5,355.5C 954.667,392.829 954.833,430.162 954,467.5C 909.432,500.201 864.598,532.534 819.5,564.5C 818.5,464.836 818.167,365.169 818.5,265.5 Z"/></g>
<g><path style="opacity:1" fill="#7f807f" d="M 333.5,325.5 C 444.501,325.333 555.501,325.5 666.5,326C 679.21,331.464 682.376,340.297 676,352.5C 673.239,356.534 669.406,358.701 664.5,359C 554.833,359.667 445.167,359.667 335.5,359C 321.829,355.157 317.662,346.657 323,333.5C 325.855,329.789 329.355,327.123 333.5,325.5 Z"/></g>
<g><path style="opacity:1" fill="#7f807f" d="M 332.5,400.5 C 444.167,400.333 555.834,400.5 667.5,401C 679.393,407.01 682.226,415.844 676,427.5C 672.936,431.113 669.102,433.28 664.5,434C 554.5,434.667 444.5,434.667 334.5,434C 321.553,429.606 317.72,421.106 323,408.5C 325.772,405.217 328.939,402.55 332.5,400.5 Z"/></g>
<g><path style="opacity:1" fill="#b2b2b2" d="M 45.5,508.5 C 46.9217,508.709 48.255,509.209 49.5,510C 136.973,572.64 224.306,635.473 311.5,698.5C 278.544,726.951 245.711,755.618 213,784.5C 208.061,794.435 210.227,802.268 219.5,808C 226.062,810.443 232.062,809.443 237.5,805C 324.647,729.264 411.98,653.764 499.5,578.5C 641.82,700.822 783.82,823.489 925.5,946.5C 641.833,947.833 358.167,947.833 74.5,946.5C 110.698,914.136 147.365,882.302 184.5,851C 193.725,842.873 194.725,833.873 187.5,824C 181.032,819.763 174.365,819.43 167.5,823C 127.314,858.02 86.9809,892.854 46.5,927.5C 45.5,787.835 45.1667,648.168 45.5,508.5 Z"/></g>
<g><path style="opacity:1" fill="#b2b2b2" d="M 951.5,509.5 C 952.833,578.663 953.5,648.163 953.5,718C 953.5,787.837 952.833,857.337 951.5,926.5C 864.026,850.532 776.359,774.698 688.5,699C 776.348,635.97 864.015,572.804 951.5,509.5 Z"/></g>
<g><path style="opacity:0.894" fill="#3b3b3b" d="M 951.5,509.5 C 952.209,508.596 953.209,508.263 954.5,508.5C 954.5,648.167 954.5,787.833 954.5,927.5C 953.209,927.737 952.209,927.404 951.5,926.5C 952.833,857.337 953.5,787.837 953.5,718C 953.5,648.163 952.833,578.663 951.5,509.5 Z"/></g>
</svg>
