<?xml version="1.0" encoding="UTF-8"?>
<!DOCTYPE svg PUBLIC "-//W3C//DTD SVG 1.1//EN" "http://www.w3.org/Graphics/SVG/1.1/DTD/svg11.dtd">
<svg xmlns="http://www.w3.org/2000/svg" version="1.1" width="1000px" height="1000px" style="shape-rendering:geometricPrecision; text-rendering:geometricPrecision; image-rendering:optimizeQuality; fill-rule:evenodd; clip-rule:evenodd" xmlns:xlink="http://www.w3.org/1999/xlink">
<g><path style="opacity:0.995" fill="#000000" d="M 510.5,979.5 C 509.5,979.5 508.5,979.5 507.5,979.5C 518.395,969.601 528.729,958.935 538.5,947.5C 538.833,947.5 539.167,947.5 539.5,947.5C 668.168,947.833 796.835,947.5 925.5,946.5C 854.776,884.438 783.776,822.771 712.5,761.5C 716.874,757.128 720.874,752.461 724.5,747.5C 727.812,744.854 730.812,741.854 733.5,738.5C 806.506,800.845 879.173,863.511 951.5,926.5C 952.209,927.404 953.209,927.737 954.5,927.5C 954.5,787.833 954.5,648.167 954.5,508.5C 953.209,508.263 952.209,508.596 951.5,509.5C 942.137,516.855 932.47,523.855 922.5,530.5C 921.504,530.414 920.671,530.748 920,531.5C 919.667,527.833 919.333,524.167 919,520.5C 918.617,519.944 918.117,519.611 917.5,519.5C 917.768,517.901 917.434,516.568 916.5,515.5C 915.205,511.926 913.538,508.593 911.5,505.5C 911.141,503.629 910.141,502.129 908.5,501C 923.667,489.833 938.833,478.667 954,467.5C 954.833,430.162 954.667,392.829 953.5,355.5C 909.097,324.88 864.264,294.88 819,265.5C 818.5,326.166 818.333,386.832 818.5,447.5C 816.507,449.163 814.174,450.33 811.5,451C 810.748,451.671 810.414,452.504 810.5,453.5C 809.448,453.351 808.448,453.517 807.5,454C 805.333,456.833 803.167,459.667 801,462.5C 796.678,466.988 792.178,471.321 787.5,475.5C 786.833,372.667 786.167,270.001 785.5,167.5C 594.833,167.5 404.167,167.5 213.5,167.5C 213.5,258.167 213.5,348.833 213.5,439.5C 213.333,489.168 213.5,538.834 214,588.5C 249.078,613.956 284.245,639.289 319.5,664.5C 320.386,665.325 320.719,666.325 320.5,667.5C 318.938,667.733 317.605,668.4 316.5,669.5C 310.453,671.861 305.453,675.527 301.5,680.5C 299.122,682.041 296.622,683.375 294,684.5C 291.968,684.142 290.134,683.308 288.5,682C 208.01,623.921 127.343,566.088 46.5,508.5C 45.1667,648.167 45.1667,787.833 46.5,927.5C 86.9809,892.854 127.314,858.02 167.5,823C 178.574,817.798 186.741,820.631 192,831.5C 193.03,836.943 192.03,841.943 189,846.5C 150.364,879.303 112.197,912.636 74.5,946.5C 188.831,947.5 303.165,947.833 417.5,947.5C 417.833,947.5 418.167,947.5 418.5,947.5C 419.298,949.966 420.631,951.966 422.5,953.5C 423.167,953.833 423.833,954.167 424.5,954.5C 426.428,956.781 427.428,959.447 427.5,962.5C 428.552,962.351 429.552,962.517 430.5,963C 434.63,969.296 439.63,974.796 445.5,979.5C 444.833,979.5 444.167,979.5 443.5,979.5C 303.5,979.667 163.5,979.5 23.5,979C 20.2167,977.439 17.3834,975.273 15,972.5C 13.3356,761.58 13.0022,550.58 14,339.5C 14.7922,337.413 15.9588,335.579 17.5,334C 71.4093,297.794 125.576,261.961 180,226.5C 180.333,201.167 180.667,175.833 181,150.5C 181.828,142.669 185.995,137.502 193.5,135C 235.5,134.667 277.5,134.333 319.5,134C 376.833,96 434.167,58 491.5,20C 498.473,17.5811 505.14,18.2478 511.5,22C 567.662,59.5816 623.995,96.915 680.5,134C 722.167,134.333 763.833,134.667 805.5,135C 811.87,136.436 816.037,140.269 818,146.5C 818.333,172.833 818.667,199.167 819,225.5C 873.986,260.825 928.152,297.325 981.5,335C 983.359,336.558 984.859,338.391 986,340.5C 986.998,550.913 986.664,761.246 985,971.5C 982.408,974.762 979.241,977.262 975.5,979C 820.5,979.5 665.5,979.667 510.5,979.5 Z"/></g>
<g><path style="opacity:1" fill="#3f3f3f" d="M 619.5,132.5 C 619.804,133.15 620.137,133.817 620.5,134.5C 540.167,135.833 459.833,135.833 379.5,134.5C 380.193,133.482 380.859,132.482 381.5,131.5C 412.763,112.102 443.43,91.6024 473.5,70C 474.833,69.6667 476.167,69.3333 477.5,69C 484.762,63.7865 492.262,58.9532 500,54.5C 539.788,80.6392 579.621,106.639 619.5,132.5 Z"/></g>
<g><path style="opacity:1" fill="#1c1c1c" d="M 381.5,131.5 C 380.859,132.482 380.193,133.482 379.5,134.5C 459.833,135.833 540.167,135.833 620.5,134.5C 620.137,133.817 619.804,133.15 619.5,132.5C 621.176,133.183 621.843,134.517 621.5,136.5C 540.5,136.5 459.5,136.5 378.5,136.5C 377.916,133.715 378.916,132.048 381.5,131.5 Z"/></g>
<g><path style="opacity:1" fill="#7a7a7a" d="M 785.5,167.5 C 785.5,167.833 785.5,168.167 785.5,168.5C 595.167,168.5 404.833,168.5 214.5,168.5C 214.833,259.002 214.499,349.335 213.5,439.5C 213.5,348.833 213.5,258.167 213.5,167.5C 404.167,167.5 594.833,167.5 785.5,167.5 Z"/></g>
<g><path style="opacity:1" fill="#cbcbcb" d="M 785.5,168.5 C 784.836,272.505 785.502,376.172 787.5,479.5C 782.852,482.473 778.185,485.473 773.5,488.5C 773.649,489.552 773.483,490.552 773,491.5C 768.654,496.345 764.154,501.012 759.5,505.5C 757.962,507.243 756.962,509.243 756.5,511.5C 750.869,517.461 744.869,523.128 738.5,528.5C 733.826,536.182 727.993,542.849 721,548.5C 716.901,554.437 711.734,559.104 705.5,562.5C 705.719,563.675 705.386,564.675 704.5,565.5C 695.028,573.471 687.195,582.804 681,593.5C 676.444,596.099 673.111,599.766 671,604.5C 664.936,608.151 660.103,612.984 656.5,619C 652.781,620.263 650.281,622.763 649,626.5C 643,632.5 637,638.5 631,644.5C 630.243,646.315 629.41,647.981 628.5,649.5C 628.67,648.178 628.337,647.011 627.5,646C 588.167,612 548.833,578 509.5,544C 503.647,541.124 497.647,540.79 491.5,543C 450.269,579.072 408.936,614.905 367.5,650.5C 366.355,651.793 366.689,652.959 368.5,654C 372.934,655.96 376.934,658.46 380.5,661.5C 381.338,661.842 381.672,662.508 381.5,663.5C 381.843,665.483 381.176,666.817 379.5,667.5C 374.523,661.511 368.189,657.844 360.5,656.5C 357.713,655.523 354.713,655.19 351.5,655.5C 355.634,654.515 359.968,654.182 364.5,654.5C 364.439,652.408 363.439,650.908 361.5,650C 355.39,649.176 349.39,649.676 343.5,651.5C 340.036,654.546 336.036,656.713 331.5,658C 327.458,660.912 323.791,664.078 320.5,667.5C 320.719,666.325 320.386,665.325 319.5,664.5C 284.245,639.289 249.078,613.956 214,588.5C 213.5,538.834 213.333,489.168 213.5,439.5C 214.499,349.335 214.833,259.002 214.5,168.5C 404.833,168.5 595.167,168.5 785.5,168.5 Z"/></g>
<g><path style="opacity:1" fill="#7f807f" d="M 333.5,250.5 C 444.501,250.333 555.501,250.5 666.5,251C 678.604,255.983 682.104,264.483 677,276.5C 674.072,280.381 670.239,282.881 665.5,284C 555.167,284.667 444.833,284.667 334.5,284C 322.234,279.968 318.067,271.801 322,259.5C 325.183,255.462 329.016,252.462 333.5,250.5 Z"/></g>
<g><path style="opacity:1" fill="#1c1c1c" d="M 181.5,265.5 C 182.499,365.332 182.833,465.332 182.5,565.5C 180.901,565.768 179.568,565.434 178.5,564.5C 179.5,564.5 180.5,564.5 181.5,564.5C 181.5,464.833 181.5,365.167 181.5,265.5 Z"/></g>
<g><path style="opacity:1" fill="#3f3f3f" d="M 181.5,265.5 C 181.5,365.167 181.5,464.833 181.5,564.5C 180.5,564.5 179.5,564.5 178.5,564.5C 134.795,531.976 90.628,499.976 46,468.5C 45.3333,430.167 45.3333,391.833 46,353.5C 81.5793,331.612 116.413,308.445 150.5,284C 151.833,283.667 153.167,283.333 154.5,283C 163.216,276.647 172.216,270.814 181.5,265.5 Z"/></g>
<g><path style="opacity:1" fill="#404040" d="M 911.5,505.5 C 908.683,502.574 905.849,499.574 903,496.5C 902.667,495.5 902.333,494.5 902,493.5C 897.74,491.077 893.907,488.077 890.5,484.5C 883.752,476.749 876.419,469.749 868.5,463.5C 863.072,459.578 858.072,455.078 853.5,450C 842.223,442.686 830.556,441.852 818.5,447.5C 818.333,386.832 818.5,326.166 819,265.5C 864.264,294.88 909.097,324.88 953.5,355.5C 954.667,392.829 954.833,430.162 954,467.5C 938.833,478.667 923.667,489.833 908.5,501C 910.141,502.129 911.141,503.629 911.5,505.5 Z"/></g>
<g><path style="opacity:1" fill="#7f807f" d="M 333.5,325.5 C 444.501,325.333 555.501,325.5 666.5,326C 679.21,331.464 682.376,340.297 676,352.5C 673.239,356.534 669.406,358.701 664.5,359C 554.833,359.667 445.167,359.667 335.5,359C 321.829,355.157 317.662,346.657 323,333.5C 325.855,329.789 329.355,327.123 333.5,325.5 Z"/></g>
<g><path style="opacity:1" fill="#646864" d="M 785.5,167.5 C 786.167,270.001 786.833,372.667 787.5,475.5C 792.178,471.321 796.678,466.988 801,462.5C 803.167,459.667 805.333,456.833 807.5,454C 808.448,453.517 809.448,453.351 810.5,453.5C 804.39,460.919 797.723,467.919 790.5,474.5C 789.74,476.36 788.74,478.027 787.5,479.5C 785.502,376.172 784.836,272.505 785.5,168.5C 785.5,168.167 785.5,167.833 785.5,167.5 Z"/></g>
<g><path style="opacity:1" fill="#7f807f" d="M 332.5,400.5 C 444.167,400.333 555.834,400.5 667.5,401C 679.393,407.01 682.226,415.844 676,427.5C 672.936,431.113 669.102,433.28 664.5,434C 554.5,434.667 444.5,434.667 334.5,434C 321.553,429.606 317.72,421.106 323,408.5C 325.772,405.217 328.939,402.55 332.5,400.5 Z"/></g>
<g><path style="opacity:1" fill="#3afe16" d="M 911.5,537.5 C 908.893,540.968 906.393,544.634 904,548.5C 892.272,561.059 880.439,573.392 868.5,585.5C 862.45,589.217 857.783,594.217 854.5,600.5C 832.539,625.462 809.873,649.795 786.5,673.5C 781.928,676.563 777.761,680.23 774,684.5C 773.517,685.448 773.351,686.448 773.5,687.5C 686.269,782.249 598.269,876.749 509.5,971C 505.454,974.677 501.121,977.844 496.5,980.5C 487.207,984.024 477.54,985.191 467.5,984C 460.412,981.622 453.746,978.455 447.5,974.5C 442.167,969.833 437.167,964.833 432.5,959.5C 380.576,887.73 328.41,816.063 276,744.5C 269.787,733.797 268.954,722.797 273.5,711.5C 278.198,707.736 282.198,703.403 285.5,698.5C 301.961,685.435 318.961,673.102 336.5,661.5C 340.266,660.309 343.933,658.809 347.5,657C 351.821,656.501 356.154,656.334 360.5,656.5C 368.189,657.844 374.523,661.511 379.5,667.5C 380.167,668.833 381.167,669.833 382.5,670.5C 409.756,708.936 437.256,747.27 465,785.5C 470.697,793.572 476.864,801.238 483.5,808.5C 488.112,805.392 492.278,801.725 496,797.5C 539.394,750.61 582.894,703.944 626.5,657.5C 632.882,653.452 637.882,648.118 641.5,641.5C 644.71,637.079 648.377,633.079 652.5,629.5C 658.283,626.055 662.616,621.389 665.5,615.5C 671.55,611.783 676.217,606.783 679.5,600.5C 714.578,562.095 749.912,524.095 785.5,486.5C 795.268,474.898 805.935,464.064 817.5,454C 831.485,448.038 844.485,449.705 856.5,459C 873.661,474.495 890.495,490.328 907,506.5C 912.507,516.149 914.007,526.482 911.5,537.5 Z"/></g>
<g><path style="opacity:1" fill="#d0d4cf" d="M 868.5,463.5 C 875.222,471.224 882.555,478.224 890.5,484.5C 893.907,488.077 897.74,491.077 902,493.5C 902.333,494.5 902.667,495.5 903,496.5C 905.849,499.574 908.683,502.574 911.5,505.5C 913.538,508.593 915.205,511.926 916.5,515.5C 915.957,522.508 916.624,529.341 918.5,536C 915.228,540.695 912.062,545.528 909,550.5C 892.902,567.134 877.068,583.8 861.5,600.5C 876.033,582.889 891.533,565.889 908,549.5C 910.073,546.27 911.906,542.937 913.5,539.5C 913.253,538.287 912.586,537.62 911.5,537.5C 914.007,526.482 912.507,516.149 907,506.5C 890.495,490.328 873.661,474.495 856.5,459C 844.485,449.705 831.485,448.038 817.5,454C 805.935,464.064 795.268,474.898 785.5,486.5C 785.657,485.127 785.49,483.793 785,482.5C 782.787,482.944 781.12,484.611 780,487.5C 774.991,491.343 770.491,495.676 766.5,500.5C 764.645,502.544 763.978,504.711 764.5,507C 761.222,507.451 758.556,508.951 756.5,511.5C 756.962,509.243 757.962,507.243 759.5,505.5C 764.154,501.012 768.654,496.345 773,491.5C 773.483,490.552 773.649,489.552 773.5,488.5C 778.185,485.473 782.852,482.473 787.5,479.5C 788.74,478.027 789.74,476.36 790.5,474.5C 797.723,467.919 804.39,460.919 810.5,453.5C 810.414,452.504 810.748,451.671 811.5,451C 814.174,450.33 816.507,449.163 818.5,447.5C 830.556,441.852 842.223,442.686 853.5,450C 858.072,455.078 863.072,459.578 868.5,463.5 Z"/></g>
<g><path style="opacity:1" fill="#8a8a8a" d="M 868.5,463.5 C 876.419,469.749 883.752,476.749 890.5,484.5C 882.555,478.224 875.222,471.224 868.5,463.5 Z"/></g>
<g><path style="opacity:1" fill="#b2b2b2" d="M 301.5,680.5 C 300.04,682.463 298.373,684.296 296.5,686C 290.909,688.298 285.576,690.965 280.5,694C 275.613,698.384 271.28,703.217 267.5,708.5C 262.871,719.674 263.537,730.341 269.5,740.5C 269.167,740.5 268.833,740.5 268.5,740.5C 268.026,737.314 266.693,736.814 264.5,739C 247.333,754.167 230.167,769.333 213,784.5C 208.061,794.435 210.227,802.268 219.5,808C 224.652,810.122 229.652,809.789 234.5,807C 250.961,793.541 267.128,779.708 283,765.5C 283.322,763.311 282.822,761.311 281.5,759.5C 285.829,762.678 287.829,767.011 287.5,772.5C 289.39,772.297 290.89,772.963 292,774.5C 293.485,777.3 295.151,779.966 297,782.5C 297.49,783.793 297.657,785.127 297.5,786.5C 298.5,786.5 299.5,786.5 300.5,786.5C 300.238,787.978 300.571,789.311 301.5,790.5C 307.664,798.156 313.831,805.823 320,813.5C 325.216,817.38 328.882,822.38 331,828.5C 339.699,837.874 347.699,847.874 355,858.5C 357.944,866.035 362.611,872.368 369,877.5C 370.867,879.808 371.867,882.475 372,885.5C 375.214,887.71 377.214,890.71 378,894.5C 383.539,896.702 386.872,900.702 388,906.5C 394.363,913.916 399.696,921.916 404,930.5C 409.794,935.129 414.294,940.796 417.5,947.5C 303.165,947.833 188.831,947.5 74.5,946.5C 112.197,912.636 150.364,879.303 189,846.5C 192.03,841.943 193.03,836.943 192,831.5C 186.741,820.631 178.574,817.798 167.5,823C 127.314,858.02 86.9809,892.854 46.5,927.5C 45.1667,787.833 45.1667,648.167 46.5,508.5C 127.343,566.088 208.01,623.921 288.5,682C 290.134,683.308 291.968,684.142 294,684.5C 296.622,683.375 299.122,682.041 301.5,680.5 Z"/></g>
<g><path style="opacity:1" fill="#b2b2b2" d="M 951.5,509.5 C 952.833,578.663 953.5,648.163 953.5,718C 953.5,787.837 952.833,857.337 951.5,926.5C 879.173,863.511 806.506,800.845 733.5,738.5C 730.812,741.854 727.812,744.854 724.5,747.5C 726.403,744.252 728.737,741.252 731.5,738.5C 739.21,732.622 746.043,725.956 752,718.5C 772.811,696.699 793.145,674.699 813,652.5C 829.739,635.598 845.906,618.265 861.5,600.5C 877.068,583.8 892.902,567.134 909,550.5C 912.062,545.528 915.228,540.695 918.5,536C 916.624,529.341 915.957,522.508 916.5,515.5C 917.434,516.568 917.768,517.901 917.5,519.5C 918.065,524.149 918.565,528.816 919,533.5C 920.518,532.837 921.685,531.837 922.5,530.5C 932.47,523.855 942.137,516.855 951.5,509.5 Z"/></g>
<g><path style="opacity:1" fill="#424242" d="M 917.5,519.5 C 918.117,519.611 918.617,519.944 919,520.5C 919.333,524.167 919.667,527.833 920,531.5C 920.671,530.748 921.504,530.414 922.5,530.5C 921.685,531.837 920.518,532.837 919,533.5C 918.565,528.816 918.065,524.149 917.5,519.5 Z"/></g>
<g><path style="opacity:1" fill="#020202" d="M 628.5,649.5 C 628.167,649.5 627.833,649.5 627.5,649.5C 626.761,649.369 626.094,649.536 625.5,650C 619.914,656.243 614.414,662.41 609,668.5C 608.329,669.252 607.496,669.586 606.5,669.5C 570.679,639.412 535.012,609.078 499.5,578.5C 463.352,609.48 427.352,640.647 391.5,672C 390.552,672.483 389.552,672.649 388.5,672.5C 388.649,671.448 388.483,670.448 388,669.5C 385.989,667.322 383.823,665.322 381.5,663.5C 381.672,662.508 381.338,661.842 380.5,661.5C 377.097,656.646 372.764,652.98 367.5,650.5C 408.936,614.905 450.269,579.072 491.5,543C 497.647,540.79 503.647,541.124 509.5,544C 548.833,578 588.167,612 627.5,646C 628.337,647.011 628.67,648.178 628.5,649.5 Z"/></g>
<g><path style="opacity:0.894" fill="#3b3b3b" d="M 951.5,509.5 C 952.209,508.596 953.209,508.263 954.5,508.5C 954.5,648.167 954.5,787.833 954.5,927.5C 953.209,927.737 952.209,927.404 951.5,926.5C 952.833,857.337 953.5,787.837 953.5,718C 953.5,648.163 952.833,578.663 951.5,509.5 Z"/></g>
<g><path style="opacity:1" fill="#b3b3b3" d="M 606.5,669.5 C 607.209,670.404 608.209,670.737 609.5,670.5C 607.958,671.163 606.291,671.83 604.5,672.5C 599.553,678.95 594.053,684.95 588,690.5C 586.414,692.67 585.08,695.004 584,697.5C 577.99,703.509 571.657,709.175 565,714.5C 563.306,716.24 562.139,718.24 561.5,720.5C 560.448,720.351 559.448,720.517 558.5,721C 553.641,727.523 548.141,733.357 542,738.5C 540.729,741.433 539.062,744.099 537,746.5C 519.488,764.013 502.654,782.18 486.5,801C 485.207,801.49 483.873,801.657 482.5,801.5C 472.233,785.01 460.4,769.344 447,754.5C 435.976,736.116 423.309,718.783 409,702.5C 406.431,698.366 404.098,694.033 402,689.5C 399.239,685.65 396.239,681.983 393,678.5C 392.506,676.866 392.34,675.199 392.5,673.5C 390.801,673.66 389.134,673.494 387.5,673C 386.333,671.167 384.833,669.667 383,668.5C 382.536,669.094 382.369,669.761 382.5,670.5C 381.167,669.833 380.167,668.833 379.5,667.5C 381.176,666.817 381.843,665.483 381.5,663.5C 383.823,665.322 385.989,667.322 388,669.5C 388.483,670.448 388.649,671.448 388.5,672.5C 389.552,672.649 390.552,672.483 391.5,672C 427.352,640.647 463.352,609.48 499.5,578.5C 535.012,609.078 570.679,639.412 606.5,669.5 Z"/></g>
<g><path style="opacity:1" fill="#67f74b" d="M 868.5,585.5 C 864.539,591.129 859.873,596.129 854.5,600.5C 857.783,594.217 862.45,589.217 868.5,585.5 Z"/></g>
<g><path style="opacity:1" fill="#66f74a" d="M 679.5,600.5 C 676.217,606.783 671.55,611.783 665.5,615.5C 670.195,610.474 674.861,605.474 679.5,600.5 Z"/></g>
<g><path style="opacity:1" fill="#68f74c" d="M 665.5,615.5 C 662.616,621.389 658.283,626.055 652.5,629.5C 656.843,624.792 661.176,620.125 665.5,615.5 Z"/></g>
<g><path style="opacity:1" fill="#6af550" d="M 641.5,641.5 C 637.882,648.118 632.882,653.452 626.5,657.5C 630.795,651.537 635.795,646.204 641.5,641.5 Z"/></g>
<g><path style="opacity:1" fill="#454545" d="M 367.5,650.5 C 372.764,652.98 377.097,656.646 380.5,661.5C 376.934,658.46 372.934,655.96 368.5,654C 366.689,652.959 366.355,651.793 367.5,650.5 Z"/></g>
<g><path style="opacity:1" fill="#6bef51" d="M 351.5,655.5 C 354.713,655.19 357.713,655.523 360.5,656.5C 356.154,656.334 351.821,656.501 347.5,657C 343.933,658.809 340.266,660.309 336.5,661.5C 340.644,657.603 345.644,655.603 351.5,655.5 Z"/></g>
<g><path style="opacity:1" fill="#6a6a6a" d="M 627.5,649.5 C 622.837,655.829 617.503,661.496 611.5,666.5C 610.82,667.86 610.153,669.193 609.5,670.5C 608.209,670.737 607.209,670.404 606.5,669.5C 607.496,669.586 608.329,669.252 609,668.5C 614.414,662.41 619.914,656.243 625.5,650C 626.094,649.536 626.761,649.369 627.5,649.5 Z"/></g>
<g><path style="opacity:1" fill="#e0e3df" d="M 911.5,537.5 C 912.586,537.62 913.253,538.287 913.5,539.5C 911.906,542.937 910.073,546.27 908,549.5C 891.533,565.889 876.033,582.889 861.5,600.5C 845.906,618.265 829.739,635.598 813,652.5C 793.145,674.699 772.811,696.699 752,718.5C 746.043,725.956 739.21,732.622 731.5,738.5C 728.737,741.252 726.403,744.252 724.5,747.5C 719.488,751.513 715.155,756.179 711.5,761.5C 684.872,790.63 658.039,819.63 631,848.5C 630.274,851.46 628.44,853.46 625.5,854.5C 617.485,864.181 608.818,873.181 599.5,881.5C 582.469,897.7 566.636,915.033 552,933.5C 546.837,937.915 542.003,942.582 537.5,947.5C 527.058,958.608 516.392,969.275 505.5,979.5C 502.43,979.368 499.43,979.701 496.5,980.5C 501.121,977.844 505.454,974.677 509.5,971C 598.269,876.749 686.269,782.249 773.5,687.5C 778.568,683.435 782.902,678.768 786.5,673.5C 809.873,649.795 832.539,625.462 854.5,600.5C 859.873,596.129 864.539,591.129 868.5,585.5C 880.439,573.392 892.272,561.059 904,548.5C 906.393,544.634 908.893,540.968 911.5,537.5 Z"/></g>
<g><path style="opacity:1" fill="#66f74a" d="M 786.5,673.5 C 782.902,678.768 778.568,683.435 773.5,687.5C 773.351,686.448 773.517,685.448 774,684.5C 777.761,680.23 781.928,676.563 786.5,673.5 Z"/></g>
<g><path style="opacity:1" fill="#6a6a6a" d="M 316.5,669.5 C 311.588,673.329 306.588,676.995 301.5,680.5C 305.453,675.527 310.453,671.861 316.5,669.5 Z"/></g>
<g><path style="opacity:1" fill="#64f748" d="M 285.5,698.5 C 282.198,703.403 278.198,707.736 273.5,711.5C 276.113,705.887 280.113,701.554 285.5,698.5 Z"/></g>
<g><path style="opacity:1" fill="#020202" d="M 268.5,740.5 C 268.343,741.873 268.51,743.207 269,744.5C 271.167,746.83 272.834,749.497 274,752.5C 275.371,754.041 276.871,755.375 278.5,756.5C 279.833,757.167 280.833,758.167 281.5,759.5C 282.822,761.311 283.322,763.311 283,765.5C 267.128,779.708 250.961,793.541 234.5,807C 229.652,809.789 224.652,810.122 219.5,808C 210.227,802.268 208.061,794.435 213,784.5C 230.167,769.333 247.333,754.167 264.5,739C 266.693,736.814 268.026,737.314 268.5,740.5 Z"/></g>
<g><path style="opacity:1" fill="#e2e5e1" d="M 785.5,486.5 C 749.912,524.095 714.578,562.095 679.5,600.5C 674.861,605.474 670.195,610.474 665.5,615.5C 661.176,620.125 656.843,624.792 652.5,629.5C 648.377,633.079 644.71,637.079 641.5,641.5C 635.795,646.204 630.795,651.537 626.5,657.5C 582.894,703.944 539.394,750.61 496,797.5C 492.278,801.725 488.112,805.392 483.5,808.5C 476.864,801.238 470.697,793.572 465,785.5C 437.256,747.27 409.756,708.936 382.5,670.5C 382.369,669.761 382.536,669.094 383,668.5C 384.833,669.667 386.333,671.167 387.5,673C 389.134,673.494 390.801,673.66 392.5,673.5C 392.34,675.199 392.506,676.866 393,678.5C 396.239,681.983 399.239,685.65 402,689.5C 404.098,694.033 406.431,698.366 409,702.5C 423.309,718.783 435.976,736.116 447,754.5C 460.4,769.344 472.233,785.01 482.5,801.5C 483.873,801.657 485.207,801.49 486.5,801C 502.654,782.18 519.488,764.013 537,746.5C 539.062,744.099 540.729,741.433 542,738.5C 548.141,733.357 553.641,727.523 558.5,721C 559.448,720.517 560.448,720.351 561.5,720.5C 562.139,718.24 563.306,716.24 565,714.5C 571.657,709.175 577.99,703.509 584,697.5C 585.08,695.004 586.414,692.67 588,690.5C 594.053,684.95 599.553,678.95 604.5,672.5C 606.291,671.83 607.958,671.163 609.5,670.5C 610.153,669.193 610.82,667.86 611.5,666.5C 617.503,661.496 622.837,655.829 627.5,649.5C 627.833,649.5 628.167,649.5 628.5,649.5C 629.41,647.981 630.243,646.315 631,644.5C 637,638.5 643,632.5 649,626.5C 650.281,622.763 652.781,620.263 656.5,619C 660.103,612.984 664.936,608.151 671,604.5C 673.111,599.766 676.444,596.099 681,593.5C 687.195,582.804 695.028,573.471 704.5,565.5C 705.386,564.675 705.719,563.675 705.5,562.5C 711.734,559.104 716.901,554.437 721,548.5C 727.993,542.849 733.826,536.182 738.5,528.5C 744.869,523.128 750.869,517.461 756.5,511.5C 758.556,508.951 761.222,507.451 764.5,507C 763.978,504.711 764.645,502.544 766.5,500.5C 770.491,495.676 774.991,491.343 780,487.5C 781.12,484.611 782.787,482.944 785,482.5C 785.49,483.793 785.657,485.127 785.5,486.5 Z"/></g>
<g><path style="opacity:1" fill="#676767" d="M 724.5,747.5 C 720.874,752.461 716.874,757.128 712.5,761.5C 712.167,761.5 711.833,761.5 711.5,761.5C 715.155,756.179 719.488,751.513 724.5,747.5 Z"/></g>
<g><path style="opacity:1" fill="#454545" d="M 268.5,740.5 C 268.833,740.5 269.167,740.5 269.5,740.5C 269.351,741.552 269.517,742.552 270,743.5C 273.866,747.192 276.699,751.525 278.5,756.5C 276.871,755.375 275.371,754.041 274,752.5C 272.834,749.497 271.167,746.83 269,744.5C 268.51,743.207 268.343,741.873 268.5,740.5 Z"/></g>
<g><path style="opacity:1" fill="#b2b2b2" d="M 711.5,761.5 C 711.833,761.5 712.167,761.5 712.5,761.5C 783.776,822.771 854.776,884.438 925.5,946.5C 796.835,947.5 668.168,947.833 539.5,947.5C 548.151,940.341 555.651,932.008 562,922.5C 575.075,909.263 587.575,895.596 599.5,881.5C 608.818,873.181 617.485,864.181 625.5,854.5C 628.44,853.46 630.274,851.46 631,848.5C 658.039,819.63 684.872,790.63 711.5,761.5 Z"/></g>
<g><path style="opacity:1" fill="#dfe2df" d="M 351.5,655.5 C 345.644,655.603 340.644,657.603 336.5,661.5C 318.961,673.102 301.961,685.435 285.5,698.5C 280.113,701.554 276.113,705.887 273.5,711.5C 268.954,722.797 269.787,733.797 276,744.5C 328.41,816.063 380.576,887.73 432.5,959.5C 429.746,957.998 427.079,956.331 424.5,954.5C 423.833,954.167 423.167,953.833 422.5,953.5C 422.378,950.708 421.044,948.708 418.5,947.5C 418.167,947.5 417.833,947.5 417.5,947.5C 414.294,940.796 409.794,935.129 404,930.5C 399.696,921.916 394.363,913.916 388,906.5C 386.872,900.702 383.539,896.702 378,894.5C 377.214,890.71 375.214,887.71 372,885.5C 371.867,882.475 370.867,879.808 369,877.5C 362.611,872.368 357.944,866.035 355,858.5C 347.699,847.874 339.699,837.874 331,828.5C 328.882,822.38 325.216,817.38 320,813.5C 313.831,805.823 307.664,798.156 301.5,790.5C 300.571,789.311 300.238,787.978 300.5,786.5C 299.5,786.5 298.5,786.5 297.5,786.5C 297.657,785.127 297.49,783.793 297,782.5C 295.151,779.966 293.485,777.3 292,774.5C 290.89,772.963 289.39,772.297 287.5,772.5C 287.829,767.011 285.829,762.678 281.5,759.5C 280.833,758.167 279.833,757.167 278.5,756.5C 276.699,751.525 273.866,747.192 270,743.5C 269.517,742.552 269.351,741.552 269.5,740.5C 263.537,730.341 262.871,719.674 267.5,708.5C 271.28,703.217 275.613,698.384 280.5,694C 285.576,690.965 290.909,688.298 296.5,686C 298.373,684.296 300.04,682.463 301.5,680.5C 306.588,676.995 311.588,673.329 316.5,669.5C 317.605,668.4 318.938,667.733 320.5,667.5C 323.791,664.078 327.458,660.912 331.5,658C 336.036,656.713 340.036,654.546 343.5,651.5C 349.39,649.676 355.39,649.176 361.5,650C 363.439,650.908 364.439,652.408 364.5,654.5C 359.968,654.182 355.634,654.515 351.5,655.5 Z"/></g>
<g><path style="opacity:1" fill="#cdcdcd" d="M 599.5,881.5 C 587.575,895.596 575.075,909.263 562,922.5C 555.651,932.008 548.151,940.341 539.5,947.5C 539.167,947.5 538.833,947.5 538.5,947.5C 538.167,947.5 537.833,947.5 537.5,947.5C 542.003,942.582 546.837,937.915 552,933.5C 566.636,915.033 582.469,897.7 599.5,881.5 Z"/></g>
<g><path style="opacity:1" fill="#5d5d5d" d="M 418.5,947.5 C 421.044,948.708 422.378,950.708 422.5,953.5C 420.631,951.966 419.298,949.966 418.5,947.5 Z"/></g>
<g><path style="opacity:1" fill="#c8c9c7" d="M 424.5,954.5 C 427.079,956.331 429.746,957.998 432.5,959.5C 437.167,964.833 442.167,969.833 447.5,974.5C 446.153,973.972 444.819,973.805 443.5,974C 444.833,975.667 446.167,977.333 447.5,979C 446.906,979.464 446.239,979.631 445.5,979.5C 439.63,974.796 434.63,969.296 430.5,963C 429.552,962.517 428.552,962.351 427.5,962.5C 427.428,959.447 426.428,956.781 424.5,954.5 Z"/></g>
<g><path style="opacity:1" fill="#717171" d="M 537.5,947.5 C 537.833,947.5 538.167,947.5 538.5,947.5C 528.729,958.935 518.395,969.601 507.5,979.5C 506.833,979.5 506.167,979.5 505.5,979.5C 516.392,969.275 527.058,958.608 537.5,947.5 Z"/></g>
<g><path style="opacity:0.478" fill="#eef0ee" d="M 447.5,974.5 C 453.746,978.455 460.412,981.622 467.5,984C 477.54,985.191 487.207,984.024 496.5,980.5C 499.43,979.701 502.43,979.368 505.5,979.5C 506.167,979.5 506.833,979.5 507.5,979.5C 508.5,979.5 509.5,979.5 510.5,979.5C 509.194,980.467 508.527,981.801 508.5,983.5C 506.473,983.338 504.473,983.505 502.5,984C 501.167,984.667 501.167,985.333 502.5,986C 500.059,986.036 498.059,986.869 496.5,988.5C 493.914,989.48 491.247,989.813 488.5,989.5C 488.5,990.833 488.5,992.167 488.5,993.5C 478.506,993.787 468.506,992.621 458.5,990C 457.953,989.075 457.287,988.242 456.5,987.5C 452.341,989.08 450.008,987.58 449.5,983C 447.527,982.505 445.527,982.338 443.5,982.5C 443.5,981.5 443.5,980.5 443.5,979.5C 444.167,979.5 444.833,979.5 445.5,979.5C 446.239,979.631 446.906,979.464 447.5,979C 446.167,977.333 444.833,975.667 443.5,974C 444.819,973.805 446.153,973.972 447.5,974.5 Z"/></g>
</svg>
