<?xml version="1.0" encoding="UTF-8"?>
<!DOCTYPE svg PUBLIC "-//W3C//DTD SVG 1.1//EN" "http://www.w3.org/Graphics/SVG/1.1/DTD/svg11.dtd">
<svg xmlns="http://www.w3.org/2000/svg" version="1.1" width="1000px" height="1000px" style="shape-rendering:geometricPrecision; text-rendering:geometricPrecision; image-rendering:optimizeQuality; fill-rule:evenodd; clip-rule:evenodd" xmlns:xlink="http://www.w3.org/1999/xlink">
<g><path style="opacity:0.996" fill="#000000" d="M 493.5,18.5 C 499.929,17.6977 505.929,18.8644 511.5,22C 567.662,59.5816 623.995,96.915 680.5,134C 722.167,134.333 763.833,134.667 805.5,135C 811.87,136.436 816.037,140.269 818,146.5C 818.333,172.833 818.667,199.167 819,225.5C 873.986,260.825 928.152,297.325 981.5,335C 983.359,336.558 984.859,338.391 986,340.5C 986.667,550.167 986.667,759.833 986,969.5C 983.448,973.719 979.948,976.886 975.5,979C 658.167,979.667 340.833,979.667 23.5,979C 20.2167,977.439 17.3834,975.273 15,972.5C 13.8353,866.747 13.3353,760.914 13.5,655C 13.6667,549.833 13.8333,444.667 14,339.5C 14.6667,338.167 15.3333,336.833 16,335.5C 70.395,298.774 125.062,262.441 180,226.5C 180.333,201.167 180.667,175.833 181,150.5C 181.828,142.669 185.995,137.502 193.5,135C 235.5,134.667 277.5,134.333 319.5,134C 377.737,95.7248 435.737,57.2248 493.5,18.5 Z"/></g>
<g><path style="opacity:1" fill="#326437" d="M 498.5,54.5 C 499.552,54.3505 500.552,54.5172 501.5,55C 541.167,81.5 580.833,108 620.5,134.5C 540.167,135.833 459.833,135.833 379.5,134.5C 419.184,107.808 458.851,81.1409 498.5,54.5 Z"/></g>
<g><path style="opacity:1" fill="#7e8a80" d="M 785.5,589.5 C 785.5,449.167 785.5,308.833 785.5,168.5C 595.167,168.5 404.833,168.5 214.5,168.5C 214.833,261.668 214.499,354.668 213.5,447.5C 213.5,354.167 213.5,260.833 213.5,167.5C 404.5,167.5 595.5,167.5 786.5,167.5C 786.833,308.334 786.5,449.001 785.5,589.5 Z"/></g>
<g><path style="opacity:1" fill="#dff4e1" d="M 785.5,589.5 C 744.767,618.619 703.933,647.619 663,676.5C 611.55,632.72 560.383,588.554 509.5,544C 504.43,541.576 499.097,540.909 493.5,542C 441.314,587.021 388.981,631.854 336.5,676.5C 295.527,647.36 254.694,618.027 214,588.5C 213.5,541.501 213.333,494.501 213.5,447.5C 214.499,354.668 214.833,261.668 214.5,168.5C 404.833,168.5 595.167,168.5 785.5,168.5C 785.5,308.833 785.5,449.167 785.5,589.5 Z"/></g>
<g><path style="opacity:1" fill="#c1eac4" d="M 333.5,250.5 C 444.501,250.333 555.501,250.5 666.5,251C 678.604,255.983 682.104,264.483 677,276.5C 674.072,280.381 670.239,282.881 665.5,284C 555.167,284.667 444.833,284.667 334.5,284C 322.234,279.968 318.067,271.801 322,259.5C 325.183,255.462 329.016,252.462 333.5,250.5 Z"/></g>
<g><path style="opacity:1" fill="#326537" d="M 179.5,266.5 C 180.499,365.665 180.833,464.999 180.5,564.5C 135.573,532.913 90.9062,500.913 46.5,468.5C 45.1667,430.5 45.1667,392.5 46.5,354.5C 90.8511,325.141 135.184,295.807 179.5,266.5 Z"/></g>
<g><path style="opacity:1" fill="#326537" d="M 818.5,265.5 C 864.331,294.249 909.331,324.249 953.5,355.5C 954.833,393.167 954.833,430.833 953.5,468.5C 908.833,500.5 864.167,532.5 819.5,564.5C 818.5,464.836 818.167,365.169 818.5,265.5 Z"/></g>
<g><path style="opacity:1" fill="#c1eac4" d="M 333.5,325.5 C 444.501,325.333 555.501,325.5 666.5,326C 679.21,331.464 682.376,340.297 676,352.5C 673.239,356.534 669.406,358.701 664.5,359C 554.833,359.667 445.167,359.667 335.5,359C 321.829,355.157 317.662,346.657 323,333.5C 325.855,329.789 329.355,327.123 333.5,325.5 Z"/></g>
<g><path style="opacity:0.859" fill="#1e3d21" d="M 179.5,266.5 C 179.56,265.957 179.893,265.624 180.5,265.5C 181.832,365.333 181.832,464.999 180.5,564.5C 180.833,464.999 180.499,365.665 179.5,266.5 Z"/></g>
<g><path style="opacity:1" fill="#c1eac4" d="M 332.5,400.5 C 444.167,400.333 555.834,400.5 667.5,401C 679.393,407.01 682.226,415.844 676,427.5C 672.936,431.113 669.102,433.28 664.5,434C 554.5,434.667 444.5,434.667 334.5,434C 321.553,429.606 317.72,421.106 323,408.5C 325.772,405.217 328.939,402.55 332.5,400.5 Z"/></g>
<g><path style="opacity:1" fill="#84d48b" d="M 47.5,509.5 C 135.482,572.475 223.482,635.475 311.5,698.5C 278.211,727.285 245.044,756.285 212,785.5C 207.484,801.969 213.65,809.802 230.5,809C 234.675,807.416 238.341,805.082 241.5,802C 327.352,727.313 413.352,652.813 499.5,578.5C 641.82,700.822 783.82,823.489 925.5,946.5C 641.833,947.833 358.167,947.833 74.5,946.5C 113.123,913.049 151.623,879.382 190,845.5C 194.244,837.068 193.077,829.568 186.5,823C 177.44,818.605 169.44,819.939 162.5,827C 124.135,860.174 85.802,893.341 47.5,926.5C 46.1667,787.5 46.1667,648.5 47.5,509.5 Z"/></g>
<g><path style="opacity:1" fill="#132615" d="M 952.5,509.5 C 952.56,508.957 952.893,508.624 953.5,508.5C 954.829,531.663 954.829,554.663 953.5,577.5C 953.831,554.661 953.497,531.994 952.5,509.5 Z"/></g>
<g><path style="opacity:1" fill="#84d48b" d="M 952.5,509.5 C 953.497,531.994 953.831,554.661 953.5,577.5C 953.833,693.835 953.5,810.169 952.5,926.5C 864.353,850.854 776.353,775.02 688.5,699C 776.379,635.615 864.379,572.448 952.5,509.5 Z"/></g>
<g><path style="opacity:0.851" fill="#629d67" d="M 47.5,509.5 C 46.1667,648.5 46.1667,787.5 47.5,926.5C 47.44,927.043 47.1067,927.376 46.5,927.5C 45.1667,787.833 45.1667,648.167 46.5,508.5C 47.1067,508.624 47.44,508.957 47.5,509.5 Z"/></g>
</svg>
