<?xml version="1.0" encoding="UTF-8"?>
<!DOCTYPE svg PUBLIC "-//W3C//DTD SVG 1.1//EN" "http://www.w3.org/Graphics/SVG/1.1/DTD/svg11.dtd">
<svg xmlns="http://www.w3.org/2000/svg" version="1.1" width="1000px" height="1000px" style="shape-rendering:geometricPrecision; text-rendering:geometricPrecision; image-rendering:optimizeQuality; fill-rule:evenodd; clip-rule:evenodd" xmlns:xlink="http://www.w3.org/1999/xlink">
<g><path style="opacity:1" fill="#808080" d="M 53.5,92.5 C 350.5,92.3333 647.5,92.5 944.5,93C 955,95.5 961.5,102 964,112.5C 964.667,213.5 964.667,314.5 964,415.5C 961.5,426 955,432.5 944.5,435C 795.5,435.5 646.5,435.667 497.5,435.5C 497.5,453.833 497.5,472.167 497.5,490.5C 520.833,490.5 544.167,490.5 567.5,490.5C 567.5,498.167 567.5,505.833 567.5,513.5C 582.833,513.5 598.167,513.5 613.5,513.5C 613.5,521.5 613.5,529.5 613.5,537.5C 628.833,537.5 644.167,537.5 659.5,537.5C 659.5,545.167 659.5,552.833 659.5,560.5C 674.833,560.5 690.167,560.5 705.5,560.5C 705.5,622.167 705.5,683.833 705.5,745.5C 697.833,745.5 690.167,745.5 682.5,745.5C 682.5,768.833 682.5,792.167 682.5,815.5C 674.833,815.5 667.167,815.5 659.5,815.5C 659.5,838.167 659.5,860.833 659.5,883.5C 582.167,883.5 504.833,883.5 427.5,883.5C 427.5,860.833 427.5,838.167 427.5,815.5C 419.833,815.5 412.167,815.5 404.5,815.5C 404.5,799.833 404.5,784.167 404.5,768.5C 396.833,768.5 389.167,768.5 381.5,768.5C 381.5,760.833 381.5,753.167 381.5,745.5C 373.833,745.5 366.167,745.5 358.5,745.5C 358.5,730.167 358.5,714.833 358.5,699.5C 350.833,699.5 343.167,699.5 335.5,699.5C 335.5,684.167 335.5,668.833 335.5,653.5C 327.833,653.5 320.167,653.5 312.5,653.5C 312.5,630.167 312.5,606.833 312.5,583.5C 335.833,583.5 359.167,583.5 382.5,583.5C 382.5,591.167 382.5,598.833 382.5,606.5C 389.833,606.5 397.167,606.5 404.5,606.5C 404.5,549.5 404.5,492.5 404.5,435.5C 287.5,435.667 170.5,435.5 53.5,435C 43,432.5 36.5,426 34,415.5C 33.3333,314.5 33.3333,213.5 34,112.5C 36.6821,101.986 43.1821,95.3191 53.5,92.5 Z"/></g>
<g><path style="opacity:1" fill="#c4c5cf" d="M 474.5,395.5 C 626.5,395.5 778.5,395.5 930.5,395.5C 930.667,384.162 930.5,372.828 930,361.5C 929.5,372.495 929.333,383.495 929.5,394.5C 777.833,394.5 626.167,394.5 474.5,394.5C 474.5,388.5 474.5,382.5 474.5,376.5C 466.472,376.831 458.472,376.498 450.5,375.5C 448.118,373.929 445.451,373.096 442.5,373C 441.577,370.959 441.244,368.792 441.5,366.5C 441.5,347.167 441.5,327.833 441.5,308.5C 445.833,308.5 450.167,308.5 454.5,308.5C 460.027,307.915 463.194,310.248 464,315.5C 465.049,316.517 466.216,316.684 467.5,316C 469.038,313.072 469.704,309.906 469.5,306.5C 469.473,303.911 469.139,301.411 468.5,299C 448.19,299.579 427.857,299.579 407.5,299C 405.105,296.855 402.938,297.022 401,299.5C 399.161,304.642 398.661,309.809 399.5,315C 400.5,315.667 401.5,315.667 402.5,315C 403.939,312.775 405.606,310.775 407.5,309C 414.158,308.5 420.825,308.334 427.5,308.5C 427.801,330.2 427.467,351.866 426.5,373.5C 421.333,372.492 419.666,374.325 421.5,379C 423.473,379.495 425.473,379.662 427.5,379.5C 427.5,384.5 427.5,389.5 427.5,394.5C 308.167,394.5 188.833,394.5 69.5,394.5C 69.6665,383.495 69.4998,372.495 69,361.5C 68.5001,372.828 68.3335,384.162 68.5,395.5C 188.167,395.5 307.833,395.5 427.5,395.5C 427.5,396.5 427.5,397.5 427.5,398.5C 419.833,398.5 412.167,398.5 404.5,398.5C 404.5,400.5 404.5,402.5 404.5,404.5C 289.5,404.5 174.5,404.5 59.5,404.5C 59.5,310.833 59.5,217.167 59.5,123.5C 352.833,123.5 646.167,123.5 939.5,123.5C 939.5,217.167 939.5,310.833 939.5,404.5C 792.167,404.5 644.833,404.5 497.5,404.5C 497.5,402.5 497.5,400.5 497.5,398.5C 489.833,398.5 482.167,398.5 474.5,398.5C 474.5,397.5 474.5,396.5 474.5,395.5 Z"/></g>
<g><path style="opacity:1" fill="#898989" d="M 614.5,154.5 C 617.261,153.915 618.927,154.915 619.5,157.5C 619.114,162.195 618.114,166.695 616.5,171C 615.056,171.781 613.723,171.614 612.5,170.5C 611.907,168.618 611.24,166.785 610.5,165C 604.243,163.683 597.909,163.183 591.5,163.5C 591.5,171.833 591.5,180.167 591.5,188.5C 598.175,188.666 604.842,188.5 611.5,188C 614.368,184.411 616.368,184.744 617.5,189C 616.8,194.174 616.133,199.341 615.5,204.5C 613.856,204.714 612.356,204.38 611,203.5C 610.907,200.993 610.074,198.826 608.5,197C 602.843,196.501 597.176,196.334 591.5,196.5C 591.334,206.172 591.5,215.839 592,225.5C 592.833,226.333 593.667,227.167 594.5,228C 599.167,228.667 603.833,228.667 608.5,228C 613.713,227.619 616.38,224.786 616.5,219.5C 620.424,217.747 622.091,219.08 621.5,223.5C 621.154,227.063 620.487,230.563 619.5,234C 619.095,234.945 618.428,235.612 617.5,236C 603.982,235.991 590.482,236.158 577,236.5C 572.029,237.038 570.195,235.038 571.5,230.5C 573.396,229.534 575.396,229.201 577.5,229.5C 577.667,207.164 577.5,184.831 577,162.5C 574.931,161.736 572.764,161.236 570.5,161C 569.594,159.301 569.261,157.467 569.5,155.5C 584.676,155.829 599.676,155.496 614.5,154.5 Z"/></g>
<g><path style="opacity:1" fill="#f9f9f9" d="M 615.5,156.5 C 616.376,156.369 617.043,156.702 617.5,157.5C 616.738,161.111 616.238,164.778 616,168.5C 615.586,168.957 615.086,169.291 614.5,169.5C 613.702,167.922 613.202,166.256 613,164.5C 612.25,163.874 611.416,163.374 610.5,163C 603.574,161.661 596.574,161.161 589.5,161.5C 589.5,171.167 589.5,180.833 589.5,190.5C 596.841,190.666 604.174,190.5 611.5,190C 612.931,189.535 614.097,188.701 615,187.5C 615,192.495 614.5,197.495 613.5,202.5C 612.928,200.083 611.928,197.916 610.5,196C 603.574,194.661 596.574,194.161 589.5,194.5C 589.046,205.603 589.546,216.603 591,227.5C 591.903,228.701 593.069,229.535 594.5,230C 599.833,230.667 605.167,230.667 610.5,230C 615.151,228.515 617.818,225.348 618.5,220.5C 619.527,224.505 619.361,228.505 618,232.5C 614.26,233.794 610.26,234.461 606,234.5C 594.825,233.294 583.659,233.294 572.5,234.5C 572.5,233.5 572.5,232.5 572.5,231.5C 575.079,231.917 577.246,231.25 579,229.5C 579.667,206.833 579.667,184.167 579,161.5C 576.757,160.029 574.257,159.029 571.5,158.5C 586.328,157.833 600.994,157.167 615.5,156.5 Z"/></g>
<g><path style="opacity:1" fill="#888888" d="M 636.5,155.5 C 648.171,155.333 659.838,155.5 671.5,156C 689.248,157.738 696.082,167.238 692,184.5C 689.602,190.129 686.102,194.963 681.5,199C 689.462,208.631 697.796,217.964 706.5,227C 709.898,228.916 713.565,229.916 717.5,230C 718.833,231.667 718.833,233.333 717.5,235C 711.5,235.667 705.5,235.667 699.5,235C 695.49,233.657 691.99,231.491 689,228.5C 682.62,220.242 676.12,212.076 669.5,204C 665.514,203.501 661.514,203.334 657.5,203.5C 657.334,211.507 657.5,219.507 658,227.5C 660.507,229.155 663.341,229.989 666.5,230C 667.554,231.388 667.72,232.888 667,234.5C 657.578,235.651 648.078,235.818 638.5,235C 636.666,230.325 638.333,228.492 643.5,229.5C 644.635,207.197 644.801,184.864 644,162.5C 641.527,161.88 639.027,161.214 636.5,160.5C 635.185,158.801 635.185,157.135 636.5,155.5 Z"/></g>
<g><path style="opacity:1" fill="#fbfbfb" d="M 637.5,157.5 C 649.171,157.333 660.838,157.5 672.5,158C 692.326,162.831 696.826,173.998 686,191.5C 684,193.5 682,195.5 680,197.5C 679.333,198.5 679.333,199.5 680,200.5C 687.796,209.964 695.962,219.131 704.5,228C 708.044,230.632 712.044,232.132 716.5,232.5C 706.399,235.408 697.566,233.408 690,226.5C 683.62,218.242 677.12,210.076 670.5,202C 665.511,201.501 660.511,201.334 655.5,201.5C 655.334,209.84 655.5,218.173 656,226.5C 656.273,228.329 657.107,229.829 658.5,231C 660.9,231.186 663.234,231.686 665.5,232.5C 656.833,233.833 648.167,233.833 639.5,232.5C 642.688,232.144 644.855,230.477 646,227.5C 646.667,205.833 646.667,184.167 646,162.5C 643.249,160.494 640.416,158.828 637.5,157.5 Z"/></g>
<g><path style="opacity:1" fill="#888888" d="M 655.5,161.5 C 675.341,159.173 683.841,167.84 681,187.5C 680.177,191.664 678.01,194.831 674.5,197C 668.448,197.79 662.448,197.624 656.5,196.5C 655.501,184.852 655.168,173.186 655.5,161.5 Z"/></g>
<g><path style="opacity:1" fill="#c4c5cf" d="M 657.5,163.5 C 674.947,162.119 682.114,170.119 679,187.5C 678.269,189.899 677.102,192.065 675.5,194C 669.621,195.41 663.621,195.91 657.5,195.5C 657.5,184.833 657.5,174.167 657.5,163.5 Z"/></g>
<g><path style="opacity:1" fill="#89898a" d="M 331.5,153.5 C 343.42,152.764 354.753,154.93 365.5,160C 381.496,171.648 386.996,187.148 382,206.5C 377.5,221.667 367.667,231.5 352.5,236C 325.989,241.833 307.822,232.333 298,207.5C 293.314,184.711 301.147,167.878 321.5,157C 324.98,155.897 328.313,154.731 331.5,153.5 Z"/></g>
<g><path style="opacity:1" fill="#fafafa" d="M 331.5,155.5 C 348.881,153.456 363.381,158.789 375,171.5C 382.569,184.237 383.569,197.57 378,211.5C 369.745,227.719 356.411,235.719 338,235.5C 310.2,232.278 297.2,216.612 299,188.5C 303.348,170.986 314.182,159.986 331.5,155.5 Z"/></g>
<g><path style="opacity:1" fill="#8a8a8b" d="M 331.5,159.5 C 352.277,157.297 365.11,166.297 370,186.5C 371.816,198.077 370.15,209.077 365,219.5C 353.424,232.832 339.924,234.999 324.5,226C 311.922,214.603 307.089,200.437 310,183.5C 312.472,171.199 319.639,163.199 331.5,159.5 Z"/></g>
<g><path style="opacity:1" fill="#c4c5cf" d="M 331.5,161.5 C 350.752,159.539 362.919,167.873 368,186.5C 369.303,196.431 368.303,206.097 365,215.5C 355.152,230.107 342.319,233.273 326.5,225C 315.915,216.282 310.915,204.949 311.5,191C 311.751,176.618 318.418,166.785 331.5,161.5 Z"/></g>
<g><path style="opacity:1" fill="#888888" d="M 393.5,155.5 C 405.171,155.333 416.838,155.5 428.5,156C 444.413,157.239 451.58,165.739 450,181.5C 447.769,188.395 443.936,194.229 438.5,199C 446.462,208.631 454.796,217.964 463.5,227C 469.305,230.078 475.139,230.578 481,228.5C 481.667,206.5 481.667,184.5 481,162.5C 478.931,161.736 476.764,161.236 474.5,161C 473.167,159.333 473.167,157.667 474.5,156C 489.833,155.333 505.167,155.333 520.5,156C 547.637,159.799 559.803,175.299 557,202.5C 553.731,219.77 543.564,230.603 526.5,235C 509.272,236.868 492.105,236.702 475,234.5C 468.916,235.642 462.749,235.809 456.5,235C 452.49,233.657 448.99,231.491 446,228.5C 439.62,220.242 433.12,212.076 426.5,204C 422.514,203.501 418.514,203.334 414.5,203.5C 414.334,211.507 414.5,219.507 415,227.5C 417.507,229.155 420.341,229.989 423.5,230C 424.554,231.388 424.72,232.888 424,234.5C 414.578,235.651 405.078,235.818 395.5,235C 393.666,230.325 395.333,228.492 400.5,229.5C 401.635,207.197 401.801,184.864 401,162.5C 398.527,161.88 396.027,161.214 393.5,160.5C 392.185,158.801 392.185,157.135 393.5,155.5 Z"/></g>
<g><path style="opacity:1" fill="#fbfbfb" d="M 394.5,157.5 C 406.171,157.333 417.838,157.5 429.5,158C 449.326,162.831 453.826,173.998 443,191.5C 441,193.5 439,195.5 437,197.5C 436.333,198.5 436.333,199.5 437,200.5C 444.796,209.964 452.962,219.131 461.5,228C 465.044,230.632 469.044,232.132 473.5,232.5C 463.399,235.408 454.566,233.408 447,226.5C 440.62,218.242 434.12,210.076 427.5,202C 422.511,201.501 417.511,201.334 412.5,201.5C 412.334,209.84 412.5,218.173 413,226.5C 413.273,228.329 414.107,229.829 415.5,231C 417.9,231.186 420.234,231.686 422.5,232.5C 413.833,233.833 405.167,233.833 396.5,232.5C 399.688,232.144 401.855,230.477 403,227.5C 403.667,205.833 403.667,184.167 403,162.5C 400.249,160.494 397.416,158.828 394.5,157.5 Z"/></g>
<g><path style="opacity:1" fill="#888888" d="M 412.5,161.5 C 432.341,159.173 440.841,167.84 438,187.5C 437.177,191.664 435.01,194.831 431.5,197C 425.448,197.79 419.448,197.624 413.5,196.5C 412.501,184.852 412.168,173.186 412.5,161.5 Z"/></g>
<g><path style="opacity:1" fill="#c4c5cf" d="M 414.5,163.5 C 431.947,162.119 439.114,170.119 436,187.5C 435.269,189.899 434.102,192.065 432.5,194C 426.621,195.41 420.621,195.91 414.5,195.5C 414.5,184.833 414.5,174.167 414.5,163.5 Z"/></g>
<g><path style="opacity:1" fill="#fafafa" d="M 475.5,157.5 C 490.504,157.333 505.504,157.5 520.5,158C 546.07,161.987 557.57,176.82 555,202.5C 550.702,221.463 538.869,231.963 519.5,234C 505.119,234.808 490.786,234.308 476.5,232.5C 478.078,231.702 479.744,231.202 481.5,231C 482.126,230.25 482.626,229.416 483,228.5C 483.667,206.167 483.667,183.833 483,161.5C 480.268,160.335 477.768,159.002 475.5,157.5 Z"/></g>
<g><path style="opacity:1" fill="#898989" d="M 494.5,161.5 C 507.208,160.099 519.208,162.266 530.5,168C 546.828,182.254 549.994,199.087 540,218.5C 531.955,227.186 521.955,231.186 510,230.5C 504.35,231.288 499.35,229.955 495,226.5C 493.866,215.402 493.366,204.235 493.5,193C 493.511,182.426 493.844,171.926 494.5,161.5 Z"/></g>
<g><path style="opacity:1" fill="#c4c5cf" d="M 495.5,163.5 C 512.519,160.948 526.686,165.948 538,178.5C 545.137,191.441 545.137,204.441 538,217.5C 533.108,223.197 526.941,226.697 519.5,228C 513.167,228.667 506.833,228.667 500.5,228C 499.069,227.535 497.903,226.701 497,225.5C 495.523,204.925 495.023,184.259 495.5,163.5 Z"/></g>
<g><path style="opacity:1" fill="#fcfcfc" d="M 456.5,306.5 C 450.69,305.51 444.69,305.177 438.5,305.5C 438.169,326.673 438.503,347.673 439.5,368.5C 439.673,374.838 443.007,377.338 449.5,376C 441.31,376.243 433.143,376.743 425,377.5C 424.167,377.167 423.333,376.833 422.5,376.5C 426.12,376.046 428.287,374.046 429,370.5C 429.5,349.169 429.667,327.836 429.5,306.5C 421.826,306.334 414.159,306.5 406.5,307C 404.094,308.622 402.261,310.789 401,313.5C 401.034,308.814 401.534,304.148 402.5,299.5C 404.308,299.491 405.975,299.991 407.5,301C 427.517,301.759 447.517,301.592 467.5,300.5C 467.827,305.214 467.493,309.88 466.5,314.5C 465.232,309.23 461.899,306.564 456.5,306.5 Z"/></g>
<g><path style="opacity:1" fill="#878788" d="M 361.5,299.5 C 370.418,299.183 379.251,299.516 388,300.5C 388.667,301.833 388.667,303.167 388,304.5C 386,305.167 384,305.833 382,306.5C 381.333,328.167 381.333,349.833 382,371.5C 384.849,373.309 388.015,374.309 391.5,374.5C 391.773,376.451 391.107,377.951 389.5,379C 379.922,379.818 370.422,379.651 361,378.5C 360.333,377.167 360.333,375.833 361,374.5C 363,373.833 365,373.167 367,372.5C 367.667,350.5 367.667,328.5 367,306.5C 365,305.833 363,305.167 361,304.5C 360.36,302.735 360.527,301.068 361.5,299.5 Z"/></g>
<g><path style="opacity:1" fill="#f9f9f9" d="M 362.5,301.5 C 370.528,301.169 378.528,301.502 386.5,302.5C 384.083,303.072 381.916,304.072 380,305.5C 379.333,327.167 379.333,348.833 380,370.5C 380.273,372.329 381.107,373.829 382.5,375C 384.9,375.186 387.234,375.686 389.5,376.5C 380.5,377.833 371.5,377.833 362.5,376.5C 364.917,375.928 367.084,374.928 369,373.5C 369.667,350.833 369.667,328.167 369,305.5C 366.575,304.357 364.408,303.024 362.5,301.5 Z"/></g>
<g><path style="opacity:1" fill="#c5c5c5" d="M 456.5,306.5 C 450.833,306.5 445.167,306.5 439.5,306.5C 439.5,327.167 439.5,347.833 439.5,368.5C 438.503,347.673 438.169,326.673 438.5,305.5C 444.69,305.177 450.69,305.51 456.5,306.5 Z"/></g>
<g><path style="opacity:1" fill="#898989" d="M 524.5,298.5 C 527.261,297.915 528.927,298.915 529.5,301.5C 529.114,306.195 528.114,310.695 526.5,315C 525.056,315.781 523.723,315.614 522.5,314.5C 521.907,312.618 521.24,310.785 520.5,309C 514.243,307.683 507.909,307.183 501.5,307.5C 501.5,315.833 501.5,324.167 501.5,332.5C 508.175,332.666 514.842,332.5 521.5,332C 524.368,328.411 526.368,328.744 527.5,333C 526.8,338.174 526.133,343.341 525.5,348.5C 523.856,348.714 522.356,348.38 521,347.5C 520.907,344.993 520.074,342.826 518.5,341C 512.843,340.501 507.176,340.334 501.5,340.5C 501.334,350.172 501.5,359.839 502,369.5C 502.833,370.333 503.667,371.167 504.5,372C 509.167,372.667 513.833,372.667 518.5,372C 523.713,371.619 526.38,368.786 526.5,363.5C 530.424,361.747 532.091,363.08 531.5,367.5C 531.154,371.063 530.487,374.563 529.5,378C 529.095,378.945 528.428,379.612 527.5,380C 513.982,379.991 500.482,380.158 487,380.5C 482.029,381.038 480.195,379.038 481.5,374.5C 483.396,373.534 485.396,373.201 487.5,373.5C 487.667,351.164 487.5,328.831 487,306.5C 484.931,305.736 482.764,305.236 480.5,305C 479.594,303.301 479.261,301.467 479.5,299.5C 494.676,299.829 509.676,299.496 524.5,298.5 Z"/></g>
<g><path style="opacity:1" fill="#f9f9f9" d="M 525.5,300.5 C 526.376,300.369 527.043,300.702 527.5,301.5C 526.738,305.111 526.238,308.778 526,312.5C 525.586,312.957 525.086,313.291 524.5,313.5C 523.702,311.922 523.202,310.256 523,308.5C 522.25,307.874 521.416,307.374 520.5,307C 513.574,305.661 506.574,305.161 499.5,305.5C 499.5,315.167 499.5,324.833 499.5,334.5C 506.841,334.666 514.174,334.5 521.5,334C 522.931,333.535 524.097,332.701 525,331.5C 525,336.495 524.5,341.495 523.5,346.5C 522.928,344.083 521.928,341.916 520.5,340C 513.574,338.661 506.574,338.161 499.5,338.5C 499.046,349.603 499.546,360.603 501,371.5C 501.903,372.701 503.069,373.535 504.5,374C 509.833,374.667 515.167,374.667 520.5,374C 525.151,372.515 527.818,369.348 528.5,364.5C 529.527,368.505 529.361,372.505 528,376.5C 524.26,377.794 520.26,378.461 516,378.5C 504.825,377.294 493.659,377.294 482.5,378.5C 482.5,377.5 482.5,376.5 482.5,375.5C 485.079,375.917 487.246,375.25 489,373.5C 489.667,350.833 489.667,328.167 489,305.5C 486.757,304.029 484.257,303.029 481.5,302.5C 496.328,301.833 510.994,301.167 525.5,300.5 Z"/></g>
<g><path style="opacity:1" fill="#9fa0a5" d="M 454.5,308.5 C 450.167,308.5 445.833,308.5 441.5,308.5C 441.5,327.833 441.5,347.167 441.5,366.5C 440.503,347.007 440.17,327.34 440.5,307.5C 445.363,307.181 450.03,307.514 454.5,308.5 Z"/></g>
<g><path style="opacity:1" fill="#8a8a8b" d="M 557.5,297.5 C 560.325,297.081 562.491,298.081 564,300.5C 573.582,319.998 583.416,339.332 593.5,358.5C 603.45,338.099 613.784,317.932 624.5,298C 628.677,297.858 630.511,300.025 630,304.5C 632.128,326.241 634.794,347.908 638,369.5C 638.465,370.931 639.299,372.097 640.5,373C 643.167,373.333 645.833,373.667 648.5,374C 649.833,375.667 649.833,377.333 648.5,379C 640.833,379.667 633.167,379.667 625.5,379C 624.584,378.626 623.75,378.126 623,377.5C 623.139,361.118 621.805,344.785 619,328.5C 610.667,345.167 602.333,361.833 594,378.5C 590.592,380.223 588.259,379.223 587,375.5C 579.078,360.656 571.411,345.656 564,330.5C 562.784,332.962 562.118,335.629 562,338.5C 560.882,350.151 560.049,361.817 559.5,373.5C 561.527,373.338 563.527,373.505 565.5,374C 566.554,375.388 566.72,376.888 566,378.5C 557.912,379.648 549.746,379.815 541.5,379C 540.862,377.293 540.862,375.46 541.5,373.5C 544.079,373.917 546.246,373.25 548,371.5C 550.85,346.745 554.017,322.078 557.5,297.5 Z"/></g>
<g><path style="opacity:1" fill="#fafafa" d="M 558.5,299.5 C 560.017,299.511 561.184,300.177 562,301.5C 572.213,321.966 582.713,342.3 593.5,362.5C 604.361,342.112 614.694,321.445 624.5,300.5C 625.002,299.479 625.668,299.312 626.5,300C 630.027,323.398 633.194,346.898 636,370.5C 636.465,371.931 637.299,373.097 638.5,374C 641.444,374.97 644.444,375.804 647.5,376.5C 643.833,376.833 640.167,377.167 636.5,377.5C 632.321,377.636 628.321,377.136 624.5,376C 625.134,373.925 625.468,371.759 625.5,369.5C 624.03,353.138 622.364,336.804 620.5,320.5C 611.061,339.713 601.394,358.713 591.5,377.5C 586.844,370.866 582.678,363.866 579,356.5C 573.606,344.711 567.939,333.044 562,321.5C 559.718,338.782 558.385,356.115 558,373.5C 559.916,374.928 562.083,375.928 564.5,376.5C 557.167,377.833 549.833,377.833 542.5,376.5C 544.465,375.708 546.465,375.041 548.5,374.5C 549.192,373.975 549.692,373.308 550,372.5C 553.163,348.199 555.996,323.866 558.5,299.5 Z"/></g>
<g><path style="opacity:1" fill="#bfc4d2" d="M 427.5,394.5 C 427.5,394.833 427.5,395.167 427.5,395.5C 307.833,395.5 188.167,395.5 68.5,395.5C 68.3335,384.162 68.5001,372.828 69,361.5C 69.4998,372.495 69.6665,383.495 69.5,394.5C 188.833,394.5 308.167,394.5 427.5,394.5 Z"/></g>
<g><path style="opacity:1" fill="#bfc4d2" d="M 474.5,395.5 C 474.5,395.167 474.5,394.833 474.5,394.5C 626.167,394.5 777.833,394.5 929.5,394.5C 929.333,383.495 929.5,372.495 930,361.5C 930.5,372.828 930.667,384.162 930.5,395.5C 778.5,395.5 626.5,395.5 474.5,395.5 Z"/></g>
<g><path style="opacity:1" fill="#fefffe" d="M 658.5,584.5 C 665.648,585.492 672.981,585.825 680.5,585.5C 680.5,630.5 680.5,675.5 680.5,720.5C 672.981,720.175 665.648,720.508 658.5,721.5C 657.511,744.425 657.178,767.425 657.5,790.5C 650.167,790.5 642.833,790.5 635.5,790.5C 635.5,813.167 635.5,835.833 635.5,858.5C 574.571,859.496 513.571,859.829 452.5,859.5C 452.831,836.327 452.498,813.327 451.5,790.5C 444.137,790.831 436.803,790.497 429.5,789.5C 428.533,781.89 428.2,774.223 428.5,766.5C 420.833,766.5 413.167,766.5 405.5,766.5C 405.214,751.131 405.547,735.798 406.5,720.5C 398.833,720.5 391.167,720.5 383.5,720.5C 383.5,705.167 383.5,689.833 383.5,674.5C 376.202,675.559 368.869,675.726 361.5,675C 360.518,667.253 360.185,659.42 360.5,651.5C 352.876,652.398 345.209,652.731 337.5,652.5C 337.5,637.833 337.5,623.167 337.5,608.5C 352.167,608.5 366.833,608.5 381.5,608.5C 381.5,615.833 381.5,623.167 381.5,630.5C 388.508,630.334 395.508,630.5 402.5,631C 403,631.5 403.5,632 404,632.5C 404.802,655.197 404.635,677.864 403.5,700.5C 411.833,700.5 420.167,700.5 428.5,700.5C 428.333,600.499 428.5,500.499 429,400.5C 443.421,399.51 457.921,399.176 472.5,399.5C 472.333,461.168 472.5,522.834 473,584.5C 481.415,585.483 489.915,585.817 498.5,585.5C 498.5,562.167 498.5,538.833 498.5,515.5C 513.167,515.5 527.833,515.5 542.5,515.5C 542.5,546.5 542.5,577.5 542.5,608.5C 551.085,608.817 559.585,608.483 568,607.5C 568.5,584.836 568.667,562.169 568.5,539.5C 583.167,539.5 597.833,539.5 612.5,539.5C 612.5,569.833 612.5,600.167 612.5,630.5C 620.5,630.5 628.5,630.5 636.5,630.5C 636.5,607.833 636.5,585.167 636.5,562.5C 643.5,562.5 650.5,562.5 657.5,562.5C 657.203,569.92 657.536,577.254 658.5,584.5 Z"/></g>
<g><path style="opacity:1" fill="#c4c6cf" d="M 859.5,460.5 C 860.822,460.33 861.989,460.663 863,461.5C 876.333,481.5 889.667,501.5 903,521.5C 905.6,525.367 907.6,529.367 909,533.5C 847.014,557.754 784.847,581.254 722.5,604C 767.636,556.53 813.136,509.363 859,462.5C 859.464,461.906 859.631,461.239 859.5,460.5 Z"/></g>
<g><path style="opacity:1" fill="#c4c6cf" d="M 914.5,578.5 C 915.833,578.5 917.167,578.5 918.5,578.5C 918.796,605.677 919.462,632.844 920.5,660C 920.167,662.167 919.833,664.333 919.5,666.5C 854.139,653.294 788.806,639.961 723.5,626.5C 787.235,610.317 850.901,594.317 914.5,578.5 Z"/></g>
<g><path style="opacity:1" fill="#8c8d8c" d="M 658.5,584.5 C 666.167,584.5 673.833,584.5 681.5,584.5C 681.5,630.167 681.5,675.833 681.5,721.5C 673.833,721.5 666.167,721.5 658.5,721.5C 665.648,720.508 672.981,720.175 680.5,720.5C 680.5,675.5 680.5,630.5 680.5,585.5C 672.981,585.825 665.648,585.492 658.5,584.5 Z"/></g>
<g><path style="opacity:1" fill="#8c8c8c" d="M 451.5,790.5 C 452.498,813.327 452.831,836.327 452.5,859.5C 513.571,859.829 574.571,859.496 635.5,858.5C 574.509,860.496 513.176,861.163 451.5,860.5C 451.5,837.167 451.5,813.833 451.5,790.5 Z"/></g>
</svg>
