<?xml version="1.0" encoding="UTF-8"?>
<!DOCTYPE svg PUBLIC "-//W3C//DTD SVG 1.1//EN" "http://www.w3.org/Graphics/SVG/1.1/DTD/svg11.dtd">
<svg xmlns="http://www.w3.org/2000/svg" version="1.1" width="1000px" height="1000px" style="shape-rendering:geometricPrecision; text-rendering:geometricPrecision; image-rendering:optimizeQuality; fill-rule:evenodd; clip-rule:evenodd" xmlns:xlink="http://www.w3.org/1999/xlink">
<g><path style="opacity:1" fill="#808080" d="M 705.5,561.5 C 705.628,563.655 705.128,565.655 704,567.5C 696.667,576.392 688.834,584.725 680.5,592.5C 680.5,590.167 680.5,587.833 680.5,585.5C 673.137,585.831 665.803,585.497 658.5,584.5C 657.535,577.224 657.201,569.891 657.5,562.5C 650.5,562.5 643.5,562.5 636.5,562.5C 636.5,585.167 636.5,607.833 636.5,630.5C 628.5,630.5 620.5,630.5 612.5,630.5C 612.5,600.167 612.5,569.833 612.5,539.5C 597.833,539.5 583.167,539.5 568.5,539.5C 568.667,562.169 568.5,584.836 568,607.5C 559.585,608.483 551.085,608.817 542.5,608.5C 542.5,577.5 542.5,546.5 542.5,515.5C 527.833,515.5 513.167,515.5 498.5,515.5C 498.5,538.833 498.5,562.167 498.5,585.5C 489.915,585.817 481.415,585.483 473,584.5C 472.5,522.834 472.333,461.168 472.5,399.5C 457.921,399.176 443.421,399.51 429,400.5C 428.5,500.499 428.333,600.499 428.5,700.5C 421.833,700.5 415.167,700.5 408.5,700.5C 408.039,697.697 406.705,695.363 404.5,693.5C 404.667,673.164 404.5,652.831 404,632.5C 403.5,632 403,631.5 402.5,631C 395.508,630.5 388.508,630.334 381.5,630.5C 381.5,623.167 381.5,615.833 381.5,608.5C 366.833,608.5 352.167,608.5 337.5,608.5C 337.171,623.343 337.504,638.01 338.5,652.5C 338.189,653.478 337.522,654.145 336.5,654.5C 335.264,653.754 333.93,653.421 332.5,653.5C 325.833,653.5 319.167,653.5 312.5,653.5C 312.5,630.167 312.5,606.833 312.5,583.5C 335.833,583.5 359.167,583.5 382.5,583.5C 382.5,591.167 382.5,598.833 382.5,606.5C 389.833,606.5 397.167,606.5 404.5,606.5C 404.5,549.5 404.5,492.5 404.5,435.5C 287.5,435.667 170.5,435.5 53.5,435C 43,432.5 36.5,426 34,415.5C 33.3333,314.5 33.3333,213.5 34,112.5C 36.5,102 43,95.5 53.5,93C 350.5,92.3333 647.5,92.3333 944.5,93C 955,95.5 961.5,102 964,112.5C 964.667,213.5 964.667,314.5 964,415.5C 961.5,426 955,432.5 944.5,435C 795.5,435.5 646.5,435.667 497.5,435.5C 497.5,453.833 497.5,472.167 497.5,490.5C 520.833,490.5 544.167,490.5 567.5,490.5C 567.5,498.167 567.5,505.833 567.5,513.5C 582.833,513.5 598.167,513.5 613.5,513.5C 613.5,521.5 613.5,529.5 613.5,537.5C 628.833,537.5 644.167,537.5 659.5,537.5C 659.5,545.167 659.5,552.833 659.5,560.5C 675.009,560.17 690.342,560.504 705.5,561.5 Z"/></g>
<g><path style="opacity:1" fill="#c4c5cf" d="M 59.5,123.5 C 352.833,123.5 646.167,123.5 939.5,123.5C 939.5,217.167 939.5,310.833 939.5,404.5C 792.167,404.5 644.833,404.5 497.5,404.5C 497.5,402.5 497.5,400.5 497.5,398.5C 489.833,398.5 482.167,398.5 474.5,398.5C 474.5,391.167 474.5,383.833 474.5,376.5C 463.254,377.332 452.42,375.999 442,372.5C 441.5,351.169 441.333,329.836 441.5,308.5C 447.176,308.334 452.843,308.501 458.5,309C 462.276,309.734 464.276,312.067 464.5,316C 465.5,316.667 466.5,316.667 467.5,316C 469.038,313.072 469.704,309.906 469.5,306.5C 469.473,303.911 469.139,301.411 468.5,299C 448.19,299.579 427.857,299.579 407.5,299C 405.105,296.855 402.938,297.022 401,299.5C 399.161,304.642 398.661,309.809 399.5,315C 400.5,315.667 401.5,315.667 402.5,315C 403.939,312.775 405.606,310.775 407.5,309C 414.158,308.5 420.825,308.334 427.5,308.5C 427.801,330.2 427.467,351.866 426.5,373.5C 421.333,372.492 419.666,374.325 421.5,379C 423.473,379.495 425.473,379.662 427.5,379.5C 427.5,385.833 427.5,392.167 427.5,398.5C 419.833,398.5 412.167,398.5 404.5,398.5C 404.5,400.5 404.5,402.5 404.5,404.5C 289.5,404.5 174.5,404.5 59.5,404.5C 59.5,310.833 59.5,217.167 59.5,123.5 Z"/></g>
<g><path style="opacity:1" fill="#888888" d="M 636.5,155.5 C 648.171,155.333 659.838,155.5 671.5,156C 689.248,157.738 696.082,167.238 692,184.5C 689.602,190.129 686.102,194.963 681.5,199C 689.462,208.631 697.796,217.964 706.5,227C 709.898,228.916 713.565,229.916 717.5,230C 718.833,231.667 718.833,233.333 717.5,235C 711.5,235.667 705.5,235.667 699.5,235C 695.49,233.657 691.99,231.491 689,228.5C 682.62,220.242 676.12,212.076 669.5,204C 665.514,203.501 661.514,203.334 657.5,203.5C 657.334,211.507 657.5,219.507 658,227.5C 660.507,229.155 663.341,229.989 666.5,230C 667.554,231.388 667.72,232.888 667,234.5C 657.578,235.651 648.078,235.818 638.5,235C 636.666,230.325 638.333,228.492 643.5,229.5C 644.635,207.197 644.801,184.864 644,162.5C 641.527,161.88 639.027,161.214 636.5,160.5C 635.185,158.801 635.185,157.135 636.5,155.5 Z"/></g>
<g><path style="opacity:1" fill="#fbfbfb" d="M 637.5,157.5 C 649.171,157.333 660.838,157.5 672.5,158C 692.326,162.831 696.826,173.998 686,191.5C 684,193.5 682,195.5 680,197.5C 679.333,198.5 679.333,199.5 680,200.5C 687.796,209.964 695.962,219.131 704.5,228C 708.044,230.632 712.044,232.132 716.5,232.5C 706.399,235.408 697.566,233.408 690,226.5C 683.62,218.242 677.12,210.076 670.5,202C 665.511,201.501 660.511,201.334 655.5,201.5C 655.334,209.84 655.5,218.173 656,226.5C 656.273,228.329 657.107,229.829 658.5,231C 660.9,231.186 663.234,231.686 665.5,232.5C 656.833,233.833 648.167,233.833 639.5,232.5C 642.688,232.144 644.855,230.477 646,227.5C 646.667,205.833 646.667,184.167 646,162.5C 643.249,160.494 640.416,158.828 637.5,157.5 Z"/></g>
<g><path style="opacity:1" fill="#888888" d="M 655.5,161.5 C 675.341,159.173 683.841,167.84 681,187.5C 680.177,191.664 678.01,194.831 674.5,197C 668.448,197.79 662.448,197.624 656.5,196.5C 655.501,184.852 655.168,173.186 655.5,161.5 Z"/></g>
<g><path style="opacity:1" fill="#c4c5cf" d="M 657.5,163.5 C 674.947,162.119 682.114,170.119 679,187.5C 678.269,189.899 677.102,192.065 675.5,194C 669.621,195.41 663.621,195.91 657.5,195.5C 657.5,184.833 657.5,174.167 657.5,163.5 Z"/></g>
<g><path style="opacity:1" fill="#888889" d="M 614.5,154.5 C 617.261,153.915 618.927,154.915 619.5,157.5C 619.114,162.195 618.114,166.695 616.5,171C 615.056,171.781 613.723,171.614 612.5,170.5C 611.907,168.618 611.24,166.785 610.5,165C 604.243,163.683 597.909,163.183 591.5,163.5C 591.5,171.833 591.5,180.167 591.5,188.5C 598.175,188.666 604.842,188.5 611.5,188C 614.368,184.411 616.368,184.744 617.5,189C 616.8,194.174 616.133,199.341 615.5,204.5C 613.856,204.714 612.356,204.38 611,203.5C 610.907,200.993 610.074,198.826 608.5,197C 602.843,196.501 597.176,196.334 591.5,196.5C 591.334,206.172 591.5,215.839 592,225.5C 592.833,226.333 593.667,227.167 594.5,228C 599.167,228.667 603.833,228.667 608.5,228C 613.713,227.619 616.38,224.786 616.5,219.5C 620.424,217.747 622.091,219.08 621.5,223.5C 621.154,227.063 620.487,230.563 619.5,234C 619.095,234.945 618.428,235.612 617.5,236C 603.982,235.991 590.482,236.158 577,236.5C 572.029,237.038 570.195,235.038 571.5,230.5C 573.396,229.534 575.396,229.201 577.5,229.5C 577.667,207.164 577.5,184.831 577,162.5C 574.931,161.736 572.764,161.236 570.5,161C 569.594,159.301 569.261,157.467 569.5,155.5C 584.676,155.829 599.676,155.496 614.5,154.5 Z"/></g>
<g><path style="opacity:1" fill="#f9f9f9" d="M 615.5,156.5 C 616.376,156.369 617.043,156.702 617.5,157.5C 616.738,161.111 616.238,164.778 616,168.5C 615.586,168.957 615.086,169.291 614.5,169.5C 613.702,167.922 613.202,166.256 613,164.5C 612.25,163.874 611.416,163.374 610.5,163C 603.574,161.661 596.574,161.161 589.5,161.5C 589.5,171.167 589.5,180.833 589.5,190.5C 596.841,190.666 604.174,190.5 611.5,190C 612.931,189.535 614.097,188.701 615,187.5C 615,192.495 614.5,197.495 613.5,202.5C 612.928,200.083 611.928,197.916 610.5,196C 603.574,194.661 596.574,194.161 589.5,194.5C 589.046,205.603 589.546,216.603 591,227.5C 591.903,228.701 593.069,229.535 594.5,230C 599.833,230.667 605.167,230.667 610.5,230C 615.151,228.515 617.818,225.348 618.5,220.5C 619.527,224.505 619.361,228.505 618,232.5C 614.26,233.794 610.26,234.461 606,234.5C 594.825,233.294 583.659,233.294 572.5,234.5C 572.5,233.5 572.5,232.5 572.5,231.5C 575.079,231.917 577.246,231.25 579,229.5C 579.667,206.833 579.667,184.167 579,161.5C 576.757,160.029 574.257,159.029 571.5,158.5C 586.328,157.833 600.994,157.167 615.5,156.5 Z"/></g>
<g><path style="opacity:1" fill="#89898a" d="M 331.5,153.5 C 343.42,152.764 354.753,154.93 365.5,160C 381.496,171.648 386.996,187.148 382,206.5C 377.5,221.667 367.667,231.5 352.5,236C 325.989,241.833 307.822,232.333 298,207.5C 293.314,184.711 301.147,167.878 321.5,157C 324.98,155.897 328.313,154.731 331.5,153.5 Z"/></g>
<g><path style="opacity:1" fill="#fafafa" d="M 331.5,155.5 C 348.881,153.456 363.381,158.789 375,171.5C 382.569,184.237 383.569,197.57 378,211.5C 369.745,227.719 356.411,235.719 338,235.5C 310.2,232.278 297.2,216.612 299,188.5C 303.348,170.986 314.182,159.986 331.5,155.5 Z"/></g>
<g><path style="opacity:1" fill="#8a8a8b" d="M 331.5,159.5 C 352.277,157.297 365.11,166.297 370,186.5C 371.816,198.077 370.15,209.077 365,219.5C 353.424,232.832 339.924,234.999 324.5,226C 311.922,214.603 307.089,200.437 310,183.5C 312.472,171.199 319.639,163.199 331.5,159.5 Z"/></g>
<g><path style="opacity:1" fill="#c4c5cf" d="M 331.5,161.5 C 350.752,159.539 362.919,167.873 368,186.5C 369.303,196.431 368.303,206.097 365,215.5C 355.152,230.107 342.319,233.273 326.5,225C 315.915,216.282 310.915,204.949 311.5,191C 311.751,176.618 318.418,166.785 331.5,161.5 Z"/></g>
<g><path style="opacity:1" fill="#878788" d="M 393.5,155.5 C 405.171,155.333 416.838,155.5 428.5,156C 444.413,157.239 451.58,165.739 450,181.5C 447.769,188.395 443.936,194.229 438.5,199C 446.462,208.631 454.796,217.964 463.5,227C 469.305,230.078 475.139,230.578 481,228.5C 481.667,206.5 481.667,184.5 481,162.5C 478.931,161.736 476.764,161.236 474.5,161C 473.167,159.333 473.167,157.667 474.5,156C 489.833,155.333 505.167,155.333 520.5,156C 547.637,159.799 559.803,175.299 557,202.5C 553.731,219.77 543.564,230.603 526.5,235C 509.272,236.868 492.105,236.702 475,234.5C 468.916,235.642 462.749,235.809 456.5,235C 452.49,233.657 448.99,231.491 446,228.5C 439.62,220.242 433.12,212.076 426.5,204C 422.514,203.501 418.514,203.334 414.5,203.5C 414.334,211.507 414.5,219.507 415,227.5C 417.507,229.155 420.341,229.989 423.5,230C 424.554,231.388 424.72,232.888 424,234.5C 414.578,235.651 405.078,235.818 395.5,235C 393.666,230.325 395.333,228.492 400.5,229.5C 401.635,207.197 401.801,184.864 401,162.5C 398.527,161.88 396.027,161.214 393.5,160.5C 392.185,158.801 392.185,157.135 393.5,155.5 Z"/></g>
<g><path style="opacity:1" fill="#fbfbfb" d="M 394.5,157.5 C 406.171,157.333 417.838,157.5 429.5,158C 449.326,162.831 453.826,173.998 443,191.5C 441,193.5 439,195.5 437,197.5C 436.333,198.5 436.333,199.5 437,200.5C 444.796,209.964 452.962,219.131 461.5,228C 465.044,230.632 469.044,232.132 473.5,232.5C 463.399,235.408 454.566,233.408 447,226.5C 440.62,218.242 434.12,210.076 427.5,202C 422.511,201.501 417.511,201.334 412.5,201.5C 412.334,209.84 412.5,218.173 413,226.5C 413.273,228.329 414.107,229.829 415.5,231C 417.9,231.186 420.234,231.686 422.5,232.5C 413.833,233.833 405.167,233.833 396.5,232.5C 399.688,232.144 401.855,230.477 403,227.5C 403.667,205.833 403.667,184.167 403,162.5C 400.249,160.494 397.416,158.828 394.5,157.5 Z"/></g>
<g><path style="opacity:1" fill="#888888" d="M 412.5,161.5 C 432.341,159.173 440.841,167.84 438,187.5C 437.177,191.664 435.01,194.831 431.5,197C 425.448,197.79 419.448,197.624 413.5,196.5C 412.501,184.852 412.168,173.186 412.5,161.5 Z"/></g>
<g><path style="opacity:1" fill="#c4c5cf" d="M 414.5,163.5 C 431.947,162.119 439.114,170.119 436,187.5C 435.269,189.899 434.102,192.065 432.5,194C 426.621,195.41 420.621,195.91 414.5,195.5C 414.5,184.833 414.5,174.167 414.5,163.5 Z"/></g>
<g><path style="opacity:1" fill="#fafafa" d="M 475.5,157.5 C 490.504,157.333 505.504,157.5 520.5,158C 546.07,161.987 557.57,176.82 555,202.5C 550.702,221.463 538.869,231.963 519.5,234C 505.119,234.808 490.786,234.308 476.5,232.5C 478.078,231.702 479.744,231.202 481.5,231C 482.126,230.25 482.626,229.416 483,228.5C 483.667,206.167 483.667,183.833 483,161.5C 480.268,160.335 477.768,159.002 475.5,157.5 Z"/></g>
<g><path style="opacity:1" fill="#898989" d="M 494.5,161.5 C 507.208,160.099 519.208,162.266 530.5,168C 546.828,182.254 549.994,199.087 540,218.5C 531.955,227.186 521.955,231.186 510,230.5C 504.35,231.288 499.35,229.955 495,226.5C 493.866,215.402 493.366,204.235 493.5,193C 493.511,182.426 493.844,171.926 494.5,161.5 Z"/></g>
<g><path style="opacity:1" fill="#c4c5cf" d="M 495.5,163.5 C 512.519,160.948 526.686,165.948 538,178.5C 545.137,191.441 545.137,204.441 538,217.5C 533.108,223.197 526.941,226.697 519.5,228C 513.167,228.667 506.833,228.667 500.5,228C 499.069,227.535 497.903,226.701 497,225.5C 495.523,204.925 495.023,184.259 495.5,163.5 Z"/></g>
<g><path style="opacity:1" fill="#fcfcfc" d="M 456.5,306.5 C 450.69,305.51 444.69,305.177 438.5,305.5C 438.169,326.673 438.503,347.673 439.5,368.5C 439.673,374.838 443.007,377.338 449.5,376C 441.31,376.243 433.143,376.743 425,377.5C 424.167,377.167 423.333,376.833 422.5,376.5C 426.12,376.046 428.287,374.046 429,370.5C 429.5,349.169 429.667,327.836 429.5,306.5C 421.826,306.334 414.159,306.5 406.5,307C 404.094,308.622 402.261,310.789 401,313.5C 401.034,308.814 401.534,304.148 402.5,299.5C 404.308,299.491 405.975,299.991 407.5,301C 427.517,301.759 447.517,301.592 467.5,300.5C 467.827,305.214 467.493,309.88 466.5,314.5C 465.232,309.23 461.899,306.564 456.5,306.5 Z"/></g>
<g><path style="opacity:1" fill="#c5c5c5" d="M 456.5,306.5 C 450.833,306.5 445.167,306.5 439.5,306.5C 439.5,327.167 439.5,347.833 439.5,368.5C 438.503,347.673 438.169,326.673 438.5,305.5C 444.69,305.177 450.69,305.51 456.5,306.5 Z"/></g>
<g><path style="opacity:1" fill="#8a8a8b" d="M 557.5,297.5 C 560.325,297.081 562.491,298.081 564,300.5C 573.582,319.998 583.416,339.332 593.5,358.5C 603.45,338.099 613.784,317.932 624.5,298C 628.677,297.858 630.511,300.025 630,304.5C 632.128,326.241 634.794,347.908 638,369.5C 638.465,370.931 639.299,372.097 640.5,373C 643.167,373.333 645.833,373.667 648.5,374C 649.833,375.667 649.833,377.333 648.5,379C 640.833,379.667 633.167,379.667 625.5,379C 624.584,378.626 623.75,378.126 623,377.5C 623.139,361.118 621.805,344.785 619,328.5C 610.667,345.167 602.333,361.833 594,378.5C 590.592,380.223 588.259,379.223 587,375.5C 579.078,360.656 571.411,345.656 564,330.5C 562.784,332.962 562.118,335.629 562,338.5C 560.882,350.151 560.049,361.817 559.5,373.5C 561.527,373.338 563.527,373.505 565.5,374C 566.554,375.388 566.72,376.888 566,378.5C 557.912,379.648 549.746,379.815 541.5,379C 540.862,377.293 540.862,375.46 541.5,373.5C 544.079,373.917 546.246,373.25 548,371.5C 550.85,346.745 554.017,322.078 557.5,297.5 Z"/></g>
<g><path style="opacity:1" fill="#fafafa" d="M 558.5,299.5 C 560.017,299.511 561.184,300.177 562,301.5C 572.213,321.966 582.713,342.3 593.5,362.5C 604.361,342.112 614.694,321.445 624.5,300.5C 625.002,299.479 625.668,299.312 626.5,300C 630.027,323.398 633.194,346.898 636,370.5C 636.465,371.931 637.299,373.097 638.5,374C 641.444,374.97 644.444,375.804 647.5,376.5C 643.833,376.833 640.167,377.167 636.5,377.5C 632.321,377.636 628.321,377.136 624.5,376C 625.134,373.925 625.468,371.759 625.5,369.5C 624.03,353.138 622.364,336.804 620.5,320.5C 611.061,339.713 601.394,358.713 591.5,377.5C 586.844,370.866 582.678,363.866 579,356.5C 573.606,344.711 567.939,333.044 562,321.5C 559.718,338.782 558.385,356.115 558,373.5C 559.916,374.928 562.083,375.928 564.5,376.5C 557.167,377.833 549.833,377.833 542.5,376.5C 544.465,375.708 546.465,375.041 548.5,374.5C 549.192,373.975 549.692,373.308 550,372.5C 553.163,348.199 555.996,323.866 558.5,299.5 Z"/></g>
<g><path style="opacity:1" fill="#888889" d="M 524.5,298.5 C 527.261,297.915 528.927,298.915 529.5,301.5C 529.114,306.195 528.114,310.695 526.5,315C 525.056,315.781 523.723,315.614 522.5,314.5C 521.907,312.618 521.24,310.785 520.5,309C 514.243,307.683 507.909,307.183 501.5,307.5C 501.5,315.833 501.5,324.167 501.5,332.5C 508.175,332.666 514.842,332.5 521.5,332C 524.368,328.411 526.368,328.744 527.5,333C 526.8,338.174 526.133,343.341 525.5,348.5C 523.856,348.714 522.356,348.38 521,347.5C 520.907,344.993 520.074,342.826 518.5,341C 512.843,340.501 507.176,340.334 501.5,340.5C 501.334,350.172 501.5,359.839 502,369.5C 502.833,370.333 503.667,371.167 504.5,372C 509.167,372.667 513.833,372.667 518.5,372C 523.713,371.619 526.38,368.786 526.5,363.5C 530.424,361.747 532.091,363.08 531.5,367.5C 531.154,371.063 530.487,374.563 529.5,378C 529.095,378.945 528.428,379.612 527.5,380C 513.982,379.991 500.482,380.158 487,380.5C 482.029,381.038 480.195,379.038 481.5,374.5C 483.396,373.534 485.396,373.201 487.5,373.5C 487.667,351.164 487.5,328.831 487,306.5C 484.931,305.736 482.764,305.236 480.5,305C 479.594,303.301 479.261,301.467 479.5,299.5C 494.676,299.829 509.676,299.496 524.5,298.5 Z"/></g>
<g><path style="opacity:1" fill="#f9f9f9" d="M 525.5,300.5 C 526.376,300.369 527.043,300.702 527.5,301.5C 526.738,305.111 526.238,308.778 526,312.5C 525.586,312.957 525.086,313.291 524.5,313.5C 523.702,311.922 523.202,310.256 523,308.5C 522.25,307.874 521.416,307.374 520.5,307C 513.574,305.661 506.574,305.161 499.5,305.5C 499.5,315.167 499.5,324.833 499.5,334.5C 506.841,334.666 514.174,334.5 521.5,334C 522.931,333.535 524.097,332.701 525,331.5C 525,336.495 524.5,341.495 523.5,346.5C 522.928,344.083 521.928,341.916 520.5,340C 513.574,338.661 506.574,338.161 499.5,338.5C 499.046,349.603 499.546,360.603 501,371.5C 501.903,372.701 503.069,373.535 504.5,374C 509.833,374.667 515.167,374.667 520.5,374C 525.151,372.515 527.818,369.348 528.5,364.5C 529.527,368.505 529.361,372.505 528,376.5C 524.26,377.794 520.26,378.461 516,378.5C 504.825,377.294 493.659,377.294 482.5,378.5C 482.5,377.5 482.5,376.5 482.5,375.5C 485.079,375.917 487.246,375.25 489,373.5C 489.667,350.833 489.667,328.167 489,305.5C 486.757,304.029 484.257,303.029 481.5,302.5C 496.328,301.833 510.994,301.167 525.5,300.5 Z"/></g>
<g><path style="opacity:1" fill="#868687" d="M 361.5,299.5 C 370.418,299.183 379.251,299.516 388,300.5C 388.667,301.833 388.667,303.167 388,304.5C 386,305.167 384,305.833 382,306.5C 381.333,328.167 381.333,349.833 382,371.5C 384.849,373.309 388.015,374.309 391.5,374.5C 391.773,376.451 391.107,377.951 389.5,379C 379.922,379.818 370.422,379.651 361,378.5C 360.333,377.167 360.333,375.833 361,374.5C 363,373.833 365,373.167 367,372.5C 367.667,350.5 367.667,328.5 367,306.5C 365,305.833 363,305.167 361,304.5C 360.36,302.735 360.527,301.068 361.5,299.5 Z"/></g>
<g><path style="opacity:1" fill="#f9f9f9" d="M 362.5,301.5 C 370.528,301.169 378.528,301.502 386.5,302.5C 384.083,303.072 381.916,304.072 380,305.5C 379.333,327.167 379.333,348.833 380,370.5C 380.273,372.329 381.107,373.829 382.5,375C 384.9,375.186 387.234,375.686 389.5,376.5C 380.5,377.833 371.5,377.833 362.5,376.5C 364.917,375.928 367.084,374.928 369,373.5C 369.667,350.833 369.667,328.167 369,305.5C 366.575,304.357 364.408,303.024 362.5,301.5 Z"/></g>
<g><path style="opacity:1" fill="#fefefe" d="M 680.5,592.5 C 615.539,661.808 550.539,731.641 485.5,802C 484.216,802.684 483.049,802.517 482,801.5C 478.333,795.833 474.667,790.167 471,784.5C 449.481,756.842 428.648,728.842 408.5,700.5C 415.167,700.5 421.833,700.5 428.5,700.5C 428.333,600.499 428.5,500.499 429,400.5C 443.421,399.51 457.921,399.176 472.5,399.5C 472.333,461.168 472.5,522.834 473,584.5C 481.415,585.483 489.915,585.817 498.5,585.5C 498.5,562.167 498.5,538.833 498.5,515.5C 513.167,515.5 527.833,515.5 542.5,515.5C 542.5,546.5 542.5,577.5 542.5,608.5C 551.085,608.817 559.585,608.483 568,607.5C 568.5,584.836 568.667,562.169 568.5,539.5C 583.167,539.5 597.833,539.5 612.5,539.5C 612.5,569.833 612.5,600.167 612.5,630.5C 620.5,630.5 628.5,630.5 636.5,630.5C 636.5,607.833 636.5,585.167 636.5,562.5C 643.5,562.5 650.5,562.5 657.5,562.5C 657.201,569.891 657.535,577.224 658.5,584.5C 665.803,585.497 673.137,585.831 680.5,585.5C 680.5,587.833 680.5,590.167 680.5,592.5 Z"/></g>
<g><path style="opacity:1" fill="#3afe16" d="M 868.5,585.5 C 862.45,589.217 857.783,594.217 854.5,600.5C 847.173,609.159 839.507,617.493 831.5,625.5C 830.178,625.33 829.011,625.663 828,626.5C 820.006,635.827 811.673,644.827 803,653.5C 802.517,654.448 802.351,655.448 802.5,656.5C 761.805,700.624 721.139,744.624 680.5,788.5C 651.189,819.146 622.189,850.146 593.5,881.5C 566.472,910.193 539.472,938.86 512.5,967.5C 509.213,968.264 506.546,970.097 504.5,973C 491.71,981.865 477.71,984.698 462.5,981.5C 449.945,977.125 439.779,969.458 432,958.5C 383.948,892.622 336.115,826.622 288.5,760.5C 286.372,754.926 283.205,749.926 279,745.5C 276.398,741.294 274.064,736.961 272,732.5C 271.501,727.511 271.334,722.511 271.5,717.5C 272.815,709.668 276.815,703.501 283.5,699C 300.874,685.989 318.541,673.489 336.5,661.5C 340.266,660.309 343.933,658.809 347.5,657C 351.821,656.501 356.154,656.334 360.5,656.5C 367.685,657.844 373.852,661.178 379,666.5C 413.113,714.405 447.946,761.738 483.5,808.5C 488.112,805.392 492.278,801.725 496,797.5C 539.422,750.584 582.922,703.917 626.5,657.5C 632.882,653.452 637.882,648.118 641.5,641.5C 649.16,632.507 657.16,623.84 665.5,615.5C 671.55,611.783 676.217,606.783 679.5,600.5C 724.289,551.542 769.623,503.042 815.5,455C 826.912,449.351 838.579,449.018 850.5,454C 869.386,471.556 888.219,489.056 907,506.5C 915.122,521.218 914.122,535.218 904,548.5C 892.3,561.032 880.466,573.365 868.5,585.5 Z"/></g>
<g><path style="opacity:1" fill="#c5c6d0" d="M 822.5,646.5 C 821.761,646.631 821.094,646.464 820.5,646C 836.989,627.163 853.989,608.497 871.5,590C 873.154,589.392 874.821,588.892 876.5,588.5C 877.492,588.672 878.158,588.338 878.5,587.5C 878.833,587.5 879.167,587.5 879.5,587.5C 892.466,584.342 905.466,581.342 918.5,578.5C 918.796,605.677 919.462,632.844 920.5,660C 920.167,662.167 919.833,664.333 919.5,666.5C 887.138,659.828 854.804,653.161 822.5,646.5 Z"/></g>
<g><path style="opacity:1" fill="#edf0ec" d="M 879.5,587.5 C 879.167,587.5 878.833,587.5 878.5,587.5C 877.508,587.328 876.842,587.662 876.5,588.5C 874.821,588.892 873.154,589.392 871.5,590C 853.989,608.497 836.989,627.163 820.5,646C 821.094,646.464 821.761,646.631 822.5,646.5C 820.186,649.645 817.353,652.312 814,654.5C 813.888,657.447 812.388,658.78 809.5,658.5C 809.719,659.675 809.386,660.675 808.5,661.5C 807.305,663.297 805.638,664.297 803.5,664.5C 803.657,665.873 803.49,667.207 803,668.5C 799.805,669.851 797.972,672.185 797.5,675.5C 796.5,675.5 795.5,675.5 794.5,675.5C 794.594,678.541 793.094,680.207 790,680.5C 789.264,683.32 787.598,685.32 785,686.5C 784.517,687.448 784.351,688.448 784.5,689.5C 783.167,689.5 781.833,689.5 780.5,689.5C 779.2,693.1 777.533,696.434 775.5,699.5C 774.127,699.343 772.793,699.51 771.5,700C 770.636,703.359 768.636,705.526 765.5,706.5C 765.5,707.833 765.5,709.167 765.5,710.5C 764.022,710.238 762.689,710.571 761.5,711.5C 760.014,713.302 759.014,715.302 758.5,717.5C 757.5,717.5 756.5,717.5 755.5,717.5C 755.895,720.523 754.895,721.523 752.5,720.5C 750.666,722.977 749.333,725.643 748.5,728.5C 746.302,729.014 744.302,730.014 742.5,731.5C 741.571,732.689 741.238,734.022 741.5,735.5C 738.482,735.8 736.482,737.467 735.5,740.5C 732.658,741.004 731.325,742.671 731.5,745.5C 728.112,745.874 726.278,747.874 726,751.5C 724.933,752.191 723.766,752.691 722.5,753C 718.234,758.701 713.4,763.868 708,768.5C 706.991,770.025 706.491,771.692 706.5,773.5C 705.167,773.5 703.833,773.5 702.5,773.5C 702.5,774.833 702.5,776.167 702.5,777.5C 701.022,777.238 699.689,777.571 698.5,778.5C 697.123,781.826 695.29,784.826 693,787.5C 691.491,788.09 689.991,788.756 688.5,789.5C 688.322,792.804 686.656,794.471 683.5,794.5C 683.768,796.099 683.434,797.432 682.5,798.5C 682.663,796.143 682.497,793.81 682,791.5C 681.051,793.093 679.885,794.426 678.5,795.5C 678.586,794.504 678.252,793.671 677.5,793C 679.141,791.871 680.141,790.371 680.5,788.5C 721.139,744.624 761.805,700.624 802.5,656.5C 812.505,646.494 822.172,636.161 831.5,625.5C 839.507,617.493 847.173,609.159 854.5,600.5C 859.873,596.129 864.539,591.129 868.5,585.5C 880.466,573.365 892.3,561.032 904,548.5C 914.122,535.218 915.122,521.218 907,506.5C 888.219,489.056 869.386,471.556 850.5,454C 838.579,449.018 826.912,449.351 815.5,455C 769.623,503.042 724.289,551.542 679.5,600.5C 674.861,605.474 670.195,610.474 665.5,615.5C 657.16,623.84 649.16,632.507 641.5,641.5C 635.795,646.204 630.795,651.537 626.5,657.5C 582.922,703.917 539.422,750.584 496,797.5C 492.278,801.725 488.112,805.392 483.5,808.5C 447.946,761.738 413.113,714.405 379,666.5C 373.852,661.178 367.685,657.844 360.5,656.5C 352.98,654.662 345.646,655.495 338.5,659C 337.619,659.708 336.953,660.542 336.5,661.5C 318.541,673.489 300.874,685.989 283.5,699C 276.815,703.501 272.815,709.668 271.5,717.5C 269.1,727.076 270.6,736.076 276,744.5C 280.03,750.02 284.197,755.353 288.5,760.5C 336.115,826.622 383.948,892.622 432,958.5C 439.779,969.458 449.945,977.125 462.5,981.5C 466.192,983.933 470.359,984.933 475,984.5C 490.115,984.441 502.615,978.774 512.5,967.5C 539.472,938.86 566.472,910.193 593.5,881.5C 595.199,881.527 596.533,882.194 597.5,883.5C 598.833,883.5 600.167,883.5 601.5,883.5C 601.5,884.5 601.5,885.5 601.5,886.5C 597.735,886.676 595.735,888.676 595.5,892.5C 594.5,892.5 593.5,892.5 592.5,892.5C 593.041,896.295 591.375,898.295 587.5,898.5C 586.96,899.748 586.293,900.915 585.5,902C 579.742,905.648 575.075,910.481 571.5,916.5C 570.675,917.386 569.675,917.719 568.5,917.5C 568.1,921.347 566.1,923.68 562.5,924.5C 562.5,925.5 562.5,926.5 562.5,927.5C 561.448,927.351 560.448,927.517 559.5,928C 558.257,930.116 557.091,932.282 556,934.5C 550.81,936.516 547.643,940.183 546.5,945.5C 543.99,946.783 541.323,947.783 538.5,948.5C 538.762,949.978 538.429,951.311 537.5,952.5C 534.453,953.875 533.12,956.208 533.5,959.5C 532.167,959.5 530.833,959.5 529.5,959.5C 529.649,960.552 529.483,961.552 529,962.5C 525.763,964.231 523.93,966.898 523.5,970.5C 522.178,970.67 521.011,970.337 520,969.5C 519.51,970.793 519.343,972.127 519.5,973.5C 514.328,975.241 510.661,978.574 508.5,983.5C 506.473,983.338 504.473,983.505 502.5,984C 501.167,984.667 501.167,985.333 502.5,986C 500.059,986.036 498.059,986.869 496.5,988.5C 493.914,989.48 491.247,989.813 488.5,989.5C 488.5,990.833 488.5,992.167 488.5,993.5C 478.506,993.787 468.506,992.621 458.5,990C 457.953,989.075 457.287,988.242 456.5,987.5C 452.341,989.08 450.008,987.58 449.5,983C 447.527,982.505 445.527,982.338 443.5,982.5C 443.714,980.856 443.38,979.356 442.5,978C 438.886,978.034 436.553,976.367 435.5,973C 434.552,972.517 433.552,972.351 432.5,972.5C 433.244,969.05 431.91,967.384 428.5,967.5C 428.55,965.41 427.55,964.077 425.5,963.5C 424.548,961.955 424.215,960.288 424.5,958.5C 423.5,958.5 422.5,958.5 421.5,958.5C 418.203,953.008 415.203,947.341 412.5,941.5C 411.178,941.67 410.011,941.337 409,940.5C 407.839,937.733 406.673,935.067 405.5,932.5C 404.5,932.5 403.5,932.5 402.5,932.5C 402.5,930.833 402.5,929.167 402.5,927.5C 401.178,927.67 400.011,927.337 399,926.5C 397.038,923.205 394.705,920.205 392,917.5C 390.839,914.733 389.673,912.067 388.5,909.5C 387.5,909.5 386.5,909.5 385.5,909.5C 384.828,906.356 383.828,903.356 382.5,900.5C 378.657,900.809 377.324,899.309 378.5,896C 377.552,895.517 376.552,895.351 375.5,895.5C 374.828,892.356 373.828,889.356 372.5,886.5C 371.5,886.5 370.5,886.5 369.5,886.5C 369.762,885.022 369.429,883.689 368.5,882.5C 364.477,877.312 360.31,872.312 356,867.5C 353.36,863.738 351.193,859.738 349.5,855.5C 346.234,855.567 344.734,853.901 345,850.5C 343.333,848.833 341.667,847.167 340,845.5C 339.51,844.207 339.343,842.873 339.5,841.5C 338.5,841.5 337.5,841.5 336.5,841.5C 335.882,838.602 334.715,835.935 333,833.5C 331.989,832.663 330.822,832.33 329.5,832.5C 329.5,830.833 329.5,829.167 329.5,827.5C 328.178,827.67 327.011,827.337 326,826.5C 325.585,824.709 324.585,823.376 323,822.5C 322.51,821.207 322.343,819.873 322.5,818.5C 321.5,818.5 320.5,818.5 319.5,818.5C 319.5,817.167 319.5,815.833 319.5,814.5C 318.325,814.719 317.325,814.386 316.5,813.5C 313.59,809.399 311.256,805.066 309.5,800.5C 308.5,800.5 307.5,800.5 306.5,800.5C 306.762,799.022 306.429,797.689 305.5,796.5C 304.05,795.345 303.05,793.845 302.5,792C 299.354,791.89 298.354,790.557 299.5,788C 297.607,785.697 295.607,783.53 293.5,781.5C 292.571,780.311 292.238,778.978 292.5,777.5C 291.5,777.5 290.5,777.5 289.5,777.5C 289.762,776.022 289.429,774.689 288.5,773.5C 282.464,766.033 276.63,758.366 271,750.5C 270.51,749.207 270.343,747.873 270.5,746.5C 269.5,746.5 268.5,746.5 267.5,746.5C 267.5,744.833 267.5,743.167 267.5,741.5C 266.167,741.5 264.833,741.5 263.5,741.5C 263.421,740.07 263.754,738.736 264.5,737.5C 263.415,736.216 262.748,734.716 262.5,733C 263.838,723.475 265.338,713.975 267,704.5C 268.943,702.849 270.443,700.849 271.5,698.5C 273.883,699.462 274.883,698.462 274.5,695.5C 277.323,694.783 279.99,693.783 282.5,692.5C 282.5,691.5 282.5,690.5 282.5,689.5C 285.95,690.244 287.616,688.91 287.5,685.5C 290.644,684.828 293.644,683.828 296.5,682.5C 296.5,681.167 296.5,679.833 296.5,678.5C 299.394,678.444 302.061,677.61 304.5,676C 305.337,674.989 305.67,673.822 305.5,672.5C 307.167,672.5 308.833,672.5 310.5,672.5C 310.5,671.167 310.5,669.833 310.5,668.5C 313.318,667.03 316.318,666.03 319.5,665.5C 319.5,664.5 319.5,663.5 319.5,662.5C 322.067,661.327 324.733,660.161 327.5,659C 328.337,657.989 328.67,656.822 328.5,655.5C 330.483,655.843 331.817,655.176 332.5,653.5C 333.93,653.421 335.264,653.754 336.5,654.5C 337.522,654.145 338.189,653.478 338.5,652.5C 343.466,652.089 348.299,651.089 353,649.5C 358.638,650.114 364.138,651.28 369.5,653C 375.26,656.756 380.427,661.256 385,666.5C 391.334,675.66 397.834,684.66 404.5,693.5C 406.705,695.363 408.039,697.697 408.5,700.5C 428.648,728.842 449.481,756.842 471,784.5C 474.667,790.167 478.333,795.833 482,801.5C 483.049,802.517 484.216,802.684 485.5,802C 550.539,731.641 615.539,661.808 680.5,592.5C 688.834,584.725 696.667,576.392 704,567.5C 705.128,565.655 705.628,563.655 705.5,561.5C 706.404,560.791 706.737,559.791 706.5,558.5C 707.5,558.5 708.5,558.5 709.5,558.5C 709.167,555.5 710.5,554.167 713.5,554.5C 713.351,553.448 713.517,552.448 714,551.5C 717.577,548.821 720.744,545.821 723.5,542.5C 724.95,541.15 725.617,539.484 725.5,537.5C 726.5,537.5 727.5,537.5 728.5,537.5C 728.5,536.167 728.5,534.833 728.5,533.5C 732.803,533.279 735.137,530.945 735.5,526.5C 736.5,526.5 737.5,526.5 738.5,526.5C 738.5,525.167 738.5,523.833 738.5,522.5C 739.822,522.33 740.989,522.663 742,523.5C 744.333,520.167 746.667,516.833 749,513.5C 750.011,512.663 751.178,512.33 752.5,512.5C 752.5,511.167 752.5,509.833 752.5,508.5C 756.07,508.099 758.236,506.099 759,502.5C 763.627,499.374 767.794,495.707 771.5,491.5C 772.246,490.264 772.579,488.93 772.5,487.5C 773.873,487.657 775.207,487.49 776.5,487C 776.167,486.667 775.833,486.333 775.5,486C 778.931,484.085 780.931,481.252 781.5,477.5C 782.833,477.5 784.167,477.5 785.5,477.5C 786.103,473.901 788.103,471.568 791.5,470.5C 791.167,467.5 792.5,466.167 795.5,466.5C 795.891,463.06 797.724,460.727 801,459.5C 801.483,458.552 801.649,457.552 801.5,456.5C 802.552,456.649 803.552,456.483 804.5,456C 806.871,452.961 809.538,450.127 812.5,447.5C 814.078,446.702 815.744,446.202 817.5,446C 818.337,444.989 818.67,443.822 818.5,442.5C 820.144,442.286 821.644,442.62 823,443.5C 823.388,442.572 824.055,441.905 825,441.5C 834.134,443.161 843.3,444.661 852.5,446C 854.48,447.825 856.813,448.659 859.5,448.5C 859.5,450.167 859.5,451.833 859.5,453.5C 863.074,452.908 865.074,454.408 865.5,458C 866.448,458.483 867.448,458.649 868.5,458.5C 868.5,459.833 868.5,461.167 868.5,462.5C 872.724,461.944 875.057,463.777 875.5,468C 878.047,468.552 880.047,469.886 881.5,472C 882.793,472.49 884.127,472.657 885.5,472.5C 885.5,474.167 885.5,475.833 885.5,477.5C 888.329,477.325 889.996,478.658 890.5,481.5C 892.071,482.309 893.738,482.643 895.5,482.5C 895.5,483.833 895.5,485.167 895.5,486.5C 896.93,486.421 898.264,486.754 899.5,487.5C 900.978,490.568 902.978,493.235 905.5,495.5C 907.059,496.074 908.559,496.74 910,497.5C 911.161,500.267 912.327,502.933 913.5,505.5C 914.5,505.5 915.5,505.5 916.5,505.5C 916.34,507.199 916.506,508.866 917,510.5C 919.084,512.937 920.584,515.77 921.5,519C 920.002,527.818 918.669,536.651 917.5,545.5C 916.448,545.351 915.448,545.517 914.5,546C 915.517,547.049 915.684,548.216 915,549.5C 913.559,550.87 911.892,551.87 910,552.5C 909.517,553.448 909.351,554.448 909.5,555.5C 908.167,555.5 906.833,555.5 905.5,555.5C 905.5,556.833 905.5,558.167 905.5,559.5C 901.988,560.005 899.655,562.005 898.5,565.5C 897.675,566.386 896.675,566.719 895.5,566.5C 895.649,567.552 895.483,568.552 895,569.5C 892,572.167 889,574.833 886,577.5C 885.517,578.448 885.351,579.448 885.5,580.5C 884.178,580.33 883.011,580.663 882,581.5C 880.878,583.42 880.044,585.42 879.5,587.5 Z"/></g>
<g><path style="opacity:1" fill="#68f74d" d="M 868.5,585.5 C 864.539,591.129 859.873,596.129 854.5,600.5C 857.783,594.217 862.45,589.217 868.5,585.5 Z"/></g>
<g><path style="opacity:1" fill="#fefefe" d="M 404.5,693.5 C 397.834,684.66 391.334,675.66 385,666.5C 380.427,661.256 375.26,656.756 369.5,653C 364.138,651.28 358.638,650.114 353,649.5C 348.299,651.089 343.466,652.089 338.5,652.5C 337.504,638.01 337.171,623.343 337.5,608.5C 352.167,608.5 366.833,608.5 381.5,608.5C 381.5,615.833 381.5,623.167 381.5,630.5C 388.508,630.334 395.508,630.5 402.5,631C 403,631.5 403.5,632 404,632.5C 404.5,652.831 404.667,673.164 404.5,693.5 Z"/></g>
<g><path style="opacity:1" fill="#66f84a" d="M 679.5,600.5 C 676.217,606.783 671.55,611.783 665.5,615.5C 670.195,610.474 674.861,605.474 679.5,600.5 Z"/></g>
<g><path style="opacity:1" fill="#63f847" d="M 831.5,625.5 C 822.172,636.161 812.505,646.494 802.5,656.5C 802.351,655.448 802.517,654.448 803,653.5C 811.673,644.827 820.006,635.827 828,626.5C 829.011,625.663 830.178,625.33 831.5,625.5 Z"/></g>
<g><path style="opacity:1" fill="#6bf650" d="M 641.5,641.5 C 637.882,648.118 632.882,653.452 626.5,657.5C 630.795,651.537 635.795,646.204 641.5,641.5 Z"/></g>
<g><path style="opacity:1" fill="#6aee50" d="M 360.5,656.5 C 356.154,656.334 351.821,656.501 347.5,657C 343.933,658.809 340.266,660.309 336.5,661.5C 336.953,660.542 337.619,659.708 338.5,659C 345.646,655.495 352.98,654.662 360.5,656.5 Z"/></g>
<g><path style="opacity:1" fill="#60f943" d="M 271.5,717.5 C 271.334,722.511 271.501,727.511 272,732.5C 274.064,736.961 276.398,741.294 279,745.5C 283.205,749.926 286.372,754.926 288.5,760.5C 284.197,755.353 280.03,750.02 276,744.5C 270.6,736.076 269.1,727.076 271.5,717.5 Z"/></g>
<g><path style="opacity:1" fill="#878787" d="M 682.5,798.5 C 682.5,804.167 682.5,809.833 682.5,815.5C 676.167,815.5 669.833,815.5 663.5,815.5C 662.448,815.649 661.448,815.483 660.5,815C 666.338,808.33 672.338,801.83 678.5,795.5C 679.885,794.426 681.051,793.093 682,791.5C 682.497,793.81 682.663,796.143 682.5,798.5 Z"/></g>
<g><path style="opacity:1" fill="#808181" d="M 659.5,821.5 C 659.5,842.167 659.5,862.833 659.5,883.5C 640.167,883.5 620.833,883.5 601.5,883.5C 600.167,883.5 598.833,883.5 597.5,883.5C 605.868,876.133 613.535,868.133 620.5,859.5C 625.43,859.803 630.263,859.469 635,858.5C 635.499,853.511 635.666,848.511 635.5,843.5C 643.467,835.364 651.3,827.031 659,818.5C 659.483,819.448 659.649,820.448 659.5,821.5 Z"/></g>
<g><path style="opacity:1" fill="#fefefe" d="M 635.5,843.5 C 635.666,848.511 635.499,853.511 635,858.5C 630.263,859.469 625.43,859.803 620.5,859.5C 625.789,854.277 630.623,848.61 635,842.5C 635.399,842.728 635.565,843.062 635.5,843.5 Z"/></g>
<g><path style="opacity:1" fill="#e0e2e0" d="M 680.5,788.5 C 680.141,790.371 679.141,791.871 677.5,793C 678.252,793.671 678.586,794.504 678.5,795.5C 672.338,801.83 666.338,808.33 660.5,815C 661.448,815.483 662.448,815.649 663.5,815.5C 663.5,816.833 663.5,818.167 663.5,819.5C 661.801,819.527 660.467,820.194 659.5,821.5C 659.649,820.448 659.483,819.448 659,818.5C 651.3,827.031 643.467,835.364 635.5,843.5C 635.565,843.062 635.399,842.728 635,842.5C 630.623,848.61 625.789,854.277 620.5,859.5C 613.535,868.133 605.868,876.133 597.5,883.5C 596.533,882.194 595.199,881.527 593.5,881.5C 622.189,850.146 651.189,819.146 680.5,788.5 Z"/></g>
<g><path style="opacity:1" fill="#61f744" d="M 512.5,967.5 C 502.615,978.774 490.115,984.441 475,984.5C 470.359,984.933 466.192,983.933 462.5,981.5C 477.71,984.698 491.71,981.865 504.5,973C 506.546,970.097 509.213,968.264 512.5,967.5 Z"/></g>
</svg>
