<?xml version="1.0" encoding="UTF-8"?>
<!DOCTYPE svg PUBLIC "-//W3C//DTD SVG 1.1//EN" "http://www.w3.org/Graphics/SVG/1.1/DTD/svg11.dtd">
<svg xmlns="http://www.w3.org/2000/svg" version="1.1" width="1000px" height="1000px" style="shape-rendering:geometricPrecision; text-rendering:geometricPrecision; image-rendering:optimizeQuality; fill-rule:evenodd; clip-rule:evenodd" xmlns:xlink="http://www.w3.org/1999/xlink">
<g><path style="opacity:0.945" fill="#a2c5fc" d="M 964.5,139.5 C 961.167,139.5 957.833,139.5 954.5,139.5C 954.826,130.983 954.493,122.65 953.5,114.5C 952.251,109.505 949.251,106.005 944.5,104C 647.5,103.333 350.5,103.333 53.5,104C 48.7487,106.005 45.7487,109.505 44.5,114.5C 43.5073,122.65 43.1739,130.983 43.5,139.5C 40.1667,139.5 36.8333,139.5 33.5,139.5C 33.3336,130.494 33.5002,121.494 34,112.5C 36.5,102 43,95.5 53.5,93C 350.5,92.3333 647.5,92.3333 944.5,93C 955,95.5 961.5,102 964,112.5C 964.5,121.494 964.666,130.494 964.5,139.5 Z"/></g>
<g><path style="opacity:1" fill="#bee6fb" d="M 953.5,114.5 C 953.5,130.167 953.5,145.833 953.5,161.5C 948.833,161.5 944.167,161.5 939.5,161.5C 939.5,148.833 939.5,136.167 939.5,123.5C 646.167,123.5 352.833,123.5 59.5,123.5C 59.5,136.167 59.5,148.833 59.5,161.5C 54.5,161.5 49.5,161.5 44.5,161.5C 44.5,145.833 44.5,130.167 44.5,114.5C 45.7487,109.505 48.7487,106.005 53.5,104C 350.5,103.333 647.5,103.333 944.5,104C 949.251,106.005 952.251,109.505 953.5,114.5 Z"/></g>
<g><path style="opacity:1" fill="#b5dbfe" d="M 953.5,114.5 C 954.493,122.65 954.826,130.983 954.5,139.5C 954.5,160.5 954.5,181.5 954.5,202.5C 953.874,215.491 953.54,228.491 953.5,241.5C 948.833,241.5 944.167,241.5 939.5,241.5C 939.5,255.5 939.5,269.5 939.5,283.5C 939.5,295.833 939.5,308.167 939.5,320.5C 936.167,320.5 932.833,320.5 929.5,320.5C 929.5,258.167 929.5,195.833 929.5,133.5C 642.833,133.5 356.167,133.5 69.5,133.5C 69.5,195.833 69.5,258.167 69.5,320.5C 66.1667,320.5 62.8333,320.5 59.5,320.5C 59.5,308.167 59.5,295.833 59.5,283.5C 59.5,269.5 59.5,255.5 59.5,241.5C 54.5,241.5 49.5,241.5 44.5,241.5C 44.5,214.833 44.5,188.167 44.5,161.5C 49.5,161.5 54.5,161.5 59.5,161.5C 59.5,148.833 59.5,136.167 59.5,123.5C 352.833,123.5 646.167,123.5 939.5,123.5C 939.5,136.167 939.5,148.833 939.5,161.5C 944.167,161.5 948.833,161.5 953.5,161.5C 953.5,145.833 953.5,130.167 953.5,114.5 Z"/></g>
<g><path style="opacity:1" fill="#fefefe" d="M 929.5,320.5 C 929.5,327.167 929.5,333.833 929.5,340.5C 929.5,352.5 929.5,364.5 929.5,376.5C 929.5,382.5 929.5,388.5 929.5,394.5C 777.833,394.5 626.167,394.5 474.5,394.5C 474.5,391.167 474.5,387.833 474.5,384.5C 459.167,384.5 443.833,384.5 428.5,384.5C 428.5,387.833 428.5,391.167 428.5,394.5C 428.167,394.5 427.833,394.5 427.5,394.5C 308.167,394.5 188.833,394.5 69.5,394.5C 69.5,388.5 69.5,382.5 69.5,376.5C 69.5,364.5 69.5,352.5 69.5,340.5C 69.5,333.833 69.5,327.167 69.5,320.5C 69.5,258.167 69.5,195.833 69.5,133.5C 356.167,133.5 642.833,133.5 929.5,133.5C 929.5,195.833 929.5,258.167 929.5,320.5 Z"/></g>
<g><path style="opacity:0.947" fill="#a6cafd" d="M 33.5,139.5 C 36.8333,139.5 40.1667,139.5 43.5,139.5C 43.5,160.5 43.5,181.5 43.5,202.5C 40.1667,202.5 36.8333,202.5 33.5,202.5C 33.5,181.5 33.5,160.5 33.5,139.5 Z"/></g>
<g><path style="opacity:0.953" fill="#a6cafd" d="M 954.5,139.5 C 957.833,139.5 961.167,139.5 964.5,139.5C 964.5,160.5 964.5,181.5 964.5,202.5C 961.167,202.5 957.833,202.5 954.5,202.5C 954.5,181.5 954.5,160.5 954.5,139.5 Z"/></g>
<g><path style="opacity:1" fill="#7d9dff" d="M 306.5,141.5 C 320.571,140.338 333.905,142.838 346.5,149C 363.818,162.628 369.318,180.128 363,201.5C 357.886,218.49 346.719,229.324 329.5,234C 308.31,238.908 290.477,233.408 276,217.5C 266.688,201.983 265.021,185.649 271,168.5C 278.397,153.563 290.231,144.563 306.5,141.5 Z"/></g>
<g><path style="opacity:1" fill="#7d9dff" d="M 378.5,143.5 C 392.504,143.333 406.504,143.5 420.5,144C 441.851,146.869 448.685,158.369 441,178.5C 437.201,183.301 433.034,187.801 428.5,192C 436.453,201.408 444.286,210.908 452,220.5C 458.81,229.156 467.643,232.656 478.5,231C 479.717,229.352 480.55,227.519 481,225.5C 481.667,200.167 481.667,174.833 481,149.5C 477.865,146.349 474.032,144.683 469.5,144.5C 487.157,143.334 504.824,143.167 522.5,144C 553.212,146.373 568.045,162.873 567,193.5C 562.642,217.189 548.475,230.689 524.5,234C 499.834,234.073 475.168,233.739 450.5,233C 445.807,230.979 441.64,228.146 438,224.5C 431.045,215.423 424.212,206.256 417.5,197C 413.179,196.501 408.846,196.334 404.5,196.5C 404.334,206.172 404.5,215.839 405,225.5C 405.273,227.329 406.107,228.829 407.5,230C 410.444,230.97 413.444,231.804 416.5,232.5C 404.5,233.833 392.5,233.833 380.5,232.5C 382.772,231.515 385.105,230.681 387.5,230C 389.074,228.174 389.907,226.007 390,223.5C 390.667,199.167 390.667,174.833 390,150.5C 389.535,149.069 388.701,147.903 387.5,147C 384.092,146.343 381.092,145.177 378.5,143.5 Z"/></g>
<g><path style="opacity:1" fill="#7c9dff" d="M 635.5,142.5 C 636.497,142.47 637.164,142.97 637.5,144C 636.827,149.561 635.827,155.061 634.5,160.5C 633.772,157.788 632.939,155.121 632,152.5C 631.25,151.874 630.416,151.374 629.5,151C 622.239,149.652 614.906,149.152 607.5,149.5C 607.5,160.5 607.5,171.5 607.5,182.5C 615.174,182.666 622.841,182.5 630.5,182C 631.966,181.365 633.3,180.531 634.5,179.5C 634.833,180.333 635.167,181.167 635.5,182C 634.951,187.51 634.285,193.01 633.5,198.5C 632.959,195.266 631.626,192.433 629.5,190C 622.254,188.609 614.921,188.109 607.5,188.5C 607.041,200.601 607.541,212.601 609,224.5C 609.833,225.333 610.667,226.167 611.5,227C 618.167,227.667 624.833,227.667 631.5,227C 633.329,226.727 634.829,225.893 636,224.5C 636.869,221.67 638.036,219.003 639.5,216.5C 640.601,221.846 640.434,227.179 639,232.5C 638.5,233 638,233.5 637.5,234C 619.148,234.388 600.815,233.888 582.5,232.5C 587.892,232.985 591.059,230.652 592,225.5C 592.667,200.167 592.667,174.833 592,149.5C 591.5,147.667 590.333,146.5 588.5,146C 585.774,145.818 583.107,145.318 580.5,144.5C 598.996,143.833 617.329,143.167 635.5,142.5 Z"/></g>
<g><path style="opacity:1" fill="#7d9dff" d="M 655.5,143.5 C 671.872,143.112 688.205,143.612 704.5,145C 719.987,150.48 724.821,160.98 719,176.5C 715.246,182.258 710.746,187.425 705.5,192C 714.458,203.294 723.791,214.294 733.5,225C 738.179,228.839 743.513,231.339 749.5,232.5C 742.189,233.665 734.856,233.831 727.5,233C 722.807,230.979 718.64,228.146 715,224.5C 708.045,215.423 701.212,206.256 694.5,197C 690.179,196.501 685.846,196.334 681.5,196.5C 681.334,206.172 681.5,215.839 682,225.5C 682.273,227.329 683.107,228.829 684.5,230C 687.444,230.97 690.444,231.804 693.5,232.5C 681.5,233.833 669.5,233.833 657.5,232.5C 659.772,231.515 662.105,230.681 664.5,230C 666.074,228.174 666.907,226.007 667,223.5C 667.667,199.167 667.667,174.833 667,150.5C 666.535,149.069 665.701,147.903 664.5,147C 661.092,146.343 658.092,145.177 655.5,143.5 Z"/></g>
<g><path style="opacity:1" fill="#fefeff" d="M 304.5,147.5 C 332.829,146.659 347.496,160.492 348.5,189C 349.008,199.472 346.841,209.305 342,218.5C 331.395,230.092 318.895,232.592 304.5,226C 294.158,219.643 287.658,210.476 285,198.5C 282.533,186.638 283.2,174.971 287,163.5C 290.708,155.747 296.542,150.414 304.5,147.5 Z"/></g>
<g><path style="opacity:1" fill="#fdfdff" d="M 404.5,149.5 C 424.162,148.428 432.662,157.761 430,177.5C 426.156,189.838 417.989,193.838 405.5,189.5C 404.501,176.183 404.167,162.85 404.5,149.5 Z"/></g>
<g><path style="opacity:1" fill="#fefeff" d="M 497.5,149.5 C 511.51,148.054 524.51,150.887 536.5,158C 549.486,169.289 554.319,183.455 551,200.5C 547,220.27 534.834,229.603 514.5,228.5C 511.167,228.333 507.833,228.167 504.5,228C 499.41,226.907 496.91,223.74 497,218.5C 496.178,195.427 496.345,172.427 497.5,149.5 Z"/></g>
<g><path style="opacity:1" fill="#fdfdff" d="M 681.5,149.5 C 701.162,148.428 709.662,157.761 707,177.5C 703.156,189.838 694.989,193.838 682.5,189.5C 681.501,176.183 681.167,162.85 681.5,149.5 Z"/></g>
<g><path style="opacity:0.982" fill="#add3fc" d="M 44.5,114.5 C 44.5,130.167 44.5,145.833 44.5,161.5C 44.5,188.167 44.5,214.833 44.5,241.5C 49.5,241.5 54.5,241.5 59.5,241.5C 59.5,255.5 59.5,269.5 59.5,283.5C 54.5,283.5 49.5,283.5 44.5,283.5C 44.5,302.5 44.5,321.5 44.5,340.5C 44.5,364.5 44.5,388.5 44.5,412.5C 43.5029,393.007 43.1696,373.34 43.5,353.5C 43.5,333.5 43.5,313.5 43.5,293.5C 40.1667,293.5 36.8333,293.5 33.5,293.5C 33.5,263.167 33.5,232.833 33.5,202.5C 36.8333,202.5 40.1667,202.5 43.5,202.5C 43.5,181.5 43.5,160.5 43.5,139.5C 43.1739,130.983 43.5073,122.65 44.5,114.5 Z"/></g>
<g><path style="opacity:0.984" fill="#abd1fc" d="M 954.5,202.5 C 957.833,202.5 961.167,202.5 964.5,202.5C 964.5,217.833 964.5,233.167 964.5,248.5C 961.167,248.5 957.833,248.5 954.5,248.5C 954.5,263.5 954.5,278.5 954.5,293.5C 954.5,313.5 954.5,333.5 954.5,353.5C 954.83,373.34 954.497,393.007 953.5,412.5C 953.5,388.5 953.5,364.5 953.5,340.5C 953.5,321.5 953.5,302.5 953.5,283.5C 948.833,283.5 944.167,283.5 939.5,283.5C 939.5,269.5 939.5,255.5 939.5,241.5C 944.167,241.5 948.833,241.5 953.5,241.5C 953.54,228.491 953.874,215.491 954.5,202.5 Z"/></g>
<g><path style="opacity:0.953" fill="#b2d7fc" d="M 964.5,248.5 C 964.5,263.5 964.5,278.5 964.5,293.5C 961.167,293.5 957.833,293.5 954.5,293.5C 954.5,278.5 954.5,263.5 954.5,248.5C 957.833,248.5 961.167,248.5 964.5,248.5 Z"/></g>
<g><path style="opacity:1" fill="#a4cbfd" d="M 59.5,283.5 C 59.5,295.833 59.5,308.167 59.5,320.5C 62.8333,320.5 66.1667,320.5 69.5,320.5C 69.5,327.167 69.5,333.833 69.5,340.5C 66.1667,340.5 62.8333,340.5 59.5,340.5C 54.5,340.5 49.5,340.5 44.5,340.5C 44.5,321.5 44.5,302.5 44.5,283.5C 49.5,283.5 54.5,283.5 59.5,283.5 Z"/></g>
<g><path style="opacity:1" fill="#a3cbfd" d="M 939.5,283.5 C 944.167,283.5 948.833,283.5 953.5,283.5C 953.5,302.5 953.5,321.5 953.5,340.5C 948.833,340.5 944.167,340.5 939.5,340.5C 936.167,340.5 932.833,340.5 929.5,340.5C 929.5,333.833 929.5,327.167 929.5,320.5C 932.833,320.5 936.167,320.5 939.5,320.5C 939.5,308.167 939.5,295.833 939.5,283.5 Z"/></g>
<g><path style="opacity:1" fill="#7e9eff" d="M 569.5,284.5 C 570.675,284.281 571.675,284.614 572.5,285.5C 583.911,308.912 595.411,332.245 607,355.5C 617.894,332.045 629.061,308.712 640.5,285.5C 641.5,284.167 642.5,284.167 643.5,285.5C 647.557,312.847 651.724,340.181 656,367.5C 656.45,369.519 657.283,371.352 658.5,373C 662.031,374.589 665.698,375.755 669.5,376.5C 660.184,377.665 650.851,377.832 641.5,377C 640.692,376.692 640.025,376.192 639.5,375.5C 640.993,373.636 641.66,371.47 641.5,369C 639.073,351.489 636.573,333.989 634,316.5C 623.833,336.833 613.667,357.167 603.5,377.5C 602.522,377.023 601.689,376.357 601,375.5C 590.957,356.748 581.457,337.748 572.5,318.5C 569.657,334.751 567.324,351.084 565.5,367.5C 565.288,370.011 565.955,372.178 567.5,374C 570.121,374.939 572.788,375.772 575.5,376.5C 565.833,377.833 556.167,377.833 546.5,376.5C 551.536,376.622 554.703,374.289 556,369.5C 560.257,341.103 564.757,312.769 569.5,284.5 Z"/></g>
<g><path style="opacity:1" fill="#7d9dff" d="M 388.5,285.5 C 390.308,285.491 391.975,285.991 393.5,287C 417.857,287.794 442.19,287.628 466.5,286.5C 466.953,292.683 466.453,298.683 465,304.5C 464.667,299.164 461.833,295.997 456.5,295C 449.174,294.5 441.841,294.334 434.5,294.5C 434.333,319.502 434.5,344.502 435,369.5C 435.273,371.329 436.107,372.829 437.5,374C 440.77,374.995 444.103,375.828 447.5,376.5C 434.833,377.833 422.167,377.833 409.5,376.5C 412.273,375.747 414.94,374.747 417.5,373.5C 418.154,371.885 418.654,370.218 419,368.5C 419.5,343.502 419.667,318.502 419.5,293.5C 410.781,293.203 402.114,293.703 393.5,295C 392.069,295.465 390.903,296.299 390,297.5C 389.086,299.664 387.919,301.664 386.5,303.5C 386.167,302.333 385.833,301.167 385.5,300C 386.663,295.189 387.663,290.356 388.5,285.5 Z"/></g>
<g><path style="opacity:1" fill="#7d9dff" d="M 339.5,287.5 C 351.186,287.168 362.852,287.501 374.5,288.5C 370.917,288.949 367.75,290.282 365,292.5C 364.333,318.5 364.333,344.5 365,370.5C 365.11,372.848 366.277,374.348 368.5,375C 371.553,375.179 374.553,375.679 377.5,376.5C 364.833,377.833 352.167,377.833 339.5,376.5C 342.273,375.747 344.94,374.747 347.5,373.5C 348.098,372.205 348.598,370.872 349,369.5C 349.667,344.167 349.667,318.833 349,293.5C 348.626,292.584 348.126,291.75 347.5,291C 344.399,290.362 341.732,289.195 339.5,287.5 Z"/></g>
<g><path style="opacity:1" fill="#7c9dff" d="M 531.5,286.5 C 532.497,286.47 533.164,286.97 533.5,288C 532.827,293.561 531.827,299.061 530.5,304.5C 529.772,301.788 528.939,299.121 528,296.5C 527.25,295.874 526.416,295.374 525.5,295C 518.239,293.652 510.906,293.152 503.5,293.5C 503.5,304.5 503.5,315.5 503.5,326.5C 511.174,326.666 518.841,326.5 526.5,326C 527.966,325.365 529.3,324.531 530.5,323.5C 530.833,324.333 531.167,325.167 531.5,326C 530.951,331.51 530.285,337.01 529.5,342.5C 528.959,339.266 527.626,336.433 525.5,334C 518.254,332.609 510.921,332.109 503.5,332.5C 503.041,344.601 503.541,356.601 505,368.5C 505.833,369.333 506.667,370.167 507.5,371C 514.167,371.667 520.833,371.667 527.5,371C 529.329,370.727 530.829,369.893 532,368.5C 532.869,365.67 534.036,363.003 535.5,360.5C 536.601,365.846 536.434,371.179 535,376.5C 534.5,377 534,377.5 533.5,378C 515.148,378.388 496.815,377.888 478.5,376.5C 483.892,376.985 487.059,374.652 488,369.5C 488.667,344.167 488.667,318.833 488,293.5C 487.5,291.667 486.333,290.5 484.5,290C 481.774,289.818 479.107,289.318 476.5,288.5C 494.996,287.833 513.329,287.167 531.5,286.5 Z"/></g>
<g><path style="opacity:0.947" fill="#b8defc" d="M 33.5,293.5 C 36.8333,293.5 40.1667,293.5 43.5,293.5C 43.5,313.5 43.5,333.5 43.5,353.5C 40.1667,353.5 36.8333,353.5 33.5,353.5C 33.5,333.5 33.5,313.5 33.5,293.5 Z"/></g>
<g><path style="opacity:0.953" fill="#b8defc" d="M 954.5,293.5 C 957.833,293.5 961.167,293.5 964.5,293.5C 964.5,313.5 964.5,333.5 964.5,353.5C 961.167,353.5 957.833,353.5 954.5,353.5C 954.5,333.5 954.5,313.5 954.5,293.5 Z"/></g>
<g><path style="opacity:1" fill="#a1c4fc" d="M 44.5,340.5 C 49.5,340.5 54.5,340.5 59.5,340.5C 59.5,352.5 59.5,364.5 59.5,376.5C 59.5,385.833 59.5,395.167 59.5,404.5C 182.167,404.5 304.833,404.5 427.5,404.5C 420.39,406.152 413.057,407.152 405.5,407.5C 405.827,417.015 405.494,426.348 404.5,435.5C 404.5,432.167 404.5,428.833 404.5,425.5C 288.5,425.667 172.5,425.5 56.5,425C 49.5789,423.58 45.5789,419.413 44.5,412.5C 44.5,388.5 44.5,364.5 44.5,340.5 Z"/></g>
<g><path style="opacity:1" fill="#a1c4fc" d="M 939.5,340.5 C 944.167,340.5 948.833,340.5 953.5,340.5C 953.5,364.5 953.5,388.5 953.5,412.5C 952.279,419.797 947.946,423.963 940.5,425C 792.834,425.5 645.167,425.667 497.5,425.5C 497.5,419.5 497.5,413.5 497.5,407.5C 490.018,406.508 482.352,406.175 474.5,406.5C 474.5,405.833 474.5,405.167 474.5,404.5C 629.5,404.5 784.5,404.5 939.5,404.5C 939.5,395.167 939.5,385.833 939.5,376.5C 939.5,364.5 939.5,352.5 939.5,340.5 Z"/></g>
<g><path style="opacity:1" fill="#74beff" d="M 59.5,340.5 C 62.8333,340.5 66.1667,340.5 69.5,340.5C 69.5,352.5 69.5,364.5 69.5,376.5C 66.1667,376.5 62.8333,376.5 59.5,376.5C 59.5,364.5 59.5,352.5 59.5,340.5 Z"/></g>
<g><path style="opacity:1" fill="#74beff" d="M 929.5,340.5 C 932.833,340.5 936.167,340.5 939.5,340.5C 939.5,352.5 939.5,364.5 939.5,376.5C 936.167,376.5 932.833,376.5 929.5,376.5C 929.5,364.5 929.5,352.5 929.5,340.5 Z"/></g>
<g><path style="opacity:1" fill="#013265" d="M 474.5,394.5 C 474.5,397.833 474.5,401.167 474.5,404.5C 474.5,405.167 474.5,405.833 474.5,406.5C 459.167,406.5 443.833,406.5 428.5,406.5C 428.5,402.5 428.5,398.5 428.5,394.5C 428.5,391.167 428.5,387.833 428.5,384.5C 443.833,384.5 459.167,384.5 474.5,384.5C 474.5,387.833 474.5,391.167 474.5,394.5 Z"/></g>
<g><path style="opacity:1" fill="#63a5ff" d="M 59.5,376.5 C 62.8333,376.5 66.1667,376.5 69.5,376.5C 69.5,382.5 69.5,388.5 69.5,394.5C 188.833,394.5 308.167,394.5 427.5,394.5C 427.5,397.833 427.5,401.167 427.5,404.5C 304.833,404.5 182.167,404.5 59.5,404.5C 59.5,395.167 59.5,385.833 59.5,376.5 Z"/></g>
<g><path style="opacity:1" fill="#63a5ff" d="M 929.5,376.5 C 932.833,376.5 936.167,376.5 939.5,376.5C 939.5,385.833 939.5,395.167 939.5,404.5C 784.5,404.5 629.5,404.5 474.5,404.5C 474.5,401.167 474.5,397.833 474.5,394.5C 626.167,394.5 777.833,394.5 929.5,394.5C 929.5,388.5 929.5,382.5 929.5,376.5 Z"/></g>
<g><path style="opacity:0.984" fill="#003366" d="M 405.5,407.5 C 412.5,407.5 419.5,407.5 426.5,407.5C 426.5,506.833 426.5,606.167 426.5,705.5C 419.833,705.5 413.167,705.5 406.5,705.5C 406.831,682.661 406.497,659.994 405.5,637.5C 398.352,636.508 391.019,636.175 383.5,636.5C 383.5,629.167 383.5,621.833 383.5,614.5C 390.5,614.5 397.5,614.5 404.5,614.5C 404.5,554.833 404.5,495.167 404.5,435.5C 405.494,426.348 405.827,417.015 405.5,407.5 Z"/></g>
<g><path style="opacity:1" fill="#fefefe" d="M 474.5,407.5 C 474.5,468.833 474.5,530.167 474.5,591.5C 481.833,591.5 489.167,591.5 496.5,591.5C 497.498,568.673 497.831,545.673 497.5,522.5C 512.833,522.5 528.167,522.5 543.5,522.5C 543.169,553.338 543.502,584.005 544.5,614.5C 551.833,614.5 559.167,614.5 566.5,614.5C 567.497,592.006 567.831,569.339 567.5,546.5C 582.5,546.5 597.5,546.5 612.5,546.5C 612.5,577.167 612.5,607.833 612.5,638.5C 620.352,638.825 628.018,638.492 635.5,637.5C 636.497,615.006 636.831,592.339 636.5,569.5C 643.833,569.5 651.167,569.5 658.5,569.5C 658.175,577.019 658.508,584.352 659.5,591.5C 666.648,592.492 673.981,592.825 681.5,592.5C 681.5,638.167 681.5,683.833 681.5,729.5C 673.981,729.175 666.648,729.508 659.5,730.5C 659.5,753.5 659.5,776.5 659.5,799.5C 651.833,799.5 644.167,799.5 636.5,799.5C 635.502,822.327 635.169,845.327 635.5,868.5C 574.167,868.5 512.833,868.5 451.5,868.5C 451.5,845.5 451.5,822.5 451.5,799.5C 443.833,799.5 436.167,799.5 428.5,799.5C 428.5,791.833 428.5,784.167 428.5,776.5C 420.5,776.5 412.5,776.5 404.5,776.5C 404.5,761.167 404.5,745.833 404.5,730.5C 397.352,729.508 390.019,729.175 382.5,729.5C 382.829,714.324 382.496,699.324 381.5,684.5C 374.352,683.508 367.019,683.175 359.5,683.5C 359.825,675.981 359.492,668.648 358.5,661.5C 350.833,661.5 343.167,661.5 335.5,661.5C 335.5,646.167 335.5,630.833 335.5,615.5C 350.833,615.5 366.167,615.5 381.5,615.5C 381.5,623.167 381.5,630.833 381.5,638.5C 389.167,638.5 396.833,638.5 404.5,638.5C 404.169,661.673 404.502,684.673 405.5,707.5C 413.167,707.5 420.833,707.5 428.5,707.5C 428.5,607.5 428.5,507.5 428.5,407.5C 443.833,407.5 459.167,407.5 474.5,407.5 Z"/></g>
<g><path style="opacity:0.98" fill="#003366" d="M 475.5,407.5 C 482.833,407.5 490.167,407.5 497.5,407.5C 497.5,413.5 497.5,419.5 497.5,425.5C 497.5,428.833 497.5,432.167 497.5,435.5C 497.5,456.5 497.5,477.5 497.5,498.5C 520.833,498.5 544.167,498.5 567.5,498.5C 567.5,506.167 567.5,513.833 567.5,521.5C 582.833,521.5 598.167,521.5 613.5,521.5C 613.5,529.5 613.5,537.5 613.5,545.5C 613.167,545.5 612.833,545.5 612.5,545.5C 597.167,545.5 581.833,545.5 566.5,545.5C 565.503,567.994 565.169,590.661 565.5,613.5C 558.833,613.5 552.167,613.5 545.5,613.5C 545.667,583.165 545.5,552.832 545,522.5C 544.5,553.165 544.333,583.832 544.5,614.5C 543.502,584.005 543.169,553.338 543.5,522.5C 528.167,522.5 512.833,522.5 497.5,522.5C 497.831,545.673 497.498,568.673 496.5,591.5C 496.667,568.498 496.5,545.498 496,522.5C 495.5,545.164 495.333,567.831 495.5,590.5C 488.833,590.5 482.167,590.5 475.5,590.5C 475.5,529.5 475.5,468.5 475.5,407.5 Z"/></g>
<g><path style="opacity:1" fill="#00104c" d="M 426.5,407.5 C 427.499,506.999 427.833,606.665 427.5,706.5C 420.167,706.5 412.833,706.5 405.5,706.5C 405.5,683.5 405.5,660.5 405.5,637.5C 406.497,659.994 406.831,682.661 406.5,705.5C 413.167,705.5 419.833,705.5 426.5,705.5C 426.5,606.167 426.5,506.833 426.5,407.5 Z"/></g>
<g><path style="opacity:1" fill="#6484a5" d="M 427.5,394.5 C 427.833,394.5 428.167,394.5 428.5,394.5C 428.5,398.5 428.5,402.5 428.5,406.5C 443.833,406.5 459.167,406.5 474.5,406.5C 482.352,406.175 490.018,406.508 497.5,407.5C 490.167,407.5 482.833,407.5 475.5,407.5C 475.167,407.5 474.833,407.5 474.5,407.5C 459.167,407.5 443.833,407.5 428.5,407.5C 428.5,507.5 428.5,607.5 428.5,707.5C 420.833,707.5 413.167,707.5 405.5,707.5C 405.5,707.167 405.5,706.833 405.5,706.5C 412.833,706.5 420.167,706.5 427.5,706.5C 427.833,606.665 427.499,506.999 426.5,407.5C 419.5,407.5 412.5,407.5 405.5,407.5C 413.057,407.152 420.39,406.152 427.5,404.5C 427.5,401.167 427.5,397.833 427.5,394.5 Z"/></g>
<g><path style="opacity:1" fill="#00245a" d="M 474.5,407.5 C 474.833,407.5 475.167,407.5 475.5,407.5C 475.5,468.5 475.5,529.5 475.5,590.5C 482.167,590.5 488.833,590.5 495.5,590.5C 495.333,567.831 495.5,545.164 496,522.5C 496.5,545.498 496.667,568.498 496.5,591.5C 489.167,591.5 481.833,591.5 474.5,591.5C 474.5,530.167 474.5,468.833 474.5,407.5 Z"/></g>
<g><path style="opacity:0.951" fill="#c1e8fb" d="M 33.5,353.5 C 36.8333,353.5 40.1667,353.5 43.5,353.5C 43.1696,373.34 43.5029,393.007 44.5,412.5C 45.5789,419.413 49.5789,423.58 56.5,425C 172.5,425.5 288.5,425.667 404.5,425.5C 404.5,428.833 404.5,432.167 404.5,435.5C 287.5,435.667 170.5,435.5 53.5,435C 43,432.5 36.5,426 34,415.5C 33.5,394.836 33.3334,374.169 33.5,353.5 Z"/></g>
<g><path style="opacity:0.951" fill="#c1e8fb" d="M 954.5,353.5 C 957.833,353.5 961.167,353.5 964.5,353.5C 964.667,374.169 964.5,394.836 964,415.5C 961.5,426 955,432.5 944.5,435C 795.5,435.5 646.5,435.667 497.5,435.5C 497.5,432.167 497.5,428.833 497.5,425.5C 645.167,425.667 792.834,425.5 940.5,425C 947.946,423.963 952.279,419.797 953.5,412.5C 954.497,393.007 954.83,373.34 954.5,353.5 Z"/></g>
<g><path style="opacity:0.954" fill="#bee4fb" d="M 885.5,495.5 C 866.167,495.5 846.833,495.5 827.5,495.5C 838.121,483.378 849.287,471.711 861,460.5C 869.638,471.754 877.805,483.421 885.5,495.5 Z"/></g>
<g><path style="opacity:0.975" fill="#b7defc" d="M 827.5,495.5 C 846.833,495.5 866.167,495.5 885.5,495.5C 891.093,503.692 896.427,512.025 901.5,520.5C 868.833,520.5 836.167,520.5 803.5,520.5C 810.799,511.533 818.799,503.2 827.5,495.5 Z"/></g>
<g><path style="opacity:0.983" fill="#b1d7fc" d="M 803.5,520.5 C 836.167,520.5 868.833,520.5 901.5,520.5C 905.062,524.3 907.562,528.634 909,533.5C 900.98,536.928 892.813,539.928 884.5,542.5C 850.167,542.5 815.833,542.5 781.5,542.5C 788.5,534.833 795.833,527.5 803.5,520.5 Z"/></g>
<g><path style="opacity:1" fill="#002057" d="M 566.5,545.5 C 566.5,568.5 566.5,591.5 566.5,614.5C 559.167,614.5 551.833,614.5 544.5,614.5C 544.333,583.832 544.5,553.165 545,522.5C 545.5,552.832 545.667,583.165 545.5,613.5C 552.167,613.5 558.833,613.5 565.5,613.5C 565.169,590.661 565.503,567.994 566.5,545.5 Z"/></g>
<g><path style="opacity:0.973" fill="#abd0fc" d="M 781.5,542.5 C 815.833,542.5 850.167,542.5 884.5,542.5C 864.877,550.934 844.877,558.6 824.5,565.5C 802.833,565.5 781.167,565.5 759.5,565.5C 766.861,557.807 774.194,550.14 781.5,542.5 Z"/></g>
<g><path style="opacity:0.993" fill="#003265" d="M 614.5,545.5 C 629.5,545.5 644.5,545.5 659.5,545.5C 659.5,553.167 659.5,560.833 659.5,568.5C 651.5,568.5 643.5,568.5 635.5,568.5C 634.503,590.994 634.169,613.661 634.5,636.5C 627.833,636.5 621.167,636.5 614.5,636.5C 614.5,606.167 614.5,575.833 614.5,545.5 Z"/></g>
<g><path style="opacity:1" fill="#cbd5df" d="M 566.5,545.5 C 581.833,545.5 597.167,545.5 612.5,545.5C 612.5,545.833 612.5,546.167 612.5,546.5C 597.5,546.5 582.5,546.5 567.5,546.5C 567.831,569.339 567.497,592.006 566.5,614.5C 566.5,591.5 566.5,568.5 566.5,545.5 Z"/></g>
<g><path style="opacity:1" fill="#6f8ba8" d="M 612.5,545.5 C 612.833,545.5 613.167,545.5 613.5,545.5C 613.5,576.167 613.5,606.833 613.5,637.5C 620.833,637.5 628.167,637.5 635.5,637.5C 628.018,638.492 620.352,638.825 612.5,638.5C 612.5,607.833 612.5,577.167 612.5,546.5C 612.5,546.167 612.5,545.833 612.5,545.5 Z"/></g>
<g><path style="opacity:1" fill="#00104b" d="M 613.5,545.5 C 613.833,545.5 614.167,545.5 614.5,545.5C 614.5,575.833 614.5,606.167 614.5,636.5C 621.167,636.5 627.833,636.5 634.5,636.5C 634.169,613.661 634.503,590.994 635.5,568.5C 635.5,591.5 635.5,614.5 635.5,637.5C 628.167,637.5 620.833,637.5 613.5,637.5C 613.5,606.833 613.5,576.167 613.5,545.5 Z"/></g>
<g><path style="opacity:0.949" fill="#a5c9fd" d="M 759.5,565.5 C 781.167,565.5 802.833,565.5 824.5,565.5C 790.903,579.421 756.903,592.254 722.5,604C 734.7,590.968 747.034,578.135 759.5,565.5 Z"/></g>
<g><path style="opacity:0.985" fill="#003265" d="M 659.5,568.5 C 674.833,568.5 690.167,568.5 705.5,568.5C 705.5,630.167 705.5,691.833 705.5,753.5C 697.833,753.5 690.167,753.5 682.5,753.5C 682.5,776.833 682.5,800.167 682.5,823.5C 674.833,823.5 667.167,823.5 659.5,823.5C 659.5,846.167 659.5,868.833 659.5,891.5C 582.167,891.5 504.833,891.5 427.5,891.5C 427.5,868.833 427.5,846.167 427.5,823.5C 419.833,823.5 412.167,823.5 404.5,823.5C 404.5,807.833 404.5,792.167 404.5,776.5C 412.5,776.5 420.5,776.5 428.5,776.5C 428.5,784.167 428.5,791.833 428.5,799.5C 436.167,799.5 443.833,799.5 451.5,799.5C 451.5,822.5 451.5,845.5 451.5,868.5C 512.998,869.499 574.664,869.832 636.5,869.5C 636.5,846.167 636.5,822.833 636.5,799.5C 644.167,799.5 651.833,799.5 659.5,799.5C 660.497,777.006 660.831,754.339 660.5,731.5C 668.019,731.825 675.352,731.492 682.5,730.5C 682.5,684.167 682.5,637.833 682.5,591.5C 674.833,591.5 667.167,591.5 659.5,591.5C 659.5,583.833 659.5,576.167 659.5,568.5 Z"/></g>
<g><path style="opacity:1" fill="#8aa1b8" d="M 635.5,568.5 C 643.5,568.5 651.5,568.5 659.5,568.5C 659.5,576.167 659.5,583.833 659.5,591.5C 658.508,584.352 658.175,577.019 658.5,569.5C 651.167,569.5 643.833,569.5 636.5,569.5C 636.831,592.339 636.497,615.006 635.5,637.5C 635.5,614.5 635.5,591.5 635.5,568.5 Z"/></g>
<g><path style="opacity:0.953" fill="#bee4fb" d="M 918.5,599.5 C 890.167,599.5 861.833,599.5 833.5,599.5C 861.611,592.056 889.945,585.056 918.5,578.5C 918.5,585.5 918.5,592.5 918.5,599.5 Z"/></g>
<g><path style="opacity:0.976" fill="#003265" d="M 382.5,614.5 C 366.658,614.17 350.991,614.504 335.5,615.5C 335.5,630.833 335.5,646.167 335.5,661.5C 327.833,661.5 320.167,661.5 312.5,661.5C 312.5,638.167 312.5,614.833 312.5,591.5C 335.833,591.5 359.167,591.5 382.5,591.5C 382.5,599.167 382.5,606.833 382.5,614.5 Z"/></g>
<g><path style="opacity:1" fill="#b2c1d0" d="M 659.5,591.5 C 667.167,591.5 674.833,591.5 682.5,591.5C 682.5,637.833 682.5,684.167 682.5,730.5C 674.833,730.5 667.167,730.5 659.5,730.5C 666.648,729.508 673.981,729.175 681.5,729.5C 681.5,683.833 681.5,638.167 681.5,592.5C 673.981,592.825 666.648,592.492 659.5,591.5 Z"/></g>
<g><path style="opacity:0.978" fill="#b7defc" d="M 833.5,599.5 C 861.833,599.5 890.167,599.5 918.5,599.5C 918.569,604.854 918.902,610.187 919.5,615.5C 868.833,615.5 818.167,615.5 767.5,615.5C 789.242,609.565 811.242,604.232 833.5,599.5 Z"/></g>
<g><path style="opacity:0.983" fill="#b1d6fc" d="M 767.5,615.5 C 818.167,615.5 868.833,615.5 919.5,615.5C 919.5,619.833 919.5,624.167 919.5,628.5C 857.5,628.5 795.5,628.5 733.5,628.5C 730.04,628.475 726.706,627.808 723.5,626.5C 738.012,622.205 752.679,618.539 767.5,615.5 Z"/></g>
<g><path style="opacity:0.981" fill="#acd1fd" d="M 733.5,628.5 C 795.5,628.5 857.5,628.5 919.5,628.5C 919.5,631.833 919.5,635.167 919.5,638.5C 874.167,638.5 828.833,638.5 783.5,638.5C 766.59,635.785 749.923,632.451 733.5,628.5 Z"/></g>
<g><path style="opacity:1" fill="#00124c" d="M 382.5,614.5 C 382.833,614.5 383.167,614.5 383.5,614.5C 383.5,621.833 383.5,629.167 383.5,636.5C 391.019,636.175 398.352,636.508 405.5,637.5C 397.833,637.5 390.167,637.5 382.5,637.5C 382.5,629.833 382.5,622.167 382.5,614.5 Z"/></g>
<g><path style="opacity:1" fill="#869eb6" d="M 335.5,615.5 C 350.991,614.504 366.658,614.17 382.5,614.5C 382.5,622.167 382.5,629.833 382.5,637.5C 390.167,637.5 397.833,637.5 405.5,637.5C 405.5,660.5 405.5,683.5 405.5,706.5C 405.5,706.833 405.5,707.167 405.5,707.5C 404.502,684.673 404.169,661.673 404.5,638.5C 396.833,638.5 389.167,638.5 381.5,638.5C 381.5,630.833 381.5,623.167 381.5,615.5C 366.167,615.5 350.833,615.5 335.5,615.5 Z"/></g>
<g><path style="opacity:0.97" fill="#a6cafd" d="M 783.5,638.5 C 828.833,638.5 874.167,638.5 919.5,638.5C 920.081,647.861 920.081,657.194 919.5,666.5C 874.022,657.272 828.689,647.938 783.5,638.5 Z"/></g>
<g><path style="opacity:0.983" fill="#003265" d="M 335.5,662.5 C 342.833,662.5 350.167,662.5 357.5,662.5C 357.175,670.019 357.508,677.352 358.5,684.5C 365.648,685.492 372.981,685.825 380.5,685.5C 380.171,700.676 380.504,715.676 381.5,730.5C 388.648,731.492 395.981,731.825 403.5,731.5C 403.5,746.5 403.5,761.5 403.5,776.5C 396.167,776.5 388.833,776.5 381.5,776.5C 381.5,768.833 381.5,761.167 381.5,753.5C 373.833,753.5 366.167,753.5 358.5,753.5C 358.5,738.167 358.5,722.833 358.5,707.5C 350.833,707.5 343.167,707.5 335.5,707.5C 335.5,692.5 335.5,677.5 335.5,662.5 Z"/></g>
<g><path style="opacity:1" fill="#001751" d="M 335.5,662.5 C 335.5,662.167 335.5,661.833 335.5,661.5C 343.167,661.5 350.833,661.5 358.5,661.5C 358.5,669.167 358.5,676.833 358.5,684.5C 357.508,677.352 357.175,670.019 357.5,662.5C 350.167,662.5 342.833,662.5 335.5,662.5 Z"/></g>
<g><path style="opacity:1" fill="#9cafc3" d="M 358.5,661.5 C 359.492,668.648 359.825,675.981 359.5,683.5C 367.019,683.175 374.352,683.508 381.5,684.5C 373.833,684.5 366.167,684.5 358.5,684.5C 358.5,676.833 358.5,669.167 358.5,661.5 Z"/></g>
<g><path style="opacity:1" fill="#00124d" d="M 358.5,684.5 C 366.167,684.5 373.833,684.5 381.5,684.5C 381.5,699.833 381.5,715.167 381.5,730.5C 380.504,715.676 380.171,700.676 380.5,685.5C 372.981,685.825 365.648,685.492 358.5,684.5 Z"/></g>
<g><path style="opacity:1" fill="#9eb1c5" d="M 381.5,684.5 C 382.496,699.324 382.829,714.324 382.5,729.5C 390.019,729.175 397.352,729.508 404.5,730.5C 396.833,730.5 389.167,730.5 381.5,730.5C 381.5,715.167 381.5,699.833 381.5,684.5 Z"/></g>
<g><path style="opacity:1" fill="#00144e" d="M 381.5,730.5 C 389.167,730.5 396.833,730.5 404.5,730.5C 404.5,745.833 404.5,761.167 404.5,776.5C 404.167,776.5 403.833,776.5 403.5,776.5C 403.5,761.5 403.5,746.5 403.5,731.5C 395.981,731.825 388.648,731.492 381.5,730.5 Z"/></g>
<g><path style="opacity:1" fill="#00164f" d="M 659.5,730.5 C 667.167,730.5 674.833,730.5 682.5,730.5C 675.352,731.492 668.019,731.825 660.5,731.5C 660.831,754.339 660.497,777.006 659.5,799.5C 659.5,776.5 659.5,753.5 659.5,730.5 Z"/></g>
<g><path style="opacity:1" fill="#4c6f93" d="M 636.5,799.5 C 636.5,822.833 636.5,846.167 636.5,869.5C 574.664,869.832 512.998,869.499 451.5,868.5C 512.833,868.5 574.167,868.5 635.5,868.5C 635.169,845.327 635.502,822.327 636.5,799.5 Z"/></g>
</svg>
