<?xml version="1.0" encoding="UTF-8"?>
<!DOCTYPE svg PUBLIC "-//W3C//DTD SVG 1.1//EN" "http://www.w3.org/Graphics/SVG/1.1/DTD/svg11.dtd">
<svg xmlns="http://www.w3.org/2000/svg" version="1.1" width="1000px" height="1000px" style="shape-rendering:geometricPrecision; text-rendering:geometricPrecision; image-rendering:optimizeQuality; fill-rule:evenodd; clip-rule:evenodd" xmlns:xlink="http://www.w3.org/1999/xlink">
<g><path style="opacity:1" fill="#7f807f" d="M 118.5,140.5 C 285.833,140.5 453.167,140.5 620.5,140.5C 620.5,235.833 620.5,331.167 620.5,426.5C 730.501,426.333 840.501,426.5 950.5,427C 964.837,434.681 968.337,445.847 961,460.5C 957.311,466.094 952.144,469.261 945.5,470C 828.5,470.667 711.5,470.667 594.5,470C 585.207,468.703 578.874,463.703 575.5,455C 423.167,454.5 270.834,454.333 118.5,454.5C 118.5,349.833 118.5,245.167 118.5,140.5 Z M 140.5,162.5 C 293.167,162.5 445.833,162.5 598.5,162.5C 598.5,250.5 598.5,338.5 598.5,426.5C 591.832,425.445 586.166,427.279 581.5,432C 434.5,432.5 287.5,432.667 140.5,432.5C 140.5,342.5 140.5,252.5 140.5,162.5 Z M 360.5,256.5 C 384.066,254.025 400.232,263.692 409,285.5C 413.907,309.186 405.407,326.019 383.5,336C 357.483,342.56 339.65,333.394 330,308.5C 325.54,282.402 335.707,265.069 360.5,256.5 Z"/></g>
<g><path style="opacity:1" fill="#7f807f" d="M 76.5,181.5 C 83.8333,181.5 91.1667,181.5 98.5,181.5C 98.5,279.167 98.5,376.833 98.5,474.5C 258.5,474.5 418.5,474.5 578.5,474.5C 578.5,481.833 578.5,489.167 578.5,496.5C 411.167,496.5 243.833,496.5 76.5,496.5C 76.5,391.5 76.5,286.5 76.5,181.5 Z"/></g>
<g><path style="opacity:1" fill="#7f807f" d="M 170.5,182.5 C 191.833,182.5 213.167,182.5 234.5,182.5C 234.5,189.833 234.5,197.167 234.5,204.5C 213.167,204.5 191.833,204.5 170.5,204.5C 170.5,197.167 170.5,189.833 170.5,182.5 Z"/></g>
<g><path style="opacity:1" fill="#7f807f" d="M 504.5,182.5 C 525.833,182.5 547.167,182.5 568.5,182.5C 568.5,189.833 568.5,197.167 568.5,204.5C 547.167,204.5 525.833,204.5 504.5,204.5C 504.5,197.167 504.5,189.833 504.5,182.5 Z"/></g>
<g><path style="opacity:1" fill="#7f807f" d="M 34.5,223.5 C 41.8333,223.5 49.1667,223.5 56.5,223.5C 56.5,320.833 56.5,418.167 56.5,515.5C 216.833,515.5 377.167,515.5 537.5,515.5C 537.5,522.833 537.5,530.167 537.5,537.5C 369.833,537.5 202.167,537.5 34.5,537.5C 34.5,432.833 34.5,328.167 34.5,223.5 Z"/></g>
<g><path style="opacity:1" fill="#7f807f" d="M 367.5,233.5 C 402.537,235.373 424.037,253.373 432,287.5C 434.5,322.011 419.666,345.511 387.5,358C 352.551,365.273 327.051,353.106 311,321.5C 300.522,290.61 308.022,265.11 333.5,245C 344.03,238.435 355.364,234.601 367.5,233.5 Z M 360.5,256.5 C 335.707,265.069 325.54,282.402 330,308.5C 339.65,333.394 357.483,342.56 383.5,336C 405.407,326.019 413.907,309.186 409,285.5C 400.232,263.692 384.066,254.025 360.5,256.5 Z"/></g>
<g><path style="opacity:1" fill="#a4a6ae" d="M 348.5,268.5 C 351.394,269.882 353.894,271.882 356,274.5C 360.333,279.5 364.667,284.5 369,289.5C 374.571,283.352 379.904,277.019 385,270.5C 387.276,267.936 389.276,268.27 391,271.5C 391.667,272.5 391.667,273.5 391,274.5C 384.5,281.667 378,288.833 371.5,296C 374.482,296.498 377.482,296.665 380.5,296.5C 380.5,298.833 380.5,301.167 380.5,303.5C 367.363,304.634 367.363,305.301 380.5,305.5C 380.5,308.167 380.5,310.833 380.5,313.5C 377.5,313.5 374.5,313.5 371.5,313.5C 371.5,319.5 371.5,325.5 371.5,331.5C 368.833,331.5 366.167,331.5 363.5,331.5C 363.5,325.5 363.5,319.5 363.5,313.5C 360.5,313.5 357.5,313.5 354.5,313.5C 354.5,310.833 354.5,308.167 354.5,305.5C 366.5,304.833 366.5,304.167 354.5,303.5C 354.5,301.167 354.5,298.833 354.5,296.5C 357.518,296.665 360.518,296.498 363.5,296C 357.153,288.322 350.82,280.655 344.5,273C 346.018,271.649 347.351,270.149 348.5,268.5 Z"/></g>
<g><path style="opacity:1" fill="#7f807f" d="M 170.5,390.5 C 191.833,390.5 213.167,390.5 234.5,390.5C 234.5,397.833 234.5,405.167 234.5,412.5C 213.167,412.5 191.833,412.5 170.5,412.5C 170.5,405.167 170.5,397.833 170.5,390.5 Z"/></g>
<g><path style="opacity:1" fill="#7f807f" d="M 504.5,390.5 C 525.833,390.5 547.167,390.5 568.5,390.5C 568.5,397.833 568.5,405.167 568.5,412.5C 547.167,412.5 525.833,412.5 504.5,412.5C 504.5,405.167 504.5,397.833 504.5,390.5 Z"/></g>
<g><path style="opacity:1" fill="#7f807f" d="M 592.5,490.5 C 710.834,490.333 829.167,490.5 947.5,491C 964.343,497.534 968.843,509.034 961,525.5C 958.011,529.491 954.178,532.324 949.5,534C 829.833,534.667 710.167,534.667 590.5,534C 580.693,530.238 575.359,523.072 574.5,512.5C 575.785,501.223 581.785,493.889 592.5,490.5 Z"/></g>
<g><path style="opacity:1" fill="#7f807f" d="M 519.5,555.5 C 580.774,553.551 628.274,577.884 662,628.5C 686.895,672.94 690.229,718.94 672,766.5C 648.163,818.352 607.996,848.852 551.5,858C 484.84,863.421 434.007,837.921 399,781.5C 378.883,742.806 374.883,702.473 387,660.5C 410.188,598.845 454.354,563.845 519.5,555.5 Z M 525.5,595.5 C 532.167,595.5 538.833,595.5 545.5,595.5C 545.5,603.167 545.5,610.833 545.5,618.5C 556.677,618.948 566.844,622.281 576,628.5C 577.604,636.73 577.937,645.063 577,653.5C 576.261,654.574 575.261,655.241 574,655.5C 562.418,648.807 549.918,644.807 536.5,643.5C 516.617,644.851 509.783,654.851 516,673.5C 518.537,676.372 521.37,678.872 524.5,681C 539.889,687.907 554.889,695.574 569.5,704C 586.368,718.624 591.868,736.79 586,758.5C 579.02,777.476 565.687,789.476 546,794.5C 545.5,802.159 545.334,809.826 545.5,817.5C 538.833,817.5 532.167,817.5 525.5,817.5C 525.5,810.5 525.5,803.5 525.5,796.5C 510.339,796.959 496.006,793.792 482.5,787C 476.19,782.927 473.856,777.094 475.5,769.5C 475.287,764.812 475.954,760.312 477.5,756C 479.167,755.333 480.833,755.333 482.5,756C 500.537,769.275 520.203,772.609 541.5,766C 553.856,756.939 555.689,746.106 547,733.5C 544.167,731.333 541.333,729.167 538.5,727C 522.951,720.893 508.284,713.227 494.5,704C 479.714,689.784 474.88,672.618 480,652.5C 487.822,631.531 502.988,620.198 525.5,618.5C 525.5,610.833 525.5,603.167 525.5,595.5 Z"/></g>
<g><path style="opacity:1" fill="#7f807f" d="M 611.5,555.5 C 723.5,555.333 835.5,555.5 947.5,556C 961.349,560.519 966.849,570.019 964,584.5C 961.076,591.758 955.909,596.592 948.5,599C 853.167,599.667 757.833,599.667 662.5,599C 647.659,581.635 630.659,567.135 611.5,555.5 Z"/></g>
<g><path style="opacity:1" fill="#7f807f" d="M 677.5,620.5 C 767.834,620.333 858.167,620.5 948.5,621C 964.611,628.071 968.777,639.571 961,655.5C 957.908,659.928 953.741,662.761 948.5,664C 863.834,664.5 779.167,664.667 694.5,664.5C 691.05,648.941 685.384,634.274 677.5,620.5 Z"/></g>
<g><path style="opacity:1" fill="#7f807f" d="M 699.5,685.5 C 782.834,685.333 866.167,685.5 949.5,686C 964.877,693.597 968.71,705.097 961,720.5C 957.35,724.739 952.85,727.572 947.5,729C 864.834,729.5 782.167,729.667 699.5,729.5C 700.809,714.832 700.809,700.165 699.5,685.5 Z"/></g>
<g><path style="opacity:1" fill="#7f807f" d="M 694.5,750.5 C 779.501,750.333 864.501,750.5 949.5,751C 961.884,756.6 966.717,766.1 964,779.5C 960.888,787.612 955.054,792.445 946.5,794C 856.831,794.833 767.165,794.667 677.5,793.5C 685.327,780.019 690.994,765.686 694.5,750.5 Z"/></g>
<g><path style="opacity:1" fill="#7f807f" d="M 663.5,814.5 C 757.501,814.333 851.501,814.5 945.5,815C 960.621,819.053 966.787,828.886 964,844.5C 961.5,851 957,855.5 950.5,858C 837.5,858.667 724.5,858.667 611.5,858C 631.705,846.964 649.039,832.464 663.5,814.5 Z"/></g>
</svg>
