<?xml version="1.0" encoding="UTF-8"?>
<!DOCTYPE svg PUBLIC "-//W3C//DTD SVG 1.1//EN" "http://www.w3.org/Graphics/SVG/1.1/DTD/svg11.dtd">
<svg xmlns="http://www.w3.org/2000/svg" version="1.1" width="1000px" height="1000px" style="shape-rendering:geometricPrecision; text-rendering:geometricPrecision; image-rendering:optimizeQuality; fill-rule:evenodd; clip-rule:evenodd" xmlns:xlink="http://www.w3.org/1999/xlink">
<g><path style="opacity:1" fill="#808080" d="M 879.5,470.5 C 877.801,470.66 876.134,470.494 874.5,470C 873.295,468.624 871.962,467.458 870.5,466.5C 866.663,462.248 862.496,458.248 858,454.5C 857.667,453.5 857.333,452.5 857,451.5C 849.662,446.307 841.329,443.641 832,443.5C 830.167,443.667 828.333,443.833 826.5,444C 819.984,446.972 813.65,450.305 807.5,454C 803.307,460.017 798.64,465.517 793.5,470.5C 791.833,470.5 790.167,470.5 788.5,470.5C 723.832,470.667 659.166,470.5 594.5,470C 585.207,468.703 578.874,463.703 575.5,455C 423.167,454.5 270.834,454.333 118.5,454.5C 118.5,349.833 118.5,245.167 118.5,140.5C 285.833,140.5 453.167,140.5 620.5,140.5C 620.5,235.833 620.5,331.167 620.5,426.5C 730.501,426.333 840.501,426.5 950.5,427C 963.425,433.417 967.591,443.583 963,457.5C 959.09,464.417 953.257,468.584 945.5,470C 923.503,470.5 901.503,470.667 879.5,470.5 Z M 140.5,162.5 C 293.167,162.5 445.833,162.5 598.5,162.5C 598.5,250.5 598.5,338.5 598.5,426.5C 591.832,425.445 586.166,427.279 581.5,432C 434.5,432.5 287.5,432.667 140.5,432.5C 140.5,342.5 140.5,252.5 140.5,162.5 Z M 360.5,256.5 C 384.066,254.025 400.232,263.692 409,285.5C 413.907,309.186 405.407,326.019 383.5,336C 357.483,342.56 339.65,333.394 330,308.5C 325.54,282.402 335.707,265.069 360.5,256.5 Z"/></g>
<g><path style="opacity:1" fill="#7f807f" d="M 76.5,181.5 C 83.8333,181.5 91.1667,181.5 98.5,181.5C 98.5,279.167 98.5,376.833 98.5,474.5C 258.5,474.5 418.5,474.5 578.5,474.5C 578.5,481.833 578.5,489.167 578.5,496.5C 411.167,496.5 243.833,496.5 76.5,496.5C 76.5,391.5 76.5,286.5 76.5,181.5 Z"/></g>
<g><path style="opacity:1" fill="#7f807f" d="M 170.5,182.5 C 191.833,182.5 213.167,182.5 234.5,182.5C 234.5,189.833 234.5,197.167 234.5,204.5C 213.167,204.5 191.833,204.5 170.5,204.5C 170.5,197.167 170.5,189.833 170.5,182.5 Z"/></g>
<g><path style="opacity:1" fill="#7f807f" d="M 504.5,182.5 C 525.833,182.5 547.167,182.5 568.5,182.5C 568.5,189.833 568.5,197.167 568.5,204.5C 547.167,204.5 525.833,204.5 504.5,204.5C 504.5,197.167 504.5,189.833 504.5,182.5 Z"/></g>
<g><path style="opacity:1" fill="#7f807f" d="M 34.5,223.5 C 41.8333,223.5 49.1667,223.5 56.5,223.5C 56.5,320.833 56.5,418.167 56.5,515.5C 216.833,515.5 377.167,515.5 537.5,515.5C 537.5,522.833 537.5,530.167 537.5,537.5C 369.833,537.5 202.167,537.5 34.5,537.5C 34.5,432.833 34.5,328.167 34.5,223.5 Z"/></g>
<g><path style="opacity:1" fill="#7f807f" d="M 367.5,233.5 C 402.537,235.373 424.037,253.373 432,287.5C 434.5,322.011 419.666,345.511 387.5,358C 352.551,365.273 327.051,353.106 311,321.5C 300.522,290.61 308.022,265.11 333.5,245C 344.03,238.435 355.364,234.601 367.5,233.5 Z M 360.5,256.5 C 335.707,265.069 325.54,282.402 330,308.5C 339.65,333.394 357.483,342.56 383.5,336C 405.407,326.019 413.907,309.186 409,285.5C 400.232,263.692 384.066,254.025 360.5,256.5 Z"/></g>
<g><path style="opacity:1" fill="#a4a6ae" d="M 348.5,268.5 C 351.394,269.882 353.894,271.882 356,274.5C 360.333,279.5 364.667,284.5 369,289.5C 374.571,283.352 379.904,277.019 385,270.5C 387.276,267.936 389.276,268.27 391,271.5C 391.667,272.5 391.667,273.5 391,274.5C 384.5,281.667 378,288.833 371.5,296C 374.482,296.498 377.482,296.665 380.5,296.5C 380.5,298.833 380.5,301.167 380.5,303.5C 367.363,304.634 367.363,305.301 380.5,305.5C 380.5,308.167 380.5,310.833 380.5,313.5C 377.5,313.5 374.5,313.5 371.5,313.5C 371.5,319.5 371.5,325.5 371.5,331.5C 368.833,331.5 366.167,331.5 363.5,331.5C 363.5,325.5 363.5,319.5 363.5,313.5C 360.5,313.5 357.5,313.5 354.5,313.5C 354.5,310.833 354.5,308.167 354.5,305.5C 366.5,304.833 366.5,304.167 354.5,303.5C 354.5,301.167 354.5,298.833 354.5,296.5C 357.518,296.665 360.518,296.498 363.5,296C 357.153,288.322 350.82,280.655 344.5,273C 346.018,271.649 347.351,270.149 348.5,268.5 Z"/></g>
<g><path style="opacity:1" fill="#7f807f" d="M 170.5,390.5 C 191.833,390.5 213.167,390.5 234.5,390.5C 234.5,397.833 234.5,405.167 234.5,412.5C 213.167,412.5 191.833,412.5 170.5,412.5C 170.5,405.167 170.5,397.833 170.5,390.5 Z"/></g>
<g><path style="opacity:1" fill="#7f807f" d="M 504.5,390.5 C 525.833,390.5 547.167,390.5 568.5,390.5C 568.5,397.833 568.5,405.167 568.5,412.5C 547.167,412.5 525.833,412.5 504.5,412.5C 504.5,405.167 504.5,397.833 504.5,390.5 Z"/></g>
<g><path style="opacity:1" fill="#d4d9d3" d="M 870.5,466.5 C 869.506,467.999 869.506,469.666 870.5,471.5C 864.039,466.209 857.705,460.709 851.5,455C 840.246,449.454 828.912,449.12 817.5,454C 810.996,459.671 804.663,465.505 798.5,471.5C 798.631,470.761 798.464,470.094 798,469.5C 796.644,470.38 795.144,470.714 793.5,470.5C 798.64,465.517 803.307,460.017 807.5,454C 813.65,450.305 819.984,446.972 826.5,444C 828.333,443.833 830.167,443.667 832,443.5C 841.329,443.641 849.662,446.307 857,451.5C 857.333,452.5 857.667,453.5 858,454.5C 862.496,458.248 866.663,462.248 870.5,466.5 Z"/></g>
<g><path style="opacity:1" fill="#3afe16" d="M 870.5,471.5 C 876.742,478.286 883.409,484.62 890.5,490.5C 897.784,496.623 904.284,503.623 910,511.5C 914.891,525.08 912.891,537.414 904,548.5C 892.272,561.059 880.439,573.392 868.5,585.5C 862.45,589.217 857.783,594.217 854.5,600.5C 847.173,609.159 839.507,617.493 831.5,625.5C 830.178,625.33 829.011,625.663 828,626.5C 820.006,635.827 811.673,644.827 803,653.5C 802.517,654.448 802.351,655.448 802.5,656.5C 739.167,724.833 675.833,793.167 612.5,861.5C 579.505,897.162 546.171,932.495 512.5,967.5C 509.213,968.264 506.546,970.097 504.5,973C 491.71,981.865 477.71,984.698 462.5,981.5C 449.945,977.125 439.779,969.458 432,958.5C 383.948,892.622 336.115,826.622 288.5,760.5C 286.372,754.926 283.205,749.926 279,745.5C 276.398,741.294 274.064,736.961 272,732.5C 271.501,727.511 271.334,722.511 271.5,717.5C 272.815,709.668 276.815,703.501 283.5,699C 300.874,685.989 318.541,673.489 336.5,661.5C 341.782,659.453 347.282,658.12 353,657.5C 359.707,657.97 366.207,659.303 372.5,661.5C 376.833,663.833 380.167,667.167 382.5,671.5C 415.437,717.709 449.104,763.376 483.5,808.5C 489.188,804.812 493.855,800.145 497.5,794.5C 531.588,759.083 565.255,723.416 598.5,687.5C 604.52,684.34 608.854,679.673 611.5,673.5C 615.795,667.537 620.795,662.204 626.5,657.5C 632.882,653.452 637.882,648.118 641.5,641.5C 644.71,637.079 648.377,633.079 652.5,629.5C 658.283,626.055 662.616,621.389 665.5,615.5C 671.55,611.783 676.217,606.783 679.5,600.5C 712.466,564.199 745.799,528.199 779.5,492.5C 786.225,485.779 792.558,478.779 798.5,471.5C 804.663,465.505 810.996,459.671 817.5,454C 828.912,449.12 840.246,449.454 851.5,455C 857.705,460.709 864.039,466.209 870.5,471.5 Z M 511.5,768.5 C 510.91,769.766 510.41,771.099 510,772.5C 509.282,771.549 508.449,771.383 507.5,772C 505.545,776.792 502.212,779.959 497.5,781.5C 498.244,784.95 496.91,786.616 493.5,786.5C 493.371,788.216 493.038,789.883 492.5,791.5C 486.651,789.659 481.485,786.659 477,782.5C 475,773.833 475,765.167 477,756.5C 478.726,755.424 480.559,755.257 482.5,756C 491.217,762.358 500.884,766.525 511.5,768.5 Z"/></g>
<g><path style="opacity:0.774" fill="#f0f2f0" d="M 870.5,466.5 C 871.962,467.458 873.295,468.624 874.5,470C 876.134,470.494 877.801,470.66 879.5,470.5C 881.102,472.074 883.102,472.741 885.5,472.5C 885.5,474.167 885.5,475.833 885.5,477.5C 888.329,477.325 889.996,478.658 890.5,481.5C 892.071,482.309 893.738,482.643 895.5,482.5C 895.5,483.833 895.5,485.167 895.5,486.5C 898.588,486.197 900.254,487.53 900.5,490.5C 899.833,490.5 899.167,490.5 898.5,490.5C 895.833,490.5 893.167,490.5 890.5,490.5C 883.409,484.62 876.742,478.286 870.5,471.5C 869.506,469.666 869.506,467.999 870.5,466.5 Z"/></g>
<g><path style="opacity:0.082" fill="#f4f5f3" d="M 798.5,471.5 C 792.558,478.779 786.225,485.779 779.5,492.5C 778.082,490.692 776.082,490.025 773.5,490.5C 773.167,490.5 772.833,490.5 772.5,490.5C 772.5,489.5 772.5,488.5 772.5,487.5C 773.873,487.657 775.207,487.49 776.5,487C 776.167,486.667 775.833,486.333 775.5,486C 778.931,484.085 780.931,481.252 781.5,477.5C 782.833,477.5 784.167,477.5 785.5,477.5C 786.043,474.962 787.043,472.628 788.5,470.5C 790.167,470.5 791.833,470.5 793.5,470.5C 795.144,470.714 796.644,470.38 798,469.5C 798.464,470.094 798.631,470.761 798.5,471.5 Z"/></g>
<g><path style="opacity:1" fill="#808080" d="M 772.5,490.5 C 772.833,490.5 773.167,490.5 773.5,490.5C 761.309,504.189 749.309,518.022 737.5,532C 734.856,534.017 731.856,534.85 728.5,534.5C 682.499,534.667 636.499,534.5 590.5,534C 580.693,530.238 575.359,523.072 574.5,512.5C 575.591,501.241 581.591,494.074 592.5,491C 652.499,490.5 712.499,490.333 772.5,490.5 Z"/></g>
<g><path style="opacity:1" fill="#818181" d="M 898.5,490.5 C 899.167,490.5 899.833,490.5 900.5,490.5C 916.17,490.333 931.837,490.5 947.5,491C 964.343,497.534 968.843,509.034 961,525.5C 958.011,529.491 954.178,532.324 949.5,534C 939.172,534.5 928.839,534.666 918.5,534.5C 918.529,528.79 918.029,523.123 917,517.5C 912.357,507.282 906.191,498.282 898.5,490.5 Z"/></g>
<g><path style="opacity:1" fill="#808080" d="M 653.5,616.5 C 653.953,617.458 654.619,618.292 655.5,619C 652.297,623.368 648.63,627.201 644.5,630.5C 643.206,632.962 641.706,635.295 640,637.5C 638.829,638.893 637.329,639.727 635.5,640C 631.331,645.169 627.164,650.336 623,655.5C 620,657.833 617,660.167 614,662.5C 609.534,668.382 604.868,674.049 600,679.5C 593.862,684.008 588.696,689.508 584.5,696C 580.482,699.021 576.816,702.354 573.5,706C 572.423,706.47 571.423,706.303 570.5,705.5C 568.353,703.53 566.02,701.697 563.5,700C 550.347,693.923 537.347,687.59 524.5,681C 513.241,674.063 510.408,664.563 516,652.5C 521.47,646.506 528.303,643.506 536.5,643.5C 549.918,644.807 562.418,648.807 574,655.5C 575.261,655.241 576.261,654.574 577,653.5C 577.937,645.063 577.604,636.73 576,628.5C 566.844,622.281 556.677,618.948 545.5,618.5C 545.5,610.833 545.5,603.167 545.5,595.5C 538.833,595.5 532.167,595.5 525.5,595.5C 525.5,603.167 525.5,610.833 525.5,618.5C 491.314,622.853 475.814,642.186 479,676.5C 482.513,692.685 491.68,704.518 506.5,712C 519.937,717.853 532.937,724.353 545.5,731.5C 548.456,735.142 547.623,737.808 543,739.5C 536.139,749.027 527.973,757.194 518.5,764C 517.718,768.325 515.384,769.825 511.5,768.5C 500.884,766.525 491.217,762.358 482.5,756C 480.559,755.257 478.726,755.424 477,756.5C 475,765.167 475,773.833 477,782.5C 481.485,786.659 486.651,789.659 492.5,791.5C 493.492,791.328 494.158,791.662 494.5,792.5C 490.558,794.939 487.058,797.939 484,801.5C 480.915,799.082 478.581,796.082 477,792.5C 468.005,782.862 460.672,772.196 455,760.5C 452.57,757.614 449.903,754.947 447,752.5C 426.364,723.784 405.864,695.451 385.5,667.5C 385.433,666.041 385.766,664.708 386.5,663.5C 406.653,604.578 447.32,569.078 508.5,557C 568.12,550.023 616.453,569.857 653.5,616.5 Z"/></g>
<g><path style="opacity:1" fill="#808080" d="M 710.5,555.5 C 714.64,554.956 715.307,555.956 712.5,558.5C 707.738,562.917 702.738,567.25 697.5,571.5C 696.081,573.336 694.914,575.336 694,577.5C 688.381,582.11 683.215,587.11 678.5,592.5C 677.048,593.94 676.048,595.606 675.5,597.5C 674.22,598.931 672.553,599.598 670.5,599.5C 667.813,599.664 665.146,599.497 662.5,599C 648.026,581.683 631.026,567.516 611.5,556.5C 644.493,555.5 677.493,555.167 710.5,555.5 Z"/></g>
<g><path style="opacity:1" fill="#808080" d="M 909.5,555.5 C 922.171,555.333 934.838,555.5 947.5,556C 961.349,560.519 966.849,570.019 964,584.5C 961.076,591.758 955.909,596.592 948.5,599C 921.169,599.5 893.835,599.667 866.5,599.5C 864.801,599.66 863.134,599.494 861.5,599C 876.471,585.694 890.471,571.361 903.5,556C 905.473,555.505 907.473,555.338 909.5,555.5 Z"/></g>
<g><path style="opacity:1" fill="#e3e6e2" d="M 773.5,490.5 C 776.082,490.025 778.082,490.692 779.5,492.5C 745.799,528.199 712.466,564.199 679.5,600.5C 674.861,605.474 670.195,610.474 665.5,615.5C 660.711,619.745 656.378,624.411 652.5,629.5C 648.377,633.079 644.71,637.079 641.5,641.5C 635.795,646.204 630.795,651.537 626.5,657.5C 620.795,662.204 615.795,667.537 611.5,673.5C 606.711,677.745 602.378,682.411 598.5,687.5C 565.255,723.416 531.588,759.083 497.5,794.5C 496.5,793.833 495.5,793.167 494.5,792.5C 494.158,791.662 493.492,791.328 492.5,791.5C 493.038,789.883 493.371,788.216 493.5,786.5C 496.91,786.616 498.244,784.95 497.5,781.5C 502.212,779.959 505.545,776.792 507.5,772C 508.449,771.383 509.282,771.549 510,772.5C 510.41,771.099 510.91,769.766 511.5,768.5C 515.384,769.825 517.718,768.325 518.5,764C 527.973,757.194 536.139,749.027 543,739.5C 547.623,737.808 548.456,735.142 545.5,731.5C 546.609,730.71 547.942,730.21 549.5,730C 550.364,726.641 552.364,724.474 555.5,723.5C 555.5,722.167 555.5,720.833 555.5,719.5C 558.95,720.244 560.616,718.91 560.5,715.5C 561.552,715.649 562.552,715.483 563.5,715C 563.167,714.667 562.833,714.333 562.5,714C 565.035,713.072 566.035,711.238 565.5,708.5C 566.833,708.5 568.167,708.5 569.5,708.5C 569.263,707.209 569.596,706.209 570.5,705.5C 571.423,706.303 572.423,706.47 573.5,706C 576.816,702.354 580.482,699.021 584.5,696C 588.696,689.508 593.862,684.008 600,679.5C 604.868,674.049 609.534,668.382 614,662.5C 617,660.167 620,657.833 623,655.5C 627.164,650.336 631.331,645.169 635.5,640C 637.329,639.727 638.829,638.893 640,637.5C 641.706,635.295 643.206,632.962 644.5,630.5C 648.63,627.201 652.297,623.368 655.5,619C 654.619,618.292 653.953,617.458 653.5,616.5C 656.044,615.292 657.378,613.292 657.5,610.5C 658.833,610.5 660.167,610.5 661.5,610.5C 661.5,609.167 661.5,607.833 661.5,606.5C 662.833,606.5 664.167,606.5 665.5,606.5C 665.492,602.813 667.159,600.48 670.5,599.5C 672.553,599.598 674.22,598.931 675.5,597.5C 677.175,595.998 679.008,594.665 681,593.5C 691.039,581.424 701.539,569.757 712.5,558.5C 715.307,555.956 714.64,554.956 710.5,555.5C 711.209,554.596 712.209,554.263 713.5,554.5C 713.351,553.448 713.517,552.448 714,551.5C 717.577,548.821 720.744,545.821 723.5,542.5C 724.95,541.15 725.617,539.484 725.5,537.5C 726.5,537.5 727.5,537.5 728.5,537.5C 728.5,536.5 728.5,535.5 728.5,534.5C 731.856,534.85 734.856,534.017 737.5,532C 749.309,518.022 761.309,504.189 773.5,490.5 Z"/></g>
<g><path style="opacity:1" fill="#adadad" d="M 712.5,558.5 C 701.539,569.757 691.039,581.424 681,593.5C 679.008,594.665 677.175,595.998 675.5,597.5C 676.048,595.606 677.048,593.94 678.5,592.5C 683.215,587.11 688.381,582.11 694,577.5C 694.914,575.336 696.081,573.336 697.5,571.5C 702.738,567.25 707.738,562.917 712.5,558.5 Z"/></g>
<g><path style="opacity:1" fill="#68f64c" d="M 868.5,585.5 C 864.539,591.129 859.873,596.129 854.5,600.5C 857.783,594.217 862.45,589.217 868.5,585.5 Z"/></g>
<g><path style="opacity:1" fill="#65f749" d="M 679.5,600.5 C 676.217,606.783 671.55,611.783 665.5,615.5C 670.195,610.474 674.861,605.474 679.5,600.5 Z"/></g>
<g><path style="opacity:1" fill="#808080" d="M 843.5,620.5 C 844.5,620.5 845.5,620.5 846.5,620.5C 880.502,620.333 914.502,620.5 948.5,621C 964.611,628.071 968.777,639.571 961,655.5C 957.908,659.928 953.741,662.761 948.5,664C 900.168,664.5 851.834,664.667 803.5,664.5C 816.381,649.609 829.715,634.943 843.5,620.5 Z"/></g>
<g><path style="opacity:1" fill="#69f64e" d="M 665.5,615.5 C 662.616,621.389 658.283,626.055 652.5,629.5C 656.378,624.411 660.711,619.745 665.5,615.5 Z"/></g>
<g><path style="opacity:1" fill="#64f848" d="M 831.5,625.5 C 822.2,636.135 812.533,646.468 802.5,656.5C 802.351,655.448 802.517,654.448 803,653.5C 811.673,644.827 820.006,635.827 828,626.5C 829.011,625.663 830.178,625.33 831.5,625.5 Z"/></g>
<g><path style="opacity:1" fill="#b4b4b4" d="M 843.5,620.5 C 829.715,634.943 816.381,649.609 803.5,664.5C 802.761,664.631 802.094,664.464 801.5,664C 803.147,662.267 804.647,660.434 806,658.5C 814.667,649.167 823.333,639.833 832,630.5C 835.429,626.561 839.263,623.228 843.5,620.5 Z"/></g>
<g><path style="opacity:1" fill="#6af54f" d="M 641.5,641.5 C 637.882,648.118 632.882,653.452 626.5,657.5C 630.795,651.537 635.795,646.204 641.5,641.5 Z"/></g>
<g><path style="opacity:1" fill="#64f748" d="M 611.5,673.5 C 608.854,679.673 604.52,684.34 598.5,687.5C 602.378,682.411 606.711,677.745 611.5,673.5 Z"/></g>
<g><path style="opacity:1" fill="#808080" d="M 787.5,685.5 C 841.501,685.333 895.501,685.5 949.5,686C 964.877,693.597 968.71,705.097 961,720.5C 957.35,724.739 952.85,727.572 947.5,729C 880.167,729.5 812.834,729.667 745.5,729.5C 744.448,729.649 743.448,729.483 742.5,729C 753.953,717.209 765.12,705.042 776,692.5C 778.167,690.333 780.333,688.167 782.5,686C 784.134,685.506 785.801,685.34 787.5,685.5 Z"/></g>
<g><path style="opacity:1" fill="#dbddda" d="M 385.5,667.5 C 405.864,695.451 426.364,723.784 447,752.5C 449.903,754.947 452.57,757.614 455,760.5C 460.672,772.196 468.005,782.862 477,792.5C 478.581,796.082 480.915,799.082 484,801.5C 487.058,797.939 490.558,794.939 494.5,792.5C 495.5,793.167 496.5,793.833 497.5,794.5C 493.855,800.145 489.188,804.812 483.5,808.5C 449.104,763.376 415.437,717.709 382.5,671.5C 383.978,670.552 384.978,669.219 385.5,667.5 Z"/></g>
<g><path style="opacity:1" fill="#60f943" d="M 271.5,717.5 C 271.334,722.511 271.501,727.511 272,732.5C 274.064,736.961 276.398,741.294 279,745.5C 283.205,749.926 286.372,754.926 288.5,760.5C 281.439,752.729 275.606,744.062 271,734.5C 270.182,728.651 270.348,722.985 271.5,717.5 Z"/></g>
<g><path style="opacity:1" fill="#808080" d="M 722.5,750.5 C 723.833,750.5 725.167,750.5 726.5,750.5C 800.834,750.333 875.167,750.5 949.5,751C 965.382,759.152 968.882,770.985 960,786.5C 956.312,790.428 951.812,792.928 946.5,794C 858.834,794.5 771.167,794.667 683.5,794.5C 682.833,794.5 682.167,794.5 681.5,794.5C 695.195,779.807 708.861,765.141 722.5,750.5 Z"/></g>
<g><path style="opacity:1" fill="#bababa" d="M 722.5,750.5 C 708.861,765.141 695.195,779.807 681.5,794.5C 680.475,794.103 680.308,793.437 681,792.5C 693.017,779.984 704.85,767.317 716.5,754.5C 718.264,752.722 720.264,751.389 722.5,750.5 Z"/></g>
<g><path style="opacity:0.798" fill="#e9ebe8" d="M 890.5,490.5 C 893.167,490.5 895.833,490.5 898.5,490.5C 906.191,498.282 912.357,507.282 917,517.5C 918.029,523.123 918.529,528.79 918.5,534.5C 918.276,538.179 917.942,541.846 917.5,545.5C 916.448,545.351 915.448,545.517 914.5,546C 915.517,547.049 915.684,548.216 915,549.5C 913.559,550.87 911.892,551.87 910,552.5C 909.517,553.448 909.351,554.448 909.5,555.5C 907.473,555.338 905.473,555.505 903.5,556C 890.471,571.361 876.471,585.694 861.5,599C 863.134,599.494 864.801,599.66 866.5,599.5C 866.5,600.5 866.5,601.5 866.5,602.5C 864.833,602.5 863.167,602.5 861.5,602.5C 861.167,604.5 860.833,606.5 860.5,608.5C 859.5,608.5 858.5,608.5 857.5,608.5C 858.169,612.676 856.669,614.009 853,612.5C 852.667,613.5 852.333,614.5 852,615.5C 849.672,616.664 847.838,618.33 846.5,620.5C 845.5,620.5 844.5,620.5 843.5,620.5C 839.263,623.228 835.429,626.561 832,630.5C 823.333,639.833 814.667,649.167 806,658.5C 804.647,660.434 803.147,662.267 801.5,664C 802.094,664.464 802.761,664.631 803.5,664.5C 803.657,665.873 803.49,667.207 803,668.5C 799.805,669.851 797.972,672.185 797.5,675.5C 796.5,675.5 795.5,675.5 794.5,675.5C 794.594,678.541 793.094,680.207 790,680.5C 789.153,682.193 788.32,683.86 787.5,685.5C 785.801,685.34 784.134,685.506 782.5,686C 780.333,688.167 778.167,690.333 776,692.5C 765.12,705.042 753.953,717.209 742.5,729C 743.448,729.483 744.448,729.649 745.5,729.5C 744.739,730.391 743.739,731.058 742.5,731.5C 741.571,732.689 741.238,734.022 741.5,735.5C 738.482,735.8 736.482,737.467 735.5,740.5C 732.658,741.004 731.325,742.671 731.5,745.5C 728.298,745.537 726.632,747.203 726.5,750.5C 725.167,750.5 723.833,750.5 722.5,750.5C 720.264,751.389 718.264,752.722 716.5,754.5C 704.85,767.317 693.017,779.984 681,792.5C 680.308,793.437 680.475,794.103 681.5,794.5C 682.167,794.5 682.833,794.5 683.5,794.5C 683.5,795.833 683.5,797.167 683.5,798.5C 682.127,798.343 680.793,798.51 679.5,799C 675.512,804.489 671.179,809.656 666.5,814.5C 665.448,814.351 664.448,814.517 663.5,815C 652.3,827.868 640.133,839.701 627,850.5C 624.651,853.016 622.484,855.683 620.5,858.5C 619.778,858.082 619.278,857.416 619,856.5C 617.223,858.79 615.056,860.457 612.5,861.5C 675.833,793.167 739.167,724.833 802.5,656.5C 812.533,646.468 822.2,636.135 831.5,625.5C 839.507,617.493 847.173,609.159 854.5,600.5C 859.873,596.129 864.539,591.129 868.5,585.5C 880.439,573.392 892.272,561.059 904,548.5C 912.891,537.414 914.891,525.08 910,511.5C 904.284,503.623 897.784,496.623 890.5,490.5 Z"/></g>
<g><path style="opacity:1" fill="#808080" d="M 666.5,814.5 C 759.501,814.333 852.501,814.5 945.5,815C 960.621,819.053 966.787,828.886 964,844.5C 961.5,851 957,855.5 950.5,858C 842.167,858.5 733.834,858.667 625.5,858.5C 623.833,858.5 622.167,858.5 620.5,858.5C 622.484,855.683 624.651,853.016 627,850.5C 640.133,839.701 652.3,827.868 663.5,815C 664.448,814.517 665.448,814.351 666.5,814.5 Z"/></g>
<g><path style="opacity:0.745" fill="#f1f3f1" d="M 386.5,663.5 C 385.766,664.708 385.433,666.041 385.5,667.5C 384.978,669.219 383.978,670.552 382.5,671.5C 380.167,667.167 376.833,663.833 372.5,661.5C 364.44,655.908 355.44,654.075 345.5,656C 343.283,657.275 340.949,658.275 338.5,659C 337.619,659.708 336.953,660.542 336.5,661.5C 318.541,673.489 300.874,685.989 283.5,699C 276.815,703.501 272.815,709.668 271.5,717.5C 270.348,722.985 270.182,728.651 271,734.5C 275.606,744.062 281.439,752.729 288.5,760.5C 336.115,826.622 383.948,892.622 432,958.5C 439.779,969.458 449.945,977.125 462.5,981.5C 466.192,983.933 470.359,984.933 475,984.5C 490.115,984.441 502.615,978.774 512.5,967.5C 546.171,932.495 579.505,897.162 612.5,861.5C 615.056,860.457 617.223,858.79 619,856.5C 619.278,857.416 619.778,858.082 620.5,858.5C 622.167,858.5 623.833,858.5 625.5,858.5C 625.5,859.5 625.5,860.5 625.5,861.5C 622.618,861.608 620.285,862.774 618.5,865C 617.363,867.457 615.863,869.624 614,871.5C 613.333,870.167 612.667,870.167 612,871.5C 611.693,874.876 609.86,876.21 606.5,875.5C 606.849,878.99 605.349,881.323 602,882.5C 601.51,883.793 601.343,885.127 601.5,886.5C 597.735,886.676 595.735,888.676 595.5,892.5C 594.5,892.5 593.5,892.5 592.5,892.5C 593.041,896.295 591.375,898.295 587.5,898.5C 586.96,899.748 586.293,900.915 585.5,902C 579.742,905.648 575.075,910.481 571.5,916.5C 570.675,917.386 569.675,917.719 568.5,917.5C 568.1,921.347 566.1,923.68 562.5,924.5C 562.5,925.5 562.5,926.5 562.5,927.5C 561.448,927.351 560.448,927.517 559.5,928C 558.257,930.116 557.091,932.282 556,934.5C 550.81,936.516 547.643,940.183 546.5,945.5C 543.99,946.783 541.323,947.783 538.5,948.5C 538.762,949.978 538.429,951.311 537.5,952.5C 534.453,953.875 533.12,956.208 533.5,959.5C 532.167,959.5 530.833,959.5 529.5,959.5C 529.649,960.552 529.483,961.552 529,962.5C 525.763,964.231 523.93,966.898 523.5,970.5C 522.178,970.67 521.011,970.337 520,969.5C 519.51,970.793 519.343,972.127 519.5,973.5C 514.328,975.241 510.661,978.574 508.5,983.5C 506.473,983.338 504.473,983.505 502.5,984C 501.167,984.667 501.167,985.333 502.5,986C 500.059,986.036 498.059,986.869 496.5,988.5C 493.914,989.48 491.247,989.813 488.5,989.5C 488.5,990.833 488.5,992.167 488.5,993.5C 478.506,993.787 468.506,992.621 458.5,990C 457.953,989.075 457.287,988.242 456.5,987.5C 452.341,989.08 450.008,987.58 449.5,983C 447.527,982.505 445.527,982.338 443.5,982.5C 443.714,980.856 443.38,979.356 442.5,978C 438.886,978.034 436.553,976.367 435.5,973C 434.552,972.517 433.552,972.351 432.5,972.5C 433.244,969.05 431.91,967.384 428.5,967.5C 428.55,965.41 427.55,964.077 425.5,963.5C 424.548,961.955 424.215,960.288 424.5,958.5C 423.5,958.5 422.5,958.5 421.5,958.5C 418.203,953.008 415.203,947.341 412.5,941.5C 411.178,941.67 410.011,941.337 409,940.5C 407.839,937.733 406.673,935.067 405.5,932.5C 404.5,932.5 403.5,932.5 402.5,932.5C 402.5,930.833 402.5,929.167 402.5,927.5C 401.178,927.67 400.011,927.337 399,926.5C 397.038,923.205 394.705,920.205 392,917.5C 390.839,914.733 389.673,912.067 388.5,909.5C 387.5,909.5 386.5,909.5 385.5,909.5C 384.828,906.356 383.828,903.356 382.5,900.5C 378.657,900.809 377.324,899.309 378.5,896C 377.552,895.517 376.552,895.351 375.5,895.5C 374.828,892.356 373.828,889.356 372.5,886.5C 371.5,886.5 370.5,886.5 369.5,886.5C 369.762,885.022 369.429,883.689 368.5,882.5C 364.477,877.312 360.31,872.312 356,867.5C 353.36,863.738 351.193,859.738 349.5,855.5C 346.234,855.567 344.734,853.901 345,850.5C 343.333,848.833 341.667,847.167 340,845.5C 339.51,844.207 339.343,842.873 339.5,841.5C 338.5,841.5 337.5,841.5 336.5,841.5C 335.882,838.602 334.715,835.935 333,833.5C 331.989,832.663 330.822,832.33 329.5,832.5C 329.5,830.833 329.5,829.167 329.5,827.5C 328.178,827.67 327.011,827.337 326,826.5C 325.585,824.709 324.585,823.376 323,822.5C 322.51,821.207 322.343,819.873 322.5,818.5C 321.5,818.5 320.5,818.5 319.5,818.5C 319.5,817.167 319.5,815.833 319.5,814.5C 318.325,814.719 317.325,814.386 316.5,813.5C 313.59,809.399 311.256,805.066 309.5,800.5C 308.5,800.5 307.5,800.5 306.5,800.5C 306.762,799.022 306.429,797.689 305.5,796.5C 304.05,795.345 303.05,793.845 302.5,792C 299.354,791.89 298.354,790.557 299.5,788C 297.607,785.697 295.607,783.53 293.5,781.5C 292.571,780.311 292.238,778.978 292.5,777.5C 291.5,777.5 290.5,777.5 289.5,777.5C 289.762,776.022 289.429,774.689 288.5,773.5C 282.464,766.033 276.63,758.366 271,750.5C 270.51,749.207 270.343,747.873 270.5,746.5C 269.5,746.5 268.5,746.5 267.5,746.5C 267.5,744.833 267.5,743.167 267.5,741.5C 266.167,741.5 264.833,741.5 263.5,741.5C 263.421,740.07 263.754,738.736 264.5,737.5C 263.415,736.216 262.748,734.716 262.5,733C 263.838,723.475 265.338,713.975 267,704.5C 268.943,702.849 270.443,700.849 271.5,698.5C 273.883,699.462 274.883,698.462 274.5,695.5C 277.323,694.783 279.99,693.783 282.5,692.5C 282.5,691.5 282.5,690.5 282.5,689.5C 285.95,690.244 287.616,688.91 287.5,685.5C 290.644,684.828 293.644,683.828 296.5,682.5C 296.5,681.167 296.5,679.833 296.5,678.5C 299.394,678.444 302.061,677.61 304.5,676C 305.337,674.989 305.67,673.822 305.5,672.5C 307.167,672.5 308.833,672.5 310.5,672.5C 310.5,671.167 310.5,669.833 310.5,668.5C 313.318,667.03 316.318,666.03 319.5,665.5C 319.5,664.5 319.5,663.5 319.5,662.5C 322.067,661.327 324.733,660.161 327.5,659C 328.337,657.989 328.67,656.822 328.5,655.5C 331.231,654.973 333.898,654.14 336.5,653C 337.337,651.989 337.67,650.822 337.5,649.5C 340.167,649.5 342.833,649.5 345.5,649.5C 345.147,647.365 345.98,646.032 348,645.5C 356.275,648.112 364.775,649.612 373.5,650C 374.833,651.333 374.833,652.667 373.5,654C 375.813,654.662 378.146,655.162 380.5,655.5C 381.328,659.001 383.328,661.668 386.5,663.5 Z"/></g>
<g><path style="opacity:1" fill="#63f647" d="M 372.5,661.5 C 366.207,659.303 359.707,657.97 353,657.5C 347.282,658.12 341.782,659.453 336.5,661.5C 336.953,660.542 337.619,659.708 338.5,659C 340.949,658.275 343.283,657.275 345.5,656C 355.44,654.075 364.44,655.908 372.5,661.5 Z"/></g>
<g><path style="opacity:1" fill="#61f744" d="M 512.5,967.5 C 502.615,978.774 490.115,984.441 475,984.5C 470.359,984.933 466.192,983.933 462.5,981.5C 477.71,984.698 491.71,981.865 504.5,973C 506.546,970.097 509.213,968.264 512.5,967.5 Z"/></g>
</svg>
