<?xml version="1.0" encoding="UTF-8"?>
<!DOCTYPE svg PUBLIC "-//W3C//DTD SVG 1.1//EN" "http://www.w3.org/Graphics/SVG/1.1/DTD/svg11.dtd">
<svg xmlns="http://www.w3.org/2000/svg" version="1.1" width="1000px" height="1000px" style="shape-rendering:geometricPrecision; text-rendering:geometricPrecision; image-rendering:optimizeQuality; fill-rule:evenodd; clip-rule:evenodd" xmlns:xlink="http://www.w3.org/1999/xlink">
<g><path style="opacity:0.999" fill="#183d8a" d="M 620.5,149.5 C 453.167,149.5 285.833,149.5 118.5,149.5C 118.5,146.5 118.5,143.5 118.5,140.5C 285.833,140.5 453.167,140.5 620.5,140.5C 620.5,143.5 620.5,146.5 620.5,149.5 Z"/></g>
<g><path style="opacity:0.935" fill="#1b408c" d="M 118.5,149.5 C 285.833,149.5 453.167,149.5 620.5,149.5C 620.5,156.833 620.5,164.167 620.5,171.5C 613.167,171.5 605.833,171.5 598.5,171.5C 598.5,168.5 598.5,165.5 598.5,162.5C 445.833,162.5 293.167,162.5 140.5,162.5C 140.5,165.5 140.5,168.5 140.5,171.5C 133.167,171.5 125.833,171.5 118.5,171.5C 118.5,164.167 118.5,156.833 118.5,149.5 Z"/></g>
<g><path style="opacity:0.909" fill="#264992" d="M 170.5,182.5 C 191.833,182.5 213.167,182.5 234.5,182.5C 234.5,189.833 234.5,197.167 234.5,204.5C 213.167,204.5 191.833,204.5 170.5,204.5C 170.5,197.167 170.5,189.833 170.5,182.5 Z"/></g>
<g><path style="opacity:0.908" fill="#264992" d="M 504.5,182.5 C 525.833,182.5 547.167,182.5 568.5,182.5C 568.5,189.833 568.5,197.167 568.5,204.5C 547.167,204.5 525.833,204.5 504.5,204.5C 504.5,197.167 504.5,189.833 504.5,182.5 Z"/></g>
<g><path style="opacity:0.951" fill="#274b93" d="M 98.5,206.5 C 91.1667,206.5 83.8333,206.5 76.5,206.5C 76.5,198.167 76.5,189.833 76.5,181.5C 83.8333,181.5 91.1667,181.5 98.5,181.5C 98.5,189.833 98.5,198.167 98.5,206.5 Z"/></g>
<g><path style="opacity:0.951" fill="#264992" d="M 118.5,171.5 C 125.833,171.5 133.167,171.5 140.5,171.5C 140.5,183.167 140.5,194.833 140.5,206.5C 133.167,206.5 125.833,206.5 118.5,206.5C 118.5,194.833 118.5,183.167 118.5,171.5 Z"/></g>
<g><path style="opacity:0.959" fill="#264992" d="M 598.5,171.5 C 605.833,171.5 613.167,171.5 620.5,171.5C 620.5,183.167 620.5,194.833 620.5,206.5C 613.167,206.5 605.833,206.5 598.5,206.5C 598.5,194.833 598.5,183.167 598.5,171.5 Z"/></g>
<g><path style="opacity:0.951" fill="#315399" d="M 76.5,206.5 C 83.8333,206.5 91.1667,206.5 98.5,206.5C 98.5,215.5 98.5,224.5 98.5,233.5C 91.1667,233.5 83.8333,233.5 76.5,233.5C 76.5,224.5 76.5,215.5 76.5,206.5 Z"/></g>
<g><path style="opacity:0.951" fill="#315399" d="M 118.5,206.5 C 125.833,206.5 133.167,206.5 140.5,206.5C 140.5,215.5 140.5,224.5 140.5,233.5C 133.167,233.5 125.833,233.5 118.5,233.5C 118.5,224.5 118.5,215.5 118.5,206.5 Z"/></g>
<g><path style="opacity:0.959" fill="#315399" d="M 598.5,206.5 C 605.833,206.5 613.167,206.5 620.5,206.5C 620.5,215.5 620.5,224.5 620.5,233.5C 613.167,233.5 605.833,233.5 598.5,233.5C 598.5,224.5 598.5,215.5 598.5,206.5 Z"/></g>
<g><path style="opacity:0.95" fill="#38599d" d="M 56.5,249.5 C 49.1667,249.5 41.8333,249.5 34.5,249.5C 34.5,240.833 34.5,232.167 34.5,223.5C 41.8333,223.5 49.1667,223.5 56.5,223.5C 56.5,232.167 56.5,240.833 56.5,249.5 Z"/></g>
<g><path style="opacity:0.967" fill="#3a5b9e" d="M 410.5,249.5 C 383.167,249.5 355.833,249.5 328.5,249.5C 348.373,233.453 370.373,229.953 394.5,239C 400.412,241.778 405.745,245.278 410.5,249.5 Z"/></g>
<g><path style="opacity:0.935" fill="#4060a2" d="M 328.5,249.5 C 355.833,249.5 383.167,249.5 410.5,249.5C 416.614,254.406 421.281,260.406 424.5,267.5C 415.833,267.5 407.167,267.5 398.5,267.5C 384.427,255.818 368.761,253.318 351.5,260C 347.678,262.33 344.012,264.83 340.5,267.5C 331.5,267.5 322.5,267.5 313.5,267.5C 317.557,260.721 322.557,254.721 328.5,249.5 Z"/></g>
<g><path style="opacity:0.951" fill="#3e5fa1" d="M 76.5,233.5 C 83.8333,233.5 91.1667,233.5 98.5,233.5C 98.5,244.833 98.5,256.167 98.5,267.5C 91.1667,267.5 83.8333,267.5 76.5,267.5C 76.5,256.167 76.5,244.833 76.5,233.5 Z"/></g>
<g><path style="opacity:0.951" fill="#3e5fa1" d="M 118.5,233.5 C 125.833,233.5 133.167,233.5 140.5,233.5C 140.5,244.833 140.5,256.167 140.5,267.5C 133.167,267.5 125.833,267.5 118.5,267.5C 118.5,256.167 118.5,244.833 118.5,233.5 Z"/></g>
<g><path style="opacity:0.959" fill="#3e5fa1" d="M 598.5,233.5 C 605.833,233.5 613.167,233.5 620.5,233.5C 620.5,244.833 620.5,256.167 620.5,267.5C 613.167,267.5 605.833,267.5 598.5,267.5C 598.5,256.167 598.5,244.833 598.5,233.5 Z"/></g>
<g><path style="opacity:0.95" fill="#4565a5" d="M 34.5,249.5 C 41.8333,249.5 49.1667,249.5 56.5,249.5C 56.5,261.167 56.5,272.833 56.5,284.5C 49.1667,284.5 41.8333,284.5 34.5,284.5C 34.5,272.833 34.5,261.167 34.5,249.5 Z"/></g>
<g><path style="opacity:0.946" fill="#4767a7" d="M 313.5,267.5 C 322.5,267.5 331.5,267.5 340.5,267.5C 335.895,272.371 332.561,278.038 330.5,284.5C 322.833,284.5 315.167,284.5 307.5,284.5C 308.709,278.538 310.709,272.871 313.5,267.5 Z"/></g>
<g><path style="opacity:0.952" fill="#4767a7" d="M 398.5,267.5 C 407.167,267.5 415.833,267.5 424.5,267.5C 427.793,272.698 430.126,278.365 431.5,284.5C 423.833,284.5 416.167,284.5 408.5,284.5C 406.441,278.043 403.107,272.376 398.5,267.5 Z"/></g>
<g><path style="opacity:0.872" fill="#224690" d="M 360.5,280.5 C 357.167,280.5 353.833,280.5 350.5,280.5C 348.35,278.177 346.35,275.677 344.5,273C 345.997,271.338 347.663,269.838 349.5,268.5C 353.898,271.895 357.564,275.895 360.5,280.5 Z"/></g>
<g><path style="opacity:0.859" fill="#254892" d="M 385.5,280.5 C 382.833,280.5 380.167,280.5 377.5,280.5C 380.44,276.222 383.773,272.222 387.5,268.5C 389.375,269.54 390.708,271.04 391.5,273C 389.68,275.652 387.68,278.152 385.5,280.5 Z"/></g>
<g><path style="opacity:0.951" fill="#4c6ba9" d="M 76.5,267.5 C 83.8333,267.5 91.1667,267.5 98.5,267.5C 98.5,277.833 98.5,288.167 98.5,298.5C 91.1667,298.5 83.8333,298.5 76.5,298.5C 76.5,288.167 76.5,277.833 76.5,267.5 Z"/></g>
<g><path style="opacity:0.951" fill="#4c6ba9" d="M 118.5,267.5 C 125.833,267.5 133.167,267.5 140.5,267.5C 140.5,277.833 140.5,288.167 140.5,298.5C 133.167,298.5 125.833,298.5 118.5,298.5C 118.5,288.167 118.5,277.833 118.5,267.5 Z"/></g>
<g><path style="opacity:0.959" fill="#4c6ba9" d="M 598.5,267.5 C 605.833,267.5 613.167,267.5 620.5,267.5C 620.5,277.833 620.5,288.167 620.5,298.5C 613.167,298.5 605.833,298.5 598.5,298.5C 598.5,288.167 598.5,277.833 598.5,267.5 Z"/></g>
<g><path style="opacity:0.939" fill="#4161a3" d="M 350.5,280.5 C 353.833,280.5 357.167,280.5 360.5,280.5C 363.101,283.604 365.934,286.604 369,289.5C 371.334,286 374.168,283 377.5,280.5C 380.167,280.5 382.833,280.5 385.5,280.5C 381.472,284.859 377.472,289.193 373.5,293.5C 369.5,293.5 365.5,293.5 361.5,293.5C 357.596,289.352 353.929,285.019 350.5,280.5 Z"/></g>
<g><path style="opacity:0.699" fill="#6581b9" d="M 361.5,293.5 C 365.5,293.5 369.5,293.5 373.5,293.5C 373.047,294.458 372.381,295.292 371.5,296C 374.482,296.498 377.482,296.665 380.5,296.5C 380.5,298.833 380.5,301.167 380.5,303.5C 376.952,303.095 373.619,303.595 370.5,305C 374.311,304.917 377.645,305.75 380.5,307.5C 371.833,307.5 363.167,307.5 354.5,307.5C 357.061,305.906 360.061,304.906 363.5,304.5C 360.572,303.516 357.572,303.183 354.5,303.5C 354.5,301.167 354.5,298.833 354.5,296.5C 357.518,296.665 360.518,296.498 363.5,296C 362.619,295.292 361.953,294.458 361.5,293.5 Z"/></g>
<g><path style="opacity:0.95" fill="#5370ad" d="M 34.5,284.5 C 41.8333,284.5 49.1667,284.5 56.5,284.5C 56.5,294.167 56.5,303.833 56.5,313.5C 49.1667,313.5 41.8333,313.5 34.5,313.5C 34.5,303.833 34.5,294.167 34.5,284.5 Z"/></g>
<g><path style="opacity:0.764" fill="#7790c3" d="M 354.5,307.5 C 363.167,307.5 371.833,307.5 380.5,307.5C 380.5,309.5 380.5,311.5 380.5,313.5C 377.5,313.5 374.5,313.5 371.5,313.5C 368.833,313.5 366.167,313.5 363.5,313.5C 360.5,313.5 357.5,313.5 354.5,313.5C 354.5,311.5 354.5,309.5 354.5,307.5 Z"/></g>
<g><path style="opacity:0.951" fill="#5876b1" d="M 76.5,298.5 C 83.8333,298.5 91.1667,298.5 98.5,298.5C 98.5,308.833 98.5,319.167 98.5,329.5C 91.1667,329.5 83.8333,329.5 76.5,329.5C 76.5,319.167 76.5,308.833 76.5,298.5 Z"/></g>
<g><path style="opacity:0.951" fill="#5876b1" d="M 118.5,298.5 C 125.833,298.5 133.167,298.5 140.5,298.5C 140.5,308.833 140.5,319.167 140.5,329.5C 133.167,329.5 125.833,329.5 118.5,329.5C 118.5,319.167 118.5,308.833 118.5,298.5 Z"/></g>
<g><path style="opacity:0.94" fill="#5775b0" d="M 307.5,284.5 C 315.167,284.5 322.833,284.5 330.5,284.5C 325.72,302.156 330.053,317.156 343.5,329.5C 334.167,329.5 324.833,329.5 315.5,329.5C 306.935,315.666 304.269,300.666 307.5,284.5 Z"/></g>
<g><path style="opacity:0.939" fill="#5775b0" d="M 408.5,284.5 C 416.167,284.5 423.833,284.5 431.5,284.5C 434.475,300.616 431.808,315.616 423.5,329.5C 414.167,329.5 404.833,329.5 395.5,329.5C 408.94,317.175 413.273,302.175 408.5,284.5 Z"/></g>
<g><path style="opacity:0.959" fill="#5876b1" d="M 598.5,298.5 C 605.833,298.5 613.167,298.5 620.5,298.5C 620.5,308.833 620.5,319.167 620.5,329.5C 613.167,329.5 605.833,329.5 598.5,329.5C 598.5,319.167 598.5,308.833 598.5,298.5 Z"/></g>
<g><path style="opacity:0.8" fill="#91a7d4" d="M 363.5,313.5 C 366.167,313.5 368.833,313.5 371.5,313.5C 371.5,319.5 371.5,325.5 371.5,331.5C 368.833,331.5 366.167,331.5 363.5,331.5C 363.5,325.5 363.5,319.5 363.5,313.5 Z"/></g>
<g><path style="opacity:0.972" fill="#627db6" d="M 315.5,329.5 C 324.833,329.5 334.167,329.5 343.5,329.5C 360.787,341.492 378.12,341.492 395.5,329.5C 404.833,329.5 414.167,329.5 423.5,329.5C 406.13,355.352 382.13,364.852 351.5,358C 335.808,353.008 323.808,343.508 315.5,329.5 Z"/></g>
<g><path style="opacity:0.95" fill="#637fb7" d="M 34.5,313.5 C 41.8333,313.5 49.1667,313.5 56.5,313.5C 56.5,331.5 56.5,349.5 56.5,367.5C 49.1667,367.5 41.8333,367.5 34.5,367.5C 34.5,349.5 34.5,331.5 34.5,313.5 Z"/></g>
<g><path style="opacity:0.951" fill="#6480b8" d="M 76.5,329.5 C 83.8333,329.5 91.1667,329.5 98.5,329.5C 98.5,342.167 98.5,354.833 98.5,367.5C 91.1667,367.5 83.8333,367.5 76.5,367.5C 76.5,354.833 76.5,342.167 76.5,329.5 Z"/></g>
<g><path style="opacity:0.951" fill="#6480b8" d="M 118.5,329.5 C 125.833,329.5 133.167,329.5 140.5,329.5C 140.5,342.167 140.5,354.833 140.5,367.5C 133.167,367.5 125.833,367.5 118.5,367.5C 118.5,354.833 118.5,342.167 118.5,329.5 Z"/></g>
<g><path style="opacity:0.959" fill="#6480b8" d="M 598.5,329.5 C 605.833,329.5 613.167,329.5 620.5,329.5C 620.5,342.167 620.5,354.833 620.5,367.5C 613.167,367.5 605.833,367.5 598.5,367.5C 598.5,354.833 598.5,342.167 598.5,329.5 Z"/></g>
<g><path style="opacity:0.95" fill="#708abf" d="M 34.5,367.5 C 41.8333,367.5 49.1667,367.5 56.5,367.5C 56.5,379.167 56.5,390.833 56.5,402.5C 49.1667,402.5 41.8333,402.5 34.5,402.5C 34.5,390.833 34.5,379.167 34.5,367.5 Z"/></g>
<g><path style="opacity:0.951" fill="#708abf" d="M 76.5,367.5 C 83.8333,367.5 91.1667,367.5 98.5,367.5C 98.5,379.167 98.5,390.833 98.5,402.5C 91.1667,402.5 83.8333,402.5 76.5,402.5C 76.5,390.833 76.5,379.167 76.5,367.5 Z"/></g>
<g><path style="opacity:0.951" fill="#708abf" d="M 118.5,367.5 C 125.833,367.5 133.167,367.5 140.5,367.5C 140.5,379.167 140.5,390.833 140.5,402.5C 133.167,402.5 125.833,402.5 118.5,402.5C 118.5,390.833 118.5,379.167 118.5,367.5 Z"/></g>
<g><path style="opacity:0.959" fill="#708abf" d="M 598.5,367.5 C 605.833,367.5 613.167,367.5 620.5,367.5C 620.5,379.167 620.5,390.833 620.5,402.5C 613.167,402.5 605.833,402.5 598.5,402.5C 598.5,390.833 598.5,379.167 598.5,367.5 Z"/></g>
<g><path style="opacity:0.938" fill="#7690c3" d="M 170.5,390.5 C 191.833,390.5 213.167,390.5 234.5,390.5C 234.5,397.833 234.5,405.167 234.5,412.5C 213.167,412.5 191.833,412.5 170.5,412.5C 170.5,405.167 170.5,397.833 170.5,390.5 Z"/></g>
<g><path style="opacity:0.938" fill="#7690c3" d="M 504.5,390.5 C 525.833,390.5 547.167,390.5 568.5,390.5C 568.5,397.833 568.5,405.167 568.5,412.5C 547.167,412.5 525.833,412.5 504.5,412.5C 504.5,405.167 504.5,397.833 504.5,390.5 Z"/></g>
<g><path style="opacity:0.959" fill="#7a93c5" d="M 598.5,402.5 C 605.833,402.5 613.167,402.5 620.5,402.5C 620.5,410.5 620.5,418.5 620.5,426.5C 613.167,426.5 605.833,426.5 598.5,426.5C 598.5,418.5 598.5,410.5 598.5,402.5 Z"/></g>
<g><path style="opacity:0.95" fill="#7e96c7" d="M 34.5,402.5 C 41.8333,402.5 49.1667,402.5 56.5,402.5C 56.5,415.833 56.5,429.167 56.5,442.5C 49.1667,442.5 41.8333,442.5 34.5,442.5C 34.5,429.167 34.5,415.833 34.5,402.5 Z"/></g>
<g><path style="opacity:0.951" fill="#7e96c7" d="M 76.5,402.5 C 83.8333,402.5 91.1667,402.5 98.5,402.5C 98.5,415.833 98.5,429.167 98.5,442.5C 91.1667,442.5 83.8333,442.5 76.5,442.5C 76.5,429.167 76.5,415.833 76.5,402.5 Z"/></g>
<g><path style="opacity:0.958" fill="#8199c9" d="M 118.5,402.5 C 125.833,402.5 133.167,402.5 140.5,402.5C 140.5,412.5 140.5,422.5 140.5,432.5C 287.167,432.5 433.833,432.5 580.5,432.5C 578.828,435.836 577.162,439.17 575.5,442.5C 423.167,442.5 270.833,442.5 118.5,442.5C 118.5,429.167 118.5,415.833 118.5,402.5 Z"/></g>
<g><path style="opacity:0.976" fill="#b3903a" d="M 598.5,426.5 C 605.833,426.5 613.167,426.5 620.5,426.5C 730.501,426.333 840.501,426.5 950.5,427C 963.425,433.417 967.591,443.583 963,457.5C 959.09,464.417 953.257,468.584 945.5,470C 828.5,470.667 711.5,470.667 594.5,470C 584.987,468.647 578.654,463.481 575.5,454.5C 575.5,450.5 575.5,446.5 575.5,442.5C 577.162,439.17 578.828,435.836 580.5,432.5C 585.42,427.527 591.42,425.527 598.5,426.5 Z"/></g>
<g><path style="opacity:0.913" fill="#859dcc" d="M 118.5,442.5 C 270.833,442.5 423.167,442.5 575.5,442.5C 575.5,446.5 575.5,450.5 575.5,454.5C 423.167,454.5 270.833,454.5 118.5,454.5C 118.5,450.5 118.5,446.5 118.5,442.5 Z"/></g>
<g><path style="opacity:0.967" fill="#8da4d1" d="M 76.5,442.5 C 83.8333,442.5 91.1667,442.5 98.5,442.5C 98.5,453.167 98.5,463.833 98.5,474.5C 258.5,474.5 418.5,474.5 578.5,474.5C 578.5,477.5 578.5,480.5 578.5,483.5C 411.167,483.5 243.833,483.5 76.5,483.5C 76.5,469.833 76.5,456.167 76.5,442.5 Z"/></g>
<g><path style="opacity:0.95" fill="#8da4d1" d="M 34.5,442.5 C 41.8333,442.5 49.1667,442.5 56.5,442.5C 56.5,460.167 56.5,477.833 56.5,495.5C 49.1667,495.5 41.8333,495.5 34.5,495.5C 34.5,477.833 34.5,460.167 34.5,442.5 Z"/></g>
<g><path style="opacity:0.998" fill="#91a7d3" d="M 76.5,483.5 C 243.833,483.5 411.167,483.5 578.5,483.5C 578.5,487.833 578.5,492.167 578.5,496.5C 411.167,496.5 243.833,496.5 76.5,496.5C 76.5,492.167 76.5,487.833 76.5,483.5 Z"/></g>
<g><path style="opacity:0.972" fill="#b4903a" d="M 964.5,517.5 C 834.833,517.5 705.167,517.5 575.5,517.5C 573.132,503.772 578.799,494.938 592.5,491C 710.833,490.333 829.167,490.333 947.5,491C 960.214,495.23 965.88,504.063 964.5,517.5 Z"/></g>
<g><path style="opacity:0.924" fill="#98add8" d="M 34.5,495.5 C 41.8333,495.5 49.1667,495.5 56.5,495.5C 56.5,502.167 56.5,508.833 56.5,515.5C 216.833,515.5 377.167,515.5 537.5,515.5C 537.5,522.833 537.5,530.167 537.5,537.5C 369.833,537.5 202.167,537.5 34.5,537.5C 34.5,523.5 34.5,509.5 34.5,495.5 Z"/></g>
<g><path style="opacity:0.997" fill="#bc9b46" d="M 575.5,517.5 C 705.167,517.5 834.833,517.5 964.5,517.5C 964.34,519.153 963.674,520.486 962.5,521.5C 833.833,521.5 705.167,521.5 576.5,521.5C 575.766,520.292 575.433,518.959 575.5,517.5 Z"/></g>
<g><path style="opacity:0.997" fill="#c4a752" d="M 576.5,521.5 C 705.167,521.5 833.833,521.5 962.5,521.5C 962.34,523.153 961.674,524.486 960.5,525.5C 833.5,525.5 706.5,525.5 579.5,525.5C 578.026,524.564 577.026,523.23 576.5,521.5 Z"/></g>
<g><path style="opacity:0.996" fill="#ceb560" d="M 579.5,525.5 C 706.5,525.5 833.5,525.5 960.5,525.5C 959.5,527.167 958.167,528.5 956.5,529.5C 831.833,529.5 707.167,529.5 582.5,529.5C 580.738,528.738 579.738,527.404 579.5,525.5 Z"/></g>
<g><path style="opacity:0.995" fill="#d5c06a" d="M 582.5,529.5 C 707.167,529.5 831.833,529.5 956.5,529.5C 956.027,530.906 955.027,531.573 953.5,531.5C 830.833,531.5 708.167,531.5 585.5,531.5C 584.29,531.068 583.29,530.401 582.5,529.5 Z"/></g>
<g><path style="opacity:0.991" fill="#dcc974" d="M 585.5,531.5 C 708.167,531.5 830.833,531.5 953.5,531.5C 952.4,532.558 951.066,533.392 949.5,534C 829.833,534.667 710.167,534.667 590.5,534C 588.509,533.626 586.842,532.793 585.5,531.5 Z"/></g>
<g><path style="opacity:0.987" fill="#e8db85" d="M 951.5,557.5 C 839.167,557.5 726.833,557.5 614.5,557.5C 613.325,557.719 612.325,557.386 611.5,556.5C 723.499,555.333 835.499,555.167 947.5,556C 949.058,556.21 950.391,556.71 951.5,557.5 Z"/></g>
<g><path style="opacity:0.993" fill="#e0cf79" d="M 614.5,557.5 C 726.833,557.5 839.167,557.5 951.5,557.5C 953.027,557.427 954.027,558.094 954.5,559.5C 842.167,559.5 729.833,559.5 617.5,559.5C 615.973,559.573 614.973,558.906 614.5,557.5 Z"/></g>
<g><path style="opacity:0.924" fill="#dfcd78" d="M 569.5,560.5 C 544.5,560.5 519.5,560.5 494.5,560.5C 506.605,556.954 519.105,555.287 532,555.5C 544.897,555.288 557.397,556.954 569.5,560.5 Z"/></g>
<g><path style="opacity:0.995" fill="#d7c26d" d="M 617.5,559.5 C 729.833,559.5 842.167,559.5 954.5,559.5C 956.027,559.427 957.027,560.094 957.5,561.5C 845.167,561.5 732.833,561.5 620.5,561.5C 619.29,561.068 618.29,560.401 617.5,559.5 Z"/></g>
<g><path style="opacity:0.995" fill="#cfb661" d="M 620.5,561.5 C 732.833,561.5 845.167,561.5 957.5,561.5C 958.5,561.833 959.167,562.5 959.5,563.5C 847.5,563.5 735.5,563.5 623.5,563.5C 622.29,563.068 621.29,562.401 620.5,561.5 Z"/></g>
<g><path style="opacity:0.964" fill="#cdb45f" d="M 494.5,560.5 C 519.5,560.5 544.5,560.5 569.5,560.5C 574.165,561.057 578.498,562.39 582.5,564.5C 548.833,564.5 515.167,564.5 481.5,564.5C 485.491,562.394 489.824,561.061 494.5,560.5 Z"/></g>
<g><path style="opacity:0.994" fill="#c7aa56" d="M 623.5,563.5 C 735.5,563.5 847.5,563.5 959.5,563.5C 960.5,563.833 961.167,564.5 961.5,565.5C 849.833,565.5 738.167,565.5 626.5,565.5C 625.29,565.068 624.29,564.401 623.5,563.5 Z"/></g>
<g><path style="opacity:0.995" fill="#bfa04b" d="M 626.5,565.5 C 738.167,565.5 849.833,565.5 961.5,565.5C 961.833,566.167 962.167,566.833 962.5,567.5C 851.5,567.5 740.5,567.5 629.5,567.5C 628.29,567.068 627.29,566.401 626.5,565.5 Z"/></g>
<g><path style="opacity:0.98" fill="#be9e49" d="M 481.5,564.5 C 515.167,564.5 548.833,564.5 582.5,564.5C 586.137,565.263 589.47,566.597 592.5,568.5C 552.167,568.5 511.833,568.5 471.5,568.5C 474.53,566.597 477.863,565.263 481.5,564.5 Z"/></g>
<g><path style="opacity:0.984" fill="#b4913b" d="M 471.5,568.5 C 511.833,568.5 552.167,568.5 592.5,568.5C 622.06,581.729 645.393,602.062 662.5,629.5C 633.833,629.5 605.167,629.5 576.5,629.5C 573.862,626.379 570.528,624.212 566.5,623C 559.722,620.388 552.722,618.888 545.5,618.5C 545.5,610.833 545.5,603.167 545.5,595.5C 538.833,595.5 532.167,595.5 525.5,595.5C 525.5,603.167 525.5,610.833 525.5,618.5C 514.207,619.597 503.873,623.264 494.5,629.5C 463.5,629.5 432.5,629.5 401.5,629.5C 418.048,601.279 441.381,580.946 471.5,568.5 Z"/></g>
<g><path style="opacity:0.987" fill="#b4903a" d="M 629.5,567.5 C 740.5,567.5 851.5,567.5 962.5,567.5C 967.785,582.43 963.118,592.93 948.5,599C 853.167,599.667 757.833,599.667 662.5,599C 652.566,587.229 641.566,576.729 629.5,567.5 Z"/></g>
<g><path style="opacity:0.942" fill="#b99644" d="M 960.5,629.5 C 867.833,629.5 775.167,629.5 682.5,629.5C 680.858,626.898 679.192,624.231 677.5,621.5C 767.831,620.333 858.165,620.167 948.5,621C 953.763,622.125 957.763,624.958 960.5,629.5 Z"/></g>
<g><path style="opacity:0.987" fill="#fefca4" d="M 401.5,629.5 C 432.5,629.5 463.5,629.5 494.5,629.5C 487.472,636.22 482.472,644.22 479.5,653.5C 449.5,653.5 419.5,653.5 389.5,653.5C 392.973,645.221 396.973,637.221 401.5,629.5 Z"/></g>
<g><path style="opacity:0.984" fill="#fefca4" d="M 576.5,629.5 C 605.167,629.5 633.833,629.5 662.5,629.5C 666.712,637.257 670.379,645.257 673.5,653.5C 641.5,653.5 609.5,653.5 577.5,653.5C 577.801,645.414 577.467,637.414 576.5,629.5 Z"/></g>
<g><path style="opacity:0.996" fill="#fefda5" d="M 682.5,629.5 C 775.167,629.5 867.833,629.5 960.5,629.5C 961.892,631.273 963.059,633.273 964,635.5C 964.499,639.821 964.666,644.154 964.5,648.5C 873.167,648.5 781.833,648.5 690.5,648.5C 687.597,642.35 684.93,636.016 682.5,629.5 Z"/></g>
<g><path style="opacity:0.994" fill="#faf59d" d="M 690.5,648.5 C 781.833,648.5 873.167,648.5 964.5,648.5C 963.737,650.368 962.737,652.035 961.5,653.5C 871.5,653.5 781.5,653.5 691.5,653.5C 690.962,651.883 690.629,650.216 690.5,648.5 Z"/></g>
<g><path style="opacity:0.959" fill="#faf69e" d="M 568.5,653.5 C 550.833,653.5 533.167,653.5 515.5,653.5C 520.752,646.737 527.752,643.404 536.5,643.5C 548.104,644.259 558.771,647.593 568.5,653.5 Z"/></g>
<g><path style="opacity:0.982" fill="#f2e68f" d="M 389.5,653.5 C 419.5,653.5 449.5,653.5 479.5,653.5C 479.768,655.099 479.434,656.432 478.5,657.5C 448.5,657.5 418.5,657.5 388.5,657.5C 388.833,656.167 389.167,654.833 389.5,653.5 Z"/></g>
<g><path style="opacity:0.985" fill="#f2e78f" d="M 515.5,653.5 C 533.167,653.5 550.833,653.5 568.5,653.5C 571.628,655.799 574.628,655.799 577.5,653.5C 609.5,653.5 641.5,653.5 673.5,653.5C 674.345,654.671 675.011,656.005 675.5,657.5C 621.5,657.5 567.5,657.5 513.5,657.5C 514.167,656.167 514.833,654.833 515.5,653.5 Z"/></g>
<g><path style="opacity:0.994" fill="#f2e68f" d="M 691.5,653.5 C 781.5,653.5 871.5,653.5 961.5,653.5C 961.262,655.404 960.262,656.738 958.5,657.5C 870.167,657.5 781.833,657.5 693.5,657.5C 692.655,656.329 691.989,654.995 691.5,653.5 Z"/></g>
<g><path style="opacity:0.993" fill="#ead881" d="M 513.5,657.5 C 567.5,657.5 621.5,657.5 675.5,657.5C 675.833,658.833 676.167,660.167 676.5,661.5C 622.167,661.5 567.833,661.5 513.5,661.5C 513.5,660.167 513.5,658.833 513.5,657.5 Z"/></g>
<g><path style="opacity:0.993" fill="#ead881" d="M 693.5,657.5 C 781.833,657.5 870.167,657.5 958.5,657.5C 957.415,659.587 955.749,660.92 953.5,661.5C 867.167,661.5 780.833,661.5 694.5,661.5C 693.766,660.292 693.433,658.959 693.5,657.5 Z"/></g>
<g><path style="opacity:0.986" fill="#e6d17b" d="M 388.5,657.5 C 418.5,657.5 448.5,657.5 478.5,657.5C 478.5,659.833 478.5,662.167 478.5,664.5C 447.833,664.5 417.167,664.5 386.5,664.5C 386.394,661.921 387.061,659.588 388.5,657.5 Z"/></g>
<g><path style="opacity:0.993" fill="#e4cd77" d="M 513.5,661.5 C 567.833,661.5 622.167,661.5 676.5,661.5C 677.11,662.391 677.443,663.391 677.5,664.5C 622.833,664.5 568.167,664.5 513.5,664.5C 513.5,663.5 513.5,662.5 513.5,661.5 Z"/></g>
<g><path style="opacity:0.989" fill="#e4ce77" d="M 694.5,661.5 C 780.833,661.5 867.167,661.5 953.5,661.5C 952.158,662.793 950.491,663.626 948.5,664C 863.834,664.5 779.167,664.667 694.5,664.5C 694.5,663.5 694.5,662.5 694.5,661.5 Z"/></g>
<g><path style="opacity:0.979" fill="#dcc069" d="M 386.5,664.5 C 417.167,664.5 447.833,664.5 478.5,664.5C 478.5,666.167 478.5,667.833 478.5,669.5C 447.167,669.5 415.833,669.5 384.5,669.5C 384.796,667.597 385.463,665.93 386.5,664.5 Z"/></g>
<g><path style="opacity:0.992" fill="#dcc069" d="M 513.5,664.5 C 568.167,664.5 622.833,664.5 677.5,664.5C 678.301,666.042 678.634,667.708 678.5,669.5C 623.833,669.5 569.167,669.5 514.5,669.5C 513.549,668.081 513.216,666.415 513.5,664.5 Z"/></g>
<g><path style="opacity:0.987" fill="#d6b65f" d="M 384.5,669.5 C 415.833,669.5 447.167,669.5 478.5,669.5C 478.905,681.298 482.905,691.631 490.5,700.5C 453.833,700.5 417.167,700.5 380.5,700.5C 380.422,689.971 381.755,679.637 384.5,669.5 Z"/></g>
<g><path style="opacity:0.987" fill="#d6b65f" d="M 514.5,669.5 C 569.167,669.5 623.833,669.5 678.5,669.5C 681.552,679.482 683.219,689.815 683.5,700.5C 643.833,700.5 604.167,700.5 564.5,700.5C 551.04,694.27 537.706,687.77 524.5,681C 519.873,678.212 516.539,674.378 514.5,669.5 Z"/></g>
<g><path style="opacity:0.975" fill="#d5b55e" d="M 963.5,700.5 C 875.833,700.5 788.167,700.5 700.5,700.5C 700.084,695.507 699.751,690.507 699.5,685.5C 782.834,685.333 866.167,685.5 949.5,686C 956.41,688.742 961.077,693.576 963.5,700.5 Z"/></g>
<g><path style="opacity:0.992" fill="#d0af59" d="M 380.5,700.5 C 417.167,700.5 453.833,700.5 490.5,700.5C 496.854,705.672 503.521,710.338 510.5,714.5C 467.167,714.5 423.833,714.5 380.5,714.5C 380.5,709.833 380.5,705.167 380.5,700.5 Z"/></g>
<g><path style="opacity:0.988" fill="#d0af59" d="M 564.5,700.5 C 604.167,700.5 643.833,700.5 683.5,700.5C 683.5,705.167 683.5,709.833 683.5,714.5C 648.833,714.5 614.167,714.5 579.5,714.5C 575.102,709.099 570.102,704.433 564.5,700.5 Z"/></g>
<g><path style="opacity:0.996" fill="#d2b15a" d="M 700.5,700.5 C 788.167,700.5 875.833,700.5 963.5,700.5C 964.473,702.948 964.806,705.615 964.5,708.5C 876.5,708.5 788.5,708.5 700.5,708.5C 700.5,705.833 700.5,703.167 700.5,700.5 Z"/></g>
<g><path style="opacity:0.995" fill="#ccab55" d="M 700.5,708.5 C 788.5,708.5 876.5,708.5 964.5,708.5C 964.795,710.735 964.461,712.735 963.5,714.5C 875.833,714.5 788.167,714.5 700.5,714.5C 700.5,712.5 700.5,710.5 700.5,708.5 Z"/></g>
<g><path style="opacity:0.986" fill="#c6a44e" d="M 380.5,714.5 C 423.833,714.5 467.167,714.5 510.5,714.5C 515.022,716.264 519.355,718.264 523.5,720.5C 475.833,720.5 428.167,720.5 380.5,720.5C 380.5,718.5 380.5,716.5 380.5,714.5 Z"/></g>
<g><path style="opacity:0.995" fill="#c6a44e" d="M 700.5,714.5 C 788.167,714.5 875.833,714.5 963.5,714.5C 963.008,716.819 962.008,718.819 960.5,720.5C 873.833,720.5 787.167,720.5 700.5,720.5C 700.5,718.5 700.5,716.5 700.5,714.5 Z"/></g>
<g><path style="opacity:0.986" fill="#c29f49" d="M 579.5,714.5 C 614.167,714.5 648.833,714.5 683.5,714.5C 683.563,719.203 683.229,723.87 682.5,728.5C 650.5,728.5 618.5,728.5 586.5,728.5C 585.045,723.383 582.711,718.716 579.5,714.5 Z"/></g>
<g><path style="opacity:0.99" fill="#c09d47" d="M 700.5,720.5 C 787.167,720.5 873.833,720.5 960.5,720.5C 957.18,724.83 952.847,727.664 947.5,729C 864.834,729.5 782.167,729.667 699.5,729.5C 699.19,726.287 699.523,723.287 700.5,720.5 Z"/></g>
<g><path style="opacity:0.989" fill="#bc9943" d="M 380.5,720.5 C 428.167,720.5 475.833,720.5 523.5,720.5C 532.789,723.138 540.789,727.805 547.5,734.5C 492.5,734.5 437.5,734.5 382.5,734.5C 381.555,729.886 380.888,725.219 380.5,720.5 Z"/></g>
<g><path style="opacity:0.981" fill="#b4903a" d="M 586.5,728.5 C 618.5,728.5 650.5,728.5 682.5,728.5C 672.183,785.635 640.517,825.801 587.5,849C 532.317,868.357 481.65,860.357 435.5,825C 407.171,801.189 389.505,771.023 382.5,734.5C 437.5,734.5 492.5,734.5 547.5,734.5C 555.611,746.84 553.611,757.34 541.5,766C 520.203,772.609 500.537,769.275 482.5,756C 480.559,755.257 478.726,755.424 477,756.5C 475.437,764.087 475.104,771.754 476,779.5C 476.346,781.848 477.513,783.681 479.5,785C 493.677,793.211 509.01,797.044 525.5,796.5C 525.5,803.5 525.5,810.5 525.5,817.5C 532.167,817.5 538.833,817.5 545.5,817.5C 545.334,809.826 545.5,802.159 546,794.5C 578.6,784.312 592.1,762.312 586.5,728.5 Z"/></g>
<g><path style="opacity:0.977" fill="#b39039" d="M 694.5,750.5 C 779.501,750.333 864.501,750.5 949.5,751C 961.884,756.6 966.717,766.1 964,779.5C 960.888,787.612 955.054,792.445 946.5,794C 856.831,794.833 767.165,794.667 677.5,793.5C 685.327,780.019 690.994,765.686 694.5,750.5 Z"/></g>
<g><path style="opacity:0.975" fill="#b39039" d="M 663.5,814.5 C 757.501,814.333 851.501,814.5 945.5,815C 960.621,819.053 966.787,828.886 964,844.5C 961.5,851 957,855.5 950.5,858C 837.5,858.667 724.5,858.667 611.5,858C 631.705,846.964 649.039,832.464 663.5,814.5 Z"/></g>
</svg>
