<?xml version="1.0" encoding="UTF-8"?>
<!DOCTYPE svg PUBLIC "-//W3C//DTD SVG 1.1//EN" "http://www.w3.org/Graphics/SVG/1.1/DTD/svg11.dtd">
<svg xmlns="http://www.w3.org/2000/svg" version="1.1" width="1000px" height="1000px" style="shape-rendering:geometricPrecision; text-rendering:geometricPrecision; image-rendering:optimizeQuality; fill-rule:evenodd; clip-rule:evenodd" xmlns:xlink="http://www.w3.org/1999/xlink">
<g><path style="opacity:0.999" fill="#7a9bfe" d="M 363.5,150.5 C 480.167,150.333 596.834,150.5 713.5,151C 724.496,155.836 731.662,164.002 735,175.5C 735.5,187.162 735.667,198.829 735.5,210.5C 747.88,210.13 760.214,210.63 772.5,212C 784.034,216.201 791.868,224.034 796,235.5C 796.5,348.833 796.667,462.166 796.5,575.5C 846.834,575.333 897.168,575.5 947.5,576C 961.225,579.391 970.058,587.891 974,601.5C 974.667,700.833 974.667,800.167 974,899.5C 970.167,912.667 961.667,921.167 948.5,925C 649.167,925.667 349.833,925.667 50.5,925C 37.3333,921.167 28.8333,912.667 25,899.5C 24.3333,800.167 24.3333,700.833 25,601.5C 28.9419,587.891 37.7752,579.391 51.5,576C 102.166,575.5 152.832,575.333 203.5,575.5C 203.333,490.499 203.5,405.499 204,320.5C 205.252,318.999 206.252,317.332 207,315.5C 259.343,260.657 311.51,205.657 363.5,150.5 Z"/></g>
<g><path style="opacity:1" fill="#fefffe" d="M 388.5,184.5 C 492.5,184.5 596.5,184.5 700.5,184.5C 700.5,314.833 700.5,445.167 700.5,575.5C 546.167,575.5 391.833,575.5 237.5,575.5C 237.5,498.167 237.5,420.833 237.5,343.5C 282.835,343.667 328.168,343.5 373.5,343C 380.318,341.674 385.152,337.84 388,331.5C 388.5,282.501 388.667,233.501 388.5,184.5 Z"/></g>
<g><path style="opacity:1" fill="#fefffe" d="M 353.5,209.5 C 353.18,241.964 353.513,274.631 354.5,307.5C 323.505,308.667 292.505,308.833 261.5,308C 292.372,275.297 323.038,242.464 353.5,209.5 Z"/></g>
<g><path style="opacity:1" fill="#fefffe" d="M 735.5,245.5 C 744.5,245.5 753.5,245.5 762.5,245.5C 762.5,355.5 762.5,465.5 762.5,575.5C 753.5,575.5 744.5,575.5 735.5,575.5C 735.5,465.5 735.5,355.5 735.5,245.5 Z"/></g>
<g><path style="opacity:1" fill="#7b9cff" d="M 464.5,309.5 C 504.168,309.333 543.835,309.5 583.5,310C 594.478,315.047 597.644,323.213 593,334.5C 589.878,338.969 585.712,341.802 580.5,343C 543.167,343.667 505.833,343.667 468.5,343C 453.936,338.305 450.102,329.138 457,315.5C 459.114,312.879 461.614,310.879 464.5,309.5 Z"/></g>
<g><path style="opacity:1" fill="#7b9cff" d="M 358.5,416.5 C 432.167,416.333 505.834,416.5 579.5,417C 594.407,421.313 598.574,430.48 592,444.5C 589.01,447.491 585.51,449.657 581.5,451C 506.5,451.667 431.5,451.667 356.5,451C 343.791,445.879 340.291,437.045 346,424.5C 349.586,420.714 353.753,418.047 358.5,416.5 Z"/></g>
<g><path style="opacity:1" fill="#7b9cff" d="M 355.5,525.5 C 431.501,525.333 507.501,525.5 583.5,526C 594.897,532.089 597.731,540.922 592,552.5C 589.441,555.531 586.274,557.698 582.5,559C 506.833,559.667 431.167,559.667 355.5,559C 342.887,552.93 340.054,543.763 347,531.5C 349.637,529.109 352.47,527.109 355.5,525.5 Z"/></g>
<g><path style="opacity:1" fill="#fefefe" d="M 74.5,625.5 C 357.833,625.5 641.167,625.5 924.5,625.5C 924.5,708.833 924.5,792.167 924.5,875.5C 641.167,875.5 357.833,875.5 74.5,875.5C 74.5,792.167 74.5,708.833 74.5,625.5 Z"/></g>
<g><path style="opacity:1" fill="#647fcc" d="M 335.5,631.5 C 348.569,630.56 360.902,633.06 372.5,639C 389.82,652.632 395.32,670.132 389,691.5C 382.389,711.43 368.556,722.597 347.5,725C 326.499,727.677 310.332,720.177 299,702.5C 290.576,683.69 291.909,665.69 303,648.5C 311.787,638.692 322.621,633.025 335.5,631.5 Z"/></g>
<g><path style="opacity:1" fill="#647fcc" d="M 519.5,631.5 C 532.569,630.56 544.902,633.06 556.5,639C 573.82,652.632 579.32,670.132 573,691.5C 566.389,711.43 552.556,722.597 531.5,725C 510.499,727.677 494.332,720.177 483,702.5C 474.576,683.69 475.909,665.69 487,648.5C 495.787,638.692 506.621,633.025 519.5,631.5 Z"/></g>
<g><path style="opacity:1" fill="#657fcc" d="M 696.5,630.5 C 697.675,630.281 698.675,630.614 699.5,631.5C 710.744,654.987 722.244,678.321 734,701.5C 744.894,678.045 756.061,654.712 767.5,631.5C 768.868,630.406 770.035,630.74 771,632.5C 775.001,659.849 779.001,687.183 783,714.5C 787.237,721.684 793.071,723.184 800.5,719C 813.273,690.946 825.106,662.446 836,633.5C 838.301,629.605 840.301,629.938 842,634.5C 852.609,661.661 863.609,688.661 875,715.5C 878.844,719.957 883.01,722.457 887.5,723C 877.151,723.832 866.817,723.666 856.5,722.5C 858.272,721.73 859.272,720.397 859.5,718.5C 856.433,710.133 853.266,701.8 850,693.5C 840.333,692.167 830.667,692.167 821,693.5C 817.769,701.194 814.935,709.027 812.5,717C 812.439,718.711 813.106,720.044 814.5,721C 816.577,721.192 818.577,721.692 820.5,722.5C 803.176,723.666 785.843,723.833 768.5,723C 767.692,722.692 767.025,722.192 766.5,721.5C 767.993,719.636 768.66,717.47 768.5,715C 765.88,697.516 763.38,680.016 761,662.5C 750.833,682.833 740.667,703.167 730.5,723.5C 729.522,723.023 728.689,722.357 728,721.5C 718.212,702.631 708.712,683.631 699.5,664.5C 696.748,680.772 694.415,697.105 692.5,713.5C 692.288,716.011 692.955,718.178 694.5,720C 697.121,720.939 699.788,721.772 702.5,722.5C 695.5,722.833 688.5,723.167 681.5,723.5C 673.427,723.619 665.427,723.119 657.5,722C 654.061,719.861 650.894,717.361 648,714.5C 641.532,705.066 634.699,695.899 627.5,687C 623.179,686.501 618.846,686.334 614.5,686.5C 614.334,696.172 614.5,705.839 615,715.5C 615.273,717.329 616.107,718.829 617.5,720C 620.444,720.97 623.444,721.804 626.5,722.5C 614.5,723.833 602.5,723.833 590.5,722.5C 593.593,721.64 596.427,720.306 599,718.5C 600.59,692.529 600.923,666.529 600,640.5C 599.535,639.069 598.701,637.903 597.5,637C 594.556,636.03 591.556,635.196 588.5,634.5C 602.488,633.334 616.488,633.167 630.5,634C 646.302,634.797 654.135,642.964 654,658.5C 653.181,663.141 651.514,667.475 649,671.5C 645.5,675 642,678.5 638.5,682C 647.458,693.294 656.791,704.294 666.5,715C 670.288,718.397 674.621,720.397 679.5,721C 682.348,718.134 683.848,714.634 684,710.5C 687.678,683.735 691.845,657.068 696.5,630.5 Z"/></g>
<g><path style="opacity:1" fill="#657fcc" d="M 125.5,633.5 C 140.504,633.333 155.504,633.5 170.5,634C 186.675,637.51 192.841,647.343 189,663.5C 183.549,678.144 173.049,684.478 157.5,682.5C 172.718,678.752 178.884,669.085 176,653.5C 172.031,642.496 164.364,637.829 153,639.5C 152.333,664.833 152.333,690.167 153,715.5C 153.346,717.848 154.513,719.681 156.5,721C 159.226,721.182 161.893,721.682 164.5,722.5C 152.167,723.833 139.833,723.833 127.5,722.5C 132.641,722.693 135.808,720.359 137,715.5C 137.667,690.167 137.667,664.833 137,639.5C 136.167,638.667 135.333,637.833 134.5,637C 131.092,636.343 128.092,635.177 125.5,633.5 Z"/></g>
<g><path style="opacity:1" fill="#647ecc" d="M 204.5,633.5 C 220.872,633.112 237.205,633.612 253.5,635C 267.693,639.552 272.86,649.052 269,663.5C 265.693,670.813 260.86,676.98 254.5,682C 263.458,693.294 272.791,704.294 282.5,715C 287.179,718.839 292.513,721.339 298.5,722.5C 290.109,723.906 281.776,723.739 273.5,722C 270.061,719.861 266.894,717.361 264,714.5C 257.532,705.066 250.699,695.899 243.5,687C 239.179,686.501 234.846,686.334 230.5,686.5C 230.334,696.172 230.5,705.839 231,715.5C 231.273,717.329 232.107,718.829 233.5,720C 236.444,720.97 239.444,721.804 242.5,722.5C 230.5,723.833 218.5,723.833 206.5,722.5C 209.593,721.64 212.427,720.306 215,718.5C 216.59,692.529 216.923,666.529 216,640.5C 215.535,639.069 214.701,637.903 213.5,637C 210.092,636.343 207.092,635.177 204.5,633.5 Z"/></g>
<g><path style="opacity:1" fill="#637dcc" d="M 461.5,632.5 C 462.497,632.47 463.164,632.97 463.5,634C 462.113,639.077 461.113,644.243 460.5,649.5C 460.216,644.745 457.883,641.579 453.5,640C 446.174,639.5 438.841,639.334 431.5,639.5C 431.5,650.5 431.5,661.5 431.5,672.5C 439.507,672.666 447.507,672.5 455.5,672C 456.931,671.535 458.097,670.701 459,669.5C 459.22,675.867 458.72,682.2 457.5,688.5C 457.125,684.238 455.125,681.071 451.5,679C 444.842,678.5 438.175,678.334 431.5,678.5C 431.333,690.838 431.5,703.171 432,715.5C 432.273,717.329 433.107,718.829 434.5,720C 437.77,720.995 441.103,721.828 444.5,722.5C 431.833,723.833 419.167,723.833 406.5,722.5C 411.641,722.693 414.808,720.359 416,715.5C 416.667,690.167 416.667,664.833 416,639.5C 415.5,637.667 414.333,636.5 412.5,636C 409.774,635.818 407.107,635.318 404.5,634.5C 423.662,633.833 442.662,633.167 461.5,632.5 Z"/></g>
<g><path style="opacity:1" fill="#fdfdfe" d="M 330.5,637.5 C 358.803,636.631 373.469,650.464 374.5,679C 375.008,689.472 372.841,699.305 368,708.5C 356.558,720.541 343.391,722.707 328.5,715C 319.108,708.592 313.275,699.759 311,688.5C 308.533,676.638 309.2,664.971 313,653.5C 316.708,645.747 322.542,640.414 330.5,637.5 Z"/></g>
<g><path style="opacity:1" fill="#fdfdfe" d="M 514.5,637.5 C 542.803,636.631 557.469,650.464 558.5,679C 559.008,689.472 556.841,699.305 552,708.5C 540.558,720.541 527.391,722.707 512.5,715C 503.108,708.592 497.275,699.759 495,688.5C 492.533,676.638 493.2,664.971 497,653.5C 500.708,645.747 506.542,640.414 514.5,637.5 Z"/></g>
<g><path style="opacity:1" fill="#fdfdfe" d="M 230.5,639.5 C 250.162,638.428 258.662,647.761 256,667.5C 252.369,680.252 244.202,684.252 231.5,679.5C 230.501,666.183 230.167,652.85 230.5,639.5 Z"/></g>
<g><path style="opacity:1" fill="#fdfdfe" d="M 614.5,639.5 C 634.162,638.428 642.662,647.761 640,667.5C 636.369,680.252 628.202,684.252 615.5,679.5C 614.501,666.183 614.167,652.85 614.5,639.5 Z"/></g>
<g><path style="opacity:1" fill="#fafbfd" d="M 834.5,655.5 C 835.75,655.577 836.583,656.244 837,657.5C 840.679,667.036 843.845,676.702 846.5,686.5C 839.167,686.5 831.833,686.5 824.5,686.5C 827.543,676.079 830.876,665.746 834.5,655.5 Z"/></g>
<g><path style="opacity:1" fill="#647fcc" d="M 508.5,774.5 C 521.569,773.56 533.902,776.06 545.5,782C 562.82,795.632 568.32,813.132 562,834.5C 555.389,854.43 541.556,865.597 520.5,868C 499.499,870.677 483.332,863.177 472,845.5C 463.576,826.69 464.909,808.69 476,791.5C 484.787,781.692 495.621,776.025 508.5,774.5 Z"/></g>
<g><path style="opacity:1" fill="#667fcd" d="M 286.5,801.5 C 286.44,800.957 286.107,800.624 285.5,800.5C 284.181,807.656 284.181,814.656 285.5,821.5C 285.152,834.209 285.652,846.875 287,859.5C 287.465,860.931 288.299,862.097 289.5,863C 292.444,863.97 295.444,864.804 298.5,865.5C 287.5,866.833 276.5,866.833 265.5,865.5C 267.959,864.674 270.459,864.007 273,863.5C 274.477,862.556 275.477,861.223 276,859.5C 276.267,831.489 276.934,803.489 278,775.5C 278.414,775.043 278.914,774.709 279.5,774.5C 302.197,797.196 324.53,820.196 346.5,843.5C 346.833,841.667 347.167,839.833 347.5,838C 346.743,820.177 346.243,802.344 346,784.5C 345.727,782.671 344.893,781.171 343.5,780C 340.556,779.03 337.556,778.196 334.5,777.5C 344.833,776.167 355.167,776.167 365.5,777.5C 360.98,777.434 357.813,779.434 356,783.5C 355.629,811.507 354.963,839.507 354,867.5C 353.586,867.957 353.086,868.291 352.5,868.5C 344.214,861.717 336.381,854.383 329,846.5C 314.629,831.631 300.462,816.631 286.5,801.5 Z"/></g>
<g><path style="opacity:1" fill="#657fcd" d="M 669.5,774.5 C 683.612,774.111 697.612,775.111 711.5,777.5C 711.666,785.174 711.5,792.841 711,800.5C 710.586,800.957 710.086,801.291 709.5,801.5C 708.519,791.345 703.186,784.845 693.5,782C 669.389,775.298 653.889,783.798 647,807.5C 643.955,825.851 649.122,841.351 662.5,854C 675.099,862.35 688.433,863.683 702.5,858C 706.658,854.158 709.658,849.658 711.5,844.5C 711.833,845.167 712.167,845.833 712.5,846.5C 711.451,851.462 710.617,856.462 710,861.5C 709.477,863.223 708.477,864.556 707,865.5C 682.483,873.063 660.483,868.73 641,852.5C 626.233,832.021 625.9,811.354 640,790.5C 648.116,781.862 657.949,776.528 669.5,774.5 Z"/></g>
<g><path style="opacity:1" fill="#657fcc" d="M 215.5,776.5 C 227.186,776.168 238.852,776.501 250.5,777.5C 246.917,777.949 243.75,779.282 241,781.5C 240.333,807.833 240.333,834.167 241,860.5C 241.5,862.333 242.667,863.5 244.5,864C 247.553,864.179 250.553,864.679 253.5,865.5C 240.833,866.833 228.167,866.833 215.5,865.5C 218.273,864.747 220.94,863.747 223.5,862.5C 224.098,861.205 224.598,859.872 225,858.5C 225.667,833.167 225.667,807.833 225,782.5C 224.626,781.584 224.126,780.75 223.5,780C 220.399,779.362 217.732,778.195 215.5,776.5 Z"/></g>
<g><path style="opacity:1" fill="#657fcc" d="M 366.5,776.5 C 379.184,776.168 391.851,776.501 404.5,777.5C 402.577,778.308 400.577,778.808 398.5,779C 397.196,779.804 396.529,780.971 396.5,782.5C 404.233,803.533 412.067,824.533 420,845.5C 428.696,824.413 437.196,803.246 445.5,782C 445.355,781.228 445.022,780.561 444.5,780C 442.196,779.105 439.862,778.271 437.5,777.5C 447.167,776.167 456.833,776.167 466.5,777.5C 462.307,777.775 458.807,779.442 456,782.5C 443.021,810.956 430.188,839.456 417.5,868C 415.232,868.09 413.732,866.923 413,864.5C 402.195,837.753 391.195,811.086 380,784.5C 375.994,780.596 371.494,777.929 366.5,776.5 Z"/></g>
<g><path style="opacity:1" fill="#657fcc" d="M 579.5,776.5 C 591.186,776.168 602.852,776.501 614.5,777.5C 610.917,777.949 607.75,779.282 605,781.5C 604.333,807.833 604.333,834.167 605,860.5C 605.5,862.333 606.667,863.5 608.5,864C 611.553,864.179 614.553,864.679 617.5,865.5C 604.833,866.833 592.167,866.833 579.5,865.5C 582.273,864.747 584.94,863.747 587.5,862.5C 588.098,861.205 588.598,859.872 589,858.5C 589.667,833.167 589.667,807.833 589,782.5C 588.626,781.584 588.126,780.75 587.5,780C 584.399,779.362 581.732,778.195 579.5,776.5 Z"/></g>
<g><path style="opacity:1" fill="#637dcc" d="M 781.5,775.5 C 782.497,775.47 783.164,775.97 783.5,777C 782.827,782.561 781.827,788.061 780.5,793.5C 779.772,790.788 778.939,788.121 778,785.5C 777.25,784.874 776.416,784.374 775.5,784C 768.239,782.652 760.906,782.152 753.5,782.5C 753.5,793.5 753.5,804.5 753.5,815.5C 761.174,815.666 768.841,815.5 776.5,815C 777.966,814.365 779.3,813.531 780.5,812.5C 780.833,813.333 781.167,814.167 781.5,815C 780.951,820.51 780.285,826.01 779.5,831.5C 778.959,828.266 777.626,825.433 775.5,823C 768.254,821.609 760.921,821.109 753.5,821.5C 753.041,833.601 753.541,845.601 755,857.5C 756.319,859.487 758.152,860.654 760.5,861C 766.237,861.789 771.903,861.456 777.5,860C 779.329,859.727 780.829,858.893 782,857.5C 783.444,854.945 784.611,852.279 785.5,849.5C 786.853,855.306 786.353,860.973 784,866.5C 765.552,867.403 747.052,867.07 728.5,865.5C 733.892,865.985 737.059,863.652 738,858.5C 738.667,833.167 738.667,807.833 738,782.5C 737.5,780.667 736.333,779.5 734.5,779C 731.774,778.818 729.107,778.318 726.5,777.5C 744.996,776.833 763.329,776.167 781.5,775.5 Z"/></g>
<g><path style="opacity:1" fill="#fdfdfe" d="M 503.5,780.5 C 531.803,779.631 546.469,793.464 547.5,822C 548.008,832.472 545.841,842.305 541,851.5C 529.558,863.541 516.391,865.707 501.5,858C 492.108,851.592 486.275,842.759 484,831.5C 481.533,819.638 482.2,807.971 486,796.5C 489.708,788.747 495.542,783.414 503.5,780.5 Z"/></g>
<g><path style="opacity:1" fill="#96a5da" d="M 286.5,801.5 C 285.509,807.979 285.176,814.646 285.5,821.5C 284.181,814.656 284.181,807.656 285.5,800.5C 286.107,800.624 286.44,800.957 286.5,801.5 Z"/></g>
</svg>
