<?xml version="1.0" encoding="UTF-8"?>
<!DOCTYPE svg PUBLIC "-//W3C//DTD SVG 1.1//EN" "http://www.w3.org/Graphics/SVG/1.1/DTD/svg11.dtd">
<svg xmlns="http://www.w3.org/2000/svg" version="1.1" width="1000px" height="1000px" style="shape-rendering:geometricPrecision; text-rendering:geometricPrecision; image-rendering:optimizeQuality; fill-rule:evenodd; clip-rule:evenodd" xmlns:xlink="http://www.w3.org/1999/xlink">
<g><path style="opacity:1" fill="#7f7f7f" d="M 796.5,598.5 C 598.833,599.833 401.167,599.833 203.5,598.5C 203.333,506.166 203.5,413.833 204,321.5C 205,319.5 206,317.5 207,315.5C 259.167,260.667 311.333,205.833 363.5,151C 480.167,150.333 596.833,150.333 713.5,151C 724.765,156.02 731.931,164.52 735,176.5C 735.5,187.828 735.667,199.162 735.5,210.5C 747.88,210.13 760.214,210.63 772.5,212C 784.034,216.201 791.868,224.034 796,235.5C 796.5,356.5 796.667,477.5 796.5,598.5 Z"/></g>
<g><path style="opacity:1" fill="#b9bbbe" d="M 699.5,598.5 C 699.5,460.833 699.5,323.167 699.5,185.5C 596.167,185.5 492.833,185.5 389.5,185.5C 389.667,234.501 389.5,283.501 389,332.5C 386.152,338.84 381.318,342.674 374.5,344C 329.168,344.5 283.835,344.667 238.5,344.5C 238.5,429.167 238.5,513.833 238.5,598.5C 237.501,513.668 237.167,428.668 237.5,343.5C 282.835,343.667 328.168,343.5 373.5,343C 380.318,341.674 385.152,337.84 388,331.5C 388.5,282.501 388.667,233.501 388.5,184.5C 492.5,184.5 596.5,184.5 700.5,184.5C 700.833,322.668 700.5,460.668 699.5,598.5 Z"/></g>
<g><path style="opacity:1" fill="#c4c5cf" d="M 699.5,598.5 C 545.833,598.5 392.167,598.5 238.5,598.5C 238.5,513.833 238.5,429.167 238.5,344.5C 283.835,344.667 329.168,344.5 374.5,344C 381.318,342.674 386.152,338.84 389,332.5C 389.5,283.501 389.667,234.501 389.5,185.5C 492.833,185.5 596.167,185.5 699.5,185.5C 699.5,323.167 699.5,460.833 699.5,598.5 Z"/></g>
<g><path style="opacity:1" fill="#bbbbc0" d="M 353.5,209.5 C 353.18,241.964 353.513,274.631 354.5,307.5C 323.505,308.667 292.505,308.833 261.5,308C 292.372,275.297 323.038,242.464 353.5,209.5 Z"/></g>
<g><path style="opacity:1" fill="#c4c6cf" d="M 351.5,214.5 C 352.498,245.329 352.831,276.329 352.5,307.5C 323.159,307.833 293.826,307.5 264.5,306.5C 293.522,275.813 322.522,245.146 351.5,214.5 Z"/></g>
<g><path style="opacity:1" fill="#bbbcc0" d="M 761.5,598.5 C 761.5,481.167 761.5,363.833 761.5,246.5C 753.167,246.5 744.833,246.5 736.5,246.5C 736.5,363.833 736.5,481.167 736.5,598.5C 735.5,481.001 735.167,363.335 735.5,245.5C 744.5,245.5 753.5,245.5 762.5,245.5C 762.833,363.335 762.5,481.001 761.5,598.5 Z"/></g>
<g><path style="opacity:1" fill="#c4c6cf" d="M 761.5,598.5 C 753.167,598.5 744.833,598.5 736.5,598.5C 736.5,481.167 736.5,363.833 736.5,246.5C 744.833,246.5 753.167,246.5 761.5,246.5C 761.5,363.833 761.5,481.167 761.5,598.5 Z"/></g>
<g><path style="opacity:1" fill="#7f807f" d="M 464.5,309.5 C 504.168,309.333 543.835,309.5 583.5,310C 594.478,315.047 597.644,323.213 593,334.5C 589.878,338.969 585.712,341.802 580.5,343C 543.167,343.667 505.833,343.667 468.5,343C 453.936,338.305 450.102,329.138 457,315.5C 459.114,312.879 461.614,310.879 464.5,309.5 Z"/></g>
<g><path style="opacity:1" fill="#c2c3c8" d="M 357.5,415.5 C 431.834,415.333 506.167,415.5 580.5,416C 595.876,420.961 600.043,430.794 593,445.5C 590.01,448.491 586.51,450.657 582.5,452C 506.833,452.667 431.167,452.667 355.5,452C 342.349,446.223 338.849,436.723 345,423.5C 348.586,419.714 352.753,417.047 357.5,415.5 Z"/></g>
<g><path style="opacity:1" fill="#7f807f" d="M 358.5,416.5 C 432.167,416.333 505.834,416.5 579.5,417C 594.407,421.313 598.574,430.48 592,444.5C 589.01,447.491 585.51,449.657 581.5,451C 506.5,451.667 431.5,451.667 356.5,451C 343.791,445.879 340.291,437.045 346,424.5C 349.586,420.714 353.753,418.047 358.5,416.5 Z"/></g>
<g><path style="opacity:1" fill="#c2c3c8" d="M 354.5,524.5 C 431.167,524.333 507.834,524.5 584.5,525C 596.233,531.752 599.066,541.252 593,553.5C 590.441,556.531 587.274,558.698 583.5,560C 507.167,560.667 430.833,560.667 354.5,560C 342.622,554.645 339.122,545.812 344,533.5C 346.468,529.199 349.968,526.199 354.5,524.5 Z"/></g>
<g><path style="opacity:1" fill="#7f807f" d="M 355.5,525.5 C 431.501,525.333 507.501,525.5 583.5,526C 594.897,532.089 597.731,540.922 592,552.5C 589.441,555.531 586.274,557.698 582.5,559C 506.833,559.667 431.167,559.667 355.5,559C 342.887,552.93 340.054,543.763 347,531.5C 349.637,529.109 352.47,527.109 355.5,525.5 Z"/></g>
<g><path style="opacity:0.864" fill="#0d0c0c" d="M 203.5,598.5 C 401.167,599.833 598.833,599.833 796.5,598.5C 845.501,598.333 894.501,598.5 943.5,599C 947.333,600.167 949.833,602.667 951,606.5C 951.667,702.5 951.667,798.5 951,894.5C 949.833,898.333 947.333,900.833 943.5,902C 647.5,902.667 351.5,902.667 55.5,902C 51.6667,900.833 49.1667,898.333 48,894.5C 47.3333,798.5 47.3333,702.5 48,606.5C 49.1667,602.667 51.6667,600.167 55.5,599C 104.832,598.5 154.166,598.333 203.5,598.5 Z"/></g>
<g><path style="opacity:1" fill="#848282" d="M 55.5,602.5 C 351.5,602.333 647.5,602.5 943.5,603C 945.378,604.543 946.878,606.376 948,608.5C 948.667,703.167 948.667,797.833 948,892.5C 946.5,895.333 944.333,897.5 941.5,899C 646.833,899.667 352.167,899.667 57.5,899C 55.3762,897.878 53.5429,896.378 52,894.5C 51.3333,798.5 51.3333,702.5 52,606.5C 53.3756,605.295 54.5423,603.962 55.5,602.5 Z"/></g>
<g><path style="opacity:1" fill="#a09999" d="M 172.5,627.5 C 186.884,627.089 201.217,627.589 215.5,629C 228.07,632.92 233.237,641.42 231,654.5C 225.908,670.459 215.074,677.459 198.5,675.5C 219.466,672.557 226.299,661.224 219,641.5C 212.529,632.342 203.862,629.342 193,632.5C 192.333,656.833 192.333,681.167 193,705.5C 192.709,713.375 196.543,717.041 204.5,716.5C 194.5,717.833 184.5,717.833 174.5,716.5C 179.119,716.38 181.619,714.046 182,709.5C 182.667,683.833 182.667,658.167 182,632.5C 178.773,630.597 175.606,628.931 172.5,627.5 Z"/></g>
<g><path style="opacity:1" fill="#a09999" d="M 358.5,639.5 C 370.94,638.488 382.607,640.988 393.5,647C 407.503,658.495 411.836,672.995 406.5,690.5C 401.675,706.489 391.008,715.989 374.5,719C 340.863,721.03 324.697,705.197 326,671.5C 330.79,654.543 341.623,643.876 358.5,639.5 Z"/></g>
<g><path style="opacity:1" fill="#a09999" d="M 516.5,639.5 C 528.94,638.488 540.607,640.988 551.5,647C 565.503,658.495 569.836,672.995 564.5,690.5C 559.675,706.489 549.008,715.989 532.5,719C 498.863,721.03 482.697,705.197 484,671.5C 488.79,654.543 499.623,643.876 516.5,639.5 Z"/></g>
<g><path style="opacity:1" fill="#a09999" d="M 671.5,639.5 C 673.017,639.511 674.184,640.177 675,641.5C 685.667,662.167 696.333,682.833 707,703.5C 717.155,681.857 727.822,660.523 739,639.5C 740.117,640.949 740.784,642.616 741,644.5C 743.333,665.5 745.667,686.5 748,707.5C 749.44,713.893 753.44,716.559 760,715.5C 764.464,716.219 768.131,714.886 771,711.5C 780.354,687.265 790.187,663.265 800.5,639.5C 802.146,640.779 803.313,642.445 804,644.5C 812.724,666.281 821.724,687.948 831,709.5C 833.677,713.666 837.51,715.999 842.5,716.5C 835.167,717.833 827.833,717.833 820.5,716.5C 821.52,714.568 821.687,712.568 821,710.5C 818.069,703.874 815.236,697.208 812.5,690.5C 803.607,689.184 794.774,689.184 786,690.5C 783.298,697.605 780.798,704.772 778.5,712C 778.585,713.107 778.919,714.107 779.5,715C 781.256,715.202 782.922,715.702 784.5,716.5C 769.178,717.666 753.844,717.833 738.5,717C 738.566,711.702 738.4,706.202 738,700.5C 736.529,687.456 734.863,674.456 733,661.5C 723.723,680.388 714.223,699.055 704.5,717.5C 699.844,710.866 695.678,703.866 692,696.5C 686.606,684.711 680.939,673.044 675,661.5C 672.461,678.76 671.128,696.093 671,713.5C 672.916,714.928 675.083,715.928 677.5,716.5C 665.514,717.666 653.514,717.833 641.5,717C 638.059,715.224 634.892,713.057 632,710.5C 625.62,702.242 619.12,694.076 612.5,686C 607.511,685.501 602.511,685.334 597.5,685.5C 597.334,694.173 597.5,702.84 598,711.5C 598.465,712.931 599.299,714.097 600.5,715C 602.9,715.186 605.234,715.686 607.5,716.5C 598.833,717.833 590.167,717.833 581.5,716.5C 585.578,715.923 587.744,713.59 588,709.5C 588.667,688.5 588.667,667.5 588,646.5C 587.5,645.333 586.667,644.5 585.5,644C 583.423,643.808 581.423,643.308 579.5,642.5C 591.152,641.334 602.819,641.167 614.5,642C 631.502,644.837 637.002,654.337 631,670.5C 628.757,674.748 625.757,678.414 622,681.5C 621.333,682.5 621.333,683.5 622,684.5C 629.796,693.964 637.962,703.131 646.5,712C 651.031,715.486 656.031,716.32 661.5,714.5C 662.192,713.975 662.692,713.308 663,712.5C 665.836,688.154 668.669,663.821 671.5,639.5 Z"/></g>
<g><path style="opacity:1" fill="#9f9999" d="M 467.5,640.5 C 468.497,640.47 469.164,640.97 469.5,642C 468.606,645.776 468.272,649.61 468.5,653.5C 467.5,653.5 466.5,653.5 465.5,653.5C 466.275,649.818 464.941,647.318 461.5,646C 454.174,645.5 446.841,645.334 439.5,645.5C 439.5,655.5 439.5,665.5 439.5,675.5C 446.508,675.666 453.508,675.5 460.5,675C 462.421,674.64 464.088,673.806 465.5,672.5C 465.833,672.833 466.167,673.167 466.5,673.5C 465.884,678.151 465.218,682.818 464.5,687.5C 463.936,684.189 462.269,681.689 459.5,680C 452.842,679.5 446.175,679.334 439.5,679.5C 439.333,690.172 439.5,700.839 440,711.5C 440.465,712.931 441.299,714.097 442.5,715C 444.9,715.186 447.234,715.686 449.5,716.5C 440.5,717.833 431.5,717.833 422.5,716.5C 424.078,715.702 425.744,715.202 427.5,715C 428.126,714.25 428.626,713.416 429,712.5C 429.667,690.167 429.667,667.833 429,645.5C 426.757,644.029 424.257,643.029 421.5,642.5C 436.995,641.833 452.328,641.167 467.5,640.5 Z"/></g>
<g><path style="opacity:1" fill="#a09999" d="M 246.5,641.5 C 258.171,641.333 269.838,641.5 281.5,642C 299.522,645.542 304.688,655.709 297,672.5C 294.705,675.797 292.038,678.797 289,681.5C 288.333,682.5 288.333,683.5 289,684.5C 296.796,693.964 304.962,703.131 313.5,712C 317.044,714.632 321.044,716.132 325.5,716.5C 315.399,719.408 306.566,717.408 299,710.5C 292.62,702.242 286.12,694.076 279.5,686C 274.511,685.501 269.511,685.334 264.5,685.5C 264.334,694.173 264.5,702.84 265,711.5C 265.465,712.931 266.299,714.097 267.5,715C 269.9,715.186 272.234,715.686 274.5,716.5C 265.833,717.833 257.167,717.833 248.5,716.5C 252.578,715.923 254.744,713.59 255,709.5C 255.667,688.5 255.667,667.5 255,646.5C 252.249,644.494 249.416,642.828 246.5,641.5 Z"/></g>
<g><path style="opacity:1" fill="#858383" d="M 358.5,643.5 C 379.277,641.297 392.11,650.297 397,670.5C 398.816,682.077 397.15,693.077 392,703.5C 380.396,716.716 366.896,718.883 351.5,710C 336.247,695.479 332.413,678.312 340,658.5C 344.009,650.757 350.176,645.757 358.5,643.5 Z"/></g>
<g><path style="opacity:1" fill="#858383" d="M 516.5,643.5 C 537.277,641.297 550.11,650.297 555,670.5C 556.816,682.077 555.15,693.077 550,703.5C 538.396,716.716 524.896,718.883 509.5,710C 494.247,695.479 490.413,678.312 498,658.5C 502.009,650.757 508.176,645.757 516.5,643.5 Z"/></g>
<g><path style="opacity:1" fill="#858383" d="M 264.5,645.5 C 284.341,643.173 292.841,651.84 290,671.5C 289.177,675.664 287.01,678.831 283.5,681C 277.448,681.79 271.448,681.624 265.5,680.5C 264.501,668.852 264.168,657.186 264.5,645.5 Z"/></g>
<g><path style="opacity:1" fill="#858383" d="M 597.5,645.5 C 617.341,643.173 625.841,651.84 623,671.5C 622.177,675.664 620.01,678.831 616.5,681C 610.448,681.79 604.448,681.624 598.5,680.5C 597.501,668.852 597.168,657.186 597.5,645.5 Z"/></g>
<g><path style="opacity:1" fill="#868383" d="M 798.5,656.5 C 799.79,657.058 800.623,658.058 801,659.5C 803.872,667.95 807.039,676.284 810.5,684.5C 803.197,685.497 795.863,685.831 788.5,685.5C 791.436,675.691 794.77,666.024 798.5,656.5 Z"/></g>
<g><path style="opacity:1" fill="#a09999" d="M 251.5,771.5 C 260.525,771.168 269.525,771.502 278.5,772.5C 274.95,772.692 272.45,774.358 271,777.5C 270.333,801.167 270.333,824.833 271,848.5C 271.256,851.557 271.756,854.557 272.5,857.5C 275.286,858.956 278.286,859.956 281.5,860.5C 271.833,861.833 262.167,861.833 252.5,860.5C 257.79,859.955 260.29,856.955 260,851.5C 260.667,826.833 260.667,802.167 260,777.5C 259.535,776.069 258.701,774.903 257.5,774C 254.949,773.998 252.949,773.164 251.5,771.5 Z"/></g>
<g><path style="opacity:1" fill="#a09999" d="M 308.5,783.5 C 309.552,783.351 310.552,783.517 311.5,784C 331.667,804.833 351.833,825.667 372,846.5C 372.667,828.5 372.667,810.5 372,792.5C 371.691,791.234 371.191,790.067 370.5,789C 367.879,788.061 365.212,787.228 362.5,786.5C 370.167,785.167 377.833,785.167 385.5,786.5C 383.083,787.072 380.916,788.072 379,789.5C 378.5,813.831 378.333,838.164 378.5,862.5C 377.448,862.649 376.448,862.483 375.5,862C 354.667,842.5 334.5,822.333 315,801.5C 314.119,819.198 314.453,836.865 316,854.5C 316.273,856.329 317.107,857.829 318.5,859C 320.9,859.186 323.234,859.686 325.5,860.5C 317.167,861.833 308.833,861.833 300.5,860.5C 302.465,859.708 304.465,859.041 306.5,858.5C 307.192,857.975 307.692,857.308 308,856.5C 308.5,832.169 308.667,807.836 308.5,783.5 Z"/></g>
<g><path style="opacity:1" fill="#a09999" d="M 509.5,783.5 C 521.94,782.488 533.607,784.988 544.5,791C 558.503,802.495 562.836,816.995 557.5,834.5C 552.675,850.489 542.008,859.989 525.5,863C 491.863,865.03 475.697,849.197 477,815.5C 481.79,798.543 492.623,787.876 509.5,783.5 Z"/></g>
<g><path style="opacity:1" fill="#a09999" d="M 649.5,783.5 C 661.571,783.313 673.571,783.979 685.5,785.5C 685.83,792.2 685.497,798.866 684.5,805.5C 683.386,795.886 678.053,790.386 668.5,789C 634.999,784.504 621.166,799.004 627,832.5C 636.23,854.032 652.397,862.199 675.5,857C 680.515,854.832 683.515,850.998 684.5,845.5C 685.359,844.226 686.026,844.392 686.5,846C 686.135,851.294 684.801,856.294 682.5,861C 669.195,864.241 655.861,864.241 642.5,861C 620.09,851.347 611.59,834.514 617,810.5C 622.598,795.058 633.432,786.058 649.5,783.5 Z"/></g>
<g><path style="opacity:1" fill="#9f9999" d="M 747.5,784.5 C 748.376,784.369 749.043,784.702 749.5,785.5C 748.738,789.111 748.238,792.778 748,796.5C 747.586,796.957 747.086,797.291 746.5,797.5C 745.928,795.083 744.928,792.916 743.5,791C 736.229,789.7 728.896,789.2 721.5,789.5C 721.5,799.167 721.5,808.833 721.5,818.5C 728.841,818.666 736.174,818.5 743.5,818C 744.931,817.535 746.097,816.701 747,815.5C 747.074,820.515 746.574,825.515 745.5,830.5C 744.928,828.083 743.928,825.916 742.5,824C 735.574,822.661 728.574,822.161 721.5,822.5C 721.333,833.172 721.5,843.839 722,854.5C 723.214,856.049 724.714,857.215 726.5,858C 731.833,858.667 737.167,858.667 742.5,858C 747.151,856.515 749.818,853.348 750.5,848.5C 751.832,853.331 751.165,857.831 748.5,862C 745.333,862.167 742.167,862.333 739,862.5C 727.493,861.225 715.993,861.225 704.5,862.5C 704.5,861.5 704.5,860.5 704.5,859.5C 706.5,859.5 708.5,859.5 710.5,859.5C 711.636,836.197 711.803,812.864 711,789.5C 708.757,788.029 706.257,787.029 703.5,786.5C 718.328,785.833 732.994,785.167 747.5,784.5 Z"/></g>
<g><path style="opacity:1" fill="#9f9999" d="M 389.5,785.5 C 398.525,785.168 407.525,785.502 416.5,786.5C 414.955,787.452 413.288,787.785 411.5,787.5C 417.902,808.204 425.402,828.537 434,848.5C 441.553,831.393 448.553,814.06 455,796.5C 456.149,793.607 456.649,790.607 456.5,787.5C 454.712,787.785 453.045,787.452 451.5,786.5C 458.833,785.167 466.167,785.167 473.5,786.5C 470.138,786.85 467.305,788.184 465,790.5C 455.278,811.668 445.944,833.001 437,854.5C 435.654,857.87 433.821,860.87 431.5,863.5C 429.854,862.221 428.687,860.555 428,858.5C 418.862,836.085 409.528,813.752 400,791.5C 396.713,788.764 393.213,786.764 389.5,785.5 Z"/></g>
<g><path style="opacity:1" fill="#9f9999" d="M 574.5,785.5 C 582.528,785.169 590.528,785.502 598.5,786.5C 596.083,787.072 593.916,788.072 592,789.5C 591.333,811.167 591.333,832.833 592,854.5C 592.273,856.329 593.107,857.829 594.5,859C 596.9,859.186 599.234,859.686 601.5,860.5C 592.5,861.833 583.5,861.833 574.5,860.5C 576.078,859.702 577.744,859.202 579.5,859C 580.126,858.25 580.626,857.416 581,856.5C 581.667,834.167 581.667,811.833 581,789.5C 578.575,788.357 576.408,787.024 574.5,785.5 Z"/></g>
<g><path style="opacity:1" fill="#858383" d="M 509.5,787.5 C 530.277,785.297 543.11,794.297 548,814.5C 549.816,826.077 548.15,837.077 543,847.5C 531.396,860.716 517.896,862.883 502.5,854C 487.247,839.479 483.413,822.312 491,802.5C 495.009,794.757 501.176,789.757 509.5,787.5 Z"/></g>
</svg>
