<?xml version="1.0" encoding="UTF-8"?>
<!DOCTYPE svg PUBLIC "-//W3C//DTD SVG 1.1//EN" "http://www.w3.org/Graphics/SVG/1.1/DTD/svg11.dtd">
<svg xmlns="http://www.w3.org/2000/svg" version="1.1" width="1000px" height="1000px" style="shape-rendering:geometricPrecision; text-rendering:geometricPrecision; image-rendering:optimizeQuality; fill-rule:evenodd; clip-rule:evenodd" xmlns:xlink="http://www.w3.org/1999/xlink">
<g><path style="opacity:1" fill="#808080" d="M 797.5,462.5 C 798.473,462.987 799.473,463.487 800.5,464C 798.036,467.301 795.369,470.468 792.5,473.5C 787.9,477.582 783.067,481.582 778,485.5C 775.435,489.236 772.268,492.57 768.5,495.5C 762.833,502.333 757.167,509.167 751.5,516C 749.239,517.813 746.905,519.313 744.5,520.5C 744.649,521.552 744.483,522.552 744,523.5C 739.56,526.268 736.227,529.934 734,534.5C 731,537.167 728,539.833 725,542.5C 724.517,543.448 724.351,544.448 724.5,545.5C 723.167,545.5 721.833,545.5 720.5,545.5C 720.028,548.815 718.195,551.149 715,552.5C 714.667,553.833 714.333,555.167 714,556.5C 709.993,560.84 705.66,564.84 701,568.5C 700.536,569.094 700.369,569.761 700.5,570.5C 698.181,570.992 696.181,571.992 694.5,573.5C 692.847,573.66 691.514,574.326 690.5,575.5C 690.167,575.5 689.833,575.5 689.5,575.5C 665.119,587.881 648.119,606.881 638.5,632.5C 636.252,640.362 631.752,646.695 625,651.5C 622.543,655.991 619.043,659.491 614.5,662C 611.245,669.116 605.912,673.282 598.5,674.5C 530.833,674.5 463.167,674.5 395.5,674.5C 394.167,674.5 392.833,674.5 391.5,674.5C 388.082,670.147 384.749,665.647 381.5,661C 377.579,657.695 373.245,654.862 368.5,652.5C 367.311,651.571 365.978,651.238 364.5,651.5C 364.443,650.391 364.11,649.391 363.5,648.5C 358.052,621.419 344.385,599.586 322.5,583C 291.814,563.368 259.148,559.368 224.5,571C 192.096,584.743 170.929,608.577 161,642.5C 159.341,653.106 158.507,663.773 158.5,674.5C 121.165,674.667 83.8318,674.5 46.5,674C 37.8542,671.358 31.6876,665.858 28,657.5C 27.3333,622.5 27.3333,587.5 28,552.5C 28.1805,549.305 28.6805,546.305 29.5,543.5C 29.5,547.167 29.5,550.833 29.5,554.5C 45.1667,554.5 60.8333,554.5 76.5,554.5C 76.5,546.5 76.5,538.5 76.5,530.5C 61.2535,532.089 46.9202,529.422 33.5,522.5C 37.3956,505.752 46.0623,491.919 59.5,481C 75.4068,470.638 92.4068,462.471 110.5,456.5C 117.355,425.79 130.855,398.457 151,374.5C 183.787,336.338 223.621,307.838 270.5,289C 356.859,256.7 444.525,252.7 533.5,277C 582.74,291.327 626.407,315.327 664.5,349C 686.972,370.136 704.805,394.636 718,422.5C 721.878,432.299 725.045,442.299 727.5,452.5C 751.194,453.428 774.527,456.762 797.5,462.5 Z M 400.5,310.5 C 469.027,307.133 533.027,322.3 592.5,356C 621.575,373.741 645.408,396.908 664,425.5C 669.114,433.895 673.281,442.728 676.5,452C 583.832,452.833 491.165,452.667 398.5,451.5C 380.572,407.147 362.239,362.98 343.5,319C 349.367,317.159 355.367,315.826 361.5,315C 374.649,313.487 387.649,311.987 400.5,310.5 Z M 294.5,332.5 C 296.686,333.823 298.186,335.823 299,338.5C 314.094,376.519 329.594,414.353 345.5,452C 284.5,452.667 223.5,452.667 162.5,452C 176.48,418.404 198.147,390.737 227.5,369C 248.39,354.221 270.724,342.054 294.5,332.5 Z"/></g>
<g><path style="opacity:0.77" fill="#f0f1f0" d="M 921.5,520.5 C 920.167,519.5 918.833,518.5 917.5,517.5C 916.63,515.401 915.297,515.068 913.5,516.5C 912.712,515.23 911.712,514.23 910.5,513.5C 907.675,507.002 903.342,501.669 897.5,497.5C 894.003,493.395 890.003,489.729 885.5,486.5C 874.791,475.457 863.458,465.124 851.5,455.5C 847.848,453.213 843.848,451.379 839.5,450C 835.167,449.333 830.833,449.333 826.5,450C 822.115,451.581 818.115,453.748 814.5,456.5C 809.193,461.472 803.86,466.472 798.5,471.5C 797.5,471.5 796.5,471.5 795.5,471.5C 795.5,472.5 795.5,473.5 795.5,474.5C 794.209,474.737 793.209,474.404 792.5,473.5C 795.369,470.468 798.036,467.301 800.5,464C 799.473,463.487 798.473,462.987 797.5,462.5C 798.105,460.974 799.271,459.974 801,459.5C 801.483,458.552 801.649,457.552 801.5,456.5C 802.552,456.649 803.552,456.483 804.5,456C 806.871,452.961 809.538,450.127 812.5,447.5C 814.078,446.702 815.744,446.202 817.5,446C 818.337,444.989 818.67,443.822 818.5,442.5C 820.144,442.286 821.644,442.62 823,443.5C 823.388,442.572 824.055,441.905 825,441.5C 834.134,443.161 843.3,444.661 852.5,446C 854.48,447.825 856.813,448.659 859.5,448.5C 859.5,450.167 859.5,451.833 859.5,453.5C 863.074,452.908 865.074,454.408 865.5,458C 866.448,458.483 867.448,458.649 868.5,458.5C 868.5,459.833 868.5,461.167 868.5,462.5C 872.724,461.944 875.057,463.777 875.5,468C 878.047,468.552 880.047,469.886 881.5,472C 882.793,472.49 884.127,472.657 885.5,472.5C 885.5,474.167 885.5,475.833 885.5,477.5C 888.329,477.325 889.996,478.658 890.5,481.5C 892.071,482.309 893.738,482.643 895.5,482.5C 895.5,483.833 895.5,485.167 895.5,486.5C 896.93,486.421 898.264,486.754 899.5,487.5C 900.978,490.568 902.978,493.235 905.5,495.5C 907.059,496.074 908.559,496.74 910,497.5C 911.161,500.267 912.327,502.933 913.5,505.5C 914.5,505.5 915.5,505.5 916.5,505.5C 916.34,507.199 916.506,508.866 917,510.5C 919.447,513.362 920.947,516.695 921.5,520.5 Z"/></g>
<g><path style="opacity:1" fill="#3afe16" d="M 851.5,455.5 C 863.458,465.124 874.791,475.457 885.5,486.5C 885.744,489.263 887.077,491.429 889.5,493C 891.754,493.624 893.421,494.957 894.5,497C 895.448,497.483 896.448,497.649 897.5,497.5C 903.342,501.669 907.675,507.002 910.5,513.5C 914.803,526.453 912.637,538.119 904,548.5C 892.272,561.059 880.439,573.392 868.5,585.5C 862.45,589.217 857.783,594.217 854.5,600.5C 847.173,609.159 839.507,617.493 831.5,625.5C 830.178,625.33 829.011,625.663 828,626.5C 820.006,635.827 811.673,644.827 803,653.5C 802.517,654.448 802.351,655.448 802.5,656.5C 797.852,662.781 792.519,668.448 786.5,673.5C 781.928,676.563 777.761,680.23 774,684.5C 773.517,685.448 773.351,686.448 773.5,687.5C 758.23,704.443 742.897,721.443 727.5,738.5C 724.167,741.5 720.833,744.5 717.5,747.5C 712.408,750.256 708.742,754.256 706.5,759.5C 642.284,829.056 577.618,898.389 512.5,967.5C 509.213,968.264 506.546,970.097 504.5,973C 491.71,981.865 477.71,984.698 462.5,981.5C 449.945,977.125 439.779,969.458 432,958.5C 383.948,892.622 336.115,826.622 288.5,760.5C 288.649,759.448 288.483,758.448 288,757.5C 282.182,750.352 277.182,742.686 273,734.5C 272.523,726.822 272.69,719.155 273.5,711.5C 278.198,707.736 282.198,703.403 285.5,698.5C 302.983,685.197 320.65,672.03 338.5,659C 350.178,653.912 361.511,654.579 372.5,661C 376.997,665.132 381.164,669.632 385,674.5C 416.422,718.344 448.089,762.01 480,805.5C 481.154,806.743 482.488,807.743 484,808.5C 488.3,805.202 492.3,801.535 496,797.5C 530.089,760.584 564.256,723.917 598.5,687.5C 604.52,684.34 608.854,679.673 611.5,673.5C 615.795,667.537 620.795,662.204 626.5,657.5C 632.882,653.452 637.882,648.118 641.5,641.5C 644.71,637.079 648.377,633.079 652.5,629.5C 658.283,626.055 662.616,621.389 665.5,615.5C 671.55,611.783 676.217,606.783 679.5,600.5C 692.508,586.825 705.175,572.825 717.5,558.5C 740.467,534.698 763.3,510.698 786,486.5C 790.401,481.607 794.568,476.607 798.5,471.5C 803.86,466.472 809.193,461.472 814.5,456.5C 820.351,453.943 826.518,452.276 833,451.5C 839.35,452.13 845.517,453.464 851.5,455.5 Z M 395.5,674.5 C 463.167,674.5 530.833,674.5 598.5,674.5C 598.5,675.5 598.5,676.5 598.5,677.5C 597.167,677.5 595.833,677.5 594.5,677.5C 594.167,679.5 593.833,681.5 593.5,683.5C 589.5,682.833 587.833,684.5 588.5,688.5C 585.612,688.22 584.112,689.553 584,692.5C 582.559,693.87 580.892,694.87 579,695.5C 578.517,696.448 578.351,697.448 578.5,698.5C 577.5,698.5 576.5,698.5 575.5,698.5C 575.1,702.347 573.1,704.68 569.5,705.5C 569.5,706.5 569.5,707.5 569.5,708.5C 568.167,708.5 566.833,708.5 565.5,708.5C 566.035,711.238 565.035,713.072 562.5,714C 562.833,714.333 563.167,714.667 563.5,715C 562.552,715.483 561.552,715.649 560.5,715.5C 560.616,718.91 558.95,720.244 555.5,719.5C 555.5,720.833 555.5,722.167 555.5,723.5C 552.364,724.474 550.364,726.641 549.5,730C 548.207,730.49 546.873,730.657 545.5,730.5C 545.762,731.978 545.429,733.311 544.5,734.5C 542.102,735.898 540.435,737.898 539.5,740.5C 537.502,742.334 535.168,743.334 532.5,743.5C 532.245,746.016 531.411,748.35 530,750.5C 524.277,755.621 518.777,760.955 513.5,766.5C 511.703,768.131 510.536,770.131 510,772.5C 509.282,771.549 508.449,771.383 507.5,772C 505.545,776.792 502.212,779.959 497.5,781.5C 498.244,784.95 496.91,786.616 493.5,786.5C 493.167,788.5 492.833,790.5 492.5,792.5C 490.833,792.5 489.167,792.5 487.5,792.5C 487.657,793.873 487.49,795.207 487,796.5C 486.333,797.833 485.667,797.833 485,796.5C 484.667,797.833 484.333,799.167 484,800.5C 482.869,797.555 482.036,794.555 481.5,791.5C 480.178,791.67 479.011,791.337 478,790.5C 476.444,787.934 474.944,785.268 473.5,782.5C 469.172,779.185 466.338,774.852 465,769.5C 463.933,768.809 462.766,768.309 461.5,768C 460.745,765.867 459.412,764.2 457.5,763C 458.337,761.989 458.67,760.822 458.5,759.5C 457.448,759.649 456.448,759.483 455.5,759C 448.593,750.432 442.093,741.599 436,732.5C 436.209,728.541 434.375,726.874 430.5,727.5C 430.011,723.326 428.011,720.159 424.5,718C 425.451,717.282 425.617,716.449 425,715.5C 423.667,714.833 422.333,714.167 421,713.5C 419.582,708.319 416.916,703.985 413,700.5C 412.51,699.207 412.343,697.873 412.5,696.5C 409.376,696.057 407.043,694.39 405.5,691.5C 403.949,688.641 402.949,685.641 402.5,682.5C 398.11,681.74 395.777,679.073 395.5,674.5 Z"/></g>
<g><path style="opacity:1" fill="#67f54b" d="M 851.5,455.5 C 845.517,453.464 839.35,452.13 833,451.5C 826.518,452.276 820.351,453.943 814.5,456.5C 818.115,453.748 822.115,451.581 826.5,450C 830.833,449.333 835.167,449.333 839.5,450C 843.848,451.379 847.848,453.213 851.5,455.5 Z"/></g>
<g><path style="opacity:1" fill="#65f749" d="M 885.5,486.5 C 890.003,489.729 894.003,493.395 897.5,497.5C 896.448,497.649 895.448,497.483 894.5,497C 893.421,494.957 891.754,493.624 889.5,493C 887.077,491.429 885.744,489.263 885.5,486.5 Z"/></g>
<g><path style="opacity:1" fill="#d6d9d5" d="M 798.5,471.5 C 794.568,476.607 790.401,481.607 786,486.5C 763.3,510.698 740.467,534.698 717.5,558.5C 716.504,558.586 715.671,558.252 715,557.5C 710.459,562.183 705.625,566.516 700.5,570.5C 700.369,569.761 700.536,569.094 701,568.5C 705.66,564.84 709.993,560.84 714,556.5C 714.333,555.167 714.667,553.833 715,552.5C 718.195,551.149 720.028,548.815 720.5,545.5C 721.833,545.5 723.167,545.5 724.5,545.5C 724.351,544.448 724.517,543.448 725,542.5C 728,539.833 731,537.167 734,534.5C 736.227,529.934 739.56,526.268 744,523.5C 744.483,522.552 744.649,521.552 744.5,520.5C 746.905,519.313 749.239,517.813 751.5,516C 757.167,509.167 762.833,502.333 768.5,495.5C 772.268,492.57 775.435,489.236 778,485.5C 783.067,481.582 787.9,477.582 792.5,473.5C 793.209,474.404 794.209,474.737 795.5,474.5C 795.5,473.5 795.5,472.5 795.5,471.5C 796.5,471.5 797.5,471.5 798.5,471.5 Z"/></g>
<g><path style="opacity:1" fill="#c4c6cf" d="M 697.5,506.5 C 709.167,506.5 720.833,506.5 732.5,506.5C 732.5,510.167 732.5,513.833 732.5,517.5C 720.833,517.5 709.167,517.5 697.5,517.5C 697.5,513.833 697.5,510.167 697.5,506.5 Z"/></g>
<g><path style="opacity:1" fill="#808080" d="M 917.5,517.5 C 918.833,518.5 920.167,519.5 921.5,520.5C 960.268,554.208 977.102,597.208 972,649.5C 970.637,657.814 969.47,666.147 968.5,674.5C 925.5,674.5 882.5,674.5 839.5,674.5C 840.964,660.175 838.964,646.509 833.5,633.5C 833.5,632.5 833.5,631.5 833.5,630.5C 846.541,617.794 858.874,604.46 870.5,590.5C 887.321,574.687 902.655,557.687 916.5,539.5C 919.867,532.187 920.2,524.854 917.5,517.5 Z"/></g>
<g><path style="opacity:1" fill="#c4c5cf" d="M 33.5,522.5 C 46.9202,529.422 61.2535,532.089 76.5,530.5C 76.5,538.5 76.5,546.5 76.5,554.5C 60.8333,554.5 45.1667,554.5 29.5,554.5C 29.5,550.833 29.5,547.167 29.5,543.5C 29.8296,536.19 31.163,529.19 33.5,522.5 Z"/></g>
<g><path style="opacity:1" fill="#d5d8d4" d="M 910.5,513.5 C 911.712,514.23 912.712,515.23 913.5,516.5C 915.297,515.068 916.63,515.401 917.5,517.5C 920.2,524.854 919.867,532.187 916.5,539.5C 902.655,557.687 887.321,574.687 870.5,590.5C 872.167,586.833 871.167,585.833 867.5,587.5C 867.833,586.833 868.167,586.167 868.5,585.5C 880.439,573.392 892.272,561.059 904,548.5C 912.637,538.119 914.803,526.453 910.5,513.5 Z"/></g>
<g><path style="opacity:1" fill="#68f64c" d="M 868.5,585.5 C 868.167,586.167 867.833,586.833 867.5,587.5C 863.527,592.14 859.194,596.473 854.5,600.5C 857.783,594.217 862.45,589.217 868.5,585.5 Z"/></g>
<g><path style="opacity:0.853" fill="#fefefe" d="M 345.5,649.5 C 345.833,650.833 346.167,650.833 346.5,649.5C 347.885,650.302 347.718,650.969 346,651.5C 343.547,650.507 341.047,650.34 338.5,651C 339.711,651.893 339.711,652.726 338.5,653.5C 336.35,655.982 333.683,657.648 330.5,658.5C 323.381,621.246 300.548,601.246 262,598.5C 228.534,600.304 206.201,616.971 195,648.5C 187.602,683.225 199.102,710.058 229.5,729C 240.961,735.597 253.294,738.097 266.5,736.5C 267.968,739.278 268.801,742.278 269,745.5C 269.333,745.167 269.667,744.833 270,744.5C 271.683,747.592 273.516,750.592 275.5,753.5C 276.5,754 277.5,754.5 278.5,755C 277.549,755.718 277.383,756.551 278,757.5C 280.333,759.157 282.333,761.157 284,763.5C 284.684,764.784 284.517,765.951 283.5,767C 284.833,767.333 286.167,767.667 287.5,768C 287.665,769.117 287.998,770.284 288.5,771.5C 289.325,772.386 290.325,772.719 291.5,772.5C 291.5,773.833 291.5,775.167 291.5,776.5C 292.5,776.5 293.5,776.5 294.5,776.5C 293.843,779.841 295.176,781.841 298.5,782.5C 298.167,783.167 297.833,783.833 297.5,784.5C 300.522,785.004 301.689,786.671 301,789.5C 300.617,788.944 300.117,788.611 299.5,788.5C 297.735,785.971 295.735,783.638 293.5,781.5C 292.571,780.311 292.238,778.978 292.5,777.5C 291.5,777.5 290.5,777.5 289.5,777.5C 289.762,776.022 289.429,774.689 288.5,773.5C 282.464,766.033 276.63,758.366 271,750.5C 270.51,749.207 270.343,747.873 270.5,746.5C 269.5,746.5 268.5,746.5 267.5,746.5C 267.5,745.167 267.5,743.833 267.5,742.5C 231.906,743.377 206.739,727.71 192,695.5C 180.808,660.755 188.974,631.588 216.5,608C 239.098,592.543 263.431,589.21 289.5,598C 314.015,608.856 329.515,627.356 336,653.5C 337.188,652.437 337.688,651.103 337.5,649.5C 340.167,649.5 342.833,649.5 345.5,649.5 Z"/></g>
<g><path style="opacity:1" fill="#b9b9b9" d="M 870.5,590.5 C 858.874,604.46 846.541,617.794 833.5,630.5C 833.062,630.565 832.728,630.399 832.5,630C 845.083,616.587 857.749,603.421 870.5,590.5 Z"/></g>
<g><path style="opacity:1" fill="#353535" d="M 330.5,658.5 C 326.603,662.46 322.269,665.96 317.5,669C 316.234,669.309 315.067,669.809 314,670.5C 313.601,670.272 313.435,669.938 313.5,669.5C 313.027,647.549 303.027,631.716 283.5,622C 257.031,612.38 235.531,618.88 219,641.5C 207.849,662.906 209.516,683.24 224,702.5C 234.731,713.781 247.898,719.448 263.5,719.5C 263.833,719.5 264.167,719.5 264.5,719.5C 264.126,725.389 264.793,731.055 266.5,736.5C 253.294,738.097 240.961,735.597 229.5,729C 199.102,710.058 187.602,683.225 195,648.5C 206.201,616.971 228.534,600.304 262,598.5C 300.548,601.246 323.381,621.246 330.5,658.5 Z"/></g>
<g><path style="opacity:1" fill="#65f749" d="M 679.5,600.5 C 676.217,606.783 671.55,611.783 665.5,615.5C 670.195,610.474 674.861,605.474 679.5,600.5 Z"/></g>
<g><path style="opacity:1" fill="#fdfdfd" d="M 313.5,669.5 C 312.766,670.878 312.099,672.378 311.5,674C 299.446,681.75 287.779,690.084 276.5,699C 273.731,701.321 271.564,704.154 270,707.5C 269.667,707.167 269.333,706.833 269,706.5C 267.464,710.346 266.631,714.346 266.5,718.5C 265.209,718.263 264.209,718.596 263.5,719.5C 247.898,719.448 234.731,713.781 224,702.5C 209.516,683.24 207.849,662.906 219,641.5C 235.531,618.88 257.031,612.38 283.5,622C 303.027,631.716 313.027,647.549 313.5,669.5 Z"/></g>
<g><path style="opacity:1" fill="#69f64e" d="M 665.5,615.5 C 662.616,621.389 658.283,626.055 652.5,629.5C 656.378,624.411 660.711,619.745 665.5,615.5 Z"/></g>
<g><path style="opacity:1" fill="#63f847" d="M 831.5,625.5 C 822.172,636.161 812.505,646.494 802.5,656.5C 802.351,655.448 802.517,654.448 803,653.5C 811.673,644.827 820.006,635.827 828,626.5C 829.011,625.663 830.178,625.33 831.5,625.5 Z"/></g>
<g><path style="opacity:0.863" fill="#fefefe" d="M 824.5,643.5 C 820.451,648.705 816.284,653.705 812,658.5C 813.921,695.854 798.088,722.354 764.5,738C 753.845,741.926 742.845,743.426 731.5,742.5C 731.5,743.5 731.5,744.5 731.5,745.5C 728.112,745.874 726.278,747.874 726,751.5C 724.933,752.191 723.766,752.691 722.5,753C 718.234,758.701 713.4,763.868 708,768.5C 706.991,770.025 706.491,771.692 706.5,773.5C 705.167,773.5 703.833,773.5 702.5,773.5C 702.5,774.833 702.5,776.167 702.5,777.5C 699.478,777.342 697.478,778.675 696.5,781.5C 695.427,780.749 695.26,779.749 696,778.5C 697,777.5 698,776.5 699,775.5C 699.667,776.833 700.333,776.833 701,775.5C 701.219,774.062 701.719,772.729 702.5,771.5C 704.936,772.891 705.602,772.391 704.5,770C 705.743,768.846 706.743,767.512 707.5,766C 708.448,765.517 709.448,765.351 710.5,765.5C 710.284,763.319 711.117,761.653 713,760.5C 713.333,760.833 713.667,761.167 714,761.5C 716.144,757.698 718.644,754.198 721.5,751C 722.449,750.383 723.282,750.549 724,751.5C 728.252,746.597 731.752,741.597 734.5,736.5C 735.167,736.5 735.833,736.5 736.5,736.5C 770.974,734.874 793.474,717.541 804,684.5C 805.635,677.173 806.135,669.84 805.5,662.5C 805.5,661.833 805.5,661.167 805.5,660.5C 811.763,655.061 817.929,648.728 824,641.5C 824.464,642.094 824.631,642.761 824.5,643.5 Z"/></g>
<g><path style="opacity:1" fill="#6af54f" d="M 641.5,641.5 C 637.882,648.118 632.882,653.452 626.5,657.5C 630.795,651.537 635.795,646.204 641.5,641.5 Z"/></g>
<g><path style="opacity:1" fill="#353535" d="M 805.5,662.5 C 806.135,669.84 805.635,677.173 804,684.5C 793.474,717.541 770.974,734.874 736.5,736.5C 739.524,732.482 742.524,728.482 745.5,724.5C 748.843,722.153 751.843,719.487 754.5,716.5C 755.492,716.672 756.158,716.338 756.5,715.5C 771.328,710.005 780.995,699.671 785.5,684.5C 786.345,683.329 787.011,681.995 787.5,680.5C 793.14,674.194 799.14,668.194 805.5,662.5 Z"/></g>
<g><path style="opacity:1" fill="#8b8b8b" d="M 805.5,660.5 C 805.5,661.167 805.5,661.833 805.5,662.5C 799.14,668.194 793.14,674.194 787.5,680.5C 792.396,672.933 798.396,666.266 805.5,660.5 Z"/></g>
<g><path style="opacity:0.749" fill="#edf0ed" d="M 717.5,558.5 C 705.175,572.825 692.508,586.825 679.5,600.5C 674.861,605.474 670.195,610.474 665.5,615.5C 660.711,619.745 656.378,624.411 652.5,629.5C 648.377,633.079 644.71,637.079 641.5,641.5C 635.795,646.204 630.795,651.537 626.5,657.5C 620.795,662.204 615.795,667.537 611.5,673.5C 606.46,677.539 602.127,682.206 598.5,687.5C 564.256,723.917 530.089,760.584 496,797.5C 492.3,801.535 488.3,805.202 484,808.5C 482.488,807.743 481.154,806.743 480,805.5C 448.089,762.01 416.422,718.344 385,674.5C 381.164,669.632 376.997,665.132 372.5,661C 361.511,654.579 350.178,653.912 338.5,659C 320.65,672.03 302.983,685.197 285.5,698.5C 280.113,701.554 276.113,705.887 273.5,711.5C 272.659,713.812 271.659,716.145 270.5,718.5C 268.306,720.221 267.139,722.555 267,725.5C 266.998,722.949 266.164,720.949 264.5,719.5C 264.167,719.5 263.833,719.5 263.5,719.5C 264.209,718.596 265.209,718.263 266.5,718.5C 266.631,714.346 267.464,710.346 269,706.5C 269.333,706.833 269.667,707.167 270,707.5C 271.564,704.154 273.731,701.321 276.5,699C 287.779,690.084 299.446,681.75 311.5,674C 312.099,672.378 312.766,670.878 313.5,669.5C 313.435,669.938 313.601,670.272 314,670.5C 315.067,669.809 316.234,669.309 317.5,669C 322.269,665.96 326.603,662.46 330.5,658.5C 333.683,657.648 336.35,655.982 338.5,653.5C 339.711,652.726 339.711,651.893 338.5,651C 341.047,650.34 343.547,650.507 346,651.5C 347.718,650.969 347.885,650.302 346.5,649.5C 346.167,649.5 345.833,649.5 345.5,649.5C 345.147,647.365 345.98,646.032 348,645.5C 352.946,647.589 358.113,648.589 363.5,648.5C 364.11,649.391 364.443,650.391 364.5,651.5C 364.369,652.376 364.702,653.043 365.5,653.5C 370.857,655.841 375.857,658.674 380.5,662C 382.758,664.585 384.591,667.418 386,670.5C 387.451,672.464 389.284,673.797 391.5,674.5C 392.833,674.5 394.167,674.5 395.5,674.5C 395.777,679.073 398.11,681.74 402.5,682.5C 402.949,685.641 403.949,688.641 405.5,691.5C 407.043,694.39 409.376,696.057 412.5,696.5C 412.343,697.873 412.51,699.207 413,700.5C 416.916,703.985 419.582,708.319 421,713.5C 422.333,714.167 423.667,714.833 425,715.5C 425.617,716.449 425.451,717.282 424.5,718C 428.011,720.159 430.011,723.326 430.5,727.5C 434.375,726.874 436.209,728.541 436,732.5C 442.093,741.599 448.593,750.432 455.5,759C 456.448,759.483 457.448,759.649 458.5,759.5C 458.67,760.822 458.337,761.989 457.5,763C 459.412,764.2 460.745,765.867 461.5,768C 462.766,768.309 463.933,768.809 465,769.5C 466.338,774.852 469.172,779.185 473.5,782.5C 474.944,785.268 476.444,787.934 478,790.5C 479.011,791.337 480.178,791.67 481.5,791.5C 482.036,794.555 482.869,797.555 484,800.5C 484.333,799.167 484.667,797.833 485,796.5C 485.667,797.833 486.333,797.833 487,796.5C 487.49,795.207 487.657,793.873 487.5,792.5C 489.167,792.5 490.833,792.5 492.5,792.5C 492.833,790.5 493.167,788.5 493.5,786.5C 496.91,786.616 498.244,784.95 497.5,781.5C 502.212,779.959 505.545,776.792 507.5,772C 508.449,771.383 509.282,771.549 510,772.5C 510.536,770.131 511.703,768.131 513.5,766.5C 518.777,760.955 524.277,755.621 530,750.5C 531.411,748.35 532.245,746.016 532.5,743.5C 535.168,743.334 537.502,742.334 539.5,740.5C 540.435,737.898 542.102,735.898 544.5,734.5C 545.429,733.311 545.762,731.978 545.5,730.5C 546.873,730.657 548.207,730.49 549.5,730C 550.364,726.641 552.364,724.474 555.5,723.5C 555.5,722.167 555.5,720.833 555.5,719.5C 558.95,720.244 560.616,718.91 560.5,715.5C 561.552,715.649 562.552,715.483 563.5,715C 563.167,714.667 562.833,714.333 562.5,714C 565.035,713.072 566.035,711.238 565.5,708.5C 566.833,708.5 568.167,708.5 569.5,708.5C 569.5,707.5 569.5,706.5 569.5,705.5C 573.1,704.68 575.1,702.347 575.5,698.5C 576.5,698.5 577.5,698.5 578.5,698.5C 578.351,697.448 578.517,696.448 579,695.5C 580.892,694.87 582.559,693.87 584,692.5C 584.112,689.553 585.612,688.22 588.5,688.5C 587.833,684.5 589.5,682.833 593.5,683.5C 593.833,681.5 594.167,679.5 594.5,677.5C 595.833,677.5 597.167,677.5 598.5,677.5C 598.5,676.5 598.5,675.5 598.5,674.5C 605.912,673.282 611.245,669.116 614.5,662C 619.043,659.491 622.543,655.991 625,651.5C 631.752,646.695 636.252,640.362 638.5,632.5C 639.5,632.5 640.5,632.5 641.5,632.5C 641.343,631.127 641.51,629.793 642,628.5C 645.195,627.149 647.028,624.815 647.5,621.5C 648.833,621.5 650.167,621.5 651.5,621.5C 651.343,620.127 651.51,618.793 652,617.5C 655.195,616.149 657.028,613.815 657.5,610.5C 658.833,610.5 660.167,610.5 661.5,610.5C 661.5,609.167 661.5,607.833 661.5,606.5C 662.833,606.5 664.167,606.5 665.5,606.5C 665.324,602.808 666.991,600.808 670.5,600.5C 670.5,599.167 670.5,597.833 670.5,596.5C 674.29,597.047 676.29,595.38 676.5,591.5C 679.342,590.996 680.675,589.329 680.5,586.5C 684.1,585.68 686.1,583.347 686.5,579.5C 687.5,579.5 688.5,579.5 689.5,579.5C 689.5,578.167 689.5,576.833 689.5,575.5C 689.833,575.5 690.167,575.5 690.5,575.5C 692.38,575.771 693.713,575.104 694.5,573.5C 696.181,571.992 698.181,570.992 700.5,570.5C 705.625,566.516 710.459,562.183 715,557.5C 715.671,558.252 716.504,558.586 717.5,558.5 Z M 395.5,674.5 C 463.167,674.5 530.833,674.5 598.5,674.5C 598.5,675.5 598.5,676.5 598.5,677.5C 597.167,677.5 595.833,677.5 594.5,677.5C 594.167,679.5 593.833,681.5 593.5,683.5C 589.5,682.833 587.833,684.5 588.5,688.5C 585.612,688.22 584.112,689.553 584,692.5C 582.559,693.87 580.892,694.87 579,695.5C 578.517,696.448 578.351,697.448 578.5,698.5C 577.5,698.5 576.5,698.5 575.5,698.5C 575.1,702.347 573.1,704.68 569.5,705.5C 569.5,706.5 569.5,707.5 569.5,708.5C 568.167,708.5 566.833,708.5 565.5,708.5C 566.035,711.238 565.035,713.072 562.5,714C 562.833,714.333 563.167,714.667 563.5,715C 562.552,715.483 561.552,715.649 560.5,715.5C 560.616,718.91 558.95,720.244 555.5,719.5C 555.5,720.833 555.5,722.167 555.5,723.5C 552.364,724.474 550.364,726.641 549.5,730C 548.207,730.49 546.873,730.657 545.5,730.5C 545.762,731.978 545.429,733.311 544.5,734.5C 542.102,735.898 540.435,737.898 539.5,740.5C 537.502,742.334 535.168,743.334 532.5,743.5C 532.245,746.016 531.411,748.35 530,750.5C 524.277,755.621 518.777,760.955 513.5,766.5C 511.703,768.131 510.536,770.131 510,772.5C 509.282,771.549 508.449,771.383 507.5,772C 505.545,776.792 502.212,779.959 497.5,781.5C 498.244,784.95 496.91,786.616 493.5,786.5C 493.167,788.5 492.833,790.5 492.5,792.5C 490.833,792.5 489.167,792.5 487.5,792.5C 487.657,793.873 487.49,795.207 487,796.5C 486.333,797.833 485.667,797.833 485,796.5C 484.667,797.833 484.333,799.167 484,800.5C 482.869,797.555 482.036,794.555 481.5,791.5C 480.178,791.67 479.011,791.337 478,790.5C 476.444,787.934 474.944,785.268 473.5,782.5C 469.172,779.185 466.338,774.852 465,769.5C 463.933,768.809 462.766,768.309 461.5,768C 460.745,765.867 459.412,764.2 457.5,763C 458.337,761.989 458.67,760.822 458.5,759.5C 457.448,759.649 456.448,759.483 455.5,759C 448.593,750.432 442.093,741.599 436,732.5C 436.209,728.541 434.375,726.874 430.5,727.5C 430.011,723.326 428.011,720.159 424.5,718C 425.451,717.282 425.617,716.449 425,715.5C 423.667,714.833 422.333,714.167 421,713.5C 419.582,708.319 416.916,703.985 413,700.5C 412.51,699.207 412.343,697.873 412.5,696.5C 409.376,696.057 407.043,694.39 405.5,691.5C 403.949,688.641 402.949,685.641 402.5,682.5C 398.11,681.74 395.777,679.073 395.5,674.5 Z"/></g>
<g><path style="opacity:1" fill="#b6b6b6" d="M 364.5,651.5 C 365.978,651.238 367.311,651.571 368.5,652.5C 373.245,654.862 377.579,657.695 381.5,661C 384.749,665.647 388.082,670.147 391.5,674.5C 389.284,673.797 387.451,672.464 386,670.5C 384.591,667.418 382.758,664.585 380.5,662C 375.857,658.674 370.857,655.841 365.5,653.5C 364.702,653.043 364.369,652.376 364.5,651.5 Z"/></g>
<g><path style="opacity:1" fill="#e7eae7" d="M 870.5,590.5 C 857.749,603.421 845.083,616.587 832.5,630C 832.728,630.399 833.062,630.565 833.5,630.5C 833.5,631.5 833.5,632.5 833.5,633.5C 833.649,634.552 833.483,635.552 833,636.5C 829.724,637.727 827.891,640.06 827.5,643.5C 826.5,643.5 825.5,643.5 824.5,643.5C 824.631,642.761 824.464,642.094 824,641.5C 817.929,648.728 811.763,655.061 805.5,660.5C 798.396,666.266 792.396,672.933 787.5,680.5C 787.011,681.995 786.345,683.329 785.5,684.5C 785.631,683.761 785.464,683.094 785,682.5C 774.477,693.089 764.31,703.922 754.5,715C 755.094,715.464 755.761,715.631 756.5,715.5C 756.158,716.338 755.492,716.672 754.5,716.5C 750.51,718.163 747.51,720.829 745.5,724.5C 741.124,727.874 737.458,731.874 734.5,736.5C 733.735,736.077 732.902,735.743 732,735.5C 730.493,736.555 728.993,737.555 727.5,738.5C 742.897,721.443 758.23,704.443 773.5,687.5C 778.298,683.214 782.631,678.547 786.5,673.5C 792.519,668.448 797.852,662.781 802.5,656.5C 812.505,646.494 822.172,636.161 831.5,625.5C 839.507,617.493 847.173,609.159 854.5,600.5C 859.194,596.473 863.527,592.14 867.5,587.5C 871.167,585.833 872.167,586.833 870.5,590.5 Z"/></g>
<g><path style="opacity:1" fill="#66f64a" d="M 611.5,673.5 C 608.854,679.673 604.52,684.34 598.5,687.5C 602.127,682.206 606.46,677.539 611.5,673.5 Z"/></g>
<g><path style="opacity:1" fill="#65f74a" d="M 786.5,673.5 C 782.631,678.547 778.298,683.214 773.5,687.5C 773.351,686.448 773.517,685.448 774,684.5C 777.761,680.23 781.928,676.563 786.5,673.5 Z"/></g>
<g><path style="opacity:1" fill="#f8f8f8" d="M 785.5,684.5 C 780.995,699.671 771.328,710.005 756.5,715.5C 755.761,715.631 755.094,715.464 754.5,715C 764.31,703.922 774.477,693.089 785,682.5C 785.464,683.094 785.631,683.761 785.5,684.5 Z"/></g>
<g><path style="opacity:1" fill="#65f849" d="M 285.5,698.5 C 282.198,703.403 278.198,707.736 273.5,711.5C 276.113,705.887 280.113,701.554 285.5,698.5 Z"/></g>
<g><path style="opacity:1" fill="#878787" d="M 754.5,716.5 C 751.843,719.487 748.843,722.153 745.5,724.5C 747.51,720.829 750.51,718.163 754.5,716.5 Z"/></g>
<g><path style="opacity:1" fill="#c0c2bf" d="M 270.5,718.5 C 270.5,722.5 270.5,726.5 270.5,730.5C 269.5,730.5 268.5,730.5 267.5,730.5C 267.795,732.735 267.461,734.735 266.5,736.5C 264.793,731.055 264.126,725.389 264.5,719.5C 266.164,720.949 266.998,722.949 267,725.5C 267.139,722.555 268.306,720.221 270.5,718.5 Z"/></g>
<g><path style="opacity:1" fill="#8d8d8d" d="M 745.5,724.5 C 742.524,728.482 739.524,732.482 736.5,736.5C 735.833,736.5 735.167,736.5 734.5,736.5C 737.458,731.874 741.124,727.874 745.5,724.5 Z"/></g>
<g><path style="opacity:0.755" fill="#f0f2f0" d="M 270.5,730.5 C 271.425,735.542 273.258,740.209 276,744.5C 280.03,750.02 284.197,755.353 288.5,760.5C 336.115,826.622 383.948,892.622 432,958.5C 439.779,969.458 449.945,977.125 462.5,981.5C 466.192,983.933 470.359,984.933 475,984.5C 490.115,984.441 502.615,978.774 512.5,967.5C 577.618,898.389 642.284,829.056 706.5,759.5C 710.65,755.806 714.316,751.806 717.5,747.5C 720.833,744.5 724.167,741.5 727.5,738.5C 728.993,737.555 730.493,736.555 732,735.5C 732.902,735.743 733.735,736.077 734.5,736.5C 731.752,741.597 728.252,746.597 724,751.5C 723.282,750.549 722.449,750.383 721.5,751C 718.644,754.198 716.144,757.698 714,761.5C 713.667,761.167 713.333,760.833 713,760.5C 711.117,761.653 710.284,763.319 710.5,765.5C 709.448,765.351 708.448,765.517 707.5,766C 706.743,767.512 705.743,768.846 704.5,770C 705.602,772.391 704.936,772.891 702.5,771.5C 701.719,772.729 701.219,774.062 701,775.5C 700.333,776.833 699.667,776.833 699,775.5C 698,776.5 697,777.5 696,778.5C 695.26,779.749 695.427,780.749 696.5,781.5C 695.297,783.395 694.131,785.395 693,787.5C 691.491,788.09 689.991,788.756 688.5,789.5C 688.322,792.804 686.656,794.471 683.5,794.5C 683.5,795.833 683.5,797.167 683.5,798.5C 682.127,798.343 680.793,798.51 679.5,799C 675.52,804.458 671.187,809.625 666.5,814.5C 665.675,815.386 664.675,815.719 663.5,815.5C 663.5,816.833 663.5,818.167 663.5,819.5C 660.103,820.568 658.103,822.901 657.5,826.5C 655.42,827.044 653.42,827.878 651.5,829C 650.423,832.413 648.256,834.913 645,836.5C 644.517,837.448 644.351,838.448 644.5,839.5C 641.612,839.22 640.112,840.553 640,843.5C 636.724,844.727 634.891,847.06 634.5,850.5C 633.167,850.5 631.833,850.5 630.5,850.5C 630.649,851.552 630.483,852.552 630,853.5C 626.983,855.342 625.483,858.009 625.5,861.5C 622.618,861.608 620.285,862.774 618.5,865C 617.363,867.457 615.863,869.624 614,871.5C 613.333,870.167 612.667,870.167 612,871.5C 611.693,874.876 609.86,876.21 606.5,875.5C 606.849,878.99 605.349,881.323 602,882.5C 601.51,883.793 601.343,885.127 601.5,886.5C 597.735,886.676 595.735,888.676 595.5,892.5C 594.5,892.5 593.5,892.5 592.5,892.5C 593.041,896.295 591.375,898.295 587.5,898.5C 586.96,899.748 586.293,900.915 585.5,902C 579.742,905.648 575.075,910.481 571.5,916.5C 570.675,917.386 569.675,917.719 568.5,917.5C 568.1,921.347 566.1,923.68 562.5,924.5C 562.5,925.5 562.5,926.5 562.5,927.5C 561.448,927.351 560.448,927.517 559.5,928C 558.257,930.116 557.091,932.282 556,934.5C 550.81,936.516 547.643,940.183 546.5,945.5C 543.99,946.783 541.323,947.783 538.5,948.5C 538.762,949.978 538.429,951.311 537.5,952.5C 534.453,953.875 533.12,956.208 533.5,959.5C 532.167,959.5 530.833,959.5 529.5,959.5C 529.649,960.552 529.483,961.552 529,962.5C 525.763,964.231 523.93,966.898 523.5,970.5C 522.178,970.67 521.011,970.337 520,969.5C 519.51,970.793 519.343,972.127 519.5,973.5C 514.328,975.241 510.661,978.574 508.5,983.5C 506.473,983.338 504.473,983.505 502.5,984C 501.167,984.667 501.167,985.333 502.5,986C 500.059,986.036 498.059,986.869 496.5,988.5C 493.914,989.48 491.247,989.813 488.5,989.5C 488.5,990.833 488.5,992.167 488.5,993.5C 478.506,993.787 468.506,992.621 458.5,990C 457.953,989.075 457.287,988.242 456.5,987.5C 452.341,989.08 450.008,987.58 449.5,983C 447.527,982.505 445.527,982.338 443.5,982.5C 443.714,980.856 443.38,979.356 442.5,978C 438.886,978.034 436.553,976.367 435.5,973C 434.552,972.517 433.552,972.351 432.5,972.5C 433.244,969.05 431.91,967.384 428.5,967.5C 428.55,965.41 427.55,964.077 425.5,963.5C 424.548,961.955 424.215,960.288 424.5,958.5C 423.5,958.5 422.5,958.5 421.5,958.5C 418.203,953.008 415.203,947.341 412.5,941.5C 411.178,941.67 410.011,941.337 409,940.5C 407.839,937.733 406.673,935.067 405.5,932.5C 404.5,932.5 403.5,932.5 402.5,932.5C 402.5,930.833 402.5,929.167 402.5,927.5C 401.178,927.67 400.011,927.337 399,926.5C 397.038,923.205 394.705,920.205 392,917.5C 390.839,914.733 389.673,912.067 388.5,909.5C 387.5,909.5 386.5,909.5 385.5,909.5C 384.828,906.356 383.828,903.356 382.5,900.5C 378.657,900.809 377.324,899.309 378.5,896C 377.552,895.517 376.552,895.351 375.5,895.5C 374.828,892.356 373.828,889.356 372.5,886.5C 371.5,886.5 370.5,886.5 369.5,886.5C 369.762,885.022 369.429,883.689 368.5,882.5C 364.477,877.312 360.31,872.312 356,867.5C 353.36,863.738 351.193,859.738 349.5,855.5C 346.234,855.567 344.734,853.901 345,850.5C 343.333,848.833 341.667,847.167 340,845.5C 339.51,844.207 339.343,842.873 339.5,841.5C 338.5,841.5 337.5,841.5 336.5,841.5C 335.882,838.602 334.715,835.935 333,833.5C 331.989,832.663 330.822,832.33 329.5,832.5C 329.5,830.833 329.5,829.167 329.5,827.5C 328.178,827.67 327.011,827.337 326,826.5C 325.585,824.709 324.585,823.376 323,822.5C 322.51,821.207 322.343,819.873 322.5,818.5C 321.5,818.5 320.5,818.5 319.5,818.5C 319.5,817.167 319.5,815.833 319.5,814.5C 318.325,814.719 317.325,814.386 316.5,813.5C 313.59,809.399 311.256,805.066 309.5,800.5C 308.5,800.5 307.5,800.5 306.5,800.5C 305.882,797.602 304.715,794.935 303,792.5C 301.667,791.833 300.333,791.167 299,790.5C 298.308,789.563 298.475,788.897 299.5,788.5C 300.117,788.611 300.617,788.944 301,789.5C 301.689,786.671 300.522,785.004 297.5,784.5C 297.833,783.833 298.167,783.167 298.5,782.5C 295.176,781.841 293.843,779.841 294.5,776.5C 293.5,776.5 292.5,776.5 291.5,776.5C 291.5,775.167 291.5,773.833 291.5,772.5C 290.325,772.719 289.325,772.386 288.5,771.5C 287.998,770.284 287.665,769.117 287.5,768C 286.167,767.667 284.833,767.333 283.5,767C 284.517,765.951 284.684,764.784 284,763.5C 282.333,761.157 280.333,759.157 278,757.5C 277.383,756.551 277.549,755.718 278.5,755C 277.5,754.5 276.5,754 275.5,753.5C 273.516,750.592 271.683,747.592 270,744.5C 269.667,744.833 269.333,745.167 269,745.5C 268.801,742.278 267.968,739.278 266.5,736.5C 267.461,734.735 267.795,732.735 267.5,730.5C 268.5,730.5 269.5,730.5 270.5,730.5 Z"/></g>
<g><path style="opacity:1" fill="#5efa40" d="M 273.5,711.5 C 272.69,719.155 272.523,726.822 273,734.5C 277.182,742.686 282.182,750.352 288,757.5C 288.483,758.448 288.649,759.448 288.5,760.5C 284.197,755.353 280.03,750.02 276,744.5C 273.258,740.209 271.425,735.542 270.5,730.5C 270.5,726.5 270.5,722.5 270.5,718.5C 271.659,716.145 272.659,713.812 273.5,711.5 Z"/></g>
<g><path style="opacity:1" fill="#66f74a" d="M 717.5,747.5 C 714.316,751.806 710.65,755.806 706.5,759.5C 708.742,754.256 712.408,750.256 717.5,747.5 Z"/></g>
<g><path style="opacity:1" fill="#60f844" d="M 512.5,967.5 C 502.615,978.774 490.115,984.441 475,984.5C 470.359,984.933 466.192,983.933 462.5,981.5C 477.71,984.698 491.71,981.865 504.5,973C 506.546,970.097 509.213,968.264 512.5,967.5 Z"/></g>
</svg>
