<?xml version="1.0" encoding="UTF-8"?>
<!DOCTYPE svg PUBLIC "-//W3C//DTD SVG 1.1//EN" "http://www.w3.org/Graphics/SVG/1.1/DTD/svg11.dtd">
<svg xmlns="http://www.w3.org/2000/svg" version="1.1" width="1000px" height="1000px" style="shape-rendering:geometricPrecision; text-rendering:geometricPrecision; image-rendering:optimizeQuality; fill-rule:evenodd; clip-rule:evenodd" xmlns:xlink="http://www.w3.org/1999/xlink">
<g><path style="opacity:0.98" fill="#ce436a" d="M 919.5,519.5 C 913.642,519.178 907.975,519.511 902.5,520.5C 898.737,514.902 894.07,510.068 888.5,506C 878.916,500.292 869.416,494.459 860,488.5C 859.212,494.85 858.379,501.183 857.5,507.5C 815.833,507.5 774.167,507.5 732.5,507.5C 720.833,506.167 709.167,506.167 697.5,507.5C 477.833,507.5 258.167,507.5 38.5,507.5C 48.1521,489.352 62.4854,476.186 81.5,468C 91.004,463.667 100.671,459.834 110.5,456.5C 117.355,425.79 130.855,398.457 151,374.5C 183.787,336.338 223.621,307.838 270.5,289C 356.859,256.7 444.525,252.7 533.5,277C 582.74,291.327 626.407,315.327 664.5,349C 686.972,370.136 704.805,394.636 718,422.5C 721.878,432.299 725.045,442.299 727.5,452.5C 791.371,455.376 850.371,473.543 904.5,507C 909.571,511.185 914.571,515.352 919.5,519.5 Z M 400.5,310.5 C 469.027,307.133 533.027,322.3 592.5,356C 621.575,373.741 645.408,396.908 664,425.5C 669.114,433.895 673.281,442.728 676.5,452C 583.832,452.833 491.165,452.667 398.5,451.5C 380.572,407.147 362.239,362.98 343.5,319C 349.367,317.159 355.367,315.826 361.5,315C 374.649,313.487 387.649,311.987 400.5,310.5 Z M 294.5,332.5 C 296.686,333.823 298.186,335.823 299,338.5C 314.094,376.519 329.594,414.353 345.5,452C 284.5,452.667 223.5,452.667 162.5,452C 176.48,418.404 198.147,390.737 227.5,369C 248.39,354.221 270.724,342.054 294.5,332.5 Z"/></g>
<g><path style="opacity:1" fill="#faee5d" d="M 902.5,520.5 C 903.82,523.812 905.154,527.145 906.5,530.5C 906.333,530.833 906.167,531.167 906,531.5C 904.22,530.361 902.386,529.361 900.5,528.5C 885.654,523.421 870.321,520.921 854.5,521C 855.252,520.329 855.586,519.496 855.5,518.5C 856.008,514.803 856.674,511.136 857.5,507.5C 858.379,501.183 859.212,494.85 860,488.5C 869.416,494.459 878.916,500.292 888.5,506C 894.07,510.068 898.737,514.902 902.5,520.5 Z"/></g>
<g><path style="opacity:1" fill="#faf25c" d="M 732.5,507.5 C 732.5,510.833 732.5,514.167 732.5,517.5C 720.833,517.5 709.167,517.5 697.5,517.5C 697.5,514.167 697.5,510.833 697.5,507.5C 709.167,506.167 720.833,506.167 732.5,507.5 Z"/></g>
<g><path style="opacity:0.999" fill="#ca4269" d="M 38.5,507.5 C 258.167,507.5 477.833,507.5 697.5,507.5C 697.5,510.833 697.5,514.167 697.5,517.5C 709.167,517.5 720.833,517.5 732.5,517.5C 732.5,514.167 732.5,510.833 732.5,507.5C 774.167,507.5 815.833,507.5 857.5,507.5C 856.674,511.136 856.008,514.803 855.5,518.5C 581.903,519.499 308.236,519.832 34.5,519.5C 35.2702,515.297 36.6035,511.297 38.5,507.5 Z"/></g>
<g><path style="opacity:1" fill="#c44167" d="M 855.5,518.5 C 855.586,519.496 855.252,520.329 854.5,521C 870.321,520.921 885.654,523.421 900.5,528.5C 617.334,529.5 334,529.833 50.5,529.5C 44.063,528.913 38.3964,526.58 33.5,522.5C 33.2627,521.209 33.596,520.209 34.5,519.5C 308.236,519.832 581.903,519.499 855.5,518.5 Z"/></g>
<g><path style="opacity:1" fill="#f9ed5d" d="M 33.5,522.5 C 38.3964,526.58 44.063,528.913 50.5,529.5C 58.9329,531.246 67.5995,531.912 76.5,531.5C 76.5,533.5 76.5,535.5 76.5,537.5C 76.5,540.167 76.5,542.833 76.5,545.5C 76.5,548.5 76.5,551.5 76.5,554.5C 60.8333,554.5 45.1667,554.5 29.5,554.5C 29.5,550.833 29.5,547.167 29.5,543.5C 29.8296,536.19 31.163,529.19 33.5,522.5 Z"/></g>
<g><path style="opacity:0.999" fill="#be4065" d="M 919.5,519.5 C 926.521,524.521 932.521,530.521 937.5,537.5C 650.5,537.5 363.5,537.5 76.5,537.5C 76.5,535.5 76.5,533.5 76.5,531.5C 67.5995,531.912 58.9329,531.246 50.5,529.5C 334,529.833 617.334,529.5 900.5,528.5C 902.386,529.361 904.22,530.361 906,531.5C 906.167,531.167 906.333,530.833 906.5,530.5C 905.154,527.145 903.82,523.812 902.5,520.5C 907.975,519.511 913.642,519.178 919.5,519.5 Z"/></g>
<g><path style="opacity:0.999" fill="#b83f62" d="M 76.5,537.5 C 363.5,537.5 650.5,537.5 937.5,537.5C 940.55,539.549 942.883,542.216 944.5,545.5C 655.167,545.5 365.833,545.5 76.5,545.5C 76.5,542.833 76.5,540.167 76.5,537.5 Z"/></g>
<g><path style="opacity:0.999" fill="#b23d60" d="M 76.5,545.5 C 365.833,545.5 655.167,545.5 944.5,545.5C 947.277,547.951 949.277,550.951 950.5,554.5C 659.167,554.5 367.833,554.5 76.5,554.5C 76.5,551.5 76.5,548.5 76.5,545.5 Z"/></g>
<g><path style="opacity:0.998" fill="#ab3c5e" d="M 29.5,543.5 C 29.5,547.167 29.5,550.833 29.5,554.5C 45.1667,554.5 60.8333,554.5 76.5,554.5C 367.833,554.5 659.167,554.5 950.5,554.5C 952.4,556.619 954.066,558.953 955.5,561.5C 646.167,561.5 336.833,561.5 27.5,561.5C 27.5234,555.288 28.1901,549.288 29.5,543.5 Z"/></g>
<g><path style="opacity:0.98" fill="#a33a5b" d="M 27.5,561.5 C 336.833,561.5 646.167,561.5 955.5,561.5C 958.212,566.214 960.212,570.881 961.5,575.5C 902.5,575.5 843.5,575.5 784.5,575.5C 752.497,560.865 720.497,560.865 688.5,575.5C 562.167,575.5 435.833,575.5 309.5,575.5C 277.833,560.833 246.167,560.833 214.5,575.5C 152.167,575.5 89.8333,575.5 27.5,575.5C 27.5,570.833 27.5,566.167 27.5,561.5 Z"/></g>
<g><path style="opacity:0.993" fill="#943755" d="M 27.5,575.5 C 89.8333,575.5 152.167,575.5 214.5,575.5C 206.979,579.349 199.979,584.015 193.5,589.5C 138.167,589.5 82.8333,589.5 27.5,589.5C 27.5,584.833 27.5,580.167 27.5,575.5 Z"/></g>
<g><path style="opacity:0.993" fill="#943755" d="M 309.5,575.5 C 435.833,575.5 562.167,575.5 688.5,575.5C 680.992,579.419 673.992,584.086 667.5,589.5C 555.167,589.5 442.833,589.5 330.5,589.5C 324.021,584.015 317.021,579.349 309.5,575.5 Z"/></g>
<g><path style="opacity:0.988" fill="#943755" d="M 784.5,575.5 C 843.5,575.5 902.5,575.5 961.5,575.5C 963.677,580.013 965.677,584.68 967.5,589.5C 913.167,589.5 858.833,589.5 804.5,589.5C 798.146,584.328 791.479,579.662 784.5,575.5 Z"/></g>
<g><path style="opacity:0.994" fill="#8c3652" d="M 330.5,589.5 C 442.833,589.5 555.167,589.5 667.5,589.5C 665.833,591.833 663.833,593.833 661.5,595.5C 553.167,595.5 444.833,595.5 336.5,595.5C 334.5,593.5 332.5,591.5 330.5,589.5 Z"/></g>
<g><path style="opacity:0.904" fill="#fefefe" d="M 249.5,593.5 C 288.066,590.189 315.566,605.855 332,640.5C 343.769,678.526 333.603,709.026 301.5,732C 280.069,743.646 257.736,745.646 234.5,738C 209.086,726.913 193.586,707.746 188,680.5C 184.202,641.913 199.702,614.413 234.5,598C 239.577,596.32 244.577,594.82 249.5,593.5 Z"/></g>
<g><path style="opacity:0.904" fill="#fefefe" d="M 724.5,593.5 C 763.066,590.189 790.566,605.855 807,640.5C 818.769,678.526 808.603,709.026 776.5,732C 755.069,743.646 732.736,745.646 709.5,738C 684.086,726.913 668.586,707.746 663,680.5C 659.202,641.913 674.702,614.413 709.5,598C 714.577,596.32 719.577,594.82 724.5,593.5 Z"/></g>
<g><path style="opacity:0.992" fill="#883551" d="M 27.5,589.5 C 82.8333,589.5 138.167,589.5 193.5,589.5C 188.947,593.597 184.614,597.93 180.5,602.5C 129.5,602.5 78.5,602.5 27.5,602.5C 27.5,598.167 27.5,593.833 27.5,589.5 Z"/></g>
<g><path style="opacity:0.995" fill="#863450" d="M 336.5,595.5 C 444.833,595.5 553.167,595.5 661.5,595.5C 659.5,597.833 657.5,600.167 655.5,602.5C 551.167,602.5 446.833,602.5 342.5,602.5C 340.5,600.167 338.5,597.833 336.5,595.5 Z"/></g>
<g><path style="opacity:0.988" fill="#883551" d="M 804.5,589.5 C 858.833,589.5 913.167,589.5 967.5,589.5C 968.372,593.862 969.372,598.196 970.5,602.5C 919.5,602.5 868.5,602.5 817.5,602.5C 813.5,597.833 809.167,593.5 804.5,589.5 Z"/></g>
<g><path style="opacity:1" fill="#343434" d="M 254.5,598.5 C 297.119,598.141 322.619,618.475 331,659.5C 332.307,698.862 314.14,724.362 276.5,736C 234.552,740.377 207.052,722.544 194,682.5C 189.143,643.073 205.31,615.907 242.5,601C 246.637,600.161 250.637,599.327 254.5,598.5 Z"/></g>
<g><path style="opacity:1" fill="#343434" d="M 728.5,598.5 C 768.825,597.734 794.325,616.734 805,655.5C 808.694,685.944 797.861,709.778 772.5,727C 742.001,742.493 713.834,739.326 688,717.5C 665.367,692.302 661.367,664.302 676,633.5C 688.351,613.921 705.851,602.254 728.5,598.5 Z"/></g>
<g><path style="opacity:0.993" fill="#7e334d" d="M 27.5,602.5 C 78.5,602.5 129.5,602.5 180.5,602.5C 178.251,606.754 175.585,610.754 172.5,614.5C 124.167,614.5 75.8333,614.5 27.5,614.5C 27.5,610.5 27.5,606.5 27.5,602.5 Z"/></g>
<g><path style="opacity:0.994" fill="#7e334d" d="M 342.5,602.5 C 446.833,602.5 551.167,602.5 655.5,602.5C 652.337,606.156 649.671,610.156 647.5,614.5C 548.833,614.5 450.167,614.5 351.5,614.5C 348.531,610.524 345.531,606.524 342.5,602.5 Z"/></g>
<g><path style="opacity:0.988" fill="#80334e" d="M 817.5,602.5 C 868.5,602.5 919.5,602.5 970.5,602.5C 970.993,604.806 971.326,607.139 971.5,609.5C 921.833,609.5 872.167,609.5 822.5,609.5C 820.478,607.469 818.811,605.135 817.5,602.5 Z"/></g>
<g><path style="opacity:0.993" fill="#733049" d="M 351.5,614.5 C 450.167,614.5 548.833,614.5 647.5,614.5C 645.819,617.203 644.153,619.869 642.5,622.5C 546.833,622.5 451.167,622.5 355.5,622.5C 353.659,620.151 352.326,617.485 351.5,614.5 Z"/></g>
<g><path style="opacity:0.989" fill="#75314a" d="M 822.5,609.5 C 872.167,609.5 921.833,609.5 971.5,609.5C 972.373,613.768 972.706,618.102 972.5,622.5C 924.833,622.5 877.167,622.5 829.5,622.5C 827.423,618.012 825.09,613.679 822.5,609.5 Z"/></g>
<g><path style="opacity:1" fill="#fdfdfd" d="M 253.5,617.5 C 284.696,615.662 304.53,629.662 313,659.5C 315.37,691.29 301.204,711.124 270.5,719C 241.808,720.956 222.641,708.456 213,681.5C 208.469,648.567 221.969,627.234 253.5,617.5 Z"/></g>
<g><path style="opacity:1" fill="#fdfdfd" d="M 728.5,617.5 C 759.696,615.662 779.53,629.662 788,659.5C 790.37,691.29 776.204,711.124 745.5,719C 716.808,720.956 697.641,708.456 688,681.5C 683.469,648.567 696.969,627.234 728.5,617.5 Z"/></g>
<g><path style="opacity:0.993" fill="#6f2f48" d="M 27.5,614.5 C 75.8333,614.5 124.167,614.5 172.5,614.5C 170.134,619.232 167.801,623.899 165.5,628.5C 119.5,628.5 73.5,628.5 27.5,628.5C 27.5,623.833 27.5,619.167 27.5,614.5 Z"/></g>
<g><path style="opacity:0.994" fill="#6d2f47" d="M 355.5,622.5 C 451.167,622.5 546.833,622.5 642.5,622.5C 642.008,624.819 641.008,626.819 639.5,628.5C 545.833,628.5 452.167,628.5 358.5,628.5C 356.992,626.819 355.992,624.819 355.5,622.5 Z"/></g>
<g><path style="opacity:0.989" fill="#682d45" d="M 829.5,622.5 C 877.167,622.5 924.833,622.5 972.5,622.5C 972.5,627.167 972.5,631.833 972.5,636.5C 926.833,636.5 881.167,636.5 835.5,636.5C 833.537,631.897 831.537,627.23 829.5,622.5 Z"/></g>
<g><path style="opacity:0.994" fill="#622c43" d="M 27.5,628.5 C 73.5,628.5 119.5,628.5 165.5,628.5C 164.204,633.393 162.538,638.06 160.5,642.5C 116.167,642.5 71.8333,642.5 27.5,642.5C 27.5,637.833 27.5,633.167 27.5,628.5 Z"/></g>
<g><path style="opacity:0.994" fill="#622c43" d="M 358.5,628.5 C 452.167,628.5 545.833,628.5 639.5,628.5C 638.739,633.437 637.405,638.103 635.5,642.5C 544.5,642.5 453.5,642.5 362.5,642.5C 361.377,637.795 360.044,633.128 358.5,628.5 Z"/></g>
<g><path style="opacity:0.993" fill="#5a2a40" d="M 362.5,642.5 C 453.5,642.5 544.5,642.5 635.5,642.5C 635.326,644.861 634.993,647.194 634.5,649.5C 544.5,649.5 454.5,649.5 364.5,649.5C 363.388,647.401 362.721,645.067 362.5,642.5 Z"/></g>
<g><path style="opacity:0.988" fill="#5c2a40" d="M 835.5,636.5 C 881.167,636.5 926.833,636.5 972.5,636.5C 972.818,641.032 972.485,645.366 971.5,649.5C 927.167,649.5 882.833,649.5 838.5,649.5C 837.656,645.126 836.656,640.793 835.5,636.5 Z"/></g>
<g><path style="opacity:0.987" fill="#56293e" d="M 27.5,642.5 C 71.8333,642.5 116.167,642.5 160.5,642.5C 160.46,647.193 160.127,651.859 159.5,656.5C 115.5,656.5 71.5,656.5 27.5,656.5C 27.5,651.833 27.5,647.167 27.5,642.5 Z"/></g>
<g><path style="opacity:0.993" fill="#54283d" d="M 364.5,649.5 C 454.5,649.5 544.5,649.5 634.5,649.5C 634.007,651.806 633.674,654.139 633.5,656.5C 544.167,656.5 454.833,656.5 365.5,656.5C 364.532,654.393 364.198,652.059 364.5,649.5 Z"/></g>
<g><path style="opacity:0.985" fill="#4e263a" d="M 27.5,656.5 C 71.5,656.5 115.5,656.5 159.5,656.5C 158.908,659.127 158.575,661.794 158.5,664.5C 116.5,664.5 74.5,664.5 32.5,664.5C 30.347,662.206 28.6803,659.54 27.5,656.5 Z"/></g>
<g><path style="opacity:0.994" fill="#4e263a" d="M 365.5,656.5 C 454.833,656.5 544.167,656.5 633.5,656.5C 633.167,659.167 632.833,661.833 632.5,664.5C 543.5,664.5 454.5,664.5 365.5,664.5C 365.5,661.833 365.5,659.167 365.5,656.5 Z"/></g>
<g><path style="opacity:0.985" fill="#50273b" d="M 838.5,649.5 C 882.833,649.5 927.167,649.5 971.5,649.5C 971.569,654.613 970.903,659.613 969.5,664.5C 926.167,664.5 882.833,664.5 839.5,664.5C 839.726,659.438 839.392,654.438 838.5,649.5 Z"/></g>
<g><path style="opacity:0.979" fill="#462438" d="M 32.5,664.5 C 74.5,664.5 116.5,664.5 158.5,664.5C 158.5,667.833 158.5,671.167 158.5,674.5C 121.165,674.667 83.8318,674.5 46.5,674C 40.3352,672.996 35.6685,669.829 32.5,664.5 Z"/></g>
<g><path style="opacity:0.995" fill="#462438" d="M 365.5,664.5 C 454.5,664.5 543.5,664.5 632.5,664.5C 632.5,667.833 632.5,671.167 632.5,674.5C 543.5,674.5 454.5,674.5 365.5,674.5C 365.5,671.167 365.5,667.833 365.5,664.5 Z"/></g>
<g><path style="opacity:0.985" fill="#462438" d="M 839.5,664.5 C 882.833,664.5 926.167,664.5 969.5,664.5C 968.949,667.807 968.616,671.14 968.5,674.5C 925.5,674.5 882.5,674.5 839.5,674.5C 839.5,671.167 839.5,667.833 839.5,664.5 Z"/></g>
</svg>
