<?xml version="1.0" encoding="UTF-8"?>
<!DOCTYPE svg PUBLIC "-//W3C//DTD SVG 1.1//EN" "http://www.w3.org/Graphics/SVG/1.1/DTD/svg11.dtd">
<svg xmlns="http://www.w3.org/2000/svg" version="1.1" width="1000px" height="1000px" style="shape-rendering:geometricPrecision; text-rendering:geometricPrecision; image-rendering:optimizeQuality; fill-rule:evenodd; clip-rule:evenodd" xmlns:xlink="http://www.w3.org/1999/xlink">
<g><path style="opacity:1" fill="#7f7f7f" d="M 29.5,543.5 C 29.5,547.167 29.5,550.833 29.5,554.5C 45.1667,554.5 60.8333,554.5 76.5,554.5C 76.5,546.5 76.5,538.5 76.5,530.5C 61.2535,532.089 46.9202,529.422 33.5,522.5C 37.3956,505.752 46.0623,491.919 59.5,481C 75.4068,470.638 92.4068,462.471 110.5,456.5C 117.355,425.79 130.855,398.457 151,374.5C 183.787,336.338 223.621,307.838 270.5,289C 356.859,256.7 444.525,252.7 533.5,277C 582.74,291.327 626.407,315.327 664.5,349C 686.972,370.136 704.805,394.636 718,422.5C 721.878,432.299 725.045,442.299 727.5,452.5C 791.371,455.376 850.371,473.543 904.5,507C 962.187,548.139 983.52,603.972 968.5,674.5C 925.5,674.5 882.5,674.5 839.5,674.5C 840.483,626.682 819.483,592.515 776.5,572C 729.791,555.553 689.625,565.386 656,601.5C 639.672,622.987 631.839,647.32 632.5,674.5C 543.5,674.5 454.5,674.5 365.5,674.5C 365.445,619.64 339.445,583.807 287.5,567C 239.14,558.105 200.973,573.605 173,613.5C 161.78,632.295 156.946,652.629 158.5,674.5C 121.165,674.667 83.8318,674.5 46.5,674C 37.8542,671.358 31.6876,665.858 28,657.5C 27.3333,622.5 27.3333,587.5 28,552.5C 28.1805,549.305 28.6805,546.305 29.5,543.5 Z M 400.5,310.5 C 469.027,307.133 533.027,322.3 592.5,356C 621.575,373.741 645.408,396.908 664,425.5C 669.114,433.895 673.281,442.728 676.5,452C 583.832,452.833 491.165,452.667 398.5,451.5C 380.572,407.147 362.239,362.98 343.5,319C 349.367,317.159 355.367,315.826 361.5,315C 374.649,313.487 387.649,311.987 400.5,310.5 Z M 294.5,332.5 C 296.686,333.823 298.186,335.823 299,338.5C 314.094,376.519 329.594,414.353 345.5,452C 284.5,452.667 223.5,452.667 162.5,452C 176.48,418.404 198.147,390.737 227.5,369C 248.39,354.221 270.724,342.054 294.5,332.5 Z"/></g>
<g><path style="opacity:1" fill="#c4c6cf" d="M 859.5,488.5 C 871.276,494.557 882.609,501.39 893.5,509C 900.073,514.408 904.406,521.241 906.5,529.5C 906.167,530.167 905.833,530.833 905.5,531.5C 889.31,524.079 872.31,521.079 854.5,522.5C 856.545,511.182 858.212,499.849 859.5,488.5 Z"/></g>
<g><path style="opacity:1" fill="#c4c6cf" d="M 697.5,506.5 C 709.167,506.5 720.833,506.5 732.5,506.5C 732.5,510.167 732.5,513.833 732.5,517.5C 720.833,517.5 709.167,517.5 697.5,517.5C 697.5,513.833 697.5,510.167 697.5,506.5 Z"/></g>
<g><path style="opacity:1" fill="#c4c5cf" d="M 33.5,522.5 C 46.9202,529.422 61.2535,532.089 76.5,530.5C 76.5,538.5 76.5,546.5 76.5,554.5C 60.8333,554.5 45.1667,554.5 29.5,554.5C 29.5,550.833 29.5,547.167 29.5,543.5C 29.8296,536.19 31.163,529.19 33.5,522.5 Z"/></g>
<g><path style="opacity:0.904" fill="#fefefe" d="M 249.5,593.5 C 288.066,590.189 315.566,605.855 332,640.5C 343.769,678.526 333.603,709.026 301.5,732C 280.069,743.646 257.736,745.646 234.5,738C 209.086,726.913 193.586,707.746 188,680.5C 184.202,641.913 199.702,614.413 234.5,598C 239.577,596.32 244.577,594.82 249.5,593.5 Z"/></g>
<g><path style="opacity:0.904" fill="#fefefe" d="M 724.5,593.5 C 763.066,590.189 790.566,605.855 807,640.5C 818.769,678.526 808.603,709.026 776.5,732C 755.069,743.646 732.736,745.646 709.5,738C 684.086,726.913 668.586,707.746 663,680.5C 659.202,641.913 674.702,614.413 709.5,598C 714.577,596.32 719.577,594.82 724.5,593.5 Z"/></g>
<g><path style="opacity:1" fill="#343434" d="M 254.5,598.5 C 297.119,598.141 322.619,618.475 331,659.5C 332.307,698.862 314.14,724.362 276.5,736C 234.552,740.377 207.052,722.544 194,682.5C 189.143,643.073 205.31,615.907 242.5,601C 246.637,600.161 250.637,599.327 254.5,598.5 Z"/></g>
<g><path style="opacity:1" fill="#343434" d="M 728.5,598.5 C 768.825,597.734 794.325,616.734 805,655.5C 808.694,685.944 797.861,709.778 772.5,727C 742.001,742.493 713.834,739.326 688,717.5C 665.367,692.302 661.367,664.302 676,633.5C 688.351,613.921 705.851,602.254 728.5,598.5 Z"/></g>
<g><path style="opacity:1" fill="#fdfdfd" d="M 253.5,617.5 C 284.696,615.662 304.53,629.662 313,659.5C 315.37,691.29 301.204,711.124 270.5,719C 241.808,720.956 222.641,708.456 213,681.5C 208.469,648.567 221.969,627.234 253.5,617.5 Z"/></g>
<g><path style="opacity:1" fill="#fdfdfd" d="M 728.5,617.5 C 759.696,615.662 779.53,629.662 788,659.5C 790.37,691.29 776.204,711.124 745.5,719C 716.808,720.956 697.641,708.456 688,681.5C 683.469,648.567 696.969,627.234 728.5,617.5 Z"/></g>
</svg>
