<?xml version="1.0" encoding="UTF-8"?>
<!DOCTYPE svg PUBLIC "-//W3C//DTD SVG 1.1//EN" "http://www.w3.org/Graphics/SVG/1.1/DTD/svg11.dtd">
<svg xmlns="http://www.w3.org/2000/svg" version="1.1" width="1000px" height="1000px" style="shape-rendering:geometricPrecision; text-rendering:geometricPrecision; image-rendering:optimizeQuality; fill-rule:evenodd; clip-rule:evenodd" xmlns:xlink="http://www.w3.org/1999/xlink">
<g><path style="opacity:0.999" fill="#7a9bfe" d="M 363.5,150.5 C 480.167,150.333 596.834,150.5 713.5,151C 724.496,155.836 731.662,164.002 735,175.5C 735.5,187.162 735.667,198.829 735.5,210.5C 747.88,210.13 760.214,210.63 772.5,212C 784.034,216.201 791.868,224.034 796,235.5C 796.5,348.833 796.667,462.166 796.5,575.5C 846.834,575.333 897.168,575.5 947.5,576C 961.225,579.391 970.058,587.891 974,601.5C 974.667,700.833 974.667,800.167 974,899.5C 970.167,912.667 961.667,921.167 948.5,925C 649.167,925.667 349.833,925.667 50.5,925C 37.3333,921.167 28.8333,912.667 25,899.5C 24.3333,800.167 24.3333,700.833 25,601.5C 28.9419,587.891 37.7752,579.391 51.5,576C 102.166,575.5 152.832,575.333 203.5,575.5C 203.333,490.499 203.5,405.499 204,320.5C 205.252,318.999 206.252,317.332 207,315.5C 259.343,260.657 311.51,205.657 363.5,150.5 Z"/></g>
<g><path style="opacity:1" fill="#fefffe" d="M 388.5,184.5 C 492.5,184.5 596.5,184.5 700.5,184.5C 700.5,314.833 700.5,445.167 700.5,575.5C 546.167,575.5 391.833,575.5 237.5,575.5C 237.5,498.167 237.5,420.833 237.5,343.5C 282.835,343.667 328.168,343.5 373.5,343C 380.318,341.674 385.152,337.84 388,331.5C 388.5,282.501 388.667,233.501 388.5,184.5 Z"/></g>
<g><path style="opacity:1" fill="#fefffe" d="M 353.5,209.5 C 353.18,241.964 353.513,274.631 354.5,307.5C 323.505,308.667 292.505,308.833 261.5,308C 292.372,275.297 323.038,242.464 353.5,209.5 Z"/></g>
<g><path style="opacity:1" fill="#fefffe" d="M 735.5,245.5 C 744.5,245.5 753.5,245.5 762.5,245.5C 762.5,355.5 762.5,465.5 762.5,575.5C 753.5,575.5 744.5,575.5 735.5,575.5C 735.5,465.5 735.5,355.5 735.5,245.5 Z"/></g>
<g><path style="opacity:1" fill="#7b9cff" d="M 464.5,309.5 C 504.168,309.333 543.835,309.5 583.5,310C 594.478,315.047 597.644,323.213 593,334.5C 589.878,338.969 585.712,341.802 580.5,343C 543.167,343.667 505.833,343.667 468.5,343C 453.936,338.305 450.102,329.138 457,315.5C 459.114,312.879 461.614,310.879 464.5,309.5 Z"/></g>
<g><path style="opacity:1" fill="#7b9cff" d="M 358.5,416.5 C 432.167,416.333 505.834,416.5 579.5,417C 594.407,421.313 598.574,430.48 592,444.5C 589.01,447.491 585.51,449.657 581.5,451C 506.5,451.667 431.5,451.667 356.5,451C 343.791,445.879 340.291,437.045 346,424.5C 349.586,420.714 353.753,418.047 358.5,416.5 Z"/></g>
<g><path style="opacity:1" fill="#7b9cff" d="M 355.5,525.5 C 431.501,525.333 507.501,525.5 583.5,526C 594.897,532.089 597.731,540.922 592,552.5C 589.441,555.531 586.274,557.698 582.5,559C 506.833,559.667 431.167,559.667 355.5,559C 342.887,552.93 340.054,543.763 347,531.5C 349.637,529.109 352.47,527.109 355.5,525.5 Z"/></g>
<g><path style="opacity:1" fill="#fefefe" d="M 74.5,625.5 C 357.833,625.5 641.167,625.5 924.5,625.5C 924.5,708.833 924.5,792.167 924.5,875.5C 641.167,875.5 357.833,875.5 74.5,875.5C 74.5,792.167 74.5,708.833 74.5,625.5 Z"/></g>
<g><path style="opacity:1" fill="#657fcc" d="M 549.5,674.5 C 552.223,675.352 554.89,676.519 557.5,678C 558.517,679.049 558.684,680.216 558,681.5C 527.167,731 496.333,780.5 465.5,830C 462.597,829.723 459.93,828.556 457.5,826.5C 456.417,825.635 456.251,824.635 457,823.5C 488.356,774.113 519.19,724.446 549.5,674.5 Z"/></g>
<g><path style="opacity:1" fill="#647ecc" d="M 345.5,700.5 C 363.17,700.333 380.836,700.5 398.5,701C 410.669,702.519 419.503,708.685 425,719.5C 426.942,734.784 421.442,746.617 408.5,755C 421.205,758.937 430.705,766.77 437,778.5C 442.156,796.364 437.323,810.864 422.5,822C 416.905,825.198 410.905,827.198 404.5,828C 385.792,827.844 367.125,827.677 348.5,827.5C 351.593,826.315 354.593,824.981 357.5,823.5C 358.866,820.308 359.699,816.974 360,813.5C 360.667,778.833 360.667,744.167 360,709.5C 359.727,707.671 358.893,706.171 357.5,705C 353.954,703.826 350.287,703.16 346.5,703C 345.748,702.329 345.414,701.496 345.5,700.5 Z"/></g>
<g><path style="opacity:1" fill="#637ecc" d="M 578.5,700.5 C 593.656,700.017 608.656,700.517 623.5,702C 620.362,703.244 617.028,703.911 613.5,704C 611.951,705.214 610.785,706.714 610,708.5C 609.048,743.53 609.381,778.53 611,813.5C 611.833,817 614,819.167 617.5,820C 627.115,821.526 636.781,821.859 646.5,821C 651.581,820.533 655.748,818.366 659,814.5C 663.201,800.904 664.867,801.238 664,815.5C 663.432,819.537 662.265,823.37 660.5,827C 653.601,828.131 646.601,828.631 639.5,828.5C 620.155,828.158 600.821,827.491 581.5,826.5C 584.992,825.839 588.158,824.506 591,822.5C 591.988,819.576 592.654,816.576 593,813.5C 593.667,778.833 593.667,744.167 593,709.5C 592.293,707.919 591.46,706.419 590.5,705C 586.954,703.826 583.287,703.16 579.5,703C 578.748,702.329 578.414,701.496 578.5,700.5 Z"/></g>
<g><path style="opacity:1" fill="#fcfcfe" d="M 379.5,705.5 C 401.968,704.468 412.468,715.134 411,737.5C 409.903,744.584 406.403,750.084 400.5,754C 392.254,754.815 384.088,754.648 376,753.5C 375.333,738.167 375.333,722.833 376,707.5C 377.302,706.915 378.469,706.249 379.5,705.5 Z"/></g>
<g><path style="opacity:1" fill="#fdfdfe" d="M 375.5,760.5 C 410.523,758.017 425.69,774.017 421,808.5C 416.004,818.838 407.67,823.504 396,822.5C 389.294,823.158 383.294,821.492 378,817.5C 376.873,814.623 376.206,811.623 376,808.5C 375.5,792.503 375.333,776.503 375.5,760.5 Z"/></g>
</svg>
