<?xml version="1.0" encoding="UTF-8"?>
<!DOCTYPE svg PUBLIC "-//W3C//DTD SVG 1.1//EN" "http://www.w3.org/Graphics/SVG/1.1/DTD/svg11.dtd">
<svg xmlns="http://www.w3.org/2000/svg" version="1.1" width="1000px" height="1000px" style="shape-rendering:geometricPrecision; text-rendering:geometricPrecision; image-rendering:optimizeQuality; fill-rule:evenodd; clip-rule:evenodd" xmlns:xlink="http://www.w3.org/1999/xlink">
<g><path style="opacity:1" fill="#7f7f7f" d="M 796.5,598.5 C 598.833,599.833 401.167,599.833 203.5,598.5C 203.333,506.166 203.5,413.833 204,321.5C 205,319.5 206,317.5 207,315.5C 259.167,260.667 311.333,205.833 363.5,151C 480.167,150.333 596.833,150.333 713.5,151C 724.765,156.02 731.931,164.52 735,176.5C 735.5,187.828 735.667,199.162 735.5,210.5C 747.88,210.13 760.214,210.63 772.5,212C 784.034,216.201 791.868,224.034 796,235.5C 796.5,356.5 796.667,477.5 796.5,598.5 Z"/></g>
<g><path style="opacity:1" fill="#b9bbbe" d="M 699.5,598.5 C 699.5,460.833 699.5,323.167 699.5,185.5C 596.167,185.5 492.833,185.5 389.5,185.5C 389.667,234.501 389.5,283.501 389,332.5C 386.152,338.84 381.318,342.674 374.5,344C 329.168,344.5 283.835,344.667 238.5,344.5C 238.5,429.167 238.5,513.833 238.5,598.5C 237.501,513.668 237.167,428.668 237.5,343.5C 282.835,343.667 328.168,343.5 373.5,343C 380.318,341.674 385.152,337.84 388,331.5C 388.5,282.501 388.667,233.501 388.5,184.5C 492.5,184.5 596.5,184.5 700.5,184.5C 700.833,322.668 700.5,460.668 699.5,598.5 Z"/></g>
<g><path style="opacity:1" fill="#c4c5cf" d="M 699.5,598.5 C 545.833,598.5 392.167,598.5 238.5,598.5C 238.5,513.833 238.5,429.167 238.5,344.5C 283.835,344.667 329.168,344.5 374.5,344C 381.318,342.674 386.152,338.84 389,332.5C 389.5,283.501 389.667,234.501 389.5,185.5C 492.833,185.5 596.167,185.5 699.5,185.5C 699.5,323.167 699.5,460.833 699.5,598.5 Z"/></g>
<g><path style="opacity:1" fill="#bbbbc0" d="M 353.5,209.5 C 353.18,241.964 353.513,274.631 354.5,307.5C 323.505,308.667 292.505,308.833 261.5,308C 292.372,275.297 323.038,242.464 353.5,209.5 Z"/></g>
<g><path style="opacity:1" fill="#c4c6cf" d="M 351.5,214.5 C 352.498,245.329 352.831,276.329 352.5,307.5C 323.159,307.833 293.826,307.5 264.5,306.5C 293.522,275.813 322.522,245.146 351.5,214.5 Z"/></g>
<g><path style="opacity:1" fill="#bbbcc0" d="M 761.5,598.5 C 761.5,481.167 761.5,363.833 761.5,246.5C 753.167,246.5 744.833,246.5 736.5,246.5C 736.5,363.833 736.5,481.167 736.5,598.5C 735.5,481.001 735.167,363.335 735.5,245.5C 744.5,245.5 753.5,245.5 762.5,245.5C 762.833,363.335 762.5,481.001 761.5,598.5 Z"/></g>
<g><path style="opacity:1" fill="#c4c6cf" d="M 761.5,598.5 C 753.167,598.5 744.833,598.5 736.5,598.5C 736.5,481.167 736.5,363.833 736.5,246.5C 744.833,246.5 753.167,246.5 761.5,246.5C 761.5,363.833 761.5,481.167 761.5,598.5 Z"/></g>
<g><path style="opacity:1" fill="#7f807f" d="M 464.5,309.5 C 504.168,309.333 543.835,309.5 583.5,310C 594.478,315.047 597.644,323.213 593,334.5C 589.878,338.969 585.712,341.802 580.5,343C 543.167,343.667 505.833,343.667 468.5,343C 453.936,338.305 450.102,329.138 457,315.5C 459.114,312.879 461.614,310.879 464.5,309.5 Z"/></g>
<g><path style="opacity:1" fill="#c2c3c8" d="M 357.5,415.5 C 431.834,415.333 506.167,415.5 580.5,416C 595.876,420.961 600.043,430.794 593,445.5C 590.01,448.491 586.51,450.657 582.5,452C 506.833,452.667 431.167,452.667 355.5,452C 342.349,446.223 338.849,436.723 345,423.5C 348.586,419.714 352.753,417.047 357.5,415.5 Z"/></g>
<g><path style="opacity:1" fill="#7f807f" d="M 358.5,416.5 C 432.167,416.333 505.834,416.5 579.5,417C 594.407,421.313 598.574,430.48 592,444.5C 589.01,447.491 585.51,449.657 581.5,451C 506.5,451.667 431.5,451.667 356.5,451C 343.791,445.879 340.291,437.045 346,424.5C 349.586,420.714 353.753,418.047 358.5,416.5 Z"/></g>
<g><path style="opacity:1" fill="#c2c3c8" d="M 354.5,524.5 C 431.167,524.333 507.834,524.5 584.5,525C 596.233,531.752 599.066,541.252 593,553.5C 590.441,556.531 587.274,558.698 583.5,560C 507.167,560.667 430.833,560.667 354.5,560C 342.622,554.645 339.122,545.812 344,533.5C 346.468,529.199 349.968,526.199 354.5,524.5 Z"/></g>
<g><path style="opacity:1" fill="#7f807f" d="M 355.5,525.5 C 431.501,525.333 507.501,525.5 583.5,526C 594.897,532.089 597.731,540.922 592,552.5C 589.441,555.531 586.274,557.698 582.5,559C 506.833,559.667 431.167,559.667 355.5,559C 342.887,552.93 340.054,543.763 347,531.5C 349.637,529.109 352.47,527.109 355.5,525.5 Z"/></g>
<g><path style="opacity:0.864" fill="#0d0c0c" d="M 203.5,598.5 C 401.167,599.833 598.833,599.833 796.5,598.5C 845.501,598.333 894.501,598.5 943.5,599C 947.333,600.167 949.833,602.667 951,606.5C 951.667,702.5 951.667,798.5 951,894.5C 949.833,898.333 947.333,900.833 943.5,902C 647.5,902.667 351.5,902.667 55.5,902C 51.6667,900.833 49.1667,898.333 48,894.5C 47.3333,798.5 47.3333,702.5 48,606.5C 49.1667,602.667 51.6667,600.167 55.5,599C 104.832,598.5 154.166,598.333 203.5,598.5 Z"/></g>
<g><path style="opacity:1" fill="#848282" d="M 55.5,602.5 C 351.5,602.333 647.5,602.5 943.5,603C 945.378,604.543 946.878,606.376 948,608.5C 948.667,703.167 948.667,797.833 948,892.5C 946.5,895.333 944.333,897.5 941.5,899C 646.833,899.667 352.167,899.667 57.5,899C 55.3762,897.878 53.5429,896.378 52,894.5C 51.3333,798.5 51.3333,702.5 52,606.5C 53.3756,605.295 54.5423,603.962 55.5,602.5 Z"/></g>
<g><path style="opacity:1" fill="#a09999" d="M 549.5,651.5 C 552.769,651.884 555.603,653.218 558,655.5C 558.52,657.289 558.187,658.956 557,660.5C 526.625,709.417 496.125,758.251 465.5,807C 462.597,806.723 459.93,805.556 457.5,803.5C 456.417,802.635 456.251,801.635 457,800.5C 488.085,750.931 518.918,701.264 549.5,651.5 Z"/></g>
<g><path style="opacity:1" fill="#a09999" d="M 345.5,677.5 C 362.837,677.333 380.17,677.5 397.5,678C 419.148,680.611 427.981,692.445 424,713.5C 420.509,720.829 415.676,727.162 409.5,732.5C 422.582,736.748 432.082,745.082 438,757.5C 441.956,782.883 431.456,798.717 406.5,805C 387.138,804.883 367.805,804.717 348.5,804.5C 351.593,803.315 354.593,801.981 357.5,800.5C 358.488,797.55 359.321,794.55 360,791.5C 360.667,756.5 360.667,721.5 360,686.5C 359.293,684.919 358.46,683.419 357.5,682C 353.954,680.826 350.287,680.16 346.5,680C 345.748,679.329 345.414,678.496 345.5,677.5 Z"/></g>
<g><path style="opacity:1" fill="#a09999" d="M 578.5,677.5 C 593.656,677.017 608.656,677.517 623.5,679C 620.7,680.232 617.7,680.899 614.5,681C 612.333,681.833 610.833,683.333 610,685.5C 609.333,717.833 609.333,750.167 610,782.5C 610.375,786.668 611.375,790.668 613,794.5C 616.291,796.2 619.791,797.367 623.5,798C 631.167,798.667 638.833,798.667 646.5,798C 655.833,796.667 661.167,791.333 662.5,782C 662.833,781.833 663.167,781.667 663.5,781.5C 664.266,787.145 664.099,792.812 663,798.5C 662.484,801.034 661.317,803.2 659.5,805C 633.488,804.928 607.488,805.095 581.5,805.5C 581.5,804.5 581.5,803.5 581.5,802.5C 589.561,802.782 593.394,798.782 593,790.5C 593.667,755.833 593.667,721.167 593,686.5C 592.417,684.998 591.584,683.665 590.5,682.5C 586.981,681.068 583.314,680.234 579.5,680C 578.748,679.329 578.414,678.496 578.5,677.5 Z"/></g>
<g><path style="opacity:1" fill="#858383" d="M 376.5,683.5 C 400.092,679.938 411.592,689.938 411,713.5C 410.499,719.667 407.999,724.834 403.5,729C 401.913,729.862 400.246,730.529 398.5,731C 390.92,731.813 383.42,731.647 376,730.5C 375.183,714.759 375.35,699.092 376.5,683.5 Z"/></g>
<g><path style="opacity:1" fill="#858383" d="M 375.5,737.5 C 410.426,735.11 425.593,751.11 421,785.5C 417.721,793.232 411.888,797.732 403.5,799C 396.766,799.829 390.099,799.496 383.5,798C 378.782,796.613 376.282,793.446 376,788.5C 375.5,771.503 375.333,754.503 375.5,737.5 Z"/></g>
</svg>
