<?xml version="1.0" encoding="UTF-8"?>
<!DOCTYPE svg PUBLIC "-//W3C//DTD SVG 1.1//EN" "http://www.w3.org/Graphics/SVG/1.1/DTD/svg11.dtd">
<svg xmlns="http://www.w3.org/2000/svg" version="1.1" width="1000px" height="1000px" style="shape-rendering:geometricPrecision; text-rendering:geometricPrecision; image-rendering:optimizeQuality; fill-rule:evenodd; clip-rule:evenodd" xmlns:xlink="http://www.w3.org/1999/xlink">
<g><path style="opacity:1" fill="#7f7f7f" d="M 796.5,462.5 C 796.5,464.167 796.5,465.833 796.5,467.5C 792.878,470.722 789.712,474.388 787,478.5C 782.487,480.737 779.154,484.07 777,488.5C 770.875,492.121 766.375,497.121 763.5,503.5C 763.167,503.5 762.833,503.5 762.5,503.5C 762.5,417.5 762.5,331.5 762.5,245.5C 753.5,245.5 744.5,245.5 735.5,245.5C 735.5,340.5 735.5,435.5 735.5,530.5C 733.917,534.407 731.584,537.74 728.5,540.5C 726.077,546.092 722.077,550.258 716.5,553C 715.335,554.992 714.002,556.825 712.5,558.5C 708.676,561.69 704.843,565.023 701,568.5C 700.5,440.5 700.333,312.5 700.5,184.5C 596.5,184.5 492.5,184.5 388.5,184.5C 388.667,233.501 388.5,282.501 388,331.5C 385.152,337.84 380.318,341.674 373.5,343C 328.168,343.5 282.835,343.667 237.5,343.5C 237.167,428.668 237.501,513.668 238.5,598.5C 383.334,598.167 528.001,598.5 672.5,599.5C 515.999,599.833 359.666,599.5 203.5,598.5C 203.333,506.166 203.5,413.833 204,321.5C 205,319.5 206,317.5 207,315.5C 259.167,260.667 311.333,205.833 363.5,151C 480.167,150.333 596.833,150.333 713.5,151C 724.765,156.02 731.931,164.52 735,176.5C 735.5,187.828 735.667,199.162 735.5,210.5C 747.88,210.13 760.214,210.63 772.5,212C 784.034,216.201 791.868,224.034 796,235.5C 796.5,311.166 796.667,386.833 796.5,462.5 Z"/></g>
<g><path style="opacity:1" fill="#b9babe" d="M 712.5,558.5 C 709.174,562.826 705.507,566.826 701.5,570.5C 700.883,570.389 700.383,570.056 700,569.5C 699.5,441.5 699.333,313.5 699.5,185.5C 596.167,185.5 492.833,185.5 389.5,185.5C 389.667,234.501 389.5,283.501 389,332.5C 386.152,338.84 381.318,342.674 374.5,344C 329.168,344.5 283.835,344.667 238.5,344.5C 238.5,429.167 238.5,513.833 238.5,598.5C 237.501,513.668 237.167,428.668 237.5,343.5C 282.835,343.667 328.168,343.5 373.5,343C 380.318,341.674 385.152,337.84 388,331.5C 388.5,282.501 388.667,233.501 388.5,184.5C 492.5,184.5 596.5,184.5 700.5,184.5C 700.333,312.5 700.5,440.5 701,568.5C 704.843,565.023 708.676,561.69 712.5,558.5 Z"/></g>
<g><path style="opacity:1" fill="#c4c5cf" d="M 701.5,570.5 C 698.834,571.842 696.501,573.675 694.5,576C 693.552,576.483 692.552,576.649 691.5,576.5C 691.649,577.552 691.483,578.552 691,579.5C 688.655,581.514 686.655,583.847 685,586.5C 683.989,587.337 682.822,587.67 681.5,587.5C 681.649,588.552 681.483,589.552 681,590.5C 678.489,592.679 676.322,595.179 674.5,598C 674.957,598.414 675.291,598.914 675.5,599.5C 670.416,605.587 664.75,610.921 658.5,615.5C 661.939,610.751 665.939,606.418 670.5,602.5C 671.167,601.5 671.833,600.5 672.5,599.5C 528.001,598.5 383.334,598.167 238.5,598.5C 238.5,513.833 238.5,429.167 238.5,344.5C 283.835,344.667 329.168,344.5 374.5,344C 381.318,342.674 386.152,338.84 389,332.5C 389.5,283.501 389.667,234.501 389.5,185.5C 492.833,185.5 596.167,185.5 699.5,185.5C 699.333,313.5 699.5,441.5 700,569.5C 700.383,570.056 700.883,570.389 701.5,570.5 Z"/></g>
<g><path style="opacity:1" fill="#c4c5ce" d="M 353.5,209.5 C 353.18,241.964 353.513,274.631 354.5,307.5C 323.505,308.667 292.505,308.833 261.5,308C 292.372,275.297 323.038,242.464 353.5,209.5 Z"/></g>
<g><path style="opacity:1" fill="#bcbcc1" d="M 762.5,503.5 C 761.501,418.002 761.167,332.335 761.5,246.5C 753.167,246.5 744.833,246.5 736.5,246.5C 736.833,341.335 736.499,436.001 735.5,530.5C 735.5,435.5 735.5,340.5 735.5,245.5C 744.5,245.5 753.5,245.5 762.5,245.5C 762.5,331.5 762.5,417.5 762.5,503.5 Z"/></g>
<g><path style="opacity:1" fill="#c5c6d0" d="M 762.5,503.5 C 762.833,503.5 763.167,503.5 763.5,503.5C 757.551,511.117 750.884,518.117 743.5,524.5C 738.937,528.894 734.937,533.727 731.5,539C 730.473,539.513 729.473,540.013 728.5,540.5C 731.584,537.74 733.917,534.407 735.5,530.5C 736.499,436.001 736.833,341.335 736.5,246.5C 744.833,246.5 753.167,246.5 761.5,246.5C 761.167,332.335 761.501,418.002 762.5,503.5 Z"/></g>
<g><path style="opacity:1" fill="#7f807f" d="M 464.5,309.5 C 504.168,309.333 543.835,309.5 583.5,310C 594.478,315.047 597.644,323.213 593,334.5C 589.878,338.969 585.712,341.802 580.5,343C 543.167,343.667 505.833,343.667 468.5,343C 453.936,338.305 450.102,329.138 457,315.5C 459.114,312.879 461.614,310.879 464.5,309.5 Z"/></g>
<g><path style="opacity:1" fill="#7f807f" d="M 358.5,416.5 C 432.167,416.333 505.834,416.5 579.5,417C 594.407,421.313 598.574,430.48 592,444.5C 589.01,447.491 585.51,449.657 581.5,451C 506.5,451.667 431.5,451.667 356.5,451C 343.791,445.879 340.291,437.045 346,424.5C 349.586,420.714 353.753,418.047 358.5,416.5 Z"/></g>
<g><path style="opacity:0.78" fill="#f0f1ef" d="M 866.5,598.5 C 865.833,598.5 865.167,598.5 864.5,598.5C 863.833,598.5 863.167,598.5 862.5,598.5C 861.448,598.649 860.448,598.483 859.5,598C 860.252,597.329 860.586,596.496 860.5,595.5C 863.547,592.455 866.213,589.122 868.5,585.5C 880.466,573.365 892.3,561.032 904,548.5C 914.122,535.218 915.122,521.218 907,506.5C 903.964,503.296 900.797,500.296 897.5,497.5C 894.003,493.395 890.003,489.729 885.5,486.5C 874.791,475.457 863.458,465.124 851.5,455.5C 847.848,453.213 843.848,451.379 839.5,450C 835.167,449.333 830.833,449.333 826.5,450C 822.115,451.581 818.115,453.748 814.5,456.5C 808.5,461.833 802.833,467.5 797.5,473.5C 797.082,472.778 796.416,472.278 795.5,472C 796.38,470.644 796.714,469.144 796.5,467.5C 796.5,465.833 796.5,464.167 796.5,462.5C 797.749,461.222 799.249,460.222 801,459.5C 801.483,458.552 801.649,457.552 801.5,456.5C 802.552,456.649 803.552,456.483 804.5,456C 806.871,452.961 809.538,450.127 812.5,447.5C 814.078,446.702 815.744,446.202 817.5,446C 818.337,444.989 818.67,443.822 818.5,442.5C 820.144,442.286 821.644,442.62 823,443.5C 823.388,442.572 824.055,441.905 825,441.5C 834.134,443.161 843.3,444.661 852.5,446C 854.48,447.825 856.813,448.659 859.5,448.5C 859.5,450.167 859.5,451.833 859.5,453.5C 863.074,452.908 865.074,454.408 865.5,458C 866.448,458.483 867.448,458.649 868.5,458.5C 868.5,459.833 868.5,461.167 868.5,462.5C 872.724,461.944 875.057,463.777 875.5,468C 878.047,468.552 880.047,469.886 881.5,472C 882.793,472.49 884.127,472.657 885.5,472.5C 885.5,474.167 885.5,475.833 885.5,477.5C 888.329,477.325 889.996,478.658 890.5,481.5C 892.071,482.309 893.738,482.643 895.5,482.5C 895.5,483.833 895.5,485.167 895.5,486.5C 896.93,486.421 898.264,486.754 899.5,487.5C 900.978,490.568 902.978,493.235 905.5,495.5C 907.059,496.074 908.559,496.74 910,497.5C 911.161,500.267 912.327,502.933 913.5,505.5C 914.5,505.5 915.5,505.5 916.5,505.5C 916.34,507.199 916.506,508.866 917,510.5C 919.084,512.937 920.584,515.77 921.5,519C 920.002,527.818 918.669,536.651 917.5,545.5C 916.448,545.351 915.448,545.517 914.5,546C 915.517,547.049 915.684,548.216 915,549.5C 913.559,550.87 911.892,551.87 910,552.5C 909.517,553.448 909.351,554.448 909.5,555.5C 908.167,555.5 906.833,555.5 905.5,555.5C 905.5,556.833 905.5,558.167 905.5,559.5C 901.988,560.005 899.655,562.005 898.5,565.5C 897.675,566.386 896.675,566.719 895.5,566.5C 895.649,567.552 895.483,568.552 895,569.5C 892,572.167 889,574.833 886,577.5C 885.517,578.448 885.351,579.448 885.5,580.5C 884.178,580.33 883.011,580.663 882,581.5C 880.878,583.42 880.044,585.42 879.5,587.5C 878.5,587.5 877.5,587.5 876.5,587.5C 876.5,588.833 876.5,590.167 876.5,591.5C 872.303,591.194 870.303,593.194 870.5,597.5C 868.901,597.232 867.568,597.566 866.5,598.5 Z"/></g>
<g><path style="opacity:1" fill="#3afe16" d="M 851.5,455.5 C 863.458,465.124 874.791,475.457 885.5,486.5C 885.744,489.263 887.077,491.429 889.5,493C 891.754,493.624 893.421,494.957 894.5,497C 895.448,497.483 896.448,497.649 897.5,497.5C 900.797,500.296 903.964,503.296 907,506.5C 915.122,521.218 914.122,535.218 904,548.5C 892.3,561.032 880.466,573.365 868.5,585.5C 862.45,589.217 857.783,594.217 854.5,600.5C 844.048,612.439 833.381,624.105 822.5,635.5C 821.448,635.351 820.448,635.517 819.5,636C 814.394,642.109 808.894,647.942 803,653.5C 802.517,654.448 802.351,655.448 802.5,656.5C 726.537,738.334 650.537,820.334 574.5,902.5C 553.806,924.193 533.139,945.86 512.5,967.5C 509.213,968.264 506.546,970.097 504.5,973C 491.71,981.865 477.71,984.698 462.5,981.5C 462.167,981.5 461.833,981.5 461.5,981.5C 461.092,980.357 460.425,979.357 459.5,978.5C 455.467,976.77 451.467,975.104 447.5,973.5C 443.243,970.749 439.41,967.416 436,963.5C 422,944.167 408,924.833 394,905.5C 392.961,904.29 391.794,903.29 390.5,902.5C 369.525,873.185 348.525,843.852 327.5,814.5C 327.657,813.127 327.49,811.793 327,810.5C 320.577,801.322 313.911,792.322 307,783.5C 306.184,782.177 305.017,781.511 303.5,781.5C 298.267,774.714 293.267,767.714 288.5,760.5C 288.649,759.448 288.483,758.448 288,757.5C 282.182,750.352 277.182,742.686 273,734.5C 272.523,726.822 272.69,719.155 273.5,711.5C 278.198,707.736 282.198,703.403 285.5,698.5C 297.548,689.121 309.881,680.121 322.5,671.5C 324.179,671.108 325.846,670.608 327.5,670C 330.663,667.337 333.996,665.004 337.5,663C 338.167,662 338.833,661 339.5,660C 341.952,659.71 344.285,659.044 346.5,658C 353.923,657.302 361.256,657.802 368.5,659.5C 372.032,660.854 375.198,662.854 378,665.5C 412.711,713.089 447.545,760.589 482.5,808C 483.908,808.315 485.241,807.982 486.5,807C 501.74,791.597 516.407,775.764 530.5,759.5C 533.93,755.614 537.597,751.947 541.5,748.5C 547.219,745.115 551.552,740.448 554.5,734.5C 569.195,718.807 583.861,703.14 598.5,687.5C 604.52,684.34 608.854,679.673 611.5,673.5C 614.547,670.455 617.213,667.122 619.5,663.5C 621.833,661.5 624.167,659.5 626.5,657.5C 632.882,653.452 637.882,648.118 641.5,641.5C 644.71,637.079 648.377,633.079 652.5,629.5C 658.283,626.055 662.616,621.389 665.5,615.5C 671.55,611.783 676.217,606.783 679.5,600.5C 718.918,558.088 758.251,515.755 797.5,473.5C 802.833,467.5 808.5,461.833 814.5,456.5C 820.351,453.943 826.518,452.276 833,451.5C 839.35,452.13 845.517,453.464 851.5,455.5 Z"/></g>
<g><path style="opacity:1" fill="#67f54b" d="M 851.5,455.5 C 845.517,453.464 839.35,452.13 833,451.5C 826.518,452.276 820.351,453.943 814.5,456.5C 818.115,453.748 822.115,451.581 826.5,450C 830.833,449.333 835.167,449.333 839.5,450C 843.848,451.379 847.848,453.213 851.5,455.5 Z"/></g>
<g><path style="opacity:1" fill="#65f749" d="M 885.5,486.5 C 890.003,489.729 894.003,493.395 897.5,497.5C 896.448,497.649 895.448,497.483 894.5,497C 893.421,494.957 891.754,493.624 889.5,493C 887.077,491.429 885.744,489.263 885.5,486.5 Z"/></g>
<g><path style="opacity:1" fill="#7f807f" d="M 355.5,525.5 C 431.501,525.333 507.501,525.5 583.5,526C 594.897,532.089 597.731,540.922 592,552.5C 589.441,555.531 586.274,557.698 582.5,559C 506.833,559.667 431.167,559.667 355.5,559C 342.887,552.93 340.054,543.763 347,531.5C 349.637,529.109 352.47,527.109 355.5,525.5 Z"/></g>
<g><path style="opacity:1" fill="#dee2de" d="M 796.5,467.5 C 796.714,469.144 796.38,470.644 795.5,472C 796.416,472.278 797.082,472.778 797.5,473.5C 758.251,515.755 718.918,558.088 679.5,600.5C 674.861,605.474 670.195,610.474 665.5,615.5C 661.176,620.125 656.843,624.792 652.5,629.5C 648.377,633.079 644.71,637.079 641.5,641.5C 635.795,646.204 630.795,651.537 626.5,657.5C 624.167,659.5 621.833,661.5 619.5,663.5C 617.775,663.157 617.275,662.157 618,660.5C 622.465,656.876 625.965,652.543 628.5,647.5C 633.25,644.584 636.75,640.584 639,635.5C 643.324,632.421 646.824,628.587 649.5,624C 653.053,621.61 656.053,618.776 658.5,615.5C 664.75,610.921 670.416,605.587 675.5,599.5C 675.291,598.914 674.957,598.414 674.5,598C 676.322,595.179 678.489,592.679 681,590.5C 681.483,589.552 681.649,588.552 681.5,587.5C 682.822,587.67 683.989,587.337 685,586.5C 686.655,583.847 688.655,581.514 691,579.5C 691.483,578.552 691.649,577.552 691.5,576.5C 692.552,576.649 693.552,576.483 694.5,576C 696.501,573.675 698.834,571.842 701.5,570.5C 705.507,566.826 709.174,562.826 712.5,558.5C 714.002,556.825 715.335,554.992 716.5,553C 722.077,550.258 726.077,546.092 728.5,540.5C 729.473,540.013 730.473,539.513 731.5,539C 734.937,533.727 738.937,528.894 743.5,524.5C 750.884,518.117 757.551,511.117 763.5,503.5C 766.375,497.121 770.875,492.121 777,488.5C 779.154,484.07 782.487,480.737 787,478.5C 789.712,474.388 792.878,470.722 796.5,467.5 Z"/></g>
<g><path style="opacity:1" fill="#68f74c" d="M 868.5,585.5 C 866.213,589.122 863.547,592.455 860.5,595.5C 858.5,597.167 856.5,598.833 854.5,600.5C 857.783,594.217 862.45,589.217 868.5,585.5 Z"/></g>
<g><path style="opacity:0.877" fill="#141414" d="M 203.5,598.5 C 359.666,599.5 515.999,599.833 672.5,599.5C 671.833,600.5 671.167,601.5 670.5,602.5C 465.5,602.333 260.5,602.5 55.5,603C 54.3333,604.167 53.1667,605.333 52,606.5C 51.3333,702.5 51.3333,798.5 52,894.5C 53.1667,895.667 54.3333,896.833 55.5,898C 164.873,898.171 274.207,898.671 383.5,899.5C 383.5,900.5 383.5,901.5 383.5,902.5C 383.167,902.5 382.833,902.5 382.5,902.5C 273.499,902.667 164.499,902.5 55.5,902C 51.6667,900.833 49.1667,898.333 48,894.5C 47.3333,798.5 47.3333,702.5 48,606.5C 49.1667,602.667 51.6667,600.167 55.5,599C 104.832,598.5 154.166,598.333 203.5,598.5 Z"/></g>
<g><path style="opacity:0.837" fill="#000000" d="M 864.5,598.5 C 865.167,598.5 865.833,598.5 866.5,598.5C 892.169,598.333 917.835,598.5 943.5,599C 947.333,600.167 949.833,602.667 951,606.5C 951.667,702.5 951.667,798.5 951,894.5C 949.833,898.333 947.333,900.833 943.5,902C 823.5,902.5 703.5,902.667 583.5,902.5C 583.167,902.5 582.833,902.5 582.5,902.5C 582.414,901.504 582.748,900.671 583.5,900C 703.001,899.833 822.334,899.333 941.5,898.5C 944.428,897.409 946.594,895.409 948,892.5C 948.667,797.833 948.667,703.167 948,608.5C 946.594,605.591 944.428,603.591 941.5,602.5C 915.337,601.668 889.003,601.168 862.5,601C 863.756,600.583 864.423,599.75 864.5,598.5 Z"/></g>
<g><path style="opacity:1" fill="#403f3f" d="M 862.5,598.5 C 863.167,598.5 863.833,598.5 864.5,598.5C 864.423,599.75 863.756,600.583 862.5,601C 889.003,601.168 915.337,601.668 941.5,602.5C 914.146,603.158 887.146,602.491 860.5,600.5C 861.167,599.833 861.833,599.167 862.5,598.5 Z"/></g>
<g><path style="opacity:1" fill="#858383" d="M 670.5,602.5 C 665.939,606.418 661.939,610.751 658.5,615.5C 656.053,618.776 653.053,621.61 649.5,624C 646.824,628.587 643.324,632.421 639,635.5C 636.75,640.584 633.25,644.584 628.5,647.5C 624.17,652.663 619.336,657.33 614,661.5C 612.431,664.154 610.764,666.821 609,669.5C 603.938,673.662 598.938,677.996 594,682.5C 591.39,686.618 588.557,690.618 585.5,694.5C 581.865,697.962 578.032,701.295 574,704.5C 573.667,705.5 573.333,706.5 573,707.5C 554.164,726.829 535.664,746.162 517.5,765.5C 513.816,770.18 510.15,774.847 506.5,779.5C 499.242,786.092 492.242,793.092 485.5,800.5C 484.386,801.776 483.386,801.776 482.5,800.5C 482.649,799.448 482.483,798.448 482,797.5C 478.994,795.148 477.327,792.148 477,788.5C 503.667,745.833 530.333,703.167 557,660.5C 558.187,658.956 558.52,657.289 558,655.5C 556.167,654.333 554.333,653.167 552.5,652C 551.365,651.251 550.365,651.417 549.5,652.5C 522.917,695.335 496.083,738.002 469,780.5C 467.961,779.29 466.794,778.29 465.5,777.5C 451.143,758.115 437.143,738.449 423.5,718.5C 429.671,692.644 419.338,678.978 392.5,677.5C 387.919,670.305 382.586,663.471 376.5,657C 371.313,655.232 366.313,653.232 361.5,651C 354.808,650.547 348.141,650.881 341.5,652C 334.951,655.739 328.618,659.906 322.5,664.5C 317.6,669.571 312.267,674.071 306.5,678C 302.334,679.705 298.334,681.705 294.5,684C 287.484,690.149 280.151,695.982 272.5,701.5C 271.645,704.853 269.811,707.519 267,709.5C 263.749,718.926 263.749,728.26 267,737.5C 270.183,743.204 273.35,748.871 276.5,754.5C 283.993,760.836 289.826,768.503 294,777.5C 298.99,784.154 304.323,790.487 310,796.5C 312.215,799.596 313.881,802.929 315,806.5C 320.216,810.38 323.882,815.38 326,821.5C 327,822.167 328,822.833 329,823.5C 332.983,830.126 336.983,836.792 341,843.5C 344.667,847.167 348.333,850.833 352,854.5C 354.44,857.922 356.44,861.589 358,865.5C 362.543,870.874 366.876,876.541 371,882.5C 372.512,883.257 373.846,884.257 375,885.5C 378.488,889.81 381.321,894.476 383.5,899.5C 274.207,898.671 164.873,898.171 55.5,898C 54.3333,896.833 53.1667,895.667 52,894.5C 51.3333,798.5 51.3333,702.5 52,606.5C 53.1667,605.333 54.3333,604.167 55.5,603C 260.5,602.5 465.5,602.333 670.5,602.5 Z"/></g>
<g><path style="opacity:1" fill="#848282" d="M 860.5,600.5 C 887.146,602.491 914.146,603.158 941.5,602.5C 944.428,603.591 946.594,605.591 948,608.5C 948.667,703.167 948.667,797.833 948,892.5C 946.594,895.409 944.428,897.409 941.5,898.5C 822.5,898.5 703.5,898.5 584.5,898.5C 589.894,893.11 594.894,887.444 599.5,881.5C 618.212,863.455 635.879,844.455 652.5,824.5C 658.559,819.443 663.893,813.776 668.5,807.5C 691.467,783.698 714.3,759.698 737,735.5C 740.073,731.939 742.906,728.272 745.5,724.5C 770.928,698.744 795.594,672.41 819.5,645.5C 832.745,632.085 845.911,618.419 859,604.5C 859.483,603.552 859.649,602.552 859.5,601.5C 859.5,600.833 859.833,600.5 860.5,600.5 Z"/></g>
<g><path style="opacity:1" fill="#bab8b8" d="M 859.5,601.5 C 859.649,602.552 859.483,603.552 859,604.5C 845.911,618.419 832.745,632.085 819.5,645.5C 832.414,630.58 845.747,615.913 859.5,601.5 Z"/></g>
<g><path style="opacity:1" fill="#65f74a" d="M 679.5,600.5 C 676.217,606.783 671.55,611.783 665.5,615.5C 670.195,610.474 674.861,605.474 679.5,600.5 Z"/></g>
<g><path style="opacity:1" fill="#67f64c" d="M 665.5,615.5 C 662.616,621.389 658.283,626.055 652.5,629.5C 656.843,624.792 661.176,620.125 665.5,615.5 Z"/></g>
<g><path style="opacity:1" fill="#64f748" d="M 822.5,635.5 C 815.806,642.526 809.139,649.526 802.5,656.5C 802.351,655.448 802.517,654.448 803,653.5C 808.894,647.942 814.394,642.109 819.5,636C 820.448,635.517 821.448,635.351 822.5,635.5 Z"/></g>
<g><path style="opacity:1" fill="#a09999" d="M 482.5,800.5 C 479.98,797.96 477.48,795.293 475,792.5C 473.838,788.398 471.504,785.065 468,782.5C 466.906,780.922 466.072,779.255 465.5,777.5C 466.794,778.29 467.961,779.29 469,780.5C 496.083,738.002 522.917,695.335 549.5,652.5C 550.365,651.417 551.365,651.251 552.5,652C 554.333,653.167 556.167,654.333 558,655.5C 558.52,657.289 558.187,658.956 557,660.5C 530.333,703.167 503.667,745.833 477,788.5C 477.327,792.148 478.994,795.148 482,797.5C 482.483,798.448 482.649,799.448 482.5,800.5 Z"/></g>
<g><path style="opacity:1" fill="#66f74a" d="M 641.5,641.5 C 637.882,648.118 632.882,653.452 626.5,657.5C 630.795,651.537 635.795,646.204 641.5,641.5 Z"/></g>
<g><path style="opacity:1" fill="#d5d8d4" d="M 628.5,647.5 C 625.965,652.543 622.465,656.876 618,660.5C 617.275,662.157 617.775,663.157 619.5,663.5C 617.213,667.122 614.547,670.455 611.5,673.5C 606.711,677.745 602.378,682.411 598.5,687.5C 583.861,703.14 569.195,718.807 554.5,734.5C 550.195,739.141 545.861,743.807 541.5,748.5C 537.597,751.947 533.93,755.614 530.5,759.5C 530.66,757.801 530.494,756.134 530,754.5C 522.169,762.824 514.335,771.157 506.5,779.5C 510.15,774.847 513.816,770.18 517.5,765.5C 535.664,746.162 554.164,726.829 573,707.5C 573.333,706.5 573.667,705.5 574,704.5C 578.032,701.295 581.865,697.962 585.5,694.5C 588.557,690.618 591.39,686.618 594,682.5C 598.938,677.996 603.938,673.662 609,669.5C 610.764,666.821 612.431,664.154 614,661.5C 619.336,657.33 624.17,652.663 628.5,647.5 Z"/></g>
<g><path style="opacity:1" fill="#a19b9b" d="M 392.5,677.5 C 419.338,678.978 429.671,692.644 423.5,718.5C 419.029,712.835 414.195,707.169 409,701.5C 408.529,699.754 407.862,698.087 407,696.5C 401.193,690.803 396.36,684.469 392.5,677.5 Z"/></g>
<g><path style="opacity:1" fill="#64f748" d="M 611.5,673.5 C 608.854,679.673 604.52,684.34 598.5,687.5C 602.378,682.411 606.711,677.745 611.5,673.5 Z"/></g>
<g><path style="opacity:1" fill="#64f848" d="M 554.5,734.5 C 551.552,740.448 547.219,745.115 541.5,748.5C 545.861,743.807 550.195,739.141 554.5,734.5 Z"/></g>
<g><path style="opacity:1" fill="#bbbaba" d="M 745.5,724.5 C 742.906,728.272 740.073,731.939 737,735.5C 714.3,759.698 691.467,783.698 668.5,807.5C 693.071,778.925 718.737,751.258 745.5,724.5 Z"/></g>
<g><path style="opacity:1" fill="#dfe1de" d="M 860.5,595.5 C 860.586,596.496 860.252,597.329 859.5,598C 860.448,598.483 861.448,598.649 862.5,598.5C 861.833,599.167 861.167,599.833 860.5,600.5C 859.833,600.5 859.5,600.833 859.5,601.5C 845.747,615.913 832.414,630.58 819.5,645.5C 795.594,672.41 770.928,698.744 745.5,724.5C 718.737,751.258 693.071,778.925 668.5,807.5C 663.893,813.776 658.559,819.443 652.5,824.5C 651.504,824.414 650.671,824.748 650,825.5C 632.999,844.068 616.165,862.735 599.5,881.5C 594.894,887.444 589.894,893.11 584.5,898.5C 582.167,898.833 580.833,900.167 580.5,902.5C 578.5,902.5 576.5,902.5 574.5,902.5C 650.537,820.334 726.537,738.334 802.5,656.5C 809.139,649.526 815.806,642.526 822.5,635.5C 833.381,624.105 844.048,612.439 854.5,600.5C 856.5,598.833 858.5,597.167 860.5,595.5 Z"/></g>
<g><path style="opacity:1" fill="#60f944" d="M 303.5,781.5 C 305.017,781.511 306.184,782.177 307,783.5C 313.911,792.322 320.577,801.322 327,810.5C 327.49,811.793 327.657,813.127 327.5,814.5C 319.267,803.715 311.267,792.715 303.5,781.5 Z"/></g>
<g><path style="opacity:1" fill="#dcdfdb" d="M 392.5,677.5 C 396.36,684.469 401.193,690.803 407,696.5C 407.862,698.087 408.529,699.754 409,701.5C 414.195,707.169 419.029,712.835 423.5,718.5C 437.143,738.449 451.143,758.115 465.5,777.5C 466.072,779.255 466.906,780.922 468,782.5C 471.504,785.065 473.838,788.398 475,792.5C 477.48,795.293 479.98,797.96 482.5,800.5C 483.386,801.776 484.386,801.776 485.5,800.5C 492.242,793.092 499.242,786.092 506.5,779.5C 514.335,771.157 522.169,762.824 530,754.5C 530.494,756.134 530.66,757.801 530.5,759.5C 516.407,775.764 501.74,791.597 486.5,807C 485.241,807.982 483.908,808.315 482.5,808C 447.545,760.589 412.711,713.089 378,665.5C 375.198,662.854 372.032,660.854 368.5,659.5C 358.737,654.4 348.737,654.234 338.5,659C 332.98,663.03 327.647,667.197 322.5,671.5C 309.881,680.121 297.548,689.121 285.5,698.5C 280.113,701.554 276.113,705.887 273.5,711.5C 269.683,720.603 269.516,729.937 273,739.5C 277.7,746.924 282.866,753.924 288.5,760.5C 293.267,767.714 298.267,774.714 303.5,781.5C 311.267,792.715 319.267,803.715 327.5,814.5C 348.525,843.852 369.525,873.185 390.5,902.5C 388.302,901.933 385.969,901.933 383.5,902.5C 383.5,901.5 383.5,900.5 383.5,899.5C 381.321,894.476 378.488,889.81 375,885.5C 373.846,884.257 372.512,883.257 371,882.5C 366.876,876.541 362.543,870.874 358,865.5C 356.44,861.589 354.44,857.922 352,854.5C 348.333,850.833 344.667,847.167 341,843.5C 336.983,836.792 332.983,830.126 329,823.5C 328,822.833 327,822.167 326,821.5C 323.882,815.38 320.216,810.38 315,806.5C 313.881,802.929 312.215,799.596 310,796.5C 304.323,790.487 298.99,784.154 294,777.5C 289.826,768.503 283.993,760.836 276.5,754.5C 273.35,748.871 270.183,743.204 267,737.5C 263.749,728.26 263.749,718.926 267,709.5C 269.811,707.519 271.645,704.853 272.5,701.5C 280.151,695.982 287.484,690.149 294.5,684C 298.334,681.705 302.334,679.705 306.5,678C 312.267,674.071 317.6,669.571 322.5,664.5C 328.618,659.906 334.951,655.739 341.5,652C 348.141,650.881 354.808,650.547 361.5,651C 366.313,653.232 371.313,655.232 376.5,657C 382.586,663.471 387.919,670.305 392.5,677.5 Z"/></g>
<g><path style="opacity:1" fill="#5efa40" d="M 273.5,711.5 C 272.69,719.155 272.523,726.822 273,734.5C 277.182,742.686 282.182,750.352 288,757.5C 288.483,758.448 288.649,759.448 288.5,760.5C 282.866,753.924 277.7,746.924 273,739.5C 269.516,729.937 269.683,720.603 273.5,711.5 Z"/></g>
<g><path style="opacity:1" fill="#64f748" d="M 285.5,698.5 C 282.198,703.403 278.198,707.736 273.5,711.5C 276.113,705.887 280.113,701.554 285.5,698.5 Z"/></g>
<g><path style="opacity:1" fill="#61f645" d="M 368.5,659.5 C 361.256,657.802 353.923,657.302 346.5,658C 344.285,659.044 341.952,659.71 339.5,660C 338.833,661 338.167,662 337.5,663C 333.996,665.004 330.663,667.337 327.5,670C 325.846,670.608 324.179,671.108 322.5,671.5C 327.647,667.197 332.98,663.03 338.5,659C 348.737,654.234 358.737,654.4 368.5,659.5 Z"/></g>
<g><path style="opacity:1" fill="#b8b7b7" d="M 652.5,824.5 C 635.879,844.455 618.212,863.455 599.5,881.5C 616.165,862.735 632.999,844.068 650,825.5C 650.671,824.748 651.504,824.414 652.5,824.5 Z"/></g>
<g><path style="opacity:1" fill="#474646" d="M 584.5,898.5 C 703.5,898.5 822.5,898.5 941.5,898.5C 822.334,899.333 703.001,899.833 583.5,900C 582.748,900.671 582.414,901.504 582.5,902.5C 581.833,902.5 581.167,902.5 580.5,902.5C 580.833,900.167 582.167,898.833 584.5,898.5 Z"/></g>
<g><path style="opacity:0.752" fill="#f0f2ef" d="M 390.5,902.5 C 391.794,903.29 392.961,904.29 394,905.5C 408,924.833 422,944.167 436,963.5C 439.41,967.416 443.243,970.749 447.5,973.5C 451.507,977.174 456.173,979.841 461.5,981.5C 461.833,981.5 462.167,981.5 462.5,981.5C 466.192,983.933 470.359,984.933 475,984.5C 490.115,984.441 502.615,978.774 512.5,967.5C 533.139,945.86 553.806,924.193 574.5,902.5C 576.5,902.5 578.5,902.5 580.5,902.5C 581.167,902.5 581.833,902.5 582.5,902.5C 582.833,902.5 583.167,902.5 583.5,902.5C 579.291,906.778 575.291,911.445 571.5,916.5C 570.675,917.386 569.675,917.719 568.5,917.5C 568.1,921.347 566.1,923.68 562.5,924.5C 562.5,925.5 562.5,926.5 562.5,927.5C 561.448,927.351 560.448,927.517 559.5,928C 558.257,930.116 557.091,932.282 556,934.5C 550.81,936.516 547.643,940.183 546.5,945.5C 543.99,946.783 541.323,947.783 538.5,948.5C 538.762,949.978 538.429,951.311 537.5,952.5C 534.453,953.875 533.12,956.208 533.5,959.5C 532.167,959.5 530.833,959.5 529.5,959.5C 529.649,960.552 529.483,961.552 529,962.5C 525.763,964.231 523.93,966.898 523.5,970.5C 522.178,970.67 521.011,970.337 520,969.5C 519.51,970.793 519.343,972.127 519.5,973.5C 514.328,975.241 510.661,978.574 508.5,983.5C 506.473,983.338 504.473,983.505 502.5,984C 501.167,984.667 501.167,985.333 502.5,986C 500.059,986.036 498.059,986.869 496.5,988.5C 493.914,989.48 491.247,989.813 488.5,989.5C 488.5,990.833 488.5,992.167 488.5,993.5C 478.506,993.787 468.506,992.621 458.5,990C 457.953,989.075 457.287,988.242 456.5,987.5C 452.341,989.08 450.008,987.58 449.5,983C 447.527,982.505 445.527,982.338 443.5,982.5C 443.714,980.856 443.38,979.356 442.5,978C 438.886,978.034 436.553,976.367 435.5,973C 434.552,972.517 433.552,972.351 432.5,972.5C 433.244,969.05 431.91,967.384 428.5,967.5C 428.55,965.41 427.55,964.077 425.5,963.5C 424.548,961.955 424.215,960.288 424.5,958.5C 423.5,958.5 422.5,958.5 421.5,958.5C 418.203,953.008 415.203,947.341 412.5,941.5C 411.178,941.67 410.011,941.337 409,940.5C 407.839,937.733 406.673,935.067 405.5,932.5C 404.5,932.5 403.5,932.5 402.5,932.5C 402.5,930.833 402.5,929.167 402.5,927.5C 401.178,927.67 400.011,927.337 399,926.5C 397.038,923.205 394.705,920.205 392,917.5C 390.839,914.733 389.673,912.067 388.5,909.5C 387.5,909.5 386.5,909.5 385.5,909.5C 385.657,908.127 385.49,906.793 385,905.5C 383.583,904.922 382.75,903.922 382.5,902.5C 382.833,902.5 383.167,902.5 383.5,902.5C 385.969,901.933 388.302,901.933 390.5,902.5 Z"/></g>
<g><path style="opacity:1" fill="#60f844" d="M 512.5,967.5 C 502.615,978.774 490.115,984.441 475,984.5C 470.359,984.933 466.192,983.933 462.5,981.5C 477.71,984.698 491.71,981.865 504.5,973C 506.546,970.097 509.213,968.264 512.5,967.5 Z"/></g>
<g><path style="opacity:1" fill="#6af34f" d="M 447.5,973.5 C 451.467,975.104 455.467,976.77 459.5,978.5C 460.425,979.357 461.092,980.357 461.5,981.5C 456.173,979.841 451.507,977.174 447.5,973.5 Z"/></g>
</svg>
