<?xml version="1.0" encoding="UTF-8"?>
<!DOCTYPE svg PUBLIC "-//W3C//DTD SVG 1.1//EN" "http://www.w3.org/Graphics/SVG/1.1/DTD/svg11.dtd">
<svg xmlns="http://www.w3.org/2000/svg" version="1.1" width="1000px" height="1000px" style="shape-rendering:geometricPrecision; text-rendering:geometricPrecision; image-rendering:optimizeQuality; fill-rule:evenodd; clip-rule:evenodd" xmlns:xlink="http://www.w3.org/1999/xlink">
<g><path style="opacity:1" fill="#6b6b6b" d="M 895.5,486.5 C 895.5,487.167 895.5,487.833 895.5,488.5C 880.385,473.544 864.552,459.544 848,446.5C 841.653,444.286 835.153,443.452 828.5,444C 813.468,448.863 801.801,458.03 793.5,471.5C 773.5,471.5 753.5,471.5 733.5,471.5C 733.5,477.167 733.5,482.833 733.5,488.5C 746.833,488.5 760.167,488.5 773.5,488.5C 773.649,489.552 773.483,490.552 773,491.5C 769.335,494.897 766.168,498.563 763.5,502.5C 756.397,510.358 749.064,518.025 741.5,525.5C 728.496,525.333 715.496,525.5 702.5,526C 690.638,526.766 680.305,531.1 671.5,539C 665.424,544.405 660.091,550.405 655.5,557C 653.283,558.275 650.949,559.275 648.5,560C 452.5,560.333 256.5,560.667 60.5,561C 91.4593,613.084 122.293,665.251 153,717.5C 161.68,728.263 172.847,735.096 186.5,738C 213.506,738.167 240.506,738.667 267.5,739.5C 270.26,747.357 274.76,754.024 281,759.5C 282.628,761.653 283.961,763.987 285,766.5C 285.671,767.252 286.504,767.586 287.5,767.5C 289.284,769.948 290.618,772.615 291.5,775.5C 290.833,775.5 290.167,775.5 289.5,775.5C 251.832,775.667 214.165,775.5 176.5,775C 149.332,768.147 128.832,752.647 115,728.5C 79.9186,668.668 44.5853,609.002 9,549.5C 5.28523,533.056 11.7852,524.056 28.5,522.5C 28.3333,456.499 28.5,390.499 29,324.5C 30.2804,315.886 35.1137,310.386 43.5,308C 118.167,307.333 192.833,307.333 267.5,308C 273.457,309.623 277.957,313.123 281,318.5C 282.49,386.442 282.99,454.442 282.5,522.5C 306.502,522.667 330.502,522.5 354.5,522C 353.34,498.573 353.173,475.073 354,451.5C 355.04,441.46 360.54,435.627 370.5,434C 389.164,433.5 407.83,433.333 426.5,433.5C 426.333,409.164 426.5,384.831 427,360.5C 428.285,350.216 434.118,344.716 444.5,344C 468.498,343.5 492.498,343.333 516.5,343.5C 516.333,317.831 516.5,292.165 517,266.5C 518.976,261.046 522.476,256.879 527.5,254C 592.167,253.333 656.833,253.333 721.5,254C 727.492,256.659 731.325,261.159 733,267.5C 733.5,292.831 733.667,318.164 733.5,343.5C 757.169,343.333 780.836,343.5 804.5,344C 813.314,344.805 819.147,349.305 822,357.5C 822.5,382.831 822.667,408.164 822.5,433.5C 841.17,433.333 859.836,433.5 878.5,434C 886.712,435.214 892.212,439.714 895,447.5C 895.5,460.496 895.667,473.496 895.5,486.5 Z"/></g>
<g><path style="opacity:1" fill="#7f7f7f" d="M 554.5,287.5 C 601.501,287.333 648.501,287.5 695.5,288C 696.667,288.5 697.5,289.333 698,290.5C 698.667,307.833 698.667,325.167 698,342.5C 697.5,343.667 696.667,344.5 695.5,345C 648.5,345.667 601.5,345.667 554.5,345C 553.333,344.5 552.5,343.667 552,342.5C 551.333,325.167 551.333,307.833 552,290.5C 552.698,289.309 553.531,288.309 554.5,287.5 Z"/></g>
<g><path style="opacity:1" fill="#7f807f" d="M 66.5,345.5 C 125.833,345.5 185.167,345.5 244.5,345.5C 244.5,356.5 244.5,367.5 244.5,378.5C 231.163,378.333 217.829,378.5 204.5,379C 191.889,385.067 188.389,394.567 194,407.5C 196.989,411.491 200.822,414.324 205.5,416C 218.496,416.5 231.496,416.667 244.5,416.5C 244.5,427.833 244.5,439.167 244.5,450.5C 232.829,450.333 221.162,450.5 209.5,451C 192.212,455.184 187.379,465.35 195,481.5C 197.264,484.433 200.098,486.6 203.5,488C 217.115,489.406 230.782,489.906 244.5,489.5C 244.5,500.5 244.5,511.5 244.5,522.5C 185.167,522.5 125.833,522.5 66.5,522.5C 66.5,463.5 66.5,404.5 66.5,345.5 Z"/></g>
<g><path style="opacity:1" fill="#000000" d="M 97.5,378.5 C 113.472,377.973 121.306,385.64 121,401.5C 116.296,413.268 107.796,417.768 95.5,415C 83.7833,408.852 80.6167,399.685 86,387.5C 89.1584,383.493 92.9918,380.493 97.5,378.5 Z"/></g>
<g><path style="opacity:1" fill="#000000" d="M 150.5,378.5 C 164.156,377.322 172.156,383.489 174.5,397C 173.171,410.29 165.504,416.624 151.5,416C 137.038,409.581 133.538,399.414 141,385.5C 143.825,382.524 146.992,380.191 150.5,378.5 Z"/></g>
<g><path style="opacity:1" fill="#7f7f7f" d="M 463.5,378.5 C 510.501,378.333 557.501,378.5 604.5,379C 605.667,379.5 606.5,380.333 607,381.5C 607.667,398.833 607.667,416.167 607,433.5C 606.5,434.667 605.667,435.5 604.5,436C 557.5,436.667 510.5,436.667 463.5,436C 462.333,435.5 461.5,434.667 461,433.5C 460.333,416.167 460.333,398.833 461,381.5C 461.698,380.309 462.531,379.309 463.5,378.5 Z"/></g>
<g><path style="opacity:1" fill="#7f7f7f" d="M 643.5,378.5 C 690.501,378.333 737.501,378.5 784.5,379C 785.667,379.5 786.5,380.333 787,381.5C 787.667,398.833 787.667,416.167 787,433.5C 786.5,434.667 785.667,435.5 784.5,436C 737.5,436.667 690.5,436.667 643.5,436C 642.333,435.5 641.5,434.667 641,433.5C 640.333,416.167 640.333,398.833 641,381.5C 641.698,380.309 642.531,379.309 643.5,378.5 Z"/></g>
<g><path style="opacity:1" fill="#000000" d="M 102.5,450.5 C 119.626,454.42 124.792,464.42 118,480.5C 108.001,492.087 97.6672,492.421 87,481.5C 79.9494,464.934 85.1161,454.601 102.5,450.5 Z"/></g>
<g><path style="opacity:1" fill="#000000" d="M 155.5,450.5 C 172.091,454.684 177.258,464.684 171,480.5C 160.697,492.294 150.364,492.294 140,480.5C 133.782,464.603 138.949,454.603 155.5,450.5 Z"/></g>
<g><path style="opacity:1" fill="#3afe16" d="M 909.5,540.5 C 896.855,556.476 883.189,571.476 868.5,585.5C 862.45,589.217 857.783,594.217 854.5,600.5C 847.173,609.159 839.507,617.493 831.5,625.5C 830.178,625.33 829.011,625.663 828,626.5C 820.006,635.827 811.673,644.827 803,653.5C 802.517,654.448 802.351,655.448 802.5,656.5C 765.139,696.859 727.805,737.193 690.5,777.5C 631.589,841.082 572.256,904.416 512.5,967.5C 509.213,968.264 506.546,970.097 504.5,973C 491.71,981.865 477.71,984.698 462.5,981.5C 449.945,977.125 439.779,969.458 432,958.5C 386.968,895.745 341.468,833.411 295.5,771.5C 293.427,767.692 291.094,764.026 288.5,760.5C 288.649,759.448 288.483,758.448 288,757.5C 282.182,750.352 277.182,742.686 273,734.5C 272.523,726.822 272.69,719.155 273.5,711.5C 278.198,707.736 282.198,703.403 285.5,698.5C 301.961,685.435 318.961,673.102 336.5,661.5C 340.266,660.309 343.933,658.809 347.5,657C 351.821,656.501 356.154,656.334 360.5,656.5C 367.685,657.844 373.852,661.178 379,666.5C 413.133,713.933 447.633,761.1 482.5,808C 483.908,808.315 485.241,807.982 486.5,807C 499.798,793.544 512.465,779.711 524.5,765.5C 533.17,757.163 541.503,748.497 549.5,739.5C 565.852,722.083 582.185,704.75 598.5,687.5C 604.52,684.34 608.854,679.673 611.5,673.5C 615.795,667.537 620.795,662.204 626.5,657.5C 632.882,653.452 637.882,648.118 641.5,641.5C 649.16,632.507 657.16,623.84 665.5,615.5C 671.55,611.783 676.217,606.783 679.5,600.5C 701.5,576.833 723.5,553.167 745.5,529.5C 768.323,504.843 791.323,480.343 814.5,456C 826.527,449.021 838.86,448.688 851.5,455C 852.878,456.713 854.545,458.047 856.5,459C 873.661,474.495 890.495,490.328 907,506.5C 913.309,517.439 914.142,528.772 909.5,540.5 Z M 467.5,775.5 C 480.167,775.5 492.833,775.5 505.5,775.5C 503.623,778.73 500.956,780.73 497.5,781.5C 498.244,784.95 496.91,786.616 493.5,786.5C 493.167,788.5 492.833,790.5 492.5,792.5C 490.833,792.5 489.167,792.5 487.5,792.5C 487.657,793.873 487.49,795.207 487,796.5C 486.333,797.833 485.667,797.833 485,796.5C 484.667,797.833 484.333,799.167 484,800.5C 482.869,797.555 482.036,794.555 481.5,791.5C 480.178,791.67 479.011,791.337 478,790.5C 475.44,784.815 471.94,779.815 467.5,775.5 Z"/></g>
<g><path style="opacity:1" fill="#7f7f7f" d="M 383.5,470.5 C 430.501,470.333 477.501,470.5 524.5,471C 525.667,471.5 526.5,472.333 527,473.5C 527.667,490.833 527.667,508.167 527,525.5C 526.5,526.667 525.667,527.5 524.5,528C 477.5,528.667 430.5,528.667 383.5,528C 382.333,527.5 381.5,526.667 381,525.5C 380.333,508.167 380.333,490.833 381,473.5C 381.698,472.309 382.531,471.309 383.5,470.5 Z"/></g>
<g><path style="opacity:1" fill="#7f7f7f" d="M 553.5,471.5 C 600.833,471.5 648.167,471.5 695.5,471.5C 695.808,477.425 695.475,483.259 694.5,489C 682.96,489.513 672.293,492.847 662.5,499C 652.63,505.198 643.63,512.531 635.5,521C 608.188,522.374 580.855,522.874 553.5,522.5C 553.5,505.5 553.5,488.5 553.5,471.5 Z"/></g>
<g><path style="opacity:1" fill="#818181" d="M 793.5,471.5 C 784.554,480.287 776.054,489.62 768,499.5C 766.385,500.386 764.885,501.386 763.5,502.5C 766.168,498.563 769.335,494.897 773,491.5C 773.483,490.552 773.649,489.552 773.5,488.5C 760.167,488.5 746.833,488.5 733.5,488.5C 733.5,482.833 733.5,477.167 733.5,471.5C 753.5,471.5 773.5,471.5 793.5,471.5 Z"/></g>
<g><path style="opacity:0.032" fill="#fefefe" d="M 895.5,486.5 C 897.553,486.402 899.22,487.069 900.5,488.5C 898.833,488.5 897.167,488.5 895.5,488.5C 895.5,487.833 895.5,487.167 895.5,486.5 Z"/></g>
<g><path style="opacity:1" fill="#6b6b6b" d="M 895.5,488.5 C 897.167,488.5 898.833,488.5 900.5,488.5C 927.218,488.036 953.884,488.536 980.5,490C 990.114,495.42 993.281,503.587 990,514.5C 944.333,590.5 898.667,666.5 853,742.5C 839.121,759.02 821.621,769.853 800.5,775C 767.835,775.5 735.168,775.667 702.5,775.5C 701.5,775.5 700.5,775.5 699.5,775.5C 708.283,766.625 716.617,757.292 724.5,747.5C 727.631,744.871 730.631,742.038 733.5,739C 754.209,738.941 774.876,738.274 795.5,737C 805.695,733.654 814.529,728.154 822,720.5C 861.211,655.915 900.044,591.082 938.5,526C 932.509,525.501 926.509,525.334 920.5,525.5C 920.345,521.371 919.512,517.371 918,513.5C 916.183,511.584 915.016,509.251 914.5,506.5C 913.817,506.137 913.15,505.804 912.5,505.5C 906.5,500.167 900.833,494.5 895.5,488.5 Z"/></g>
<g><path style="opacity:1" fill="#8e8d8c" d="M 741.5,525.5 C 741.5,525.833 741.5,526.167 741.5,526.5C 740.833,526.5 740.167,526.5 739.5,526.5C 704.56,518.945 676.893,529.445 656.5,558C 654.283,559.275 651.949,560.275 649.5,561C 453.833,561.333 258.167,561.667 62.5,562C 93.126,613.418 123.626,664.918 154,716.5C 162.68,727.263 173.847,734.096 187.5,737C 214.5,737.333 241.5,737.667 268.5,738C 274.481,748.145 280.814,757.978 287.5,767.5C 286.504,767.586 285.671,767.252 285,766.5C 283.961,763.987 282.628,761.653 281,759.5C 274.76,754.024 270.26,747.357 267.5,739.5C 240.506,738.667 213.506,738.167 186.5,738C 172.847,735.096 161.68,728.263 153,717.5C 122.293,665.251 91.4593,613.084 60.5,561C 256.5,560.667 452.5,560.333 648.5,560C 650.949,559.275 653.283,558.275 655.5,557C 660.091,550.405 665.424,544.405 671.5,539C 680.305,531.1 690.638,526.766 702.5,526C 715.496,525.5 728.496,525.333 741.5,525.5 Z"/></g>
<g><path style="opacity:1" fill="#8e8d8c" d="M 912.5,505.5 C 913.15,505.804 913.817,506.137 914.5,506.5C 915.016,509.251 916.183,511.584 918,513.5C 919.512,517.371 920.345,521.371 920.5,525.5C 926.509,525.334 932.509,525.501 938.5,526C 900.044,591.082 861.211,655.915 822,720.5C 814.529,728.154 805.695,733.654 795.5,737C 774.876,738.274 754.209,738.941 733.5,739C 730.631,742.038 727.631,744.871 724.5,747.5C 726.833,743.167 730.167,739.833 734.5,737.5C 754.546,737.939 774.546,737.439 794.5,736C 804.695,732.654 813.529,727.154 821,719.5C 859.877,655.582 898.377,591.415 936.5,527C 929.842,526.5 923.175,526.334 916.5,526.5C 916.824,522.445 916.491,518.445 915.5,514.5C 914.038,511.653 913.038,508.653 912.5,505.5 Z"/></g>
<g><path style="opacity:1" fill="#dfded9" d="M 739.5,526.5 C 732.727,535.447 725.061,543.78 716.5,551.5C 715.542,553.624 714.375,555.624 713,557.5C 708.366,560.14 704.366,563.473 701,567.5C 699.991,569.025 699.491,570.692 699.5,572.5C 698.448,572.351 697.448,572.517 696.5,573C 689.782,580.262 682.949,587.429 676,594.5C 673.301,597.922 670.968,601.589 669,605.5C 667.188,607.3 665.355,608.967 663.5,610.5C 660.715,600.387 654.048,595.053 643.5,594.5C 626.771,597.271 620.605,606.938 625,623.5C 628.262,629.265 633.095,632.931 639.5,634.5C 634.913,638.403 630.746,642.736 627,647.5C 623.789,652.891 619.456,657.224 614,660.5C 613.529,662.246 612.862,663.913 612,665.5C 606.943,667.723 603.443,671.389 601.5,676.5C 599.424,678.288 597.257,679.954 595,681.5C 594.693,684.876 592.86,686.21 589.5,685.5C 589.579,686.93 589.246,688.264 588.5,689.5C 585.489,692.012 582.656,694.678 580,697.5C 579.667,698.5 579.333,699.5 579,700.5C 574.416,703.193 570.916,706.859 568.5,711.5C 559.668,719.166 551.668,727.666 544.5,737C 546,740.011 546.834,739.511 547,735.5C 547.48,737.133 548.313,738.466 549.5,739.5C 541.503,748.497 533.17,757.163 524.5,765.5C 519.262,766.884 515.262,770.05 512.5,775C 511.552,775.483 510.552,775.649 509.5,775.5C 512.849,772.307 515.683,768.64 518,764.5C 525.06,759.938 530.893,754.271 535.5,747.5C 538.858,745.14 541.525,742.14 543.5,738.5C 507.84,737.5 472.173,737.167 436.5,737.5C 431.525,730.34 426.692,723.006 422,715.5C 420.846,714.257 419.512,713.257 418,712.5C 416.223,706.723 412.889,702.056 408,698.5C 405.05,693.882 401.716,689.548 398,685.5C 395.599,679.301 391.933,673.968 387,669.5C 384.371,664.589 381.204,660.089 377.5,656C 373.71,655.77 370.376,654.437 367.5,652C 360.167,651.333 352.833,651.333 345.5,652C 340.665,654.056 335.665,655.723 330.5,657C 329.167,659 327.833,661 326.5,663C 319.939,666.44 313.939,670.606 308.5,675.5C 306.885,676.154 305.218,676.654 303.5,677C 293.597,684.379 283.93,692.046 274.5,700C 272.174,703.146 270.841,706.646 270.5,710.5C 271.5,710.5 272.5,710.5 273.5,710.5C 273.5,710.833 273.5,711.167 273.5,711.5C 271.11,715.558 270.11,720.058 270.5,725C 270.323,730.01 271.156,734.844 273,739.5C 277.7,746.924 282.866,753.924 288.5,760.5C 291.094,764.026 293.427,767.692 295.5,771.5C 294.167,772.833 292.833,774.167 291.5,775.5C 290.618,772.615 289.284,769.948 287.5,767.5C 280.814,757.978 274.481,748.145 268.5,738C 241.5,737.667 214.5,737.333 187.5,737C 173.847,734.096 162.68,727.263 154,716.5C 123.626,664.918 93.126,613.418 62.5,562C 258.167,561.667 453.833,561.333 649.5,561C 651.949,560.275 654.283,559.275 656.5,558C 676.893,529.445 704.56,518.945 739.5,526.5 Z"/></g>
<g><path style="opacity:1" fill="#deddd8" d="M 895.5,488.5 C 900.833,494.5 906.5,500.167 912.5,505.5C 913.038,508.653 914.038,511.653 915.5,514.5C 916.491,518.445 916.824,522.445 916.5,526.5C 923.175,526.334 929.842,526.5 936.5,527C 898.377,591.415 859.877,655.582 821,719.5C 813.529,727.154 804.695,732.654 794.5,736C 774.546,737.439 754.546,737.939 734.5,737.5C 745.578,724.589 757.412,712.589 770,701.5C 770.333,700.167 770.667,698.833 771,697.5C 803.721,663.115 836.054,628.449 868,593.5C 876.023,586.476 883.689,579.143 891,571.5C 892.569,568.846 894.236,566.179 896,563.5C 902.37,557.732 908.037,551.399 913,544.5C 913.808,542.421 913.641,540.421 912.5,538.5C 911.749,539.376 911.249,540.376 911,541.5C 910.617,540.944 910.117,540.611 909.5,540.5C 914.142,528.772 913.309,517.439 907,506.5C 890.495,490.328 873.661,474.495 856.5,459C 854.545,458.047 852.878,456.713 851.5,455C 838.86,448.688 826.527,449.021 814.5,456C 791.323,480.343 768.323,504.843 745.5,529.5C 745.5,528.5 745.5,527.5 745.5,526.5C 744.167,526.5 742.833,526.5 741.5,526.5C 741.5,526.167 741.5,525.833 741.5,525.5C 749.064,518.025 756.397,510.358 763.5,502.5C 764.885,501.386 766.385,500.386 768,499.5C 776.054,489.62 784.554,480.287 793.5,471.5C 801.801,458.03 813.468,448.863 828.5,444C 835.153,443.452 841.653,444.286 848,446.5C 864.552,459.544 880.385,473.544 895.5,488.5 Z"/></g>
<g><path style="opacity:1" fill="#69f74d" d="M 868.5,585.5 C 864.539,591.129 859.873,596.129 854.5,600.5C 857.783,594.217 862.45,589.217 868.5,585.5 Z"/></g>
<g><path style="opacity:1" fill="#a18d89" d="M 276.5,594.5 C 295.208,593.909 303.375,602.909 301,621.5C 294.547,634.098 284.714,637.598 271.5,632C 262.267,624.133 260.101,614.633 265,603.5C 268.161,599.491 271.994,596.491 276.5,594.5 Z"/></g>
<g><path style="opacity:1" fill="#a18d89" d="M 349.5,594.5 C 366.491,593.658 374.658,601.658 374,618.5C 370.486,630.848 362.319,636.015 349.5,634C 335.022,628.259 330.855,618.092 337,603.5C 340.299,599.118 344.466,596.118 349.5,594.5 Z"/></g>
<g><path style="opacity:1" fill="#a18d89" d="M 421.5,594.5 C 439.521,594.019 447.688,602.685 446,620.5C 439.171,634.776 428.671,638.276 414.5,631C 403.833,620 403.833,609 414.5,598C 416.925,596.787 419.259,595.621 421.5,594.5 Z"/></g>
<g><path style="opacity:1" fill="#a18d89" d="M 493.5,594.5 C 512.222,593.953 520.389,602.953 518,621.5C 510.73,634.921 500.23,638.088 486.5,631C 476.685,621.283 476.018,610.95 484.5,600C 487.263,597.626 490.263,595.792 493.5,594.5 Z"/></g>
<g><path style="opacity:1" fill="#a18d89" d="M 565.5,594.5 C 586.54,594.267 594.373,604.267 589,624.5C 581.625,634.698 572.125,637.198 560.5,632C 551.513,625.175 549.013,616.342 553,605.5C 556.124,600.536 560.291,596.87 565.5,594.5 Z"/></g>
<g><path style="opacity:1" fill="#a38e8b" d="M 663.5,610.5 C 663.5,611.167 663.167,611.5 662.5,611.5C 658.361,598.596 649.694,593.763 636.5,597C 625.962,602.578 622.462,611.078 626,622.5C 629.603,629.049 635.103,632.716 642.5,633.5C 641.791,634.404 640.791,634.737 639.5,634.5C 633.095,632.931 628.262,629.265 625,623.5C 620.605,606.938 626.771,597.271 643.5,594.5C 654.048,595.053 660.715,600.387 663.5,610.5 Z"/></g>
<g><path style="opacity:1" fill="#000000" d="M 277.5,595.5 C 294.198,595.565 301.698,603.898 300,620.5C 294.194,632.659 285.027,636.159 272.5,631C 263.542,623.798 261.375,614.965 266,604.5C 269.161,600.491 272.994,597.491 277.5,595.5 Z"/></g>
<g><path style="opacity:1" fill="#000000" d="M 350.5,595.5 C 365.494,595.329 372.994,602.662 373,617.5C 367.813,632.508 357.98,636.675 343.5,630C 335.175,622.997 333.341,614.497 338,604.5C 341.299,600.118 345.466,597.118 350.5,595.5 Z"/></g>
<g><path style="opacity:1" fill="#000000" d="M 422.5,595.5 C 433.468,594.728 440.968,599.395 445,609.5C 446.576,620.85 442.076,628.683 431.5,633C 415.506,634.006 407.673,626.506 408,610.5C 410.351,602.984 415.184,597.984 422.5,595.5 Z"/></g>
<g><path style="opacity:1" fill="#000000" d="M 494.5,595.5 C 511.212,595.608 518.712,603.941 517,620.5C 510.377,633.485 500.544,636.652 487.5,630C 477.758,620.957 477.091,611.291 485.5,601C 488.263,598.626 491.263,596.792 494.5,595.5 Z"/></g>
<g><path style="opacity:1" fill="#000000" d="M 566.5,595.5 C 584.278,595.437 591.778,604.103 589,621.5C 580.496,634.964 569.829,636.964 557,627.5C 548.751,613.414 551.918,602.748 566.5,595.5 Z"/></g>
<g><path style="opacity:1" fill="#010101" d="M 662.5,611.5 C 658.131,614.869 654.464,618.869 651.5,623.5C 648.833,624.167 647.167,625.833 646.5,628.5C 644.937,629.945 643.604,631.611 642.5,633.5C 635.103,632.716 629.603,629.049 626,622.5C 622.462,611.078 625.962,602.578 636.5,597C 649.694,593.763 658.361,598.596 662.5,611.5 Z"/></g>
<g><path style="opacity:1" fill="#66f74a" d="M 679.5,600.5 C 676.217,606.783 671.55,611.783 665.5,615.5C 670.195,610.474 674.861,605.474 679.5,600.5 Z"/></g>
<g><path style="opacity:1" fill="#6c6c6c" d="M 662.5,611.5 C 659.593,616.079 655.926,620.079 651.5,623.5C 654.464,618.869 658.131,614.869 662.5,611.5 Z"/></g>
<g><path style="opacity:1" fill="#575757" d="M 651.5,623.5 C 650.167,625.5 648.5,627.167 646.5,628.5C 647.167,625.833 648.833,624.167 651.5,623.5 Z"/></g>
<g><path style="opacity:1" fill="#64f848" d="M 831.5,625.5 C 822.2,636.135 812.533,646.468 802.5,656.5C 802.351,655.448 802.517,654.448 803,653.5C 811.673,644.827 820.006,635.827 828,626.5C 829.011,625.663 830.178,625.33 831.5,625.5 Z"/></g>
<g><path style="opacity:1" fill="#6bf650" d="M 641.5,641.5 C 637.882,648.118 632.882,653.452 626.5,657.5C 630.795,651.537 635.795,646.204 641.5,641.5 Z"/></g>
<g><path style="opacity:1" fill="#e6e9e4" d="M 739.5,526.5 C 740.167,526.5 740.833,526.5 741.5,526.5C 742.833,526.5 744.167,526.5 745.5,526.5C 745.5,527.5 745.5,528.5 745.5,529.5C 723.5,553.167 701.5,576.833 679.5,600.5C 674.861,605.474 670.195,610.474 665.5,615.5C 657.16,623.84 649.16,632.507 641.5,641.5C 635.795,646.204 630.795,651.537 626.5,657.5C 620.795,662.204 615.795,667.537 611.5,673.5C 606.711,677.745 602.378,682.411 598.5,687.5C 582.185,704.75 565.852,722.083 549.5,739.5C 548.313,738.466 547.48,737.133 547,735.5C 546.834,739.511 546,740.011 544.5,737C 551.668,727.666 559.668,719.166 568.5,711.5C 570.916,706.859 574.416,703.193 579,700.5C 579.333,699.5 579.667,698.5 580,697.5C 582.656,694.678 585.489,692.012 588.5,689.5C 589.246,688.264 589.579,686.93 589.5,685.5C 592.86,686.21 594.693,684.876 595,681.5C 597.257,679.954 599.424,678.288 601.5,676.5C 603.443,671.389 606.943,667.723 612,665.5C 612.862,663.913 613.529,662.246 614,660.5C 619.456,657.224 623.789,652.891 627,647.5C 630.746,642.736 634.913,638.403 639.5,634.5C 640.791,634.737 641.791,634.404 642.5,633.5C 643.604,631.611 644.937,629.945 646.5,628.5C 648.5,627.167 650.167,625.5 651.5,623.5C 655.926,620.079 659.593,616.079 662.5,611.5C 663.167,611.5 663.5,611.167 663.5,610.5C 665.355,608.967 667.188,607.3 669,605.5C 670.968,601.589 673.301,597.922 676,594.5C 682.949,587.429 689.782,580.262 696.5,573C 697.448,572.517 698.448,572.351 699.5,572.5C 699.491,570.692 699.991,569.025 701,567.5C 704.366,563.473 708.366,560.14 713,557.5C 714.375,555.624 715.542,553.624 716.5,551.5C 725.061,543.78 732.727,535.447 739.5,526.5 Z"/></g>
<g><path style="opacity:1" fill="#e8eae6" d="M 436.5,737.5 C 437.08,739.749 438.413,741.415 440.5,742.5C 447.938,752.651 455.105,762.985 462,773.5C 463.444,775.155 465.278,775.822 467.5,775.5C 471.94,779.815 475.44,784.815 478,790.5C 479.011,791.337 480.178,791.67 481.5,791.5C 482.036,794.555 482.869,797.555 484,800.5C 484.333,799.167 484.667,797.833 485,796.5C 485.667,797.833 486.333,797.833 487,796.5C 487.49,795.207 487.657,793.873 487.5,792.5C 489.167,792.5 490.833,792.5 492.5,792.5C 492.833,790.5 493.167,788.5 493.5,786.5C 496.91,786.616 498.244,784.95 497.5,781.5C 500.956,780.73 503.623,778.73 505.5,775.5C 506.833,775.5 508.167,775.5 509.5,775.5C 510.552,775.649 511.552,775.483 512.5,775C 515.262,770.05 519.262,766.884 524.5,765.5C 512.465,779.711 499.798,793.544 486.5,807C 485.241,807.982 483.908,808.315 482.5,808C 447.633,761.1 413.133,713.933 379,666.5C 373.852,661.178 367.685,657.844 360.5,656.5C 352.98,654.662 345.646,655.495 338.5,659C 337.619,659.708 336.953,660.542 336.5,661.5C 318.961,673.102 301.961,685.435 285.5,698.5C 280.521,701.479 276.521,705.479 273.5,710.5C 272.5,710.5 271.5,710.5 270.5,710.5C 270.841,706.646 272.174,703.146 274.5,700C 283.93,692.046 293.597,684.379 303.5,677C 305.218,676.654 306.885,676.154 308.5,675.5C 313.939,670.606 319.939,666.44 326.5,663C 327.833,661 329.167,659 330.5,657C 335.665,655.723 340.665,654.056 345.5,652C 352.833,651.333 360.167,651.333 367.5,652C 370.376,654.437 373.71,655.77 377.5,656C 381.204,660.089 384.371,664.589 387,669.5C 391.933,673.968 395.599,679.301 398,685.5C 401.716,689.548 405.05,693.882 408,698.5C 412.889,702.056 416.223,706.723 418,712.5C 419.512,713.257 420.846,714.257 422,715.5C 426.692,723.006 431.525,730.34 436.5,737.5 Z M 467.5,775.5 C 480.167,775.5 492.833,775.5 505.5,775.5C 503.623,778.73 500.956,780.73 497.5,781.5C 498.244,784.95 496.91,786.616 493.5,786.5C 493.167,788.5 492.833,790.5 492.5,792.5C 490.833,792.5 489.167,792.5 487.5,792.5C 487.657,793.873 487.49,795.207 487,796.5C 486.333,797.833 485.667,797.833 485,796.5C 484.667,797.833 484.333,799.167 484,800.5C 482.869,797.555 482.036,794.555 481.5,791.5C 480.178,791.67 479.011,791.337 478,790.5C 475.44,784.815 471.94,779.815 467.5,775.5 Z"/></g>
<g><path style="opacity:1" fill="#6bef51" d="M 360.5,656.5 C 356.154,656.334 351.821,656.501 347.5,657C 343.933,658.809 340.266,660.309 336.5,661.5C 336.953,660.542 337.619,659.708 338.5,659C 345.646,655.495 352.98,654.662 360.5,656.5 Z"/></g>
<g><path style="opacity:1" fill="#e8eae6" d="M 734.5,737.5 C 730.167,739.833 726.833,743.167 724.5,747.5C 723.504,747.414 722.671,747.748 722,748.5C 714.309,758.02 706.142,767.02 697.5,775.5C 694.892,775.4 692.558,776.067 690.5,777.5C 727.805,737.193 765.139,696.859 802.5,656.5C 812.533,646.468 822.2,636.135 831.5,625.5C 839.507,617.493 847.173,609.159 854.5,600.5C 859.873,596.129 864.539,591.129 868.5,585.5C 883.189,571.476 896.855,556.476 909.5,540.5C 910.117,540.611 910.617,540.944 911,541.5C 911.249,540.376 911.749,539.376 912.5,538.5C 913.641,540.421 913.808,542.421 913,544.5C 908.037,551.399 902.37,557.732 896,563.5C 894.236,566.179 892.569,568.846 891,571.5C 883.689,579.143 876.023,586.476 868,593.5C 836.054,628.449 803.721,663.115 771,697.5C 770.667,698.833 770.333,700.167 770,701.5C 757.412,712.589 745.578,724.589 734.5,737.5 Z"/></g>
<g><path style="opacity:1" fill="#65f749" d="M 611.5,673.5 C 608.854,679.673 604.52,684.34 598.5,687.5C 602.378,682.411 606.711,677.745 611.5,673.5 Z"/></g>
<g><path style="opacity:1" fill="#65f749" d="M 285.5,698.5 C 282.198,703.403 278.198,707.736 273.5,711.5C 273.5,711.167 273.5,710.833 273.5,710.5C 276.521,705.479 280.521,701.479 285.5,698.5 Z"/></g>
<g><path style="opacity:1" fill="#5dfa40" d="M 273.5,711.5 C 272.69,719.155 272.523,726.822 273,734.5C 277.182,742.686 282.182,750.352 288,757.5C 288.483,758.448 288.649,759.448 288.5,760.5C 282.866,753.924 277.7,746.924 273,739.5C 271.156,734.844 270.323,730.01 270.5,725C 270.11,720.058 271.11,715.558 273.5,711.5 Z"/></g>
<g><path style="opacity:1" fill="#8e8e8d" d="M 436.5,737.5 C 472.173,737.167 507.84,737.5 543.5,738.5C 541.525,742.14 538.858,745.14 535.5,747.5C 536.713,744.281 538.713,741.615 541.5,739.5C 507.5,738.167 473.5,738.167 439.5,739.5C 440.127,740.417 440.461,741.417 440.5,742.5C 438.413,741.415 437.08,739.749 436.5,737.5 Z"/></g>
<g><path style="opacity:1" fill="#6c6c6c" d="M 535.5,747.5 C 530.893,754.271 525.06,759.938 518,764.5C 515.683,768.64 512.849,772.307 509.5,775.5C 508.167,775.5 506.833,775.5 505.5,775.5C 492.833,775.5 480.167,775.5 467.5,775.5C 465.278,775.822 463.444,775.155 462,773.5C 455.105,762.985 447.938,752.651 440.5,742.5C 440.461,741.417 440.127,740.417 439.5,739.5C 473.5,738.167 507.5,738.167 541.5,739.5C 538.713,741.615 536.713,744.281 535.5,747.5 Z"/></g>
<g><path style="opacity:1" fill="#aaaaaa" d="M 724.5,747.5 C 716.617,757.292 708.283,766.625 699.5,775.5C 698.833,775.5 698.167,775.5 697.5,775.5C 706.142,767.02 714.309,758.02 722,748.5C 722.671,747.748 723.504,747.414 724.5,747.5 Z"/></g>
<g><path style="opacity:0.745" fill="#f1f2f0" d="M 295.5,771.5 C 341.468,833.411 386.968,895.745 432,958.5C 439.779,969.458 449.945,977.125 462.5,981.5C 466.192,983.933 470.359,984.933 475,984.5C 490.115,984.441 502.615,978.774 512.5,967.5C 572.256,904.416 631.589,841.082 690.5,777.5C 692.558,776.067 694.892,775.4 697.5,775.5C 698.167,775.5 698.833,775.5 699.5,775.5C 700.5,775.5 701.5,775.5 702.5,775.5C 701.665,776.943 700.332,777.943 698.5,778.5C 697.123,781.826 695.29,784.826 693,787.5C 691.491,788.09 689.991,788.756 688.5,789.5C 688.322,792.804 686.656,794.471 683.5,794.5C 683.5,795.833 683.5,797.167 683.5,798.5C 682.127,798.343 680.793,798.51 679.5,799C 675.52,804.458 671.187,809.625 666.5,814.5C 665.675,815.386 664.675,815.719 663.5,815.5C 663.5,816.833 663.5,818.167 663.5,819.5C 660.103,820.568 658.103,822.901 657.5,826.5C 655.42,827.044 653.42,827.878 651.5,829C 650.423,832.413 648.256,834.913 645,836.5C 644.517,837.448 644.351,838.448 644.5,839.5C 641.612,839.22 640.112,840.553 640,843.5C 636.724,844.727 634.891,847.06 634.5,850.5C 633.167,850.5 631.833,850.5 630.5,850.5C 630.649,851.552 630.483,852.552 630,853.5C 626.983,855.342 625.483,858.009 625.5,861.5C 622.618,861.608 620.285,862.774 618.5,865C 617.363,867.457 615.863,869.624 614,871.5C 613.333,870.167 612.667,870.167 612,871.5C 611.693,874.876 609.86,876.21 606.5,875.5C 606.849,878.99 605.349,881.323 602,882.5C 601.51,883.793 601.343,885.127 601.5,886.5C 597.735,886.676 595.735,888.676 595.5,892.5C 594.5,892.5 593.5,892.5 592.5,892.5C 593.041,896.295 591.375,898.295 587.5,898.5C 586.96,899.748 586.293,900.915 585.5,902C 579.742,905.648 575.075,910.481 571.5,916.5C 570.675,917.386 569.675,917.719 568.5,917.5C 568.1,921.347 566.1,923.68 562.5,924.5C 562.5,925.5 562.5,926.5 562.5,927.5C 561.448,927.351 560.448,927.517 559.5,928C 558.257,930.116 557.091,932.282 556,934.5C 550.81,936.516 547.643,940.183 546.5,945.5C 543.99,946.783 541.323,947.783 538.5,948.5C 538.762,949.978 538.429,951.311 537.5,952.5C 534.453,953.875 533.12,956.208 533.5,959.5C 532.167,959.5 530.833,959.5 529.5,959.5C 529.649,960.552 529.483,961.552 529,962.5C 525.763,964.231 523.93,966.898 523.5,970.5C 522.178,970.67 521.011,970.337 520,969.5C 519.51,970.793 519.343,972.127 519.5,973.5C 514.328,975.241 510.661,978.574 508.5,983.5C 506.473,983.338 504.473,983.505 502.5,984C 501.167,984.667 501.167,985.333 502.5,986C 500.059,986.036 498.059,986.869 496.5,988.5C 493.914,989.48 491.247,989.813 488.5,989.5C 488.5,990.833 488.5,992.167 488.5,993.5C 478.506,993.787 468.506,992.621 458.5,990C 457.953,989.075 457.287,988.242 456.5,987.5C 452.341,989.08 450.008,987.58 449.5,983C 447.527,982.505 445.527,982.338 443.5,982.5C 443.714,980.856 443.38,979.356 442.5,978C 438.886,978.034 436.553,976.367 435.5,973C 434.552,972.517 433.552,972.351 432.5,972.5C 433.244,969.05 431.91,967.384 428.5,967.5C 428.55,965.41 427.55,964.077 425.5,963.5C 424.548,961.955 424.215,960.288 424.5,958.5C 423.5,958.5 422.5,958.5 421.5,958.5C 418.203,953.008 415.203,947.341 412.5,941.5C 411.178,941.67 410.011,941.337 409,940.5C 407.839,937.733 406.673,935.067 405.5,932.5C 404.5,932.5 403.5,932.5 402.5,932.5C 402.5,930.833 402.5,929.167 402.5,927.5C 401.178,927.67 400.011,927.337 399,926.5C 397.038,923.205 394.705,920.205 392,917.5C 390.839,914.733 389.673,912.067 388.5,909.5C 387.5,909.5 386.5,909.5 385.5,909.5C 384.828,906.356 383.828,903.356 382.5,900.5C 378.657,900.809 377.324,899.309 378.5,896C 377.552,895.517 376.552,895.351 375.5,895.5C 374.828,892.356 373.828,889.356 372.5,886.5C 371.5,886.5 370.5,886.5 369.5,886.5C 369.762,885.022 369.429,883.689 368.5,882.5C 364.477,877.312 360.31,872.312 356,867.5C 353.36,863.738 351.193,859.738 349.5,855.5C 346.234,855.567 344.734,853.901 345,850.5C 343.333,848.833 341.667,847.167 340,845.5C 339.51,844.207 339.343,842.873 339.5,841.5C 338.5,841.5 337.5,841.5 336.5,841.5C 335.882,838.602 334.715,835.935 333,833.5C 331.989,832.663 330.822,832.33 329.5,832.5C 329.5,830.833 329.5,829.167 329.5,827.5C 328.178,827.67 327.011,827.337 326,826.5C 325.585,824.709 324.585,823.376 323,822.5C 322.51,821.207 322.343,819.873 322.5,818.5C 321.5,818.5 320.5,818.5 319.5,818.5C 319.5,817.167 319.5,815.833 319.5,814.5C 318.325,814.719 317.325,814.386 316.5,813.5C 313.59,809.399 311.256,805.066 309.5,800.5C 308.5,800.5 307.5,800.5 306.5,800.5C 306.762,799.022 306.429,797.689 305.5,796.5C 304.05,795.345 303.05,793.845 302.5,792C 299.354,791.89 298.354,790.557 299.5,788C 297.607,785.697 295.607,783.53 293.5,781.5C 292.571,780.311 292.238,778.978 292.5,777.5C 290.821,777.715 289.821,777.048 289.5,775.5C 290.167,775.5 290.833,775.5 291.5,775.5C 292.833,774.167 294.167,772.833 295.5,771.5 Z M 467.5,775.5 C 480.167,775.5 492.833,775.5 505.5,775.5C 503.623,778.73 500.956,780.73 497.5,781.5C 498.244,784.95 496.91,786.616 493.5,786.5C 493.167,788.5 492.833,790.5 492.5,792.5C 490.833,792.5 489.167,792.5 487.5,792.5C 487.657,793.873 487.49,795.207 487,796.5C 486.333,797.833 485.667,797.833 485,796.5C 484.667,797.833 484.333,799.167 484,800.5C 482.869,797.555 482.036,794.555 481.5,791.5C 480.178,791.67 479.011,791.337 478,790.5C 475.44,784.815 471.94,779.815 467.5,775.5 Z"/></g>
<g><path style="opacity:1" fill="#61f744" d="M 512.5,967.5 C 502.615,978.774 490.115,984.441 475,984.5C 470.359,984.933 466.192,983.933 462.5,981.5C 477.71,984.698 491.71,981.865 504.5,973C 506.546,970.097 509.213,968.264 512.5,967.5 Z"/></g>
</svg>
