<?xml version="1.0" encoding="UTF-8"?>
<!DOCTYPE svg PUBLIC "-//W3C//DTD SVG 1.1//EN" "http://www.w3.org/Graphics/SVG/1.1/DTD/svg11.dtd">
<svg xmlns="http://www.w3.org/2000/svg" version="1.1" width="1000px" height="1000px" style="shape-rendering:geometricPrecision; text-rendering:geometricPrecision; image-rendering:optimizeQuality; fill-rule:evenodd; clip-rule:evenodd" xmlns:xlink="http://www.w3.org/1999/xlink">
<g><path style="opacity:0.99" fill="#000000" d="M 527.5,253.5 C 592.168,253.333 656.834,253.5 721.5,254C 727.492,256.659 731.325,261.159 733,267.5C 733.5,292.831 733.667,318.164 733.5,343.5C 757.169,343.333 780.836,343.5 804.5,344C 813.314,344.805 819.147,349.305 822,357.5C 822.5,382.831 822.667,408.164 822.5,433.5C 841.17,433.333 859.836,433.5 878.5,434C 886.712,435.214 892.212,439.714 895,447.5C 895.5,461.163 895.667,474.829 895.5,488.5C 923.884,488.033 952.217,488.533 980.5,490C 990.114,495.42 993.281,503.587 990,514.5C 944.333,590.5 898.667,666.5 853,742.5C 839.121,759.02 821.621,769.853 800.5,775C 592.5,775.667 384.5,775.667 176.5,775C 155.889,769.953 138.723,759.453 125,743.5C 85.83,679.164 47.1634,614.498 9,549.5C 5.28523,533.056 11.7852,524.056 28.5,522.5C 28.3333,456.499 28.5,390.499 29,324.5C 30.2804,315.886 35.1137,310.386 43.5,308C 118.167,307.333 192.833,307.333 267.5,308C 273.457,309.623 277.957,313.123 281,318.5C 282.49,386.442 282.99,454.442 282.5,522.5C 306.502,522.667 330.502,522.5 354.5,522C 353.34,498.573 353.173,475.073 354,451.5C 355.04,441.46 360.54,435.627 370.5,434C 389.164,433.5 407.83,433.333 426.5,433.5C 426.333,409.164 426.5,384.831 427,360.5C 428.285,350.216 434.118,344.716 444.5,344C 468.498,343.5 492.498,343.333 516.5,343.5C 516.333,317.831 516.5,292.165 517,266.5C 519.093,260.954 522.593,256.621 527.5,253.5 Z"/></g>
<g><path style="opacity:1" fill="#523c8f" d="M 698.5,294.5 C 649.5,294.5 600.5,294.5 551.5,294.5C 551.085,291.632 552.085,289.465 554.5,288C 601.5,287.333 648.5,287.333 695.5,288C 697.915,289.465 698.915,291.632 698.5,294.5 Z"/></g>
<g><path style="opacity:1" fill="#5c408c" d="M 551.5,294.5 C 600.5,294.5 649.5,294.5 698.5,294.5C 698.5,296.167 698.5,297.833 698.5,299.5C 649.5,299.5 600.5,299.5 551.5,299.5C 551.5,297.833 551.5,296.167 551.5,294.5 Z"/></g>
<g><path style="opacity:1" fill="#6a4388" d="M 551.5,299.5 C 600.5,299.5 649.5,299.5 698.5,299.5C 698.5,300.833 698.5,302.167 698.5,303.5C 649.5,303.5 600.5,303.5 551.5,303.5C 551.5,302.167 551.5,300.833 551.5,299.5 Z"/></g>
<g><path style="opacity:1" fill="#774584" d="M 551.5,303.5 C 600.5,303.5 649.5,303.5 698.5,303.5C 698.5,304.833 698.5,306.167 698.5,307.5C 649.5,307.5 600.5,307.5 551.5,307.5C 551.5,306.167 551.5,304.833 551.5,303.5 Z"/></g>
<g><path style="opacity:1" fill="#804681" d="M 551.5,307.5 C 600.5,307.5 649.5,307.5 698.5,307.5C 698.5,308.5 698.5,309.5 698.5,310.5C 649.5,310.5 600.5,310.5 551.5,310.5C 551.5,309.5 551.5,308.5 551.5,307.5 Z"/></g>
<g><path style="opacity:1" fill="#8f477b" d="M 551.5,310.5 C 600.5,310.5 649.5,310.5 698.5,310.5C 698.5,312.167 698.5,313.833 698.5,315.5C 649.5,315.5 600.5,315.5 551.5,315.5C 551.5,313.833 551.5,312.167 551.5,310.5 Z"/></g>
<g><path style="opacity:1" fill="#9e4975" d="M 551.5,315.5 C 600.5,315.5 649.5,315.5 698.5,315.5C 698.5,316.833 698.5,318.167 698.5,319.5C 649.5,319.5 600.5,319.5 551.5,319.5C 551.5,318.167 551.5,316.833 551.5,315.5 Z"/></g>
<g><path style="opacity:1" fill="#a94870" d="M 551.5,319.5 C 600.5,319.5 649.5,319.5 698.5,319.5C 698.5,320.5 698.5,321.5 698.5,322.5C 649.5,322.5 600.5,322.5 551.5,322.5C 551.5,321.5 551.5,320.5 551.5,319.5 Z"/></g>
<g><path style="opacity:1" fill="#b6476a" d="M 551.5,322.5 C 600.5,322.5 649.5,322.5 698.5,322.5C 698.5,323.833 698.5,325.167 698.5,326.5C 649.5,326.5 600.5,326.5 551.5,326.5C 551.5,325.167 551.5,323.833 551.5,322.5 Z"/></g>
<g><path style="opacity:1" fill="#c34664" d="M 551.5,326.5 C 600.5,326.5 649.5,326.5 698.5,326.5C 698.5,327.833 698.5,329.167 698.5,330.5C 649.5,330.5 600.5,330.5 551.5,330.5C 551.5,329.167 551.5,327.833 551.5,326.5 Z"/></g>
<g><path style="opacity:1" fill="#d1435c" d="M 551.5,330.5 C 600.5,330.5 649.5,330.5 698.5,330.5C 698.5,332.5 698.5,334.5 698.5,336.5C 649.5,336.5 600.5,336.5 551.5,336.5C 551.5,334.5 551.5,332.5 551.5,330.5 Z"/></g>
<g><path style="opacity:1" fill="#dd4055" d="M 551.5,336.5 C 600.5,336.5 649.5,336.5 698.5,336.5C 698.5,337.5 698.5,338.5 698.5,339.5C 649.5,339.5 600.5,339.5 551.5,339.5C 551.5,338.5 551.5,337.5 551.5,336.5 Z"/></g>
<g><path style="opacity:1" fill="#e43e51" d="M 551.5,339.5 C 600.5,339.5 649.5,339.5 698.5,339.5C 698.737,340.791 698.404,341.791 697.5,342.5C 649.167,342.5 600.833,342.5 552.5,342.5C 551.596,341.791 551.263,340.791 551.5,339.5 Z"/></g>
<g><path style="opacity:1" fill="#e83c4d" d="M 552.5,342.5 C 600.833,342.5 649.167,342.5 697.5,342.5C 697.423,343.75 696.756,344.583 695.5,345C 648.5,345.667 601.5,345.667 554.5,345C 553.244,344.583 552.577,343.75 552.5,342.5 Z"/></g>
<g><path style="opacity:1" fill="#533c8e" d="M 66.5,344.5 C 126.167,344.5 185.833,344.5 245.5,344.5C 245.5,349.167 245.5,353.833 245.5,358.5C 245.167,358.5 244.833,358.5 244.5,358.5C 185.167,358.5 125.833,358.5 66.5,358.5C 66.5,353.833 66.5,349.167 66.5,344.5 Z"/></g>
<g><path style="opacity:1" fill="#5a3f8d" d="M 66.5,358.5 C 125.833,358.5 185.167,358.5 244.5,358.5C 244.5,361.5 244.5,364.5 244.5,367.5C 185.167,367.5 125.833,367.5 66.5,367.5C 66.5,364.5 66.5,361.5 66.5,358.5 Z"/></g>
<g><path style="opacity:1" fill="#60408b" d="M 244.5,358.5 C 244.833,358.5 245.167,358.5 245.5,358.5C 245.5,364.833 245.5,371.167 245.5,377.5C 186.049,375.51 126.382,374.843 66.5,375.5C 66.5,372.833 66.5,370.167 66.5,367.5C 125.833,367.5 185.167,367.5 244.5,367.5C 244.5,364.5 244.5,361.5 244.5,358.5 Z"/></g>
<g><path style="opacity:1" fill="#664187" d="M 66.5,344.5 C 66.5,349.167 66.5,353.833 66.5,358.5C 66.5,361.5 66.5,364.5 66.5,367.5C 66.5,370.167 66.5,372.833 66.5,375.5C 126.382,374.843 186.049,375.51 245.5,377.5C 232.538,379.319 219.204,380.152 205.5,380C 199.509,381.496 195.175,384.996 192.5,390.5C 186.167,390.5 179.833,390.5 173.5,390.5C 166.625,378.265 156.958,375.431 144.5,382C 141.619,384.279 139.619,387.112 138.5,390.5C 132.5,390.5 126.5,390.5 120.5,390.5C 114.014,379.096 104.681,375.929 92.5,381C 89.2413,383.695 86.5746,386.861 84.5,390.5C 78.5,390.5 72.5,390.5 66.5,390.5C 66.7947,388.265 66.4614,386.265 65.5,384.5C 65.1711,370.99 65.5044,357.656 66.5,344.5 Z"/></g>
<g><path style="opacity:1" fill="#b00000" d="M 120.5,390.5 C 121.754,394.848 121.754,399.182 120.5,403.5C 113.967,416.053 104.301,419.219 91.5,413C 88.1517,410.499 85.8184,407.332 84.5,403.5C 83.2271,399.199 83.2271,394.865 84.5,390.5C 86.5746,386.861 89.2413,383.695 92.5,381C 104.681,375.929 114.014,379.096 120.5,390.5 Z"/></g>
<g><path style="opacity:1" fill="#b00000" d="M 173.5,390.5 C 174.833,394.833 174.833,399.167 173.5,403.5C 167.042,416.582 157.042,419.415 143.5,412C 141.248,409.264 139.248,406.431 137.5,403.5C 136.038,399.02 136.371,394.687 138.5,390.5C 139.619,387.112 141.619,384.279 144.5,382C 156.958,375.431 166.625,378.265 173.5,390.5 Z"/></g>
<g><path style="opacity:1" fill="#523c8f" d="M 607.5,385.5 C 558.5,385.5 509.5,385.5 460.5,385.5C 460.085,382.632 461.085,380.465 463.5,379C 510.5,378.333 557.5,378.333 604.5,379C 606.915,380.465 607.915,382.632 607.5,385.5 Z"/></g>
<g><path style="opacity:1" fill="#523c8f" d="M 787.5,385.5 C 738.5,385.5 689.5,385.5 640.5,385.5C 640.085,382.632 641.085,380.465 643.5,379C 690.5,378.333 737.5,378.333 784.5,379C 786.915,380.465 787.915,382.632 787.5,385.5 Z"/></g>
<g><path style="opacity:1" fill="#5c408c" d="M 460.5,385.5 C 509.5,385.5 558.5,385.5 607.5,385.5C 607.5,387.167 607.5,388.833 607.5,390.5C 558.5,390.5 509.5,390.5 460.5,390.5C 460.5,388.833 460.5,387.167 460.5,385.5 Z"/></g>
<g><path style="opacity:1" fill="#5c408c" d="M 640.5,385.5 C 689.5,385.5 738.5,385.5 787.5,385.5C 787.5,387.167 787.5,388.833 787.5,390.5C 738.5,390.5 689.5,390.5 640.5,390.5C 640.5,388.833 640.5,387.167 640.5,385.5 Z"/></g>
<g><path style="opacity:1" fill="#754584" d="M 66.5,390.5 C 72.5,390.5 78.5,390.5 84.5,390.5C 83.2271,394.865 83.2271,399.199 84.5,403.5C 78.5,403.5 72.5,403.5 66.5,403.5C 66.5,399.167 66.5,394.833 66.5,390.5 Z"/></g>
<g><path style="opacity:1" fill="#754584" d="M 120.5,390.5 C 126.5,390.5 132.5,390.5 138.5,390.5C 136.371,394.687 136.038,399.02 137.5,403.5C 131.833,403.5 126.167,403.5 120.5,403.5C 121.754,399.182 121.754,394.848 120.5,390.5 Z"/></g>
<g><path style="opacity:1" fill="#6a4388" d="M 460.5,390.5 C 509.5,390.5 558.5,390.5 607.5,390.5C 607.5,391.833 607.5,393.167 607.5,394.5C 558.5,394.5 509.5,394.5 460.5,394.5C 460.5,393.167 460.5,391.833 460.5,390.5 Z"/></g>
<g><path style="opacity:1" fill="#6a4388" d="M 640.5,390.5 C 689.5,390.5 738.5,390.5 787.5,390.5C 787.5,391.833 787.5,393.167 787.5,394.5C 738.5,394.5 689.5,394.5 640.5,394.5C 640.5,393.167 640.5,391.833 640.5,390.5 Z"/></g>
<g><path style="opacity:1" fill="#774584" d="M 460.5,394.5 C 509.5,394.5 558.5,394.5 607.5,394.5C 607.5,395.833 607.5,397.167 607.5,398.5C 558.5,398.5 509.5,398.5 460.5,398.5C 460.5,397.167 460.5,395.833 460.5,394.5 Z"/></g>
<g><path style="opacity:1" fill="#774584" d="M 640.5,394.5 C 689.5,394.5 738.5,394.5 787.5,394.5C 787.5,395.833 787.5,397.167 787.5,398.5C 738.5,398.5 689.5,398.5 640.5,398.5C 640.5,397.167 640.5,395.833 640.5,394.5 Z"/></g>
<g><path style="opacity:1" fill="#804681" d="M 460.5,398.5 C 509.5,398.5 558.5,398.5 607.5,398.5C 607.5,399.5 607.5,400.5 607.5,401.5C 558.5,401.5 509.5,401.5 460.5,401.5C 460.5,400.5 460.5,399.5 460.5,398.5 Z"/></g>
<g><path style="opacity:1" fill="#804681" d="M 640.5,398.5 C 689.5,398.5 738.5,398.5 787.5,398.5C 787.5,399.5 787.5,400.5 787.5,401.5C 738.5,401.5 689.5,401.5 640.5,401.5C 640.5,400.5 640.5,399.5 640.5,398.5 Z"/></g>
<g><path style="opacity:1" fill="#774583" d="M 173.5,390.5 C 179.833,390.5 186.167,390.5 192.5,390.5C 191.167,394.833 191.167,399.167 192.5,403.5C 186.167,403.5 179.833,403.5 173.5,403.5C 174.833,399.167 174.833,394.833 173.5,390.5 Z"/></g>
<g><path style="opacity:1" fill="#8f477b" d="M 460.5,401.5 C 509.5,401.5 558.5,401.5 607.5,401.5C 607.5,403.167 607.5,404.833 607.5,406.5C 558.5,406.5 509.5,406.5 460.5,406.5C 460.5,404.833 460.5,403.167 460.5,401.5 Z"/></g>
<g><path style="opacity:1" fill="#8f477b" d="M 640.5,401.5 C 689.5,401.5 738.5,401.5 787.5,401.5C 787.5,403.167 787.5,404.833 787.5,406.5C 738.5,406.5 689.5,406.5 640.5,406.5C 640.5,404.833 640.5,403.167 640.5,401.5 Z"/></g>
<g><path style="opacity:1" fill="#9e4975" d="M 460.5,406.5 C 509.5,406.5 558.5,406.5 607.5,406.5C 607.5,407.833 607.5,409.167 607.5,410.5C 558.5,410.5 509.5,410.5 460.5,410.5C 460.5,409.167 460.5,407.833 460.5,406.5 Z"/></g>
<g><path style="opacity:1" fill="#9e4975" d="M 640.5,406.5 C 689.5,406.5 738.5,406.5 787.5,406.5C 787.5,407.833 787.5,409.167 787.5,410.5C 738.5,410.5 689.5,410.5 640.5,410.5C 640.5,409.167 640.5,407.833 640.5,406.5 Z"/></g>
<g><path style="opacity:1" fill="#a94870" d="M 460.5,410.5 C 509.5,410.5 558.5,410.5 607.5,410.5C 607.5,411.5 607.5,412.5 607.5,413.5C 558.5,413.5 509.5,413.5 460.5,413.5C 460.5,412.5 460.5,411.5 460.5,410.5 Z"/></g>
<g><path style="opacity:1" fill="#a94870" d="M 640.5,410.5 C 689.5,410.5 738.5,410.5 787.5,410.5C 787.5,411.5 787.5,412.5 787.5,413.5C 738.5,413.5 689.5,413.5 640.5,413.5C 640.5,412.5 640.5,411.5 640.5,410.5 Z"/></g>
<g><path style="opacity:1" fill="#86477d" d="M 65.5,384.5 C 66.4614,386.265 66.7947,388.265 66.5,390.5C 66.5,394.833 66.5,399.167 66.5,403.5C 72.5,403.5 78.5,403.5 84.5,403.5C 85.8184,407.332 88.1517,410.499 91.5,413C 104.301,419.219 113.967,416.053 120.5,403.5C 126.167,403.5 131.833,403.5 137.5,403.5C 139.248,406.431 141.248,409.264 143.5,412C 157.042,419.415 167.042,416.582 173.5,403.5C 179.833,403.5 186.167,403.5 192.5,403.5C 195.373,408.867 199.706,412.7 205.5,415C 218.829,415.5 232.163,415.667 245.5,415.5C 245.5,417.167 245.5,418.833 245.5,420.5C 185.905,419.504 126.238,419.171 66.5,419.5C 66.7373,420.791 66.404,421.791 65.5,422.5C 65.5,409.833 65.5,397.167 65.5,384.5 Z"/></g>
<g><path style="opacity:1" fill="#b6476a" d="M 460.5,413.5 C 509.5,413.5 558.5,413.5 607.5,413.5C 607.5,414.833 607.5,416.167 607.5,417.5C 558.5,417.5 509.5,417.5 460.5,417.5C 460.5,416.167 460.5,414.833 460.5,413.5 Z"/></g>
<g><path style="opacity:1" fill="#b6476a" d="M 640.5,413.5 C 689.5,413.5 738.5,413.5 787.5,413.5C 787.5,414.833 787.5,416.167 787.5,417.5C 738.5,417.5 689.5,417.5 640.5,417.5C 640.5,416.167 640.5,414.833 640.5,413.5 Z"/></g>
<g><path style="opacity:1" fill="#c34664" d="M 460.5,417.5 C 509.5,417.5 558.5,417.5 607.5,417.5C 607.5,418.833 607.5,420.167 607.5,421.5C 558.5,421.5 509.5,421.5 460.5,421.5C 460.5,420.167 460.5,418.833 460.5,417.5 Z"/></g>
<g><path style="opacity:1" fill="#c34664" d="M 640.5,417.5 C 689.5,417.5 738.5,417.5 787.5,417.5C 787.5,418.833 787.5,420.167 787.5,421.5C 738.5,421.5 689.5,421.5 640.5,421.5C 640.5,420.167 640.5,418.833 640.5,417.5 Z"/></g>
<g><path style="opacity:1" fill="#91477a" d="M 245.5,420.5 C 245.5,424.5 245.5,428.5 245.5,432.5C 245.167,432.5 244.833,432.5 244.5,432.5C 244.5,431.167 244.5,429.833 244.5,428.5C 185.167,428.5 125.833,428.5 66.5,428.5C 66.5,430.5 66.5,432.5 66.5,434.5C 66.5,435.5 66.5,436.5 66.5,437.5C 66.1667,437.5 65.8333,437.5 65.5,437.5C 65.5,432.5 65.5,427.5 65.5,422.5C 66.404,421.791 66.7373,420.791 66.5,419.5C 126.238,419.171 185.905,419.504 245.5,420.5 Z"/></g>
<g><path style="opacity:1" fill="#d1435c" d="M 460.5,421.5 C 509.5,421.5 558.5,421.5 607.5,421.5C 607.5,423.5 607.5,425.5 607.5,427.5C 558.5,427.5 509.5,427.5 460.5,427.5C 460.5,425.5 460.5,423.5 460.5,421.5 Z"/></g>
<g><path style="opacity:1" fill="#d1435c" d="M 640.5,421.5 C 689.5,421.5 738.5,421.5 787.5,421.5C 787.5,423.5 787.5,425.5 787.5,427.5C 738.5,427.5 689.5,427.5 640.5,427.5C 640.5,425.5 640.5,423.5 640.5,421.5 Z"/></g>
<g><path style="opacity:1" fill="#dd4055" d="M 460.5,427.5 C 509.5,427.5 558.5,427.5 607.5,427.5C 607.5,428.5 607.5,429.5 607.5,430.5C 558.5,430.5 509.5,430.5 460.5,430.5C 460.5,429.5 460.5,428.5 460.5,427.5 Z"/></g>
<g><path style="opacity:1" fill="#dd4055" d="M 640.5,427.5 C 689.5,427.5 738.5,427.5 787.5,427.5C 787.5,428.5 787.5,429.5 787.5,430.5C 738.5,430.5 689.5,430.5 640.5,430.5C 640.5,429.5 640.5,428.5 640.5,427.5 Z"/></g>
<g><path style="opacity:1" fill="#984877" d="M 244.5,432.5 C 185.509,434.496 126.176,435.163 66.5,434.5C 66.5,432.5 66.5,430.5 66.5,428.5C 125.833,428.5 185.167,428.5 244.5,428.5C 244.5,429.833 244.5,431.167 244.5,432.5 Z"/></g>
<g><path style="opacity:1" fill="#e43e51" d="M 460.5,430.5 C 509.5,430.5 558.5,430.5 607.5,430.5C 607.737,431.791 607.404,432.791 606.5,433.5C 558.167,433.5 509.833,433.5 461.5,433.5C 460.596,432.791 460.263,431.791 460.5,430.5 Z"/></g>
<g><path style="opacity:1" fill="#e43e51" d="M 640.5,430.5 C 689.5,430.5 738.5,430.5 787.5,430.5C 787.737,431.791 787.404,432.791 786.5,433.5C 738.167,433.5 689.833,433.5 641.5,433.5C 640.596,432.791 640.263,431.791 640.5,430.5 Z"/></g>
<g><path style="opacity:1" fill="#e83c4d" d="M 461.5,433.5 C 509.833,433.5 558.167,433.5 606.5,433.5C 606.423,434.75 605.756,435.583 604.5,436C 557.5,436.667 510.5,436.667 463.5,436C 462.244,435.583 461.577,434.75 461.5,433.5 Z"/></g>
<g><path style="opacity:1" fill="#e83c4d" d="M 641.5,433.5 C 689.833,433.5 738.167,433.5 786.5,433.5C 786.423,434.75 785.756,435.583 784.5,436C 737.5,436.667 690.5,436.667 643.5,436C 642.244,435.583 641.577,434.75 641.5,433.5 Z"/></g>
<g><path style="opacity:1" fill="#9e4874" d="M 244.5,432.5 C 244.833,432.5 245.167,432.5 245.5,432.5C 245.5,436.5 245.5,440.5 245.5,444.5C 244.596,443.791 244.263,442.791 244.5,441.5C 185.167,441.5 125.833,441.5 66.5,441.5C 66.5,440.167 66.5,438.833 66.5,437.5C 66.5,436.5 66.5,435.5 66.5,434.5C 126.176,435.163 185.509,434.496 244.5,432.5 Z"/></g>
<g><path style="opacity:1" fill="#a3476f" d="M 65.5,437.5 C 65.8333,437.5 66.1667,437.5 66.5,437.5C 66.5,438.833 66.5,440.167 66.5,441.5C 125.833,441.5 185.167,441.5 244.5,441.5C 244.263,442.791 244.596,443.791 245.5,444.5C 245.5,447.167 245.5,449.833 245.5,452.5C 232.167,452.5 218.833,452.5 205.5,452.5C 218.323,451.505 231.323,451.171 244.5,451.5C 244.5,450.5 244.5,449.5 244.5,448.5C 185.167,448.5 125.833,448.5 66.5,448.5C 66.5,452.167 66.5,455.833 66.5,459.5C 66.1667,459.5 65.8333,459.5 65.5,459.5C 65.5,452.167 65.5,444.833 65.5,437.5 Z"/></g>
<g><path style="opacity:1" fill="#af476d" d="M 205.5,452.5 C 198.87,454.799 194.203,459.133 191.5,465.5C 185.5,465.5 179.5,465.5 173.5,465.5C 168.013,451.915 158.68,448.082 145.5,454C 141.418,456.905 138.751,460.738 137.5,465.5C 132.167,465.5 126.833,465.5 121.5,465.5C 115.424,452.312 105.757,448.479 92.5,454C 89.9774,455.36 87.9774,457.193 86.5,459.5C 79.8333,459.5 73.1667,459.5 66.5,459.5C 66.5,455.833 66.5,452.167 66.5,448.5C 125.833,448.5 185.167,448.5 244.5,448.5C 244.5,449.5 244.5,450.5 244.5,451.5C 231.323,451.171 218.323,451.505 205.5,452.5 Z"/></g>
<g><path style="opacity:1" fill="#b00000" d="M 121.5,465.5 C 122.119,472.981 119.786,479.315 114.5,484.5C 106.205,491.017 97.8716,491.017 89.5,484.5C 86.1529,480.805 84.1529,476.472 83.5,471.5C 83.0305,467.095 84.0305,463.095 86.5,459.5C 87.9774,457.193 89.9774,455.36 92.5,454C 105.757,448.479 115.424,452.312 121.5,465.5 Z"/></g>
<g><path style="opacity:1" fill="#b00000" d="M 173.5,465.5 C 174.368,469.864 174.035,474.197 172.5,478.5C 164.666,489.878 154.999,491.878 143.5,484.5C 137.943,479.267 135.943,472.934 137.5,465.5C 138.751,460.738 141.418,456.905 145.5,454C 158.68,448.082 168.013,451.915 173.5,465.5 Z"/></g>
<g><path style="opacity:1" fill="#b94564" d="M 65.5,459.5 C 65.8333,459.5 66.1667,459.5 66.5,459.5C 73.1667,459.5 79.8333,459.5 86.5,459.5C 84.0305,463.095 83.0305,467.095 83.5,471.5C 77.8333,471.5 72.1667,471.5 66.5,471.5C 66.5,475.833 66.5,480.167 66.5,484.5C 66.5,487.5 66.5,490.5 66.5,493.5C 66.5,493.833 66.5,494.167 66.5,494.5C 66.1667,494.5 65.8333,494.5 65.5,494.5C 65.5,482.833 65.5,471.167 65.5,459.5 Z"/></g>
<g><path style="opacity:1" fill="#3f2f74" d="M 695.5,489.5 C 695.5,488.5 695.5,487.5 695.5,486.5C 695.5,485.167 695.5,483.833 695.5,482.5C 695.5,480.833 695.5,479.167 695.5,477.5C 695.5,475.5 695.5,473.5 695.5,471.5C 648.167,471.5 600.833,471.5 553.5,471.5C 553.5,473.5 553.5,475.5 553.5,477.5C 553.5,479.167 553.5,480.833 553.5,482.5C 553.5,483.833 553.5,485.167 553.5,486.5C 553.5,486.833 553.5,487.167 553.5,487.5C 553.167,487.5 552.833,487.5 552.5,487.5C 552.5,481.833 552.5,476.167 552.5,470.5C 600.5,470.5 648.5,470.5 696.5,470.5C 696.823,477.022 696.49,483.355 695.5,489.5 Z"/></g>
<g><path style="opacity:1" fill="#4c2e5d" d="M 732.5,471.5 C 774.33,470.501 816.33,470.168 858.5,470.5C 858.823,476.69 858.49,482.69 857.5,488.5C 857.5,487.833 857.5,487.167 857.5,486.5C 857.5,484.833 857.5,483.167 857.5,481.5C 857.5,479.833 857.5,478.167 857.5,476.5C 857.5,474.833 857.5,473.167 857.5,471.5C 815.833,471.5 774.167,471.5 732.5,471.5 Z"/></g>
<g><path style="opacity:1" fill="#c24664" d="M 173.5,465.5 C 179.5,465.5 185.5,465.5 191.5,465.5C 191.15,470.031 191.817,474.364 193.5,478.5C 186.5,478.5 179.5,478.5 172.5,478.5C 174.035,474.197 174.368,469.864 173.5,465.5 Z"/></g>
<g><path style="opacity:1" fill="#754484" d="M 732.5,471.5 C 774.167,471.5 815.833,471.5 857.5,471.5C 857.5,473.167 857.5,474.833 857.5,476.5C 815.614,475.848 773.947,476.514 732.5,478.5C 732.5,476.167 732.5,473.833 732.5,471.5 Z"/></g>
<g><path style="opacity:1" fill="#523c8f" d="M 527.5,477.5 C 478.5,477.5 429.5,477.5 380.5,477.5C 380.085,474.632 381.085,472.465 383.5,471C 430.5,470.333 477.5,470.333 524.5,471C 526.915,472.465 527.915,474.632 527.5,477.5 Z"/></g>
<g><path style="opacity:1" fill="#533d8f" d="M 695.5,477.5 C 648.167,477.5 600.833,477.5 553.5,477.5C 553.5,475.5 553.5,473.5 553.5,471.5C 600.833,471.5 648.167,471.5 695.5,471.5C 695.5,473.5 695.5,475.5 695.5,477.5 Z"/></g>
<g><path style="opacity:1" fill="#5c408c" d="M 380.5,477.5 C 429.5,477.5 478.5,477.5 527.5,477.5C 527.5,479.167 527.5,480.833 527.5,482.5C 478.5,482.5 429.5,482.5 380.5,482.5C 380.5,480.833 380.5,479.167 380.5,477.5 Z"/></g>
<g><path style="opacity:1" fill="#5c408c" d="M 553.5,477.5 C 600.833,477.5 648.167,477.5 695.5,477.5C 695.5,479.167 695.5,480.833 695.5,482.5C 648.167,482.5 600.833,482.5 553.5,482.5C 553.5,480.833 553.5,479.167 553.5,477.5 Z"/></g>
<g><path style="opacity:1" fill="#c84561" d="M 83.5,471.5 C 84.1529,476.472 86.1529,480.805 89.5,484.5C 81.8333,484.5 74.1667,484.5 66.5,484.5C 66.5,480.167 66.5,475.833 66.5,471.5C 72.1667,471.5 77.8333,471.5 83.5,471.5 Z"/></g>
<g><path style="opacity:1" fill="#c74562" d="M 121.5,465.5 C 126.833,465.5 132.167,465.5 137.5,465.5C 135.943,472.934 137.943,479.267 143.5,484.5C 133.833,484.5 124.167,484.5 114.5,484.5C 119.786,479.315 122.119,472.981 121.5,465.5 Z"/></g>
<g><path style="opacity:1" fill="#85477e" d="M 857.5,476.5 C 857.5,478.167 857.5,479.833 857.5,481.5C 815.833,481.5 774.167,481.5 732.5,481.5C 732.5,480.5 732.5,479.5 732.5,478.5C 773.947,476.514 815.614,475.848 857.5,476.5 Z"/></g>
<g><path style="opacity:1" fill="#6a4388" d="M 380.5,482.5 C 429.5,482.5 478.5,482.5 527.5,482.5C 527.5,483.833 527.5,485.167 527.5,486.5C 478.5,486.5 429.5,486.5 380.5,486.5C 380.5,485.167 380.5,483.833 380.5,482.5 Z"/></g>
<g><path style="opacity:1" fill="#6a4388" d="M 553.5,482.5 C 600.833,482.5 648.167,482.5 695.5,482.5C 695.5,483.833 695.5,485.167 695.5,486.5C 648.167,486.5 600.833,486.5 553.5,486.5C 553.5,485.167 553.5,483.833 553.5,482.5 Z"/></g>
<g><path style="opacity:1" fill="#964878" d="M 732.5,481.5 C 774.167,481.5 815.833,481.5 857.5,481.5C 857.5,483.167 857.5,484.833 857.5,486.5C 815.761,486.173 774.094,486.506 732.5,487.5C 732.5,485.5 732.5,483.5 732.5,481.5 Z"/></g>
<g><path style="opacity:1" fill="#a04874" d="M 857.5,486.5 C 857.5,487.167 857.5,487.833 857.5,488.5C 815.663,488.832 773.997,488.499 732.5,487.5C 774.094,486.506 815.761,486.173 857.5,486.5 Z"/></g>
<g><path style="opacity:1" fill="#cf425c" d="M 172.5,478.5 C 179.5,478.5 186.5,478.5 193.5,478.5C 196.098,482.585 199.765,485.418 204.5,487C 218.163,487.5 231.829,487.667 245.5,487.5C 245.5,491.833 245.5,496.167 245.5,500.5C 245.167,500.5 244.833,500.5 244.5,500.5C 244.5,498.167 244.5,495.833 244.5,493.5C 185.167,493.5 125.833,493.5 66.5,493.5C 66.5,490.5 66.5,487.5 66.5,484.5C 74.1667,484.5 81.8333,484.5 89.5,484.5C 97.8716,491.017 106.205,491.017 114.5,484.5C 124.167,484.5 133.833,484.5 143.5,484.5C 154.999,491.878 164.666,489.878 172.5,478.5 Z"/></g>
<g><path style="opacity:1" fill="#774584" d="M 380.5,486.5 C 429.5,486.5 478.5,486.5 527.5,486.5C 527.5,487.833 527.5,489.167 527.5,490.5C 478.5,490.5 429.5,490.5 380.5,490.5C 380.5,489.167 380.5,487.833 380.5,486.5 Z"/></g>
<g><path style="opacity:1" fill="#794582" d="M 553.5,486.5 C 600.833,486.5 648.167,486.5 695.5,486.5C 695.5,487.5 695.5,488.5 695.5,489.5C 688.145,489.78 681.145,491.446 674.5,494.5C 634.337,493.501 594.003,493.168 553.5,493.5C 553.5,491.5 553.5,489.5 553.5,487.5C 553.5,487.167 553.5,486.833 553.5,486.5 Z"/></g>
<g><path style="opacity:1" fill="#804681" d="M 380.5,490.5 C 429.5,490.5 478.5,490.5 527.5,490.5C 527.5,491.5 527.5,492.5 527.5,493.5C 478.5,493.5 429.5,493.5 380.5,493.5C 380.5,492.5 380.5,491.5 380.5,490.5 Z"/></g>
<g><path style="opacity:1" fill="#d74259" d="M 66.5,493.5 C 125.833,493.5 185.167,493.5 244.5,493.5C 244.5,495.833 244.5,498.167 244.5,500.5C 185.167,500.5 125.833,500.5 66.5,500.5C 66.5,498.5 66.5,496.5 66.5,494.5C 66.5,494.167 66.5,493.833 66.5,493.5 Z"/></g>
<g><path style="opacity:1" fill="#8f477b" d="M 380.5,493.5 C 429.5,493.5 478.5,493.5 527.5,493.5C 527.5,495.167 527.5,496.833 527.5,498.5C 478.5,498.5 429.5,498.5 380.5,498.5C 380.5,496.833 380.5,495.167 380.5,493.5 Z"/></g>
<g><path style="opacity:1" fill="#8e477a" d="M 553.5,493.5 C 594.003,493.168 634.337,493.501 674.5,494.5C 670.714,495.893 667.048,497.559 663.5,499.5C 627.004,498.502 590.337,498.168 553.5,498.5C 553.5,496.833 553.5,495.167 553.5,493.5 Z"/></g>
<g><path style="opacity:1" fill="#dd4055" d="M 66.5,500.5 C 125.833,500.5 185.167,500.5 244.5,500.5C 244.833,500.5 245.167,500.5 245.5,500.5C 245.5,507.5 245.5,514.5 245.5,521.5C 244.527,519.052 244.194,516.385 244.5,513.5C 244.5,511.833 244.5,510.167 244.5,508.5C 185.167,508.5 125.833,508.5 66.5,508.5C 66.5,505.833 66.5,503.167 66.5,500.5 Z"/></g>
<g><path style="opacity:1" fill="#9e4975" d="M 380.5,498.5 C 429.5,498.5 478.5,498.5 527.5,498.5C 527.5,499.833 527.5,501.167 527.5,502.5C 478.5,502.5 429.5,502.5 380.5,502.5C 380.5,501.167 380.5,499.833 380.5,498.5 Z"/></g>
<g><path style="opacity:1" fill="#994671" d="M 552.5,487.5 C 552.833,487.5 553.167,487.5 553.5,487.5C 553.5,489.5 553.5,491.5 553.5,493.5C 553.5,495.167 553.5,496.833 553.5,498.5C 590.337,498.168 627.004,498.502 663.5,499.5C 661.33,501.086 658.996,502.42 656.5,503.5C 622.337,502.502 588.004,502.168 553.5,502.5C 553.5,503.5 553.5,504.5 553.5,505.5C 553.5,506.833 553.5,508.167 553.5,509.5C 553.5,510.833 553.5,512.167 553.5,513.5C 553.5,514.833 553.5,516.167 553.5,517.5C 553.5,519.5 553.5,521.5 553.5,523.5C 552.505,511.678 552.172,499.678 552.5,487.5 Z"/></g>
<g><path style="opacity:1" fill="#a94870" d="M 380.5,502.5 C 429.5,502.5 478.5,502.5 527.5,502.5C 527.5,503.5 527.5,504.5 527.5,505.5C 478.5,505.5 429.5,505.5 380.5,505.5C 380.5,504.5 380.5,503.5 380.5,502.5 Z"/></g>
<g><path style="opacity:1" fill="#a84870" d="M 656.5,503.5 C 655.205,504.488 653.872,505.488 652.5,506.5C 619.671,505.502 586.671,505.168 553.5,505.5C 553.5,504.5 553.5,503.5 553.5,502.5C 588.004,502.168 622.337,502.502 656.5,503.5 Z"/></g>
<g><path style="opacity:1" fill="#e23f52" d="M 66.5,508.5 C 125.833,508.5 185.167,508.5 244.5,508.5C 244.5,510.167 244.5,511.833 244.5,513.5C 185.167,513.5 125.833,513.5 66.5,513.5C 66.5,511.833 66.5,510.167 66.5,508.5 Z"/></g>
<g><path style="opacity:1" fill="#b6476a" d="M 380.5,505.5 C 429.5,505.5 478.5,505.5 527.5,505.5C 527.5,506.833 527.5,508.167 527.5,509.5C 478.5,509.5 429.5,509.5 380.5,509.5C 380.5,508.167 380.5,506.833 380.5,505.5 Z"/></g>
<g><path style="opacity:1" fill="#b6476a" d="M 553.5,505.5 C 586.671,505.168 619.671,505.502 652.5,506.5C 650.858,507.803 649.191,509.136 647.5,510.5C 616.338,509.502 585.004,509.168 553.5,509.5C 553.5,508.167 553.5,506.833 553.5,505.5 Z"/></g>
<g><path style="opacity:1" fill="#c34664" d="M 380.5,509.5 C 429.5,509.5 478.5,509.5 527.5,509.5C 527.5,510.833 527.5,512.167 527.5,513.5C 478.5,513.5 429.5,513.5 380.5,513.5C 380.5,512.167 380.5,510.833 380.5,509.5 Z"/></g>
<g><path style="opacity:1" fill="#c34664" d="M 553.5,509.5 C 585.004,509.168 616.338,509.502 647.5,510.5C 646.055,512.063 644.389,513.396 642.5,514.5C 613.005,513.502 583.338,513.169 553.5,513.5C 553.5,512.167 553.5,510.833 553.5,509.5 Z"/></g>
<g><path style="opacity:1" fill="#e63d4f" d="M 66.5,513.5 C 125.833,513.5 185.167,513.5 244.5,513.5C 244.194,516.385 244.527,519.052 245.5,521.5C 245.5,521.833 245.5,522.167 245.5,522.5C 185.833,522.5 126.167,522.5 66.5,522.5C 66.5,519.5 66.5,516.5 66.5,513.5 Z"/></g>
<g><path style="opacity:1" fill="#d1435c" d="M 380.5,513.5 C 429.5,513.5 478.5,513.5 527.5,513.5C 527.5,515.5 527.5,517.5 527.5,519.5C 478.5,519.5 429.5,519.5 380.5,519.5C 380.5,517.5 380.5,515.5 380.5,513.5 Z"/></g>
<g><path style="opacity:1" fill="#cf435d" d="M 553.5,513.5 C 583.338,513.169 613.005,513.502 642.5,514.5C 641.5,516.167 640.167,517.5 638.5,518.5C 610.338,517.502 582.005,517.169 553.5,517.5C 553.5,516.167 553.5,514.833 553.5,513.5 Z"/></g>
<g><path style="opacity:1" fill="#dd4055" d="M 380.5,519.5 C 429.5,519.5 478.5,519.5 527.5,519.5C 527.5,520.5 527.5,521.5 527.5,522.5C 478.5,522.5 429.5,522.5 380.5,522.5C 380.5,521.5 380.5,520.5 380.5,519.5 Z"/></g>
<g><path style="opacity:1" fill="#d53f54" d="M 553.5,517.5 C 582.005,517.169 610.338,517.502 638.5,518.5C 637.71,519.794 636.71,520.961 635.5,522C 608.178,523.115 580.844,523.615 553.5,523.5C 553.5,521.5 553.5,519.5 553.5,517.5 Z"/></g>
<g><path style="opacity:1" fill="#c63443" d="M 65.5,494.5 C 65.8333,494.5 66.1667,494.5 66.5,494.5C 66.5,496.5 66.5,498.5 66.5,500.5C 66.5,503.167 66.5,505.833 66.5,508.5C 66.5,510.167 66.5,511.833 66.5,513.5C 66.5,516.5 66.5,519.5 66.5,522.5C 126.167,522.5 185.833,522.5 245.5,522.5C 185.669,523.499 125.669,523.832 65.5,523.5C 65.5,513.833 65.5,504.167 65.5,494.5 Z"/></g>
<g><path style="opacity:1" fill="#e43e51" d="M 380.5,522.5 C 429.5,522.5 478.5,522.5 527.5,522.5C 527.737,523.791 527.404,524.791 526.5,525.5C 478.167,525.5 429.833,525.5 381.5,525.5C 380.596,524.791 380.263,523.791 380.5,522.5 Z"/></g>
<g><path style="opacity:1" fill="#600e22" d="M 877.5,525.5 C 898.337,524.172 919.337,524.172 940.5,525.5C 940.376,526.107 940.043,526.44 939.5,526.5C 919.007,525.503 898.34,525.169 877.5,525.5 Z"/></g>
<g><path style="opacity:1" fill="#e83c4d" d="M 381.5,525.5 C 429.833,525.5 478.167,525.5 526.5,525.5C 526.423,526.75 525.756,527.583 524.5,528C 477.5,528.667 430.5,528.667 383.5,528C 382.244,527.583 381.577,526.75 381.5,525.5 Z"/></g>
<g><path style="opacity:1" fill="#b00000" d="M 877.5,525.5 C 898.34,525.169 919.007,525.503 939.5,526.5C 901.263,591.304 862.763,655.971 824,720.5C 815.565,730.136 805.065,736.302 792.5,739C 589.833,739.667 387.167,739.667 184.5,739C 172.615,736.105 162.448,730.272 154,721.5C 122.236,668.304 90.7365,614.971 59.5,561.5C 255.5,560.833 451.5,560.167 647.5,559.5C 653.667,557.507 658.167,553.507 661,547.5C 669.585,537.463 680.085,530.296 692.5,526C 754.166,525.5 815.832,525.333 877.5,525.5 Z"/></g>
<g><path style="opacity:1" fill="#a8050b" d="M 647.5,559.5 C 451.5,560.167 255.5,560.833 59.5,561.5C 58.9569,561.44 58.6236,561.107 58.5,560.5C 254.832,559.5 451.166,559.167 647.5,559.5 Z"/></g>
<g><path style="opacity:1" fill="#000000" d="M 277.5,595.5 C 294.198,595.565 301.698,603.898 300,620.5C 294.194,632.659 285.027,636.159 272.5,631C 263.542,623.798 261.375,614.965 266,604.5C 269.161,600.491 272.994,597.491 277.5,595.5 Z"/></g>
<g><path style="opacity:1" fill="#000000" d="M 350.5,595.5 C 365.494,595.329 372.994,602.662 373,617.5C 367.813,632.508 357.98,636.675 343.5,630C 335.175,622.997 333.341,614.497 338,604.5C 341.299,600.118 345.466,597.118 350.5,595.5 Z"/></g>
<g><path style="opacity:1" fill="#000000" d="M 422.5,595.5 C 433.468,594.728 440.968,599.395 445,609.5C 446.576,620.85 442.076,628.683 431.5,633C 415.506,634.006 407.673,626.506 408,610.5C 410.351,602.984 415.184,597.984 422.5,595.5 Z"/></g>
<g><path style="opacity:1" fill="#000000" d="M 494.5,595.5 C 511.212,595.608 518.712,603.941 517,620.5C 510.377,633.485 500.544,636.652 487.5,630C 477.758,620.957 477.091,611.291 485.5,601C 488.263,598.626 491.263,596.792 494.5,595.5 Z"/></g>
<g><path style="opacity:1" fill="#000000" d="M 566.5,595.5 C 584.278,595.437 591.778,604.103 589,621.5C 580.496,634.964 569.829,636.964 557,627.5C 548.751,613.414 551.918,602.748 566.5,595.5 Z"/></g>
<g><path style="opacity:1" fill="#000000" d="M 639.5,595.5 C 655.027,595.525 662.527,603.192 662,618.5C 656.219,632.76 646.386,636.593 632.5,630C 621.912,619.69 621.912,609.357 632.5,599C 634.925,597.787 637.259,596.621 639.5,595.5 Z"/></g>
</svg>
