<?xml version="1.0" encoding="UTF-8"?>
<!DOCTYPE svg PUBLIC "-//W3C//DTD SVG 1.1//EN" "http://www.w3.org/Graphics/SVG/1.1/DTD/svg11.dtd">
<svg xmlns="http://www.w3.org/2000/svg" version="1.1" width="1000px" height="1000px" style="shape-rendering:geometricPrecision; text-rendering:geometricPrecision; image-rendering:optimizeQuality; fill-rule:evenodd; clip-rule:evenodd" xmlns:xlink="http://www.w3.org/1999/xlink">
<g><path style="opacity:1" fill="#6a6a6a" d="M 527.5,253.5 C 592.168,253.333 656.834,253.5 721.5,254C 727.492,256.659 731.325,261.159 733,267.5C 733.5,292.831 733.667,318.164 733.5,343.5C 757.169,343.333 780.836,343.5 804.5,344C 813.314,344.805 819.147,349.305 822,357.5C 822.5,382.831 822.667,408.164 822.5,433.5C 841.17,433.333 859.836,433.5 878.5,434C 886.712,435.214 892.212,439.714 895,447.5C 895.5,461.163 895.667,474.829 895.5,488.5C 923.884,488.033 952.217,488.533 980.5,490C 990.114,495.42 993.281,503.587 990,514.5C 944.333,590.5 898.667,666.5 853,742.5C 839.121,759.02 821.621,769.853 800.5,775C 592.5,775.667 384.5,775.667 176.5,775C 155.889,769.953 138.723,759.453 125,743.5C 85.83,679.164 47.1634,614.498 9,549.5C 5.28523,533.056 11.7852,524.056 28.5,522.5C 28.3333,456.499 28.5,390.499 29,324.5C 30.2804,315.886 35.1137,310.386 43.5,308C 118.167,307.333 192.833,307.333 267.5,308C 273.457,309.623 277.957,313.123 281,318.5C 282.49,386.442 282.99,454.442 282.5,522.5C 306.502,522.667 330.502,522.5 354.5,522C 353.34,498.573 353.173,475.073 354,451.5C 355.04,441.46 360.54,435.627 370.5,434C 389.164,433.5 407.83,433.333 426.5,433.5C 426.333,409.164 426.5,384.831 427,360.5C 428.285,350.216 434.118,344.716 444.5,344C 468.498,343.5 492.498,343.333 516.5,343.5C 516.333,317.831 516.5,292.165 517,266.5C 519.093,260.954 522.593,256.621 527.5,253.5 Z"/></g>
<g><path style="opacity:1" fill="#7f7f7f" d="M 554.5,287.5 C 601.501,287.333 648.501,287.5 695.5,288C 696.667,288.5 697.5,289.333 698,290.5C 698.667,307.833 698.667,325.167 698,342.5C 697.5,343.667 696.667,344.5 695.5,345C 648.5,345.667 601.5,345.667 554.5,345C 553.333,344.5 552.5,343.667 552,342.5C 551.333,325.167 551.333,307.833 552,290.5C 552.698,289.309 553.531,288.309 554.5,287.5 Z"/></g>
<g><path style="opacity:1" fill="#7f807f" d="M 66.5,345.5 C 125.833,345.5 185.167,345.5 244.5,345.5C 244.5,356.5 244.5,367.5 244.5,378.5C 231.163,378.333 217.829,378.5 204.5,379C 191.889,385.067 188.389,394.567 194,407.5C 196.989,411.491 200.822,414.324 205.5,416C 218.496,416.5 231.496,416.667 244.5,416.5C 244.5,427.833 244.5,439.167 244.5,450.5C 232.829,450.333 221.162,450.5 209.5,451C 192.212,455.184 187.379,465.35 195,481.5C 197.264,484.433 200.098,486.6 203.5,488C 217.115,489.406 230.782,489.906 244.5,489.5C 244.5,500.5 244.5,511.5 244.5,522.5C 185.167,522.5 125.833,522.5 66.5,522.5C 66.5,463.5 66.5,404.5 66.5,345.5 Z"/></g>
<g><path style="opacity:1" fill="#000000" d="M 97.5,378.5 C 113.472,377.973 121.306,385.64 121,401.5C 116.296,413.268 107.796,417.768 95.5,415C 83.7833,408.852 80.6167,399.685 86,387.5C 89.1584,383.493 92.9918,380.493 97.5,378.5 Z"/></g>
<g><path style="opacity:1" fill="#000000" d="M 150.5,378.5 C 164.156,377.322 172.156,383.489 174.5,397C 173.171,410.29 165.504,416.624 151.5,416C 137.038,409.581 133.538,399.414 141,385.5C 143.825,382.524 146.992,380.191 150.5,378.5 Z"/></g>
<g><path style="opacity:1" fill="#7f7f7f" d="M 463.5,378.5 C 510.501,378.333 557.501,378.5 604.5,379C 605.667,379.5 606.5,380.333 607,381.5C 607.667,398.833 607.667,416.167 607,433.5C 606.5,434.667 605.667,435.5 604.5,436C 557.5,436.667 510.5,436.667 463.5,436C 462.333,435.5 461.5,434.667 461,433.5C 460.333,416.167 460.333,398.833 461,381.5C 461.698,380.309 462.531,379.309 463.5,378.5 Z"/></g>
<g><path style="opacity:1" fill="#7f7f7f" d="M 643.5,378.5 C 690.501,378.333 737.501,378.5 784.5,379C 785.667,379.5 786.5,380.333 787,381.5C 787.667,398.833 787.667,416.167 787,433.5C 786.5,434.667 785.667,435.5 784.5,436C 737.5,436.667 690.5,436.667 643.5,436C 642.333,435.5 641.5,434.667 641,433.5C 640.333,416.167 640.333,398.833 641,381.5C 641.698,380.309 642.531,379.309 643.5,378.5 Z"/></g>
<g><path style="opacity:1" fill="#000000" d="M 102.5,450.5 C 119.626,454.42 124.792,464.42 118,480.5C 108.001,492.087 97.6672,492.421 87,481.5C 79.9494,464.934 85.1161,454.601 102.5,450.5 Z"/></g>
<g><path style="opacity:1" fill="#000000" d="M 155.5,450.5 C 172.091,454.684 177.258,464.684 171,480.5C 160.697,492.294 150.364,492.294 140,480.5C 133.782,464.603 138.949,454.603 155.5,450.5 Z"/></g>
<g><path style="opacity:1" fill="#7f7f7f" d="M 383.5,470.5 C 430.501,470.333 477.501,470.5 524.5,471C 525.667,471.5 526.5,472.333 527,473.5C 527.667,490.833 527.667,508.167 527,525.5C 526.5,526.667 525.667,527.5 524.5,528C 477.5,528.667 430.5,528.667 383.5,528C 382.333,527.5 381.5,526.667 381,525.5C 380.333,508.167 380.333,490.833 381,473.5C 381.698,472.309 382.531,471.309 383.5,470.5 Z"/></g>
<g><path style="opacity:1" fill="#7f7f7f" d="M 553.5,471.5 C 600.833,471.5 648.167,471.5 695.5,471.5C 695.808,477.425 695.475,483.259 694.5,489C 682.96,489.513 672.293,492.847 662.5,499C 652.63,505.198 643.63,512.531 635.5,521C 608.188,522.374 580.855,522.874 553.5,522.5C 553.5,505.5 553.5,488.5 553.5,471.5 Z"/></g>
<g><path style="opacity:1" fill="#7f807f" d="M 733.5,471.5 C 774.833,471.5 816.167,471.5 857.5,471.5C 857.5,477.167 857.5,482.833 857.5,488.5C 816.167,488.5 774.833,488.5 733.5,488.5C 733.5,482.833 733.5,477.167 733.5,471.5 Z"/></g>
<g><path style="opacity:1" fill="#8c8c8a" d="M 702.5,525.5 C 781.19,525.592 859.857,525.759 938.5,526C 900.044,591.082 861.211,655.915 822,720.5C 813.168,729.333 802.668,735.166 790.5,738C 589.167,738.667 387.833,738.667 186.5,738C 172.847,735.096 161.68,728.263 153,717.5C 122.293,665.251 91.4593,613.084 60.5,561C 256.5,560.667 452.5,560.333 648.5,560C 654.841,558.325 659.341,554.492 662,548.5C 669.847,539.312 679.347,532.479 690.5,528C 694.637,527.161 698.637,526.327 702.5,525.5 Z"/></g>
<g><path style="opacity:1" fill="#deded8" d="M 703.5,526.5 C 781.187,526.591 858.853,526.758 936.5,527C 898.377,591.415 859.877,655.582 821,719.5C 812.168,728.333 801.668,734.166 789.5,737C 588.833,737.667 388.167,737.667 187.5,737C 173.847,734.096 162.68,727.263 154,716.5C 123.626,664.918 93.126,613.418 62.5,562C 258.167,561.667 453.833,561.333 649.5,561C 655.841,559.325 660.341,555.492 663,549.5C 670.847,540.312 680.347,533.479 691.5,529C 695.637,528.161 699.637,527.327 703.5,526.5 Z"/></g>
<g><path style="opacity:1" fill="#a18d89" d="M 276.5,594.5 C 295.208,593.909 303.375,602.909 301,621.5C 294.547,634.098 284.714,637.598 271.5,632C 262.267,624.133 260.101,614.633 265,603.5C 268.161,599.491 271.994,596.491 276.5,594.5 Z"/></g>
<g><path style="opacity:1" fill="#a18d89" d="M 349.5,594.5 C 366.491,593.658 374.658,601.658 374,618.5C 370.486,630.848 362.319,636.015 349.5,634C 335.022,628.259 330.855,618.092 337,603.5C 340.299,599.118 344.466,596.118 349.5,594.5 Z"/></g>
<g><path style="opacity:1" fill="#a18d89" d="M 421.5,594.5 C 439.521,594.019 447.688,602.685 446,620.5C 439.171,634.776 428.671,638.276 414.5,631C 403.833,620 403.833,609 414.5,598C 416.925,596.787 419.259,595.621 421.5,594.5 Z"/></g>
<g><path style="opacity:1" fill="#a18d89" d="M 493.5,594.5 C 512.222,593.953 520.389,602.953 518,621.5C 510.73,634.921 500.23,638.088 486.5,631C 476.685,621.283 476.018,610.95 484.5,600C 487.263,597.626 490.263,595.792 493.5,594.5 Z"/></g>
<g><path style="opacity:1" fill="#a18d89" d="M 565.5,594.5 C 586.54,594.267 594.373,604.267 589,624.5C 581.625,634.698 572.125,637.198 560.5,632C 551.513,625.175 549.013,616.342 553,605.5C 556.124,600.536 560.291,596.87 565.5,594.5 Z"/></g>
<g><path style="opacity:1" fill="#a18d89" d="M 638.5,594.5 C 656.03,593.862 664.197,602.195 663,619.5C 658.647,631.431 650.147,636.264 637.5,634C 623.48,627.107 619.98,616.607 627,602.5C 630.15,598.689 633.983,596.023 638.5,594.5 Z"/></g>
<g><path style="opacity:1" fill="#000000" d="M 277.5,595.5 C 294.198,595.565 301.698,603.898 300,620.5C 294.194,632.659 285.027,636.159 272.5,631C 263.542,623.798 261.375,614.965 266,604.5C 269.161,600.491 272.994,597.491 277.5,595.5 Z"/></g>
<g><path style="opacity:1" fill="#000000" d="M 350.5,595.5 C 365.494,595.329 372.994,602.662 373,617.5C 367.813,632.508 357.98,636.675 343.5,630C 335.175,622.997 333.341,614.497 338,604.5C 341.299,600.118 345.466,597.118 350.5,595.5 Z"/></g>
<g><path style="opacity:1" fill="#000000" d="M 422.5,595.5 C 433.468,594.728 440.968,599.395 445,609.5C 446.576,620.85 442.076,628.683 431.5,633C 415.506,634.006 407.673,626.506 408,610.5C 410.351,602.984 415.184,597.984 422.5,595.5 Z"/></g>
<g><path style="opacity:1" fill="#000000" d="M 494.5,595.5 C 511.212,595.608 518.712,603.941 517,620.5C 510.377,633.485 500.544,636.652 487.5,630C 477.758,620.957 477.091,611.291 485.5,601C 488.263,598.626 491.263,596.792 494.5,595.5 Z"/></g>
<g><path style="opacity:1" fill="#000000" d="M 566.5,595.5 C 584.278,595.437 591.778,604.103 589,621.5C 580.496,634.964 569.829,636.964 557,627.5C 548.751,613.414 551.918,602.748 566.5,595.5 Z"/></g>
<g><path style="opacity:1" fill="#000000" d="M 639.5,595.5 C 655.027,595.525 662.527,603.192 662,618.5C 656.219,632.76 646.386,636.593 632.5,630C 621.912,619.69 621.912,609.357 632.5,599C 634.925,597.787 637.259,596.621 639.5,595.5 Z"/></g>
</svg>
